<?xml version="1.0" encoding="UTF-8"?>
<svg width="15px" height="15px" viewBox="0 0 15 15" version="1.1" xmlns="http://www.w3.org/2000/svg" xmlns:xlink="http://www.w3.org/1999/xlink">
    <title>transportation/airplane</title>
    <g id="transportation/airplane" stroke="none" stroke-width="1" fill="none" fill-rule="evenodd">
        <g id="dark" transform="translate(-1.000000, 0.000000)" fill="#000000" fill-rule="nonzero">
            <path d="M5.6875,13.8789062 C5.87792969,13.8789062 6.04296875,13.7963867 6.17626953,13.6503906 L10.4418945,8.99121094 C10.6513672,8.75634766 10.784668,8.69921875 11.1401367,8.69921875 L13.6982422,8.69921875 C14.9106445,8.69921875 15.9199219,8.15332031 15.9262695,7.41699219 C15.9199219,6.67431641 14.9106445,6.13476562 13.6982422,6.13476562 L11.1401367,6.13476562 C10.784668,6.13476562 10.6513672,6.07763672 10.4418945,5.83642578 L6.17626953,1.18359375 C6.04296875,1.03125 5.87792969,0.955078125 5.6875,0.955078125 L4.95117188,0.955078125 C4.78613281,0.955078125 4.69091797,1.10107422 4.7734375,1.27880859 L6.96972656,6.13476562 L3.74511719,6.50292969 L2.59619141,4.39550781 C2.51367188,4.23681641 2.37402344,4.16699219 2.16455078,4.16699219 L1.89160156,4.16699219 C1.7265625,4.16699219 1.61865234,4.27490234 1.61865234,4.43994141 L1.61865234,10.394043 C1.61865234,10.559082 1.7265625,10.6606445 1.89160156,10.6606445 L2.16455078,10.6606445 C2.37402344,10.6606445 2.51367188,10.5908203 2.59619141,10.4384766 L3.74511719,8.33105469 L6.96972656,8.69921875 L4.7734375,13.5551758 C4.69091797,13.7265625 4.78613281,13.8789062 4.95117188,13.8789062 L5.6875,13.8789062 Z" id="solid"></path>
        </g>
        <g id="light" transform="translate(-1.000000, 0.000000)" fill="#000000" fill-rule="nonzero">
            <path d="M5.6875,13.8789062 C5.87792969,13.8789062 6.04296875,13.7963867 6.17626953,13.6503906 L10.4418945,8.99121094 C10.6513672,8.75634766 10.784668,8.69921875 11.1401367,8.69921875 L13.6982422,8.69921875 C14.9106445,8.69921875 15.9199219,8.15332031 15.9262695,7.41699219 C15.9199219,6.67431641 14.9106445,6.13476562 13.6982422,6.13476562 L11.1401367,6.13476562 C10.784668,6.13476562 10.6513672,6.07763672 10.4418945,5.83642578 L6.17626953,1.18359375 C6.04296875,1.03125 5.87792969,0.955078125 5.6875,0.955078125 L4.95117188,0.955078125 C4.78613281,0.955078125 4.69091797,1.10107422 4.7734375,1.27880859 L6.96972656,6.13476562 L3.74511719,6.50292969 L2.59619141,4.39550781 C2.51367188,4.23681641 2.37402344,4.16699219 2.16455078,4.16699219 L1.89160156,4.16699219 C1.7265625,4.16699219 1.61865234,4.27490234 1.61865234,4.43994141 L1.61865234,10.394043 C1.61865234,10.559082 1.7265625,10.6606445 1.89160156,10.6606445 L2.16455078,10.6606445 C2.37402344,10.6606445 2.51367188,10.5908203 2.59619141,10.4384766 L3.74511719,8.33105469 L6.96972656,8.69921875 L4.7734375,13.5551758 C4.69091797,13.7265625 4.78613281,13.8789062 4.95117188,13.8789062 L5.6875,13.8789062 Z" id="solid"></path>
        </g>
    </g>
</svg>