<?xml version="1.0" encoding="UTF-8"?>
<svg width="15px" height="15px" viewBox="0 0 15 15" version="1.1" xmlns="http://www.w3.org/2000/svg" xmlns:xlink="http://www.w3.org/1999/xlink">
    <title>transportation/bicycle</title>
    <g id="transportation/bicycle" stroke="none" stroke-width="1" fill="none" fill-rule="evenodd">
        <g id="dark" transform="translate(-2.000000, 0.000000)" fill="#000000" fill-rule="nonzero">
            <path d="M14.5458984,12.6552734 C16.3330078,12.6552734 17.7783203,11.2050781 17.7783203,9.41796875 C17.7783203,7.62597656 16.3330078,6.18066406 14.5458984,6.18066406 C14.2919922,6.18066406 14.0429688,6.20996094 13.8037109,6.26855469 L12.4121094,2.67480469 C12.3095703,2.40625 12.1142578,2.2890625 11.7871094,2.2890625 L10.2734375,2.2890625 C10.0097656,2.2890625 9.79980469,2.49902344 9.79980469,2.76269531 C9.79980469,3.02148438 10.0097656,3.23144531 10.2734375,3.23144531 L11.5869141,3.23144531 C11.6357422,3.23144531 11.6503906,3.24609375 11.6650391,3.28027344 L12.4121094,5.22363281 L7.60253906,5.22363281 L7.60253906,4.72070312 L8.25683594,4.72070312 C8.515625,4.72070312 8.72558594,4.51074219 8.72558594,4.24707031 C8.72558594,3.98828125 8.51074219,3.77832031 8.25683594,3.77832031 L6.04003906,3.77832031 C5.78125,3.77832031 5.56640625,3.98828125 5.56640625,4.24707031 C5.56640625,4.51074219 5.77636719,4.72070312 6.04003906,4.72070312 L6.68457031,4.72070312 L6.68457031,5.43847656 L5.95703125,6.53222656 C5.51757812,6.30761719 5.01464844,6.18066406 4.48730469,6.18066406 C2.68554688,6.18066406 1.24511719,7.62597656 1.24511719,9.41308594 C1.24511719,11.2050781 2.6953125,12.6503906 4.48730469,12.6503906 C6.08398438,12.6503906 7.41699219,11.4882812 7.67578125,9.95996094 L8.44238281,9.95996094 C8.6328125,10.3164062 9.01367188,10.5605469 9.44824219,10.5605469 C10.0732422,10.5605469 10.5761719,10.0576172 10.5761719,9.4375 C10.5761719,9.22265625 10.5175781,9.02246094 10.4150391,8.8515625 L12.6367188,6.10742188 L12.7490234,6.10742188 L12.9394531,6.60546875 C11.9580078,7.15722656 11.2988281,8.21191406 11.2988281,9.41796875 C11.2988281,11.2050781 12.7490234,12.6552734 14.5458984,12.6552734 Z M9.67773438,8.33398438 C9.60449219,8.31933594 9.52636719,8.30957031 9.44824219,8.30957031 C9.39941406,8.30957031 9.35058594,8.31445312 9.30664062,8.31933594 L8.05664062,6.10742188 L11.4892578,6.10742188 L9.67773438,8.33398438 Z M8.37890625,9.07617188 L7.70507812,9.07617188 C7.62207031,8.28027344 7.25585938,7.57714844 6.70898438,7.05957031 L7.16308594,6.38085938 L8.50097656,8.82226562 C8.44726562,8.90039062 8.40820312,8.98339844 8.37890625,9.07617188 Z M4.48730469,11.6982422 C3.21777344,11.6982422 2.20703125,10.6826172 2.20703125,9.41308594 C2.20703125,8.15332031 3.22265625,7.1328125 4.48730469,7.1328125 C4.81933594,7.1328125 5.13671875,7.20605469 5.41992188,7.33300781 L4.52636719,8.68066406 L4.48730469,8.68066406 L4.48730469,8.68066406 C4.07226562,8.68066406 3.75488281,8.99804688 3.75,9.41308594 C3.74511719,9.82324219 4.06738281,10.1503906 4.48730469,10.1503906 C4.67773438,10.1503906 4.85351562,10.0771484 4.98046875,9.95996094 L6.70410156,9.95996094 C6.45996094,10.9609375 5.56152344,11.6982422 4.48730469,11.6982422 Z M14.5458984,11.6982422 C13.2763672,11.6982422 12.2607422,10.6875 12.2607422,9.41796875 C12.2607422,8.6171875 12.6660156,7.91894531 13.2861328,7.50878906 L13.8867188,9.07617188 C13.8378906,9.17382812 13.8085938,9.29101562 13.8037109,9.41308594 C13.7988281,9.82324219 14.1259766,10.1503906 14.5458984,10.1503906 C14.9560547,10.1503906 15.2783203,9.82324219 15.2783203,9.41796875 C15.2783203,9.07617188 15.0585938,8.79296875 14.7509766,8.70996094 L14.1552734,7.16699219 C14.2822266,7.14746094 14.4140625,7.13769531 14.5458984,7.13769531 C15.8007812,7.13769531 16.8261719,8.16308594 16.8261719,9.41796875 C16.8261719,10.6777344 15.8007812,11.6982422 14.5458984,11.6982422 Z M6.74316406,9.07617188 L5.34667969,9.07617188 L6.16210938,7.86523438 C6.46484375,8.19726562 6.67480469,8.61230469 6.74316406,9.07617188 Z M9.453125,9.77929688 C9.2578125,9.77929688 9.09667969,9.62792969 9.09667969,9.44726562 C9.09667969,9.25195312 9.2578125,9.0859375 9.453125,9.0859375 C9.6484375,9.0859375 9.79980469,9.2421875 9.79980469,9.44726562 C9.79980469,9.6328125 9.6484375,9.77929688 9.453125,9.77929688 Z" id="solid"></path>
        </g>
        <g id="light" transform="translate(-1.000000, 2.000000)" fill="#000000" fill-rule="nonzero">
            <path d="M13.5458984,10.6552734 C15.3330078,10.6552734 16.7783203,9.20507812 16.7783203,7.41796875 C16.7783203,5.62597656 15.3330078,4.18066406 13.5458984,4.18066406 C13.2919922,4.18066406 13.0429688,4.20996094 12.8037109,4.26855469 L11.4121094,0.674804688 C11.3095703,0.40625 11.1142578,0.2890625 10.7871094,0.2890625 L9.2734375,0.2890625 C9.00976562,0.2890625 8.79980469,0.499023438 8.79980469,0.762695312 C8.79980469,1.02148438 9.00976562,1.23144531 9.2734375,1.23144531 L10.5869141,1.23144531 C10.6357422,1.23144531 10.6503906,1.24609375 10.6650391,1.28027344 L11.4121094,3.22363281 L6.60253906,3.22363281 L6.60253906,2.72070312 L7.25683594,2.72070312 C7.515625,2.72070312 7.72558594,2.51074219 7.72558594,2.24707031 C7.72558594,1.98828125 7.51074219,1.77832031 7.25683594,1.77832031 L5.04003906,1.77832031 C4.78125,1.77832031 4.56640625,1.98828125 4.56640625,2.24707031 C4.56640625,2.51074219 4.77636719,2.72070312 5.04003906,2.72070312 L5.68457031,2.72070312 L5.68457031,3.43847656 L4.95703125,4.53222656 C4.51757812,4.30761719 4.01464844,4.18066406 3.48730469,4.18066406 C1.68554688,4.18066406 0.245117188,5.62597656 0.245117188,7.41308594 C0.245117188,9.20507812 1.6953125,10.6503906 3.48730469,10.6503906 C5.08398438,10.6503906 6.41699219,9.48828125 6.67578125,7.95996094 L7.44238281,7.95996094 C7.6328125,8.31640625 8.01367188,8.56054688 8.44824219,8.56054688 C9.07324219,8.56054688 9.57617188,8.05761719 9.57617188,7.4375 C9.57617188,7.22265625 9.51757812,7.02246094 9.41503906,6.8515625 L11.6367188,4.10742188 L11.7490234,4.10742188 L11.9394531,4.60546875 C10.9580078,5.15722656 10.2988281,6.21191406 10.2988281,7.41796875 C10.2988281,9.20507812 11.7490234,10.6552734 13.5458984,10.6552734 Z M8.67773438,6.33398438 C8.60449219,6.31933594 8.52636719,6.30957031 8.44824219,6.30957031 C8.39941406,6.30957031 8.35058594,6.31445312 8.30664062,6.31933594 L7.05664062,4.10742188 L10.4892578,4.10742188 L8.67773438,6.33398438 Z M7.37890625,7.07617188 L6.70507812,7.07617188 C6.62207031,6.28027344 6.25585938,5.57714844 5.70898438,5.05957031 L6.16308594,4.38085938 L7.50097656,6.82226562 C7.44726562,6.90039062 7.40820312,6.98339844 7.37890625,7.07617188 Z M3.48730469,9.69824219 C2.21777344,9.69824219 1.20703125,8.68261719 1.20703125,7.41308594 C1.20703125,6.15332031 2.22265625,5.1328125 3.48730469,5.1328125 C3.81933594,5.1328125 4.13671875,5.20605469 4.41992188,5.33300781 L3.52636719,6.68066406 L3.48730469,6.68066406 L3.48730469,6.68066406 C3.07226562,6.68066406 2.75488281,6.99804688 2.75,7.41308594 C2.74511719,7.82324219 3.06738281,8.15039062 3.48730469,8.15039062 C3.67773438,8.15039062 3.85351562,8.07714844 3.98046875,7.95996094 L5.70410156,7.95996094 C5.45996094,8.9609375 4.56152344,9.69824219 3.48730469,9.69824219 Z M13.5458984,9.69824219 C12.2763672,9.69824219 11.2607422,8.6875 11.2607422,7.41796875 C11.2607422,6.6171875 11.6660156,5.91894531 12.2861328,5.50878906 L12.8867188,7.07617188 C12.8378906,7.17382812 12.8085938,7.29101562 12.8037109,7.41308594 C12.7988281,7.82324219 13.1259766,8.15039062 13.5458984,8.15039062 C13.9560547,8.15039062 14.2783203,7.82324219 14.2783203,7.41796875 C14.2783203,7.07617188 14.0585938,6.79296875 13.7509766,6.70996094 L13.1552734,5.16699219 C13.2822266,5.14746094 13.4140625,5.13769531 13.5458984,5.13769531 C14.8007812,5.13769531 15.8261719,6.16308594 15.8261719,7.41796875 C15.8261719,8.67773438 14.8007812,9.69824219 13.5458984,9.69824219 Z M5.74316406,7.07617188 L4.34667969,7.07617188 L5.16210938,5.86523438 C5.46484375,6.19726562 5.67480469,6.61230469 5.74316406,7.07617188 Z M8.453125,7.77929688 C8.2578125,7.77929688 8.09667969,7.62792969 8.09667969,7.44726562 C8.09667969,7.25195312 8.2578125,7.0859375 8.453125,7.0859375 C8.6484375,7.0859375 8.79980469,7.2421875 8.79980469,7.44726562 C8.79980469,7.6328125 8.6484375,7.77929688 8.453125,7.77929688 Z" id="solid"></path>
        </g>
    </g>
</svg>