<?xml version="1.0" encoding="UTF-8"?>
<svg width="15px" height="15px" viewBox="0 0 15 15" version="1.1" xmlns="http://www.w3.org/2000/svg" xmlns:xlink="http://www.w3.org/1999/xlink">
    <title>transportation/bus</title>
    <g id="transportation/bus" stroke="none" stroke-width="1" fill="none" fill-rule="evenodd">
        <g id="dark" transform="translate(-1.000000, 0.000000)" fill="#000000" fill-rule="nonzero">
            <path d="M4.09423828,14.9453125 C4.5703125,14.9453125 4.93847656,14.5771484 4.93847656,14.1074219 L4.93847656,13.0537109 C6.1953125,13.1425781 7.43945312,13.1870117 8.55664062,13.1870117 C9.67382812,13.1870117 10.9179688,13.1489258 12.1811523,13.0537109 L12.1811523,14.1074219 C12.1811523,14.5771484 12.5429688,14.9453125 13.019043,14.9453125 L13.7680664,14.9453125 C14.2441406,14.9453125 14.6123047,14.5771484 14.6123047,14.1074219 L14.6123047,6.20458984 L14.8916016,6.20458984 C15.2470703,6.20458984 15.4946289,5.98876953 15.4946289,5.65234375 L15.4946289,3.17041016 C15.4946289,2.83398438 15.2470703,2.61181641 14.8916016,2.61181641 L14.6123047,2.61181641 L14.6123047,1.89453125 C14.6123047,1.07568359 14.1298828,0.605957031 13.2729492,0.504394531 C11.9208984,0.345703125 10.1879883,0.263183594 8.55664062,0.263183594 C6.93798828,0.263183594 5.20507812,0.345703125 3.84667969,0.504394531 C2.98339844,0.605957031 2.50732422,1.07568359 2.50732422,1.89453125 L2.50732422,2.61181641 L2.22167969,2.61181641 C1.86621094,2.61181641 1.61865234,2.83398438 1.61865234,3.17041016 L1.61865234,5.65234375 C1.61865234,5.98876953 1.86621094,6.20458984 2.22167969,6.20458984 L2.50732422,6.20458984 L2.50732422,14.1074219 C2.50732422,14.5771484 2.86914062,14.9453125 3.34521484,14.9453125 L4.09423828,14.9453125 Z M4.34814453,8.8515625 C3.92919922,8.78173828 3.71972656,8.546875 3.71972656,8.09619141 L3.71972656,2.45947266 C3.71972656,1.95166016 3.9609375,1.67871094 4.44335938,1.62792969 C7.09033203,1.34863281 10.0419922,1.34863281 12.6826172,1.62792969 C13.1713867,1.67871094 13.3999023,1.95166016 13.3999023,2.45947266 L13.3999023,8.09619141 C13.3999023,8.546875 13.1967773,8.78173828 12.7714844,8.8515625 C10.137207,9.23876953 6.95703125,9.23876953 4.34814453,8.8515625 Z M4.74169922,11.6826172 C4.27197266,11.6826172 3.92285156,11.3271484 3.92285156,10.8637695 C3.92285156,10.394043 4.27197266,10.0449219 4.74169922,10.0449219 C5.21142578,10.0449219 5.56054688,10.394043 5.56054688,10.8637695 C5.56054688,11.3271484 5.21142578,11.6826172 4.74169922,11.6826172 Z M12.371582,11.6826172 C11.9082031,11.6826172 11.559082,11.3271484 11.559082,10.8637695 C11.559082,10.394043 11.9082031,10.0449219 12.371582,10.0449219 C12.8413086,10.0449219 13.1967773,10.394043 13.1967773,10.8637695 C13.1967773,11.3271484 12.8413086,11.6826172 12.371582,11.6826172 Z M9.93408203,11.4033203 L7.17285156,11.4033203 C6.84277344,11.4033203 6.61425781,11.1748047 6.61425781,10.8510742 C6.61425781,10.5209961 6.84277344,10.2988281 7.17285156,10.2988281 L9.93408203,10.2988281 C10.2578125,10.2988281 10.4863281,10.5209961 10.4863281,10.8510742 C10.4863281,11.1748047 10.2578125,11.4033203 9.93408203,11.4033203 Z" id="solid"></path>
        </g>
        <g id="light" transform="translate(-1.000000, 0.000000)" fill="#000000" fill-rule="nonzero">
            <path d="M4.41796875,14.8183594 C4.89404297,14.8183594 5.26220703,14.4501953 5.26220703,13.9804688 L5.26220703,12.9584961 C6.30322266,13.0283203 7.45849609,13.0664062 8.68359375,13.0664062 C9.90869141,13.0664062 11.0639648,13.0283203 12.1113281,12.9584961 L12.1113281,13.9804688 C12.1113281,14.4501953 12.4731445,14.8183594 12.9492188,14.8183594 L13.6982422,14.8183594 C14.1743164,14.8183594 14.5424805,14.4501953 14.5424805,13.9804688 L14.5424805,12.3745117 C14.7519531,12.1459961 14.8662109,11.8349609 14.8662109,11.4350586 L14.8662109,6.07763672 L15.1455078,6.07763672 C15.5009766,6.07763672 15.7485352,5.86181641 15.7485352,5.52539062 L15.7485352,2.91650391 C15.7485352,2.58007812 15.5009766,2.35791016 15.1455078,2.35791016 L14.8662109,2.35791016 L14.8662109,1.640625 C14.8662109,0.821777344 14.3837891,0.352050781 13.5205078,0.250488281 C12.1938477,0.091796875 10.4291992,0.00927734375 8.68359375,0.00927734375 C6.93798828,0.00927734375 5.16699219,0.0981445312 3.84667969,0.250488281 C2.98339844,0.352050781 2.50732422,0.821777344 2.50732422,1.640625 L2.50732422,2.35791016 L2.22167969,2.35791016 C1.86621094,2.35791016 1.61865234,2.58007812 1.61865234,2.91650391 L1.61865234,5.52539062 C1.61865234,5.86181641 1.86621094,6.07763672 2.22167969,6.07763672 L2.50732422,6.07763672 L2.50732422,11.4350586 C2.50732422,11.8349609 2.61523438,12.1459961 2.83105469,12.3745117 L2.83105469,13.9804688 C2.83105469,14.4501953 3.19287109,14.8183594 3.66894531,14.8183594 L4.41796875,14.8183594 Z" id="translucent" opacity="0.35"></path>
            <path d="M4.41796875,14.8183594 C4.89404297,14.8183594 5.26220703,14.4501953 5.26220703,13.9804688 L5.26220703,12.9584961 C6.30322266,13.0283203 7.45849609,13.0664062 8.68359375,13.0664062 C9.90869141,13.0664062 11.0639648,13.0283203 12.1113281,12.9584961 L12.1113281,13.9804688 C12.1113281,14.4501953 12.4731445,14.8183594 12.9492188,14.8183594 L13.6982422,14.8183594 C14.1743164,14.8183594 14.5424805,14.4501953 14.5424805,13.9804688 L14.5424805,12.3745117 C14.7519531,12.1459961 14.8662109,11.8349609 14.8662109,11.4350586 L14.8662109,6.07763672 L15.1455078,6.07763672 C15.5009766,6.07763672 15.7485352,5.86181641 15.7485352,5.52539062 L15.7485352,2.91650391 C15.7485352,2.58007812 15.5009766,2.35791016 15.1455078,2.35791016 L14.8662109,2.35791016 L14.8662109,1.640625 C14.8662109,0.821777344 14.3837891,0.352050781 13.5205078,0.250488281 C12.1938477,0.091796875 10.4291992,0.00927734375 8.68359375,0.00927734375 C6.93798828,0.00927734375 5.16699219,0.0981445312 3.84667969,0.250488281 C2.98339844,0.352050781 2.50732422,0.821777344 2.50732422,1.640625 L2.50732422,2.35791016 L2.22167969,2.35791016 C1.86621094,2.35791016 1.61865234,2.58007812 1.61865234,2.91650391 L1.61865234,5.52539062 C1.61865234,5.86181641 1.86621094,6.07763672 2.22167969,6.07763672 L2.50732422,6.07763672 L2.50732422,11.4350586 C2.50732422,11.8349609 2.61523438,12.1459961 2.83105469,12.3745117 L2.83105469,13.9804688 C2.83105469,14.4501953 3.19287109,14.8183594 3.66894531,14.8183594 L4.41796875,14.8183594 Z M8.68359375,12.2348633 C6.81738281,12.2348633 5.23681641,12.1523438 4.06884766,12.0126953 C3.52929688,11.9492188 3.33886719,11.6699219 3.33886719,11.1811523 L3.33886719,1.89453125 C3.33886719,1.41210938 3.59277344,1.12011719 4.06884766,1.06298828 C5.21142578,0.923339844 6.89990234,0.840820312 8.68359375,0.840820312 C10.4482422,0.840820312 12.1367188,0.923339844 13.2983398,1.06298828 C13.8378906,1.12646484 14.034668,1.40576172 14.034668,1.89453125 L14.034668,11.1811523 C14.034668,11.6699219 13.8378906,11.9492188 13.2983398,12.0126953 C12.1113281,12.1523438 10.5307617,12.2348633 8.68359375,12.2348633 Z M12.796875,8.67382812 C13.1967773,8.60400391 13.387207,8.38183594 13.387207,7.95654297 L13.387207,2.49755859 C13.387207,2.02148437 13.1713867,1.76123047 12.7143555,1.71679687 C10.2070312,1.46289062 7.17919922,1.46923828 4.66552734,1.71679687 C4.21484375,1.76123047 3.98632812,2.02148437 3.98632812,2.49755859 L3.98632812,7.95654297 C3.98632812,8.38183594 4.18310547,8.60400391 4.57666016,8.67382812 C7.05224609,9.06103516 10.3022461,9.06738281 12.796875,8.67382812 Z M5.05908203,11.2509766 C5.49707031,11.2509766 5.82714844,10.9145508 5.82714844,10.4829102 C5.82714844,10.0449219 5.49707031,9.71484375 5.05908203,9.71484375 C4.62109375,9.71484375 4.29101562,10.0449219 4.29101562,10.4829102 C4.29101562,10.9145508 4.62109375,11.2509766 5.05908203,11.2509766 Z M12.3081055,11.2509766 C12.7460938,11.2509766 13.0825195,10.9145508 13.0825195,10.4829102 C13.0825195,10.0449219 12.7460938,9.71484375 12.3081055,9.71484375 C11.8764648,9.71484375 11.5463867,10.0449219 11.5463867,10.4829102 C11.5463867,10.9145508 11.8764648,11.2509766 12.3081055,11.2509766 Z M10.1879883,11.0224609 C10.5117188,11.0224609 10.7402344,10.7939453 10.7402344,10.4702148 C10.7402344,10.1401367 10.5117188,9.91796875 10.1879883,9.91796875 L7.17285156,9.91796875 C6.84277344,9.91796875 6.61425781,10.1401367 6.61425781,10.4702148 C6.61425781,10.7939453 6.84277344,11.0224609 7.17285156,11.0224609 L10.1879883,11.0224609 Z" id="solid"></path>
        </g>
    </g>
</svg>