<?xml version="1.0" encoding="UTF-8"?>
<svg width="15px" height="15px" viewBox="0 0 15 15" version="1.1" xmlns="http://www.w3.org/2000/svg" xmlns:xlink="http://www.w3.org/1999/xlink">
    <title>transportation/bus</title>
    <g id="transportation/bus" stroke="none" stroke-width="1" fill="none" fill-rule="evenodd">
        <g id="dark" transform="translate(-1.000000, 0.000000)" fill="#000000" fill-rule="nonzero" opacity="0.75">
            <path d="M4.09423828,14.9453125 C4.5703125,14.9453125 4.93847656,14.5771484 4.93847656,14.1074219 L4.93847656,13.0537109 C6.1953125,13.1425781 7.43945312,13.1870117 8.55664062,13.1870117 C9.67382812,13.1870117 10.9179688,13.1489258 12.1811523,13.0537109 L12.1811523,14.1074219 C12.1811523,14.5771484 12.5429688,14.9453125 13.019043,14.9453125 L13.7680664,14.9453125 C14.2441406,14.9453125 14.6123047,14.5771484 14.6123047,14.1074219 L14.6123047,6.20458984 L14.8916016,6.20458984 C15.2470703,6.20458984 15.4946289,5.98876953 15.4946289,5.65234375 L15.4946289,3.17041016 C15.4946289,2.83398438 15.2470703,2.61181641 14.8916016,2.61181641 L14.6123047,2.61181641 L14.6123047,1.89453125 C14.6123047,1.07568359 14.1298828,0.605957031 13.2729492,0.504394531 C11.9208984,0.345703125 10.1879883,0.263183594 8.55664062,0.263183594 C6.93798828,0.263183594 5.20507812,0.345703125 3.84667969,0.504394531 C2.98339844,0.605957031 2.50732422,1.07568359 2.50732422,1.89453125 L2.50732422,2.61181641 L2.22167969,2.61181641 C1.86621094,2.61181641 1.61865234,2.83398438 1.61865234,3.17041016 L1.61865234,5.65234375 C1.61865234,5.98876953 1.86621094,6.20458984 2.22167969,6.20458984 L2.50732422,6.20458984 L2.50732422,14.1074219 C2.50732422,14.5771484 2.86914062,14.9453125 3.34521484,14.9453125 L4.09423828,14.9453125 Z M4.34814453,8.8515625 C3.92919922,8.78173828 3.71972656,8.546875 3.71972656,8.09619141 L3.71972656,2.45947266 C3.71972656,1.95166016 3.9609375,1.67871094 4.44335938,1.62792969 C7.09033203,1.34863281 10.0419922,1.34863281 12.6826172,1.62792969 C13.1713867,1.67871094 13.3999023,1.95166016 13.3999023,2.45947266 L13.3999023,8.09619141 C13.3999023,8.546875 13.1967773,8.78173828 12.7714844,8.8515625 C10.137207,9.23876953 6.95703125,9.23876953 4.34814453,8.8515625 Z M4.74169922,11.6826172 C4.27197266,11.6826172 3.92285156,11.3271484 3.92285156,10.8637695 C3.92285156,10.394043 4.27197266,10.0449219 4.74169922,10.0449219 C5.21142578,10.0449219 5.56054688,10.394043 5.56054688,10.8637695 C5.56054688,11.3271484 5.21142578,11.6826172 4.74169922,11.6826172 Z M12.371582,11.6826172 C11.9082031,11.6826172 11.559082,11.3271484 11.559082,10.8637695 C11.559082,10.394043 11.9082031,10.0449219 12.371582,10.0449219 C12.8413086,10.0449219 13.1967773,10.394043 13.1967773,10.8637695 C13.1967773,11.3271484 12.8413086,11.6826172 12.371582,11.6826172 Z M9.93408203,11.4033203 L7.17285156,11.4033203 C6.84277344,11.4033203 6.61425781,11.1748047 6.61425781,10.8510742 C6.61425781,10.5209961 6.84277344,10.2988281 7.17285156,10.2988281 L9.93408203,10.2988281 C10.2578125,10.2988281 10.4863281,10.5209961 10.4863281,10.8510742 C10.4863281,11.1748047 10.2578125,11.4033203 9.93408203,11.4033203 Z" id="opaque"></path>
        </g>
        <g id="light" fill="#000000" fill-rule="nonzero">
            <path d="M3.41796875,14.8183594 C3.89404297,14.8183594 4.26220703,14.4501953 4.26220703,13.9804688 L4.26220703,12.9584961 C5.30322266,13.0283203 6.45849609,13.0664062 7.68359375,13.0664062 C8.90869141,13.0664062 10.0639648,13.0283203 11.1113281,12.9584961 L11.1113281,13.9804688 C11.1113281,14.4501953 11.4731445,14.8183594 11.9492188,14.8183594 L12.6982422,14.8183594 C13.1743164,14.8183594 13.5424805,14.4501953 13.5424805,13.9804688 L13.5424805,12.3745117 C13.7519531,12.1459961 13.8662109,11.8349609 13.8662109,11.4350586 L13.8662109,6.07763672 L14.1455078,6.07763672 C14.5009766,6.07763672 14.7485352,5.86181641 14.7485352,5.52539062 L14.7485352,2.91650391 C14.7485352,2.58007812 14.5009766,2.35791016 14.1455078,2.35791016 L13.8662109,2.35791016 L13.8662109,1.640625 C13.8662109,0.821777344 13.3837891,0.352050781 12.5205078,0.250488281 C11.1938477,0.091796875 9.42919922,0.00927734375 7.68359375,0.00927734375 C5.93798828,0.00927734375 4.16699219,0.0981445312 2.84667969,0.250488281 C1.98339844,0.352050781 1.50732422,0.821777344 1.50732422,1.640625 L1.50732422,2.35791016 L1.22167969,2.35791016 C0.866210938,2.35791016 0.618652344,2.58007812 0.618652344,2.91650391 L0.618652344,5.52539062 C0.618652344,5.86181641 0.866210938,6.07763672 1.22167969,6.07763672 L1.50732422,6.07763672 L1.50732422,11.4350586 C1.50732422,11.8349609 1.61523438,12.1459961 1.83105469,12.3745117 L1.83105469,13.9804688 C1.83105469,14.4501953 2.19287109,14.8183594 2.66894531,14.8183594 L3.41796875,14.8183594 Z" id="translucent" opacity="0.25"></path>
            <path d="M3.41796875,14.8183594 C3.89404297,14.8183594 4.26220703,14.4501953 4.26220703,13.9804688 L4.26220703,12.9584961 C5.30322266,13.0283203 6.45849609,13.0664062 7.68359375,13.0664062 C8.90869141,13.0664062 10.0639648,13.0283203 11.1113281,12.9584961 L11.1113281,13.9804688 C11.1113281,14.4501953 11.4731445,14.8183594 11.9492188,14.8183594 L12.6982422,14.8183594 C13.1743164,14.8183594 13.5424805,14.4501953 13.5424805,13.9804688 L13.5424805,12.3745117 C13.7519531,12.1459961 13.8662109,11.8349609 13.8662109,11.4350586 L13.8662109,6.07763672 L14.1455078,6.07763672 C14.5009766,6.07763672 14.7485352,5.86181641 14.7485352,5.52539062 L14.7485352,2.91650391 C14.7485352,2.58007812 14.5009766,2.35791016 14.1455078,2.35791016 L13.8662109,2.35791016 L13.8662109,1.640625 C13.8662109,0.821777344 13.3837891,0.352050781 12.5205078,0.250488281 C11.1938477,0.091796875 9.42919922,0.00927734375 7.68359375,0.00927734375 C5.93798828,0.00927734375 4.16699219,0.0981445312 2.84667969,0.250488281 C1.98339844,0.352050781 1.50732422,0.821777344 1.50732422,1.640625 L1.50732422,2.35791016 L1.22167969,2.35791016 C0.866210938,2.35791016 0.618652344,2.58007812 0.618652344,2.91650391 L0.618652344,5.52539062 C0.618652344,5.86181641 0.866210938,6.07763672 1.22167969,6.07763672 L1.50732422,6.07763672 L1.50732422,11.4350586 C1.50732422,11.8349609 1.61523438,12.1459961 1.83105469,12.3745117 L1.83105469,13.9804688 C1.83105469,14.4501953 2.19287109,14.8183594 2.66894531,14.8183594 L3.41796875,14.8183594 Z M7.68359375,12.2348633 C5.81738281,12.2348633 4.23681641,12.1523438 3.06884766,12.0126953 C2.52929688,11.9492188 2.33886719,11.6699219 2.33886719,11.1811523 L2.33886719,1.89453125 C2.33886719,1.41210938 2.59277344,1.12011719 3.06884766,1.06298828 C4.21142578,0.923339844 5.89990234,0.840820312 7.68359375,0.840820312 C9.44824219,0.840820312 11.1367188,0.923339844 12.2983398,1.06298828 C12.8378906,1.12646484 13.034668,1.40576172 13.034668,1.89453125 L13.034668,11.1811523 C13.034668,11.6699219 12.8378906,11.9492188 12.2983398,12.0126953 C11.1113281,12.1523438 9.53076172,12.2348633 7.68359375,12.2348633 Z M11.796875,8.67382812 C12.1967773,8.60400391 12.387207,8.38183594 12.387207,7.95654297 L12.387207,2.49755859 C12.387207,2.02148437 12.1713867,1.76123047 11.7143555,1.71679687 C9.20703125,1.46289062 6.17919922,1.46923828 3.66552734,1.71679687 C3.21484375,1.76123047 2.98632812,2.02148437 2.98632812,2.49755859 L2.98632812,7.95654297 C2.98632812,8.38183594 3.18310547,8.60400391 3.57666016,8.67382812 C6.05224609,9.06103516 9.30224609,9.06738281 11.796875,8.67382812 Z M4.05908203,11.2509766 C4.49707031,11.2509766 4.82714844,10.9145508 4.82714844,10.4829102 C4.82714844,10.0449219 4.49707031,9.71484375 4.05908203,9.71484375 C3.62109375,9.71484375 3.29101562,10.0449219 3.29101562,10.4829102 C3.29101562,10.9145508 3.62109375,11.2509766 4.05908203,11.2509766 Z M11.3081055,11.2509766 C11.7460938,11.2509766 12.0825195,10.9145508 12.0825195,10.4829102 C12.0825195,10.0449219 11.7460938,9.71484375 11.3081055,9.71484375 C10.8764648,9.71484375 10.5463867,10.0449219 10.5463867,10.4829102 C10.5463867,10.9145508 10.8764648,11.2509766 11.3081055,11.2509766 Z M9.18798828,11.0224609 C9.51171875,11.0224609 9.74023438,10.7939453 9.74023438,10.4702148 C9.74023438,10.1401367 9.51171875,9.91796875 9.18798828,9.91796875 L6.17285156,9.91796875 C5.84277344,9.91796875 5.61425781,10.1401367 5.61425781,10.4702148 C5.61425781,10.7939453 5.84277344,11.0224609 6.17285156,11.0224609 L9.18798828,11.0224609 Z" id="solid" opacity="0.5"></path>
        </g>
    </g>
</svg>