<?xml version="1.0" encoding="UTF-8"?>
<svg width="15px" height="15px" viewBox="0 0 15 15" version="1.1" xmlns="http://www.w3.org/2000/svg" xmlns:xlink="http://www.w3.org/1999/xlink">
    <title>transportation/car</title>
    <g id="transportation/car" stroke="none" stroke-width="1" fill="none" fill-rule="evenodd">
        <g id="dark" transform="translate(-1.500000, 0.000000)" fill="#000000" fill-rule="nonzero">
            <path d="M3.20556641,13.5424805 C3.68164062,13.5424805 4.04980469,13.1806641 4.04980469,12.7109375 L4.04980469,11.6445312 C5.45898438,11.7333984 7.49658203,11.796875 9.12792969,11.796875 C10.7592773,11.796875 12.8032227,11.7333984 14.2124023,11.6445312 L14.2124023,12.7109375 C14.2124023,13.1806641 14.5742188,13.5424805 15.050293,13.5424805 L15.7993164,13.5424805 C16.2753906,13.5424805 16.637207,13.1806641 16.637207,12.7109375 L16.637207,9.04833984 C16.637207,7.98193359 16.4213867,7.37890625 15.8374023,6.6171875 L15.2978516,5.92529297 C15.0693359,4.78271484 14.644043,3.58300781 14.4282227,3.11328125 C14.0854492,2.39599609 13.4316406,1.97070312 12.5874023,1.85644531 C12.1857368,1.80848524 10.9234544,1.77184908 9.39946396,1.76792642 L9.12792969,1.76757812 C7.49023438,1.76757812 6.10009766,1.81201172 5.67480469,1.85644531 C4.83056641,1.95800781 4.17041016,2.39599609 3.83398438,3.11328125 C3.61181641,3.58300781 3.19287109,4.78271484 2.95800781,5.92529297 L2.42480469,6.6171875 C1.83447266,7.37890625 1.61865234,7.98193359 1.61865234,9.04833984 L1.61865234,12.7109375 C1.61865234,13.1806641 1.98681641,13.5424805 2.46289062,13.5424805 L3.20556641,13.5424805 Z M13.7363281,5.703125 C12.6826172,5.63964844 11.4257812,5.56982422 9.12792969,5.56982422 C6.83642578,5.56982422 5.57958984,5.63964844 4.52587891,5.703125 C4.27832031,5.72216797 4.18310547,5.63330078 4.24023438,5.3984375 C4.38623047,4.70019531 4.69726562,3.79248047 4.90673828,3.42431641 C5.078125,3.12597656 5.26220703,2.99902344 5.60498047,2.95458984 C6.06201172,2.88844058 7.05456712,2.85077665 8.82552157,2.84699527 L9.12792969,2.84667969 C11.0957031,2.84667969 12.1748047,2.87207031 12.6508789,2.95458984 C12.9936523,3.00537109 13.1713867,3.12597656 13.3491211,3.42431641 C13.5649414,3.78613281 13.8569336,4.70019531 14.0219727,5.3984375 C14.0791016,5.63330078 13.9775391,5.72216797 13.7363281,5.703125 Z M4.55126953,10.0830078 C3.97363281,10.0830078 3.52929688,9.64501953 3.52929688,9.06103516 C3.52929688,8.48339844 3.97363281,8.04541016 4.55126953,8.04541016 C5.12890625,8.04541016 5.57324219,8.48339844 5.57324219,9.06103516 C5.57324219,9.64501953 5.12890625,10.0830078 4.55126953,10.0830078 Z M13.7045898,10.0830078 C13.1269531,10.0830078 12.6889648,9.64501953 12.6889648,9.06103516 C12.6889648,8.48339844 13.1269531,8.04541016 13.7045898,8.04541016 C14.2885742,8.04541016 14.7265625,8.48339844 14.7265625,9.06103516 C14.7265625,9.64501953 14.2885742,10.0830078 13.7045898,10.0830078 Z M10.8100586,9.83544922 L7.45214844,9.83544922 C7.01416016,9.83544922 6.71582031,9.53076172 6.71582031,9.09912109 C6.71582031,8.66748047 7.01416016,8.36279297 7.45214844,8.36279297 L10.8100586,8.36279297 C11.2416992,8.36279297 11.5400391,8.66748047 11.5400391,9.09912109 C11.5400391,9.53076172 11.2416992,9.83544922 10.8100586,9.83544922 Z" id="solid"></path>
        </g>
        <g id="light" transform="translate(-1.500000, 0.000000)" fill="#000000" fill-rule="nonzero">
            <path d="M3.52929688,13.4155273 C4.00537109,13.4155273 4.37353516,13.0537109 4.37353516,12.5839844 L4.37353516,11.5366211 C5.75732422,11.6191406 7.6171875,11.6699219 9.12792969,11.6699219 C10.6386719,11.6699219 12.4985352,11.6191406 13.8886719,11.5366211 L13.8886719,12.5839844 C13.8886719,13.0537109 14.2504883,13.4155273 14.7265625,13.4155273 L15.4755859,13.4155273 C15.9516602,13.4155273 16.3134766,13.0537109 16.3134766,12.5839844 L16.3134766,10.9780273 C16.5292969,10.7495117 16.637207,10.4321289 16.637207,10.0385742 L16.637207,8.92138672 C16.637207,7.85498047 16.4213867,7.25195312 15.8374023,6.49023438 L15.2978516,5.79833984 C15.0693359,4.65576172 14.644043,3.45605469 14.4282227,2.98632812 C14.0854492,2.26904297 13.4316406,1.84375 12.5874023,1.72949219 C12.1621094,1.67871094 10.7719727,1.640625 9.12792969,1.640625 C7.49023438,1.640625 6.10009766,1.68505859 5.67480469,1.72949219 C4.83056641,1.83105469 4.17041016,2.26904297 3.83398438,2.98632812 C3.61181641,3.45605469 3.19287109,4.65576172 2.95800781,5.79833984 L2.42480469,6.49023438 C1.83447266,7.25195312 1.61865234,7.85498047 1.61865234,8.92138672 L1.61865234,10.0385742 C1.61865234,10.4321289 1.73291016,10.7495117 1.94238281,10.9780273 L1.94238281,12.5839844 C1.94238281,13.0537109 2.31054688,13.4155273 2.78662109,13.4155273 L3.52929688,13.4155273 Z" id="translucent" opacity="0.35"></path>
            <path d="M3.52929688,13.4155273 C4.00537109,13.4155273 4.37353516,13.0537109 4.37353516,12.5839844 L4.37353516,11.5366211 C5.75732422,11.6191406 7.6171875,11.6699219 9.12792969,11.6699219 C10.6386719,11.6699219 12.4985352,11.6191406 13.8886719,11.5366211 L13.8886719,12.5839844 C13.8886719,13.0537109 14.2504883,13.4155273 14.7265625,13.4155273 L15.4755859,13.4155273 C15.9516602,13.4155273 16.3134766,13.0537109 16.3134766,12.5839844 L16.3134766,10.9780273 C16.5292969,10.7495117 16.637207,10.4321289 16.637207,10.0385742 L16.637207,8.92138672 C16.637207,7.85498047 16.4213867,7.25195312 15.8374023,6.49023438 L15.2978516,5.79833984 C15.0693359,4.65576172 14.644043,3.45605469 14.4282227,2.98632812 C14.0854492,2.26904297 13.4316406,1.84375 12.5874023,1.72949219 C12.1621094,1.67871094 10.7719727,1.640625 9.12792969,1.640625 C7.49023438,1.640625 6.10009766,1.68505859 5.67480469,1.72949219 C4.83056641,1.83105469 4.17041016,2.26904297 3.83398438,2.98632812 C3.61181641,3.45605469 3.19287109,4.65576172 2.95800781,5.79833984 L2.42480469,6.49023438 C1.83447266,7.25195312 1.61865234,7.85498047 1.61865234,8.92138672 L1.61865234,10.0385742 C1.61865234,10.4321289 1.73291016,10.7495117 1.94238281,10.9780273 L1.94238281,12.5839844 C1.94238281,13.0537109 2.31054688,13.4155273 2.78662109,13.4155273 L3.52929688,13.4155273 Z M9.12792969,10.8383789 C6.96972656,10.8383789 4.20214844,10.7431641 3.18017578,10.6162109 C2.640625,10.5463867 2.45019531,10.2670898 2.45019531,9.78466797 L2.45019531,8.92138672 C2.45019531,8.05175781 2.58984375,7.64550781 3.08496094,7.00439453 L3.73242188,6.15380859 C3.90380859,5.23339844 4.31640625,3.94482422 4.58935547,3.3671875 C4.79248047,2.92285156 5.19238281,2.64990234 5.77001953,2.58007812 C6.15370009,2.53811306 7.32439206,2.47916215 8.85430347,2.47274157 L9.12792969,2.47216797 C10.7973633,2.47216797 12.1049805,2.53564453 12.4731445,2.58007812 C13.0698242,2.65625 13.4633789,2.92919922 13.6728516,3.3671875 C13.9458008,3.94482422 14.3583984,5.23339844 14.5234375,6.15380859 L15.1772461,7.00439453 C15.6660156,7.64550781 15.8056641,8.05175781 15.8056641,8.92138672 L15.8056641,9.78466797 C15.8056641,10.2670898 15.6152344,10.5527344 15.0756836,10.6162109 C14.0600586,10.7368164 11.2861328,10.8383789 9.12792969,10.8383789 Z M13.6601562,5.63964844 C13.5078125,4.96044922 13.2158203,4.08447266 13.0126953,3.73535156 C12.8476562,3.44970703 12.6635742,3.32910156 12.3334961,3.28466797 C11.8764648,3.21484375 10.8354492,3.17675781 9.12792969,3.17675781 C7.42675781,3.17675781 6.38574219,3.21484375 5.92236328,3.28466797 C5.59228516,3.32910156 5.40820312,3.44970703 5.24316406,3.73535156 C5.04003906,4.08447266 4.75439453,4.96044922 4.59570312,5.63964844 C4.54492188,5.86181641 4.64013672,5.95068359 4.88134766,5.93164062 C5.89697266,5.86816406 7.10302734,5.8046875 9.12792969,5.8046875 C11.1591797,5.8046875 12.3652344,5.86816406 13.3808594,5.93164062 C13.6157227,5.95068359 13.7109375,5.86181641 13.6601562,5.63964844 Z M4.55126953,9.95605469 C5.12890625,9.95605469 5.57324219,9.51806641 5.57324219,8.93408203 C5.57324219,8.35644531 5.12890625,7.91845703 4.55126953,7.91845703 C3.97363281,7.91845703 3.52929688,8.35644531 3.52929688,8.93408203 C3.52929688,9.51806641 3.97363281,9.95605469 4.55126953,9.95605469 Z M13.7045898,9.95605469 C14.2885742,9.95605469 14.7265625,9.51806641 14.7265625,8.93408203 C14.7265625,8.35644531 14.2885742,7.91845703 13.7045898,7.91845703 C13.1269531,7.91845703 12.6889648,8.35644531 12.6889648,8.93408203 C12.6889648,9.51806641 13.1269531,9.95605469 13.7045898,9.95605469 Z M10.8100586,9.70849609 C11.2416992,9.70849609 11.5400391,9.40380859 11.5400391,8.97216797 C11.5400391,8.54052734 11.2416992,8.23583984 10.8100586,8.23583984 L7.45214844,8.23583984 C7.01416016,8.23583984 6.71582031,8.54052734 6.71582031,8.97216797 C6.71582031,9.40380859 7.01416016,9.70849609 7.45214844,9.70849609 L10.8100586,9.70849609 Z" id="solid"></path>
        </g>
    </g>
</svg>