<?xml version="1.0" encoding="UTF-8"?>
<svg width="15px" height="15px" viewBox="0 0 15 15" version="1.1" xmlns="http://www.w3.org/2000/svg" xmlns:xlink="http://www.w3.org/1999/xlink">
    <title>transportation/car</title>
    <g id="transportation/car" stroke="none" stroke-width="1" fill="none" fill-rule="evenodd">
        <g id="dark" transform="translate(-1.500000, 0.000000)" fill="#000000" fill-rule="nonzero" opacity="0.75">
            <path d="M3.20556641,13.5424805 C3.68164062,13.5424805 4.04980469,13.1806641 4.04980469,12.7109375 L4.04980469,11.6445312 C5.45898438,11.7333984 7.49658203,11.796875 9.12792969,11.796875 C10.7592773,11.796875 12.8032227,11.7333984 14.2124023,11.6445312 L14.2124023,12.7109375 C14.2124023,13.1806641 14.5742188,13.5424805 15.050293,13.5424805 L15.7993164,13.5424805 C16.2753906,13.5424805 16.637207,13.1806641 16.637207,12.7109375 L16.637207,9.04833984 C16.637207,7.98193359 16.4213867,7.37890625 15.8374023,6.6171875 L15.2978516,5.92529297 C15.0693359,4.78271484 14.644043,3.58300781 14.4282227,3.11328125 C14.0854492,2.39599609 13.4316406,1.97070312 12.5874023,1.85644531 C12.1857368,1.80848524 10.9234544,1.77184908 9.39946396,1.76792642 L9.12792969,1.76757812 C7.49023438,1.76757812 6.10009766,1.81201172 5.67480469,1.85644531 C4.83056641,1.95800781 4.17041016,2.39599609 3.83398438,3.11328125 C3.61181641,3.58300781 3.19287109,4.78271484 2.95800781,5.92529297 L2.42480469,6.6171875 C1.83447266,7.37890625 1.61865234,7.98193359 1.61865234,9.04833984 L1.61865234,12.7109375 C1.61865234,13.1806641 1.98681641,13.5424805 2.46289062,13.5424805 L3.20556641,13.5424805 Z M13.7363281,5.703125 C12.6826172,5.63964844 11.4257812,5.56982422 9.12792969,5.56982422 C6.83642578,5.56982422 5.57958984,5.63964844 4.52587891,5.703125 C4.27832031,5.72216797 4.18310547,5.63330078 4.24023438,5.3984375 C4.38623047,4.70019531 4.69726563,3.79248047 4.90673828,3.42431641 C5.078125,3.12597656 5.26220703,2.99902344 5.60498047,2.95458984 C6.06201172,2.88844058 7.05456712,2.85077665 8.82552157,2.84699527 L9.12792969,2.84667969 C11.0957031,2.84667969 12.1748047,2.87207031 12.6508789,2.95458984 C12.9936523,3.00537109 13.1713867,3.12597656 13.3491211,3.42431641 C13.5649414,3.78613281 13.8569336,4.70019531 14.0219727,5.3984375 C14.0791016,5.63330078 13.9775391,5.72216797 13.7363281,5.703125 Z M4.55126953,10.0830078 C3.97363281,10.0830078 3.52929688,9.64501953 3.52929688,9.06103516 C3.52929688,8.48339844 3.97363281,8.04541016 4.55126953,8.04541016 C5.12890625,8.04541016 5.57324219,8.48339844 5.57324219,9.06103516 C5.57324219,9.64501953 5.12890625,10.0830078 4.55126953,10.0830078 Z M13.7045898,10.0830078 C13.1269531,10.0830078 12.6889648,9.64501953 12.6889648,9.06103516 C12.6889648,8.48339844 13.1269531,8.04541016 13.7045898,8.04541016 C14.2885742,8.04541016 14.7265625,8.48339844 14.7265625,9.06103516 C14.7265625,9.64501953 14.2885742,10.0830078 13.7045898,10.0830078 Z M10.8100586,9.83544922 L7.45214844,9.83544922 C7.01416016,9.83544922 6.71582031,9.53076172 6.71582031,9.09912109 C6.71582031,8.66748047 7.01416016,8.36279297 7.45214844,8.36279297 L10.8100586,8.36279297 C11.2416992,8.36279297 11.5400391,8.66748047 11.5400391,9.09912109 C11.5400391,9.53076172 11.2416992,9.83544922 10.8100586,9.83544922 Z" id="opaque"></path>
        </g>
        <g id="light" transform="translate(-0.500000, 1.000000)" fill="#000000" fill-rule="nonzero">
            <path d="M2.52929688,12.4155273 C3.00537109,12.4155273 3.37353516,12.0537109 3.37353516,11.5839844 L3.37353516,10.5366211 C4.75732422,10.6191406 6.6171875,10.6699219 8.12792969,10.6699219 C9.63867188,10.6699219 11.4985352,10.6191406 12.8886719,10.5366211 L12.8886719,11.5839844 C12.8886719,12.0537109 13.2504883,12.4155273 13.7265625,12.4155273 L14.4755859,12.4155273 C14.9516602,12.4155273 15.3134766,12.0537109 15.3134766,11.5839844 L15.3134766,9.97802734 C15.5292969,9.74951172 15.637207,9.43212891 15.637207,9.03857422 L15.637207,7.92138672 C15.637207,6.85498047 15.4213867,6.25195312 14.8374023,5.49023438 L14.2978516,4.79833984 C14.0693359,3.65576172 13.644043,2.45605469 13.4282227,1.98632812 C13.0854492,1.26904297 12.4316406,0.84375 11.5874023,0.729492188 C11.1621094,0.678710938 9.77197266,0.640625 8.12792969,0.640625 C6.49023438,0.640625 5.10009766,0.685058594 4.67480469,0.729492188 C3.83056641,0.831054688 3.17041016,1.26904297 2.83398438,1.98632812 C2.61181641,2.45605469 2.19287109,3.65576172 1.95800781,4.79833984 L1.42480469,5.49023438 C0.834472656,6.25195312 0.618652344,6.85498047 0.618652344,7.92138672 L0.618652344,9.03857422 C0.618652344,9.43212891 0.732910156,9.74951172 0.942382812,9.97802734 L0.942382812,11.5839844 C0.942382812,12.0537109 1.31054688,12.4155273 1.78662109,12.4155273 L2.52929688,12.4155273 Z" id="translucent" opacity="0.25"></path>
            <path d="M2.52929688,12.4155273 C3.00537109,12.4155273 3.37353516,12.0537109 3.37353516,11.5839844 L3.37353516,10.5366211 C4.75732422,10.6191406 6.6171875,10.6699219 8.12792969,10.6699219 C9.63867188,10.6699219 11.4985352,10.6191406 12.8886719,10.5366211 L12.8886719,11.5839844 C12.8886719,12.0537109 13.2504883,12.4155273 13.7265625,12.4155273 L14.4755859,12.4155273 C14.9516602,12.4155273 15.3134766,12.0537109 15.3134766,11.5839844 L15.3134766,9.97802734 C15.5292969,9.74951172 15.637207,9.43212891 15.637207,9.03857422 L15.637207,7.92138672 C15.637207,6.85498047 15.4213867,6.25195312 14.8374023,5.49023438 L14.2978516,4.79833984 C14.0693359,3.65576172 13.644043,2.45605469 13.4282227,1.98632812 C13.0854492,1.26904297 12.4316406,0.84375 11.5874023,0.729492188 C11.1621094,0.678710938 9.77197266,0.640625 8.12792969,0.640625 C6.49023438,0.640625 5.10009766,0.685058594 4.67480469,0.729492188 C3.83056641,0.831054688 3.17041016,1.26904297 2.83398438,1.98632812 C2.61181641,2.45605469 2.19287109,3.65576172 1.95800781,4.79833984 L1.42480469,5.49023438 C0.834472656,6.25195312 0.618652344,6.85498047 0.618652344,7.92138672 L0.618652344,9.03857422 C0.618652344,9.43212891 0.732910156,9.74951172 0.942382812,9.97802734 L0.942382812,11.5839844 C0.942382812,12.0537109 1.31054688,12.4155273 1.78662109,12.4155273 L2.52929688,12.4155273 Z M8.12792969,9.83837891 C5.96972656,9.83837891 3.20214844,9.74316406 2.18017578,9.61621094 C1.640625,9.54638672 1.45019531,9.26708984 1.45019531,8.78466797 L1.45019531,7.92138672 C1.45019531,7.05175781 1.58984375,6.64550781 2.08496094,6.00439453 L2.73242188,5.15380859 C2.90380859,4.23339844 3.31640625,2.94482422 3.58935547,2.3671875 C3.79248047,1.92285156 4.19238281,1.64990234 4.77001953,1.58007812 C5.15370009,1.53811306 6.32439206,1.47916215 7.85430347,1.47274157 L8.12792969,1.47216797 C9.79736328,1.47216797 11.1049805,1.53564453 11.4731445,1.58007812 C12.0698242,1.65625 12.4633789,1.92919922 12.6728516,2.3671875 C12.9458008,2.94482422 13.3583984,4.23339844 13.5234375,5.15380859 L14.1772461,6.00439453 C14.6660156,6.64550781 14.8056641,7.05175781 14.8056641,7.92138672 L14.8056641,8.78466797 C14.8056641,9.26708984 14.6152344,9.55273438 14.0756836,9.61621094 C13.0600586,9.73681641 10.2861328,9.83837891 8.12792969,9.83837891 Z M12.6601562,4.63964844 C12.5078125,3.96044922 12.2158203,3.08447266 12.0126953,2.73535156 C11.8476562,2.44970703 11.6635742,2.32910156 11.3334961,2.28466797 C10.8764648,2.21484375 9.83544922,2.17675781 8.12792969,2.17675781 C6.42675781,2.17675781 5.38574219,2.21484375 4.92236328,2.28466797 C4.59228516,2.32910156 4.40820312,2.44970703 4.24316406,2.73535156 C4.04003906,3.08447266 3.75439453,3.96044922 3.59570313,4.63964844 C3.54492188,4.86181641 3.64013672,4.95068359 3.88134766,4.93164062 C4.89697266,4.86816406 6.10302734,4.8046875 8.12792969,4.8046875 C10.1591797,4.8046875 11.3652344,4.86816406 12.3808594,4.93164062 C12.6157227,4.95068359 12.7109375,4.86181641 12.6601562,4.63964844 Z M3.55126953,8.95605469 C4.12890625,8.95605469 4.57324219,8.51806641 4.57324219,7.93408203 C4.57324219,7.35644531 4.12890625,6.91845703 3.55126953,6.91845703 C2.97363281,6.91845703 2.52929688,7.35644531 2.52929688,7.93408203 C2.52929688,8.51806641 2.97363281,8.95605469 3.55126953,8.95605469 Z M12.7045898,8.95605469 C13.2885742,8.95605469 13.7265625,8.51806641 13.7265625,7.93408203 C13.7265625,7.35644531 13.2885742,6.91845703 12.7045898,6.91845703 C12.1269531,6.91845703 11.6889648,7.35644531 11.6889648,7.93408203 C11.6889648,8.51806641 12.1269531,8.95605469 12.7045898,8.95605469 Z M9.81005859,8.70849609 C10.2416992,8.70849609 10.5400391,8.40380859 10.5400391,7.97216797 C10.5400391,7.54052734 10.2416992,7.23583984 9.81005859,7.23583984 L6.45214844,7.23583984 C6.01416016,7.23583984 5.71582031,7.54052734 5.71582031,7.97216797 C5.71582031,8.40380859 6.01416016,8.70849609 6.45214844,8.70849609 L9.81005859,8.70849609 Z" id="solid" opacity="0.5"></path>
        </g>
    </g>
</svg>