<?xml version="1.0" encoding="UTF-8"?>
<svg width="15px" height="15px" viewBox="0 0 15 15" version="1.1" xmlns="http://www.w3.org/2000/svg" xmlns:xlink="http://www.w3.org/1999/xlink">
    <title>transportation/tram</title>
    <g id="transportation/tram" stroke="none" stroke-width="1" fill="none" fill-rule="evenodd">
        <g id="dark" fill="#000000" fill-rule="nonzero" opacity="0.75">
            <path d="M3.48828125,15.4594727 C3.68505859,15.4594727 3.79931641,15.3959961 3.90087891,15.2246094 L4.26904297,14.6342773 L10.7626953,14.6342773 L11.1308594,15.2246094 C11.2387695,15.3959961 11.3466797,15.4594727 11.543457,15.4594727 L11.9306641,15.4594727 C12.2670898,15.4594727 12.4194336,15.1293945 12.2416992,14.8374023 L10.8007812,12.4951172 L11.1689453,12.4951172 C12.1782227,12.4951172 12.8383789,11.7841797 12.8383789,10.7114258 L12.8383789,6.0078125 C12.8383789,4.43994141 12.6606445,2.88476562 12.4130859,1.81835938 C12.1464844,0.669433594 11.3911133,-0.206542969 10.1850586,-0.327148438 C9.86767578,-0.358886719 8.80761719,-0.454101562 7.5,-0.454101562 C6.19873047,-0.454101562 5.13232422,-0.358886719 4.82128906,-0.327148438 C3.60888672,-0.206542969 2.85986328,0.669433594 2.59326172,1.81835938 C2.33935547,2.88476562 2.16162109,4.43994141 2.16162109,6.0078125 L2.16162109,10.7114258 C2.16162109,11.7841797 2.828125,12.4951172 3.83105469,12.4951172 L4.23095703,12.4951172 L2.77734375,14.8374023 C2.59326172,15.1357422 2.77099609,15.4594727 3.10107422,15.4594727 L3.48828125,15.4594727 Z M9.09960938,1.53271484 L5.90673828,1.53271484 C5.64648438,1.53271484 5.47509766,1.36132812 5.47509766,1.10742188 C5.47509766,0.847167969 5.64648438,0.682128906 5.90673828,0.682128906 L9.09960938,0.682128906 C9.35351562,0.682128906 9.52490234,0.847167969 9.52490234,1.10742188 C9.52490234,1.36132812 9.35351562,1.53271484 9.09960938,1.53271484 Z M7.5,8.21044922 C5.9765625,8.20410156 4.53564453,8.12792969 3.88818359,8.0390625 C3.52001953,7.98828125 3.41210938,7.75341797 3.41210938,7.42333984 L3.41210938,6.0078125 C3.41210938,4.66210938 3.55810547,3.60839844 3.64697266,3.25927734 C3.71044922,3.01171875 3.85644531,2.82128906 4.11669922,2.78955078 C4.82128906,2.70068359 5.68457031,2.64990234 7.5,2.64355469 C9.31542969,2.63720703 10.1850586,2.70068359 10.8896484,2.78955078 C11.1499023,2.82128906 11.2958984,3.01171875 11.359375,3.25927734 C11.4482422,3.60839844 11.5942383,4.66210938 11.5942383,6.0078125 L11.5942383,7.42333984 C11.5942383,7.76611328 11.4799805,8.00097656 11.1118164,8.0390625 C10.0390625,8.15966797 8.59179688,8.21679688 7.5,8.21044922 Z M10.4262695,11.2001953 C9.89941406,11.2001953 9.49951172,10.800293 9.49951172,10.2734375 C9.49951172,9.75927734 9.89941406,9.359375 10.4262695,9.359375 C10.9467773,9.359375 11.340332,9.75927734 11.340332,10.2734375 C11.340332,10.800293 10.934082,11.2001953 10.4262695,11.2001953 Z M4.56103516,11.1938477 C4.03417969,11.1938477 3.65332031,10.8129883 3.65332031,10.2734375 C3.65332031,9.74658203 4.03417969,9.36572266 4.56103516,9.36572266 C5.09423828,9.36572266 5.47509766,9.74658203 5.47509766,10.2734375 C5.47509766,10.8129883 5.08154297,11.1938477 4.56103516,11.1938477 Z M10.1088867,13.5742188 L4.92919922,13.5742188 L5.59570312,12.4951172 L9.44238281,12.4951172 L10.1088867,13.5742188 Z" id="opaque"></path>
        </g>
        <g id="light" transform="translate(1.000000, -1.000000)" fill="#000000" fill-rule="nonzero">
            <path d="M2.49145508,16.4594727 C2.68188477,16.4594727 2.79614258,16.3959961 2.90405273,16.2246094 L3.2722168,15.6342773 L9.76586914,15.6342773 L10.1276855,16.2246094 C10.2355957,16.3959961 10.3498535,16.4594727 10.5466309,16.4594727 L10.9338379,16.4594727 C11.263916,16.4594727 11.4162598,16.1293945 11.2385254,15.8374023 L10.0070801,13.8378906 L10.1530762,13.8378906 C11.4924316,13.8378906 12.3811035,12.8984375 12.3811035,11.4956055 L12.3811035,7.48388672 C12.3811035,5.90332031 12.2033691,4.22119141 11.911377,3.01513672 C11.5749512,1.5234375 10.5593262,0.545898438 9.17553711,0.40625 C8.84545898,0.368164062 7.71557617,0.279296875 6.50317383,0.279296875 C5.12573242,0.279296875 4.16088867,0.368164062 3.82446289,0.40625 C2.44067383,0.545898438 1.43139648,1.5234375 1.08862305,3.01513672 C0.796630859,4.22119141 0.618896484,5.83349609 0.618896484,7.4140625 L0.618896484,11.4956055 C0.618896484,12.8984375 1.50756836,13.8378906 2.84692383,13.8378906 L3.0246582,13.8378906 L1.78051758,15.8374023 C1.59008789,16.1357422 1.76782227,16.4594727 2.10424805,16.4594727 L2.49145508,16.4594727 Z M9.10571289,14.5742188 L3.92602539,14.5742188 L4.38305664,13.8378906 L8.64868164,13.8378906 L9.10571289,14.5742188 Z" id="translucent" opacity="0.25"></path>
            <path d="M2.49145508,16.4594727 C2.68188477,16.4594727 2.79614258,16.3959961 2.90405273,16.2246094 L3.2722168,15.6342773 L9.76586914,15.6342773 L10.1276855,16.2246094 C10.2355957,16.3959961 10.3498535,16.4594727 10.5466309,16.4594727 L10.9338379,16.4594727 C11.263916,16.4594727 11.4162598,16.1293945 11.2385254,15.8374023 L10.0070801,13.8378906 L10.1530762,13.8378906 C11.4924316,13.8378906 12.3811035,12.8984375 12.3811035,11.4956055 L12.3811035,7.48388672 C12.3811035,5.90332031 12.2033691,4.22119141 11.911377,3.01513672 C11.5749512,1.5234375 10.5593262,0.545898438 9.17553711,0.40625 C8.84545898,0.368164062 7.71557617,0.279296875 6.50317383,0.279296875 C5.12573242,0.279296875 4.16088867,0.368164062 3.82446289,0.40625 C2.44067383,0.545898438 1.43139648,1.5234375 1.08862305,3.01513672 C0.796630859,4.22119141 0.618896484,5.83349609 0.618896484,7.4140625 L0.618896484,11.4956055 C0.618896484,12.8984375 1.50756836,13.8378906 2.84692383,13.8378906 L3.0246582,13.8378906 L1.78051758,15.8374023 C1.59008789,16.1357422 1.76782227,16.4594727 2.10424805,16.4594727 L2.49145508,16.4594727 Z M10.1530762,12.8666992 L2.84692383,12.8666992 C2.09155273,12.8666992 1.59008789,12.3144531 1.59008789,11.4956055 L1.59008789,7.4140625 C1.59008789,5.90332031 1.75512695,4.37988281 2.02807617,3.23730469 C2.28833008,2.13916016 2.9675293,1.47265625 3.92602539,1.37744141 C4.2434082,1.34570312 5.1574707,1.25683594 6.50317383,1.25683594 C7.68383789,1.25683594 8.76293945,1.34570312 9.08032227,1.37744141 C10.0324707,1.47265625 10.7116699,2.13916016 10.9719238,3.23730469 C11.2512207,4.37988281 11.4099121,5.97949219 11.4099121,7.48388672 L11.4099121,11.4956055 C11.4099121,12.3144531 10.9084473,12.8666992 10.1530762,12.8666992 Z M8.09643555,2.93896484 C8.35668945,2.93896484 8.52807617,2.76757812 8.52807617,2.50732422 C8.52807617,2.25341797 8.35668945,2.08837891 8.09643555,2.08837891 L4.90356445,2.08837891 C4.64331055,2.08837891 4.47827148,2.25341797 4.47827148,2.50732422 C4.47827148,2.76757812 4.64331055,2.93896484 4.90356445,2.93896484 L8.09643555,2.93896484 Z M6.50317383,9.21044922 C7.5949707,9.21679688 9.03588867,9.15966797 10.1149902,9.0390625 C10.4768066,9.00097656 10.5910645,8.76611328 10.5910645,8.42333984 L10.5910645,7.0078125 C10.5910645,5.66210938 10.4450684,4.60839844 10.3562012,4.25927734 C10.2927246,4.01171875 10.1467285,3.82128906 9.88647461,3.78955078 C9.18188477,3.70068359 8.31860352,3.63720703 6.50317383,3.64355469 C4.68774414,3.64990234 3.81811523,3.70068359 3.11352539,3.78955078 C2.85327148,3.82128906 2.70727539,4.01171875 2.64379883,4.25927734 C2.55493164,4.60839844 2.40893555,5.66210938 2.40893555,7.0078125 L2.40893555,8.42333984 C2.40893555,8.75341797 2.52319336,8.98828125 2.88500977,9.0390625 C3.53881836,9.12792969 4.97973633,9.20410156 6.50317383,9.21044922 Z M9.4230957,11.9589844 C9.93725586,11.9589844 10.3435059,11.559082 10.3435059,11.0322266 C10.3435059,10.5117188 9.94360352,10.1181641 9.4230957,10.1181641 C8.89624023,10.1181641 8.50268555,10.5117188 8.50268555,11.0322266 C8.50268555,11.559082 8.89624023,11.9589844 9.4230957,11.9589844 Z M3.55786133,11.9462891 C4.07836914,11.9462891 4.47827148,11.5654297 4.47827148,11.0322266 C4.47827148,10.5053711 4.09741211,10.1245117 3.55786133,10.1245117 C3.03100586,10.1245117 2.65014648,10.5053711 2.65014648,11.0322266 C2.65014648,11.5654297 3.03100586,11.9462891 3.55786133,11.9462891 Z M9.10571289,14.5742188 L3.92602539,14.5742188 L4.38305664,13.8378906 L8.64868164,13.8378906 L9.10571289,14.5742188 Z" id="solid" opacity="0.5"></path>
        </g>
    </g>
</svg>