<?xml version="1.0" encoding="UTF-8"?>
<svg width="15px" height="15px" viewBox="0 0 15 15" version="1.1" xmlns="http://www.w3.org/2000/svg" xmlns:xlink="http://www.w3.org/1999/xlink">
    <title>communication/bubble-left</title>
    <g id="communication/bubble-left" stroke="none" stroke-width="1" fill="none" fill-rule="evenodd">
        <g id="dark" transform="translate(-1.000000, 0.000000)" fill="#000000" fill-rule="nonzero" opacity="0.75">
            <path d="M5.38916016,14.4311523 C5.63671875,14.4311523 5.82080078,14.3041992 6.11914062,14.0249023 L8.41064453,11.9301758 L12.7016602,11.9365234 C14.5932617,11.9428711 15.6088867,10.8891602 15.6088867,9.02929688 L15.6088867,4.16699219 C15.6088867,2.30712891 14.5932617,1.25976562 12.7016602,1.25976562 L4.52587891,1.25976562 C2.63427734,1.25976562 1.61865234,2.30078125 1.61865234,4.16699219 L1.61865234,9.02929688 C1.61865234,10.8955078 2.63427734,11.9365234 4.52587891,11.9301758 L4.82421875,11.9301758 L4.82421875,13.7773438 C4.82421875,14.1708984 5.02734375,14.4311523 5.38916016,14.4311523 Z" id="opaque"></path>
        </g>
        <g id="light" transform="translate(-1.000000, 0.000000)" fill="#000000" fill-rule="nonzero">
            <path d="M5.52246094,14.3930664 C5.83349609,14.3930664 6.04931641,14.2280273 6.43652344,13.8852539 L8.62646484,11.9365234 L12.7016602,11.9365234 C14.5932617,11.9365234 15.6088867,10.8891602 15.6088867,9.02929688 L15.6088867,4.16699219 C15.6088867,2.30712891 14.5932617,1.25976562 12.7016602,1.25976562 L4.52587891,1.25976562 C2.63427734,1.25976562 1.61865234,2.30078125 1.61865234,4.16699219 L1.61865234,9.02929688 C1.61865234,10.8955078 2.63427734,11.9365234 4.52587891,11.9365234 L4.83056641,11.9365234 L4.83056641,13.5869141 C4.83056641,14.0756836 5.078125,14.3930664 5.52246094,14.3930664 Z" id="translucent" opacity="0.25"></path>
            <path d="M5.52246094,14.3930664 C5.83349609,14.3930664 6.04931641,14.2280273 6.43652344,13.8852539 L8.62646484,11.9365234 L12.7016602,11.9365234 C14.5932617,11.9365234 15.6088867,10.8891602 15.6088867,9.02929688 L15.6088867,4.16699219 C15.6088867,2.30712891 14.5932617,1.25976562 12.7016602,1.25976562 L4.52587891,1.25976562 C2.63427734,1.25976562 1.61865234,2.30078125 1.61865234,4.16699219 L1.61865234,9.02929688 C1.61865234,10.8955078 2.63427734,11.9365234 4.52587891,11.9365234 L4.83056641,11.9365234 L4.83056641,13.5869141 C4.83056641,14.0756836 5.078125,14.3930664 5.52246094,14.3930664 Z M5.78271484,13.2314453 L5.78271484,11.390625 C5.78271484,11.0478516 5.64941406,10.9145508 5.30664062,10.9145508 L4.52587891,10.9145508 C3.24365234,10.9145508 2.640625,10.2607422 2.640625,9.02294922 L2.640625,4.16699219 C2.640625,2.92919922 3.24365234,2.28173828 4.52587891,2.28173828 L12.7016602,2.28173828 C13.9775391,2.28173828 14.5869141,2.92919922 14.5869141,4.16699219 L14.5869141,9.02294922 C14.5869141,10.2607422 13.9775391,10.9145508 12.7016602,10.9145508 L8.58837891,10.9145508 C8.23291016,10.9145508 8.05517578,10.965332 7.81396484,11.2128906 L5.78271484,13.2314453 Z" id="solid" opacity="0.5"></path>
        </g>
    </g>
</svg>