<?xml version="1.0" encoding="UTF-8"?>
<svg width="15px" height="15px" viewBox="0 0 15 15" version="1.1" xmlns="http://www.w3.org/2000/svg" xmlns:xlink="http://www.w3.org/1999/xlink">
    <title>communication/envelope</title>
    <g id="communication/envelope" stroke="none" stroke-width="1" fill="none" fill-rule="evenodd">
        <g id="dark" transform="translate(-1.000000, 0.000000)" fill="#000000" fill-rule="nonzero" opacity="0.75">
            <path d="M8.63916016,8.15966797 C8.89941406,8.15966797 9.140625,8.0390625 9.41992188,7.75976562 L14.9423828,2.29443359 C14.7075195,2.06591797 14.2695312,1.95800781 13.6411133,1.95800781 L3.42138672,1.95800781 C2.88818359,1.95800781 2.51367188,2.05957031 2.30419922,2.26904297 L7.85839844,7.75976562 C8.13134766,8.03271484 8.37255859,8.15966797 8.63916016,8.15966797 Z M1.77734375,11.8730469 L6.26513672,7.43603516 L1.76464844,2.99902344 C1.66943359,3.17675781 1.61865234,3.48144531 1.61865234,3.91943359 L1.61865234,10.9272461 C1.61865234,11.3779297 1.66943359,11.6953125 1.77734375,11.8730469 Z M15.4819336,11.8666992 C15.5834961,11.6826172 15.6342773,11.371582 15.6342773,10.9272461 L15.6342773,3.91943359 C15.6342773,3.49414062 15.5834961,3.18945312 15.4946289,3.01806641 L11.0068359,7.43603516 L15.4819336,11.8666992 Z M13.831543,12.8950195 C14.3647461,12.8950195 14.7329102,12.793457 14.9423828,12.590332 L10.3657227,8.05810547 L9.94677734,8.48339844 C9.50878906,8.90234375 9.09619141,9.09277344 8.63916016,9.09277344 C8.17578125,9.09277344 7.76318359,8.90234375 7.33154297,8.48339844 L6.90625,8.05810547 L2.34228516,12.5839844 C2.58349609,12.793457 3.00244141,12.8950195 3.61181641,12.8950195 L13.831543,12.8950195 Z" id="opaque"></path>
        </g>
        <g id="light" transform="translate(-1.000000, 0.000000)" fill="#000000" fill-rule="nonzero">
            <path d="M13.831543,12.8950195 C14.9741211,12.8950195 15.6342773,12.2348633 15.6342773,10.9272461 L15.6342773,3.91943359 C15.6342773,2.61816406 14.9677734,1.95800781 13.6411133,1.95800781 L3.42138672,1.95800781 C2.27880859,1.95800781 1.61865234,2.61181641 1.61865234,3.91943359 L1.61865234,10.9272461 C1.61865234,12.2412109 2.28515625,12.8950195 3.61181641,12.8950195 L13.831543,12.8950195 Z" id="translucent" opacity="0.25"></path>
            <path d="M13.831543,12.8950195 C14.9741211,12.8950195 15.6342773,12.2348633 15.6342773,10.9272461 L15.6342773,3.91943359 C15.6342773,2.61816406 14.9677734,1.95800781 13.6411133,1.95800781 L3.42138672,1.95800781 C2.27880859,1.95800781 1.61865234,2.61181641 1.61865234,3.91943359 L1.61865234,10.9272461 C1.61865234,12.2412109 2.28515625,12.8950195 3.61181641,12.8950195 L13.831543,12.8950195 Z M8.63916016,8.140625 C8.38525391,8.140625 8.13769531,8.01367188 7.87109375,7.74707031 L3.07861328,3.01806641 C3.21826172,2.9609375 3.38330078,2.92919922 3.57373047,2.92919922 L13.6791992,2.92919922 C13.8759766,2.92919922 14.0473633,2.9609375 14.1870117,3.02441406 L9.40722656,7.74707031 C9.13427734,8.02001953 8.88671875,8.140625 8.63916016,8.140625 Z M2.59619141,11.0351562 C2.58984375,11.003418 2.58984375,10.965332 2.58984375,10.9272461 L2.58984375,3.84960938 L2.58984375,3.84960938 L6.23974609,7.43603516 L2.59619141,11.0351562 Z M14.6630859,11.0161133 L11.0385742,7.43603516 L14.6630859,3.86865234 L14.6630859,11.0161133 L14.6630859,11.0161133 Z M13.6791992,11.9238281 L3.57373047,11.9238281 C3.39599609,11.9238281 3.24365234,11.8984375 3.11035156,11.8413086 L6.90625,8.08984375 L7.31884766,8.49609375 C7.76318359,8.93408203 8.18847656,9.11816406 8.63916016,9.11816406 C9.08349609,9.11816406 9.51513672,8.93408203 9.95947266,8.49609375 L10.3720703,8.08984375 L14.1616211,11.8349609 C14.0219727,11.8984375 13.8632812,11.9238281 13.6791992,11.9238281 Z" id="solid" opacity="0.5"></path>
        </g>
    </g>
</svg>