<?xml version="1.0" encoding="UTF-8"?>
<svg width="15px" height="15px" viewBox="0 0 15 15" version="1.1" xmlns="http://www.w3.org/2000/svg" xmlns:xlink="http://www.w3.org/1999/xlink">
    <title>communication/mic</title>
    <g id="communication/mic" stroke="none" stroke-width="1" fill="none" fill-rule="evenodd">
        <g id="dark" fill="#000000" fill-rule="nonzero">
            <path d="M7.50317383,9.08007812 C8.76635742,9.08007812 9.61694336,8.13427734 9.61694336,6.78222656 L9.61694336,2.53564453 C9.61694336,1.17724609 8.76635742,0.237792969 7.50317383,0.237792969 C6.23364258,0.237792969 5.38305664,1.17724609 5.38305664,2.53564453 L5.38305664,6.78222656 C5.38305664,8.13427734 6.23364258,9.08007812 7.50317383,9.08007812 Z M10.3342285,13.7583008 C10.6008301,13.7583008 10.8166504,13.5488281 10.8166504,13.2822266 C10.8166504,13.015625 10.6008301,12.7998047 10.3342285,12.7998047 L7.97924805,12.7998047 L7.97924805,11.3208008 C10.4040527,11.1176758 12.041748,9.37207031 12.041748,6.88378906 L12.041748,5.59521484 C12.041748,5.32861328 11.8322754,5.11914062 11.5656738,5.11914062 C11.2990723,5.11914062 11.083252,5.32861328 11.083252,5.59521484 L11.083252,6.84570312 C11.083252,9.01025391 9.67407227,10.4448242 7.50317383,10.4448242 C5.32592773,10.4448242 3.91674805,9.01025391 3.91674805,6.84570312 L3.91674805,5.59521484 C3.91674805,5.32861328 3.70727539,5.11914062 3.43432617,5.11914062 C3.16772461,5.11914062 2.95825195,5.32861328 2.95825195,5.59521484 L2.95825195,6.88378906 C2.95825195,9.37207031 4.60229492,11.1176758 7.02075195,11.3208008 L7.02075195,12.7998047 L4.66577148,12.7998047 C4.39916992,12.7998047 4.18334961,13.015625 4.18334961,13.2822266 C4.18334961,13.5488281 4.39916992,13.7583008 4.66577148,13.7583008 L10.3342285,13.7583008 Z" id="solid"></path>
        </g>
        <g id="light" transform="translate(2.000000, 0.000000)" fill="#000000" fill-rule="nonzero">
            <path d="M5.50317383,9.14355469 C6.86791992,9.14355469 7.80737305,8.11523438 7.80737305,6.65527344 L7.80737305,2.66259766 C7.80737305,1.19628906 6.86791992,0.174316406 5.50317383,0.174316406 C4.13208008,0.174316406 3.19262695,1.19628906 3.19262695,2.66259766 L3.19262695,6.65527344 C3.19262695,8.11523438 4.13208008,9.14355469 5.50317383,9.14355469 Z" id="translucent" opacity="0.35"></path>
            <path d="M5.50317383,9.14355469 C6.86791992,9.14355469 7.80737305,8.11523438 7.80737305,6.65527344 L7.80737305,2.66259766 C7.80737305,1.19628906 6.86791992,0.174316406 5.50317383,0.174316406 C4.13208008,0.174316406 3.19262695,1.19628906 3.19262695,2.66259766 L3.19262695,6.65527344 C3.19262695,8.11523438 4.13208008,9.14355469 5.50317383,9.14355469 Z M5.50317383,8.19775391 C4.69067383,8.19775391 4.15112305,7.59472656 4.15112305,6.65527344 L4.15112305,2.66259766 C4.15112305,1.72314453 4.69067383,1.12011719 5.50317383,1.12011719 C6.31567383,1.12011719 6.84887695,1.72314453 6.84887695,2.66259766 L6.84887695,6.65527344 C6.84887695,7.59472656 6.31567383,8.19775391 5.50317383,8.19775391 Z M8.33422852,13.7583008 C8.60083008,13.7583008 8.81665039,13.5488281 8.81665039,13.2822266 C8.81665039,13.015625 8.60083008,12.7998047 8.33422852,12.7998047 L5.97924805,12.7998047 L5.97924805,11.3208008 C8.40405273,11.1176758 10.041748,9.37841797 10.041748,6.88378906 L10.041748,5.59521484 C10.041748,5.32861328 9.83227539,5.11914062 9.56567383,5.11914062 C9.29907227,5.11914062 9.08325195,5.32861328 9.08325195,5.59521484 L9.08325195,6.84570312 C9.08325195,9.01025391 7.67407227,10.4448242 5.50317383,10.4448242 C3.32592773,10.4448242 1.91674805,9.01025391 1.91674805,6.84570312 L1.91674805,5.59521484 C1.91674805,5.32861328 1.70727539,5.11914062 1.43432617,5.11914062 C1.16772461,5.11914062 0.958251953,5.32861328 0.958251953,5.59521484 L0.958251953,6.88378906 C0.958251953,9.37841797 2.60229492,11.1176758 5.02075195,11.3208008 L5.02075195,12.7998047 L2.66577148,12.7998047 C2.39916992,12.7998047 2.18334961,13.015625 2.18334961,13.2822266 C2.18334961,13.5488281 2.39916992,13.7583008 2.66577148,13.7583008 L8.33422852,13.7583008 Z" id="solid"></path>
        </g>
    </g>
</svg>