<?xml version="1.0" encoding="UTF-8"?>
<svg width="15px" height="15px" viewBox="0 0 15 15" version="1.1" xmlns="http://www.w3.org/2000/svg" xmlns:xlink="http://www.w3.org/1999/xlink">
    <title>communication/phone</title>
    <g id="communication/phone" stroke="none" stroke-width="1" fill="none" fill-rule="evenodd">
        <g id="dark" fill="#000000" fill-rule="nonzero" opacity="0.75">
            <path d="M10.7246094,13.5424805 C11.543457,13.5424805 12.2607422,13.2568359 12.8383789,12.6220703 C13.1748047,12.2475586 13.3842773,11.8095703 13.3842773,11.3779297 C13.3842773,11.0605469 13.2636719,10.7558594 12.965332,10.5400391 L11.0166016,9.15625 C10.7182617,8.953125 10.4707031,8.8515625 10.2421875,8.8515625 C9.95654297,8.8515625 9.69628906,9.01660156 9.40429688,9.30224609 L8.95361328,9.74658203 C8.88378906,9.81640625 8.79492188,9.84814453 8.71240234,9.84814453 C8.6171875,9.84814453 8.52197266,9.81005859 8.45849609,9.77832031 C8.06494141,9.56884766 7.39208984,8.99121094 6.76367188,8.36914062 C6.14160156,7.74707031 5.56396484,7.07421875 5.36083984,6.68066406 C5.32910156,6.61083984 5.29101562,6.52197266 5.29101562,6.42675781 C5.29101562,6.34423828 5.31640625,6.26171875 5.38623047,6.19189453 L5.83691406,5.72851562 C6.11621094,5.43652344 6.28759766,5.18261719 6.28759766,4.890625 C6.28759766,4.66210938 6.1796875,4.41455078 5.97021484,4.11621094 L4.60546875,2.19287109 C4.38330078,1.88818359 4.07226562,1.75488281 3.72949219,1.75488281 C3.31054688,1.75488281 2.87890625,1.9453125 2.50439453,2.30712891 C1.88867188,2.89746094 1.61572266,3.62744141 1.61572266,4.43359375 C1.61572266,6.25537109 3.00585938,8.46435547 4.84033203,10.2924805 C6.67480469,12.1269531 8.90283203,13.5424805 10.7246094,13.5424805 Z" id="opaque"></path>
        </g>
        <g id="light" fill="#000000" fill-rule="nonzero">
            <path d="M10.6894531,13.644043 C11.800293,13.644043 12.5302734,13.3457031 13.1713867,12.6220703 C13.222168,12.5712891 13.2729492,12.5141602 13.3173828,12.4633789 C13.6982422,12.0380859 13.8759766,11.6191406 13.8759766,11.2192383 C13.8759766,10.762207 13.609375,10.3369141 13.0444336,9.94335938 L11.1972656,8.66113281 C10.6259766,8.26757812 9.95947266,8.22314453 9.42626953,8.75 L8.9375,9.23876953 C8.79150391,9.38476562 8.66455078,9.39111328 8.52490234,9.30224609 C8.18212891,9.08642578 7.49023438,8.48339844 7.02050781,8.01367188 C6.52539062,7.52490234 6.04931641,6.97900391 5.79541016,6.57910156 C5.71289062,6.43310547 5.71923828,6.3125 5.86523438,6.16650391 L6.34765625,5.67773438 C6.88085938,5.14453125 6.83642578,4.47167969 6.44287109,3.90673828 L5.16064453,2.05957031 C4.76708984,1.49462891 4.34179688,1.234375 3.88476562,1.22802734 C3.48486328,1.22167969 3.06591797,1.40576172 2.640625,1.78662109 C2.58349609,1.83740234 2.53271484,1.88183594 2.48193359,1.92626953 C1.75830078,2.57373047 1.45996094,3.30371094 1.45996094,4.40185547 C1.45996094,6.21728516 2.57714844,8.42626953 4.62744141,10.4765625 C6.66503906,12.5141602 8.88037109,13.644043 10.6894531,13.644043 Z" id="translucent" opacity="0.25"></path>
            <path d="M10.6894531,13.644043 C11.800293,13.644043 12.5302734,13.3457031 13.1713867,12.6220703 C13.222168,12.5712891 13.2729492,12.5141602 13.3173828,12.4633789 C13.6982422,12.0380859 13.8759766,11.6191406 13.8759766,11.2192383 C13.8759766,10.762207 13.609375,10.3369141 13.0444336,9.94335938 L11.1972656,8.66113281 C10.6259766,8.26757812 9.95947266,8.22314453 9.42626953,8.75 L8.9375,9.23876953 C8.79150391,9.38476562 8.66455078,9.39111328 8.52490234,9.30224609 C8.18212891,9.08642578 7.49023438,8.48339844 7.02050781,8.01367188 C6.52539062,7.52490234 6.04931641,6.97900391 5.79541016,6.57910156 C5.71289062,6.43310547 5.71923828,6.3125 5.86523438,6.16650391 L6.34765625,5.67773438 C6.88085938,5.14453125 6.83642578,4.47167969 6.44287109,3.90673828 L5.16064453,2.05957031 C4.76708984,1.49462891 4.34179688,1.234375 3.88476562,1.22802734 C3.48486328,1.22167969 3.06591797,1.40576172 2.640625,1.78662109 C2.58349609,1.83740234 2.53271484,1.88183594 2.48193359,1.92626953 C1.75830078,2.57373047 1.45996094,3.30371094 1.45996094,4.40185547 C1.45996094,6.21728516 2.57714844,8.42626953 4.62744141,10.4765625 C6.66503906,12.5141602 8.88037109,13.644043 10.6894531,13.644043 Z M10.6958008,12.6665039 C9.07714844,12.6982422 7.00146484,11.4541016 5.35742187,9.81640625 C3.70068359,8.16601562 2.39941406,6.02050781 2.43115234,4.40185547 C2.44384766,3.70361328 2.69140625,3.10058594 3.18652344,2.66894531 C3.23095703,2.63085938 3.26269531,2.59912109 3.30712891,2.56738281 C3.49755859,2.40234375 3.70068359,2.31347656 3.88476562,2.31347656 C4.06884766,2.31347656 4.23388672,2.38330078 4.35449219,2.57373047 L5.5859375,4.42089844 C5.71923828,4.61767578 5.73193359,4.83984375 5.53515625,5.03662109 L4.9765625,5.59521484 C4.53857422,6.03320312 4.5703125,6.56640625 4.88769531,6.99169922 C5.24951172,7.48046875 5.87792969,8.19140625 6.36669922,8.67382812 C6.84912109,9.16259766 7.6171875,9.84814453 8.11230469,10.2163086 C8.53759766,10.5336914 9.07080078,10.5654297 9.50878906,10.1274414 L10.0673828,9.56884766 C10.2641602,9.37207031 10.4799805,9.38476562 10.6831055,9.51171875 L12.5302734,10.7431641 C12.7207031,10.8701172 12.7905273,11.0288086 12.7905273,11.2192383 C12.7905273,11.4033203 12.7016602,11.6064453 12.5366211,11.796875 C12.4985352,11.8413086 12.4731445,11.8730469 12.4350586,11.9174805 C12.003418,12.4125977 11.4003906,12.6538086 10.6958008,12.6665039 Z" id="solid" opacity="0.5"></path>
        </g>
    </g>
</svg>