<?xml version="1.0" encoding="UTF-8"?>
<svg width="15px" height="15px" viewBox="0 0 15 15" version="1.1" xmlns="http://www.w3.org/2000/svg" xmlns:xlink="http://www.w3.org/1999/xlink">
    <title>communication/waveform</title>
    <g id="communication/waveform" stroke="none" stroke-width="1" fill="none" fill-rule="evenodd" opacity="0.75">
        <g id="dark" fill="#000000" fill-rule="nonzero">
            <path d="M6.57641602,13.2631836 C6.83032227,13.2631836 7.02709961,13.0664062 7.02709961,12.8188477 L7.02709961,2.02148438 C7.02709961,1.77392578 6.83032227,1.57714844 6.57641602,1.57714844 C6.32250977,1.57714844 6.13208008,1.77392578 6.13208008,2.02148438 L6.13208008,12.8188477 C6.13208008,13.0664062 6.32250977,13.2631836 6.57641602,13.2631836 Z M10.270752,11.9936523 C10.5246582,11.9936523 10.7150879,11.7905273 10.7150879,11.5429688 L10.7150879,3.29736328 C10.7150879,3.04980469 10.5246582,2.84667969 10.270752,2.84667969 C10.010498,2.84667969 9.82006836,3.04980469 9.82006836,3.29736328 L9.82006836,11.5429688 C9.82006836,11.7905273 10.010498,11.9936523 10.270752,11.9936523 Z M4.72924805,10.965332 C4.98950195,10.965332 5.17993164,10.7685547 5.17993164,10.5209961 L5.17993164,4.31933594 C5.17993164,4.07177734 4.98950195,3.875 4.72924805,3.875 C4.4753418,3.875 4.28491211,4.07177734 4.28491211,4.31933594 L4.28491211,10.5209961 C4.28491211,10.7685547 4.4753418,10.965332 4.72924805,10.965332 Z M8.42358398,10.2797852 C8.67749023,10.2797852 8.86791992,10.0830078 8.86791992,9.83544922 L8.86791992,5.00488281 C8.86791992,4.75732422 8.67749023,4.56054688 8.42358398,4.56054688 C8.16967773,4.56054688 7.97290039,4.75732422 7.97290039,5.00488281 L7.97290039,9.83544922 C7.97290039,10.0830078 8.16967773,10.2797852 8.42358398,10.2797852 Z M12.1179199,9.14355469 C12.3718262,9.14355469 12.5622559,8.94042969 12.5622559,8.69287109 L12.5622559,6.14746094 C12.5622559,5.89990234 12.3718262,5.69677734 12.1179199,5.69677734 C11.857666,5.69677734 11.6672363,5.89990234 11.6672363,6.14746094 L11.6672363,8.69287109 C11.6672363,8.94042969 11.857666,9.14355469 12.1179199,9.14355469 Z M2.88842773,8.64208984 C3.14233398,8.64208984 3.33276367,8.4453125 3.33276367,8.19775391 L3.33276367,6.64257812 C3.33276367,6.39501953 3.14233398,6.19824219 2.88842773,6.19824219 C2.62817383,6.19824219 2.43774414,6.39501953 2.43774414,6.64257812 L2.43774414,8.19775391 C2.43774414,8.4453125 2.62817383,8.64208984 2.88842773,8.64208984 Z" id="opaque"></path>
        </g>
        <g id="light" fill="#000000" fill-rule="nonzero">
            <path d="M6.57641602,13.2631836 C6.83032227,13.2631836 7.02709961,13.0664062 7.02709961,12.8188477 L7.02709961,2.02148438 C7.02709961,1.77392578 6.83032227,1.57714844 6.57641602,1.57714844 C6.32250977,1.57714844 6.13208008,1.77392578 6.13208008,2.02148438 L6.13208008,12.8188477 C6.13208008,13.0664062 6.32250977,13.2631836 6.57641602,13.2631836 Z M10.270752,11.9936523 C10.5246582,11.9936523 10.7150879,11.7905273 10.7150879,11.5429688 L10.7150879,3.29736328 C10.7150879,3.04980469 10.5246582,2.84667969 10.270752,2.84667969 C10.010498,2.84667969 9.82006836,3.04980469 9.82006836,3.29736328 L9.82006836,11.5429688 C9.82006836,11.7905273 10.010498,11.9936523 10.270752,11.9936523 Z M4.72924805,10.965332 C4.98950195,10.965332 5.17993164,10.7685547 5.17993164,10.5209961 L5.17993164,4.31933594 C5.17993164,4.07177734 4.98950195,3.875 4.72924805,3.875 C4.4753418,3.875 4.28491211,4.07177734 4.28491211,4.31933594 L4.28491211,10.5209961 C4.28491211,10.7685547 4.4753418,10.965332 4.72924805,10.965332 Z M8.42358398,10.2797852 C8.67749023,10.2797852 8.86791992,10.0830078 8.86791992,9.83544922 L8.86791992,5.00488281 C8.86791992,4.75732422 8.67749023,4.56054688 8.42358398,4.56054688 C8.16967773,4.56054688 7.97290039,4.75732422 7.97290039,5.00488281 L7.97290039,9.83544922 C7.97290039,10.0830078 8.16967773,10.2797852 8.42358398,10.2797852 Z M12.1179199,9.14355469 C12.3718262,9.14355469 12.5622559,8.94042969 12.5622559,8.69287109 L12.5622559,6.14746094 C12.5622559,5.89990234 12.3718262,5.69677734 12.1179199,5.69677734 C11.857666,5.69677734 11.6672363,5.89990234 11.6672363,6.14746094 L11.6672363,8.69287109 C11.6672363,8.94042969 11.857666,9.14355469 12.1179199,9.14355469 Z M2.88842773,8.64208984 C3.14233398,8.64208984 3.33276367,8.4453125 3.33276367,8.19775391 L3.33276367,6.64257812 C3.33276367,6.39501953 3.14233398,6.19824219 2.88842773,6.19824219 C2.62817383,6.19824219 2.43774414,6.39501953 2.43774414,6.64257812 L2.43774414,8.19775391 C2.43774414,8.4453125 2.62817383,8.64208984 2.88842773,8.64208984 Z" id="opaque"></path>
        </g>
    </g>
</svg>