<?xml version="1.0" encoding="UTF-8"?>
<svg width="15px" height="15px" viewBox="0 0 15 15" version="1.1" xmlns="http://www.w3.org/2000/svg" xmlns:xlink="http://www.w3.org/1999/xlink">
    <title>commerce/bag</title>
    <g id="commerce/bag" stroke="none" stroke-width="1" fill="none" fill-rule="evenodd">
        <g id="dark" fill="#000000" fill-rule="nonzero" opacity="0.75">
            <path d="M11.3308105,13.2695312 C12.467041,13.2695312 13.1335449,12.609375 13.1335449,11.3017578 L13.1335449,4.73193359 C13.1335449,3.42431641 12.4606934,2.76416016 11.1403809,2.76416016 L10.1247559,2.76416016 C10.0930176,1.43115234 8.93139648,0.294921875 7.49682617,0.294921875 C6.06225586,0.294921875 4.90063477,1.43115234 4.86889648,2.76416016 L3.85961914,2.76416016 C2.53295898,2.76416016 1.86645508,3.41796875 1.86645508,4.73193359 L1.86645508,11.3017578 C1.86645508,12.6157227 2.53295898,13.2695312 3.85961914,13.2695312 L11.3308105,13.2695312 Z M9.1027832,2.76416016 L5.89086914,2.76416016 C5.92260742,1.93261719 6.60180664,1.25976562 7.49682617,1.25976562 C8.3918457,1.25976562 9.07104492,1.93261719 9.1027832,2.76416016 Z" id="opaque"></path>
        </g>
        <g id="light" fill="#000000" fill-rule="nonzero">
            <path d="M11.3308105,13.2695312 C12.467041,13.2695312 13.1335449,12.609375 13.1335449,11.3017578 L13.1335449,4.73193359 C13.1335449,3.42431641 12.4606934,2.76416016 11.1403809,2.76416016 L10.1247559,2.76416016 C10.0930176,1.43115234 8.93139648,0.294921875 7.49682617,0.294921875 C6.06225586,0.294921875 4.90063477,1.43115234 4.86889648,2.76416016 L3.85961914,2.76416016 C2.53295898,2.76416016 1.86645508,3.41796875 1.86645508,4.73193359 L1.86645508,11.3017578 C1.86645508,12.6157227 2.53295898,13.2695312 3.85961914,13.2695312 L11.3308105,13.2695312 Z M9.1027832,2.76416016 L5.89086914,2.76416016 C5.92260742,1.93261719 6.60180664,1.25976562 7.49682617,1.25976562 C8.3918457,1.25976562 9.07104492,1.93261719 9.1027832,2.76416016 Z" id="translucent" opacity="0.25"></path>
            <path d="M11.3308105,13.2695312 C12.467041,13.2695312 13.1335449,12.609375 13.1335449,11.3017578 L13.1335449,4.73193359 C13.1335449,3.42431641 12.4606934,2.76416016 11.1403809,2.76416016 L10.1247559,2.76416016 C10.0930176,1.43115234 8.93139648,0.294921875 7.49682617,0.294921875 C6.06225586,0.294921875 4.90063477,1.43115234 4.86889648,2.76416016 L3.85961914,2.76416016 C2.53295898,2.76416016 1.86645508,3.41796875 1.86645508,4.73193359 L1.86645508,11.3017578 C1.86645508,12.6157227 2.53295898,13.2695312 3.85961914,13.2695312 L11.3308105,13.2695312 Z M9.1027832,2.76416016 L5.89086914,2.76416016 C5.92260742,1.93261719 6.60180664,1.25976562 7.49682617,1.25976562 C8.3918457,1.25976562 9.07104492,1.93261719 9.1027832,2.76416016 Z M11.3117676,12.2475586 L3.87231445,12.2475586 C3.23754883,12.2475586 2.88842773,11.9111328 2.88842773,11.2509766 L2.88842773,4.78271484 C2.88842773,4.12255859 3.23754883,3.78613281 3.87231445,3.78613281 L11.1213379,3.78613281 C11.7497559,3.78613281 12.1115723,4.12255859 12.1115723,4.78271484 L12.1115723,11.2509766 C12.1115723,11.9111328 11.7497559,12.2475586 11.3117676,12.2475586 Z" id="solid" opacity="0.5"></path>
        </g>
    </g>
</svg>