<?xml version="1.0" encoding="UTF-8"?>
<svg width="15px" height="15px" viewBox="0 0 15 15" version="1.1" xmlns="http://www.w3.org/2000/svg" xmlns:xlink="http://www.w3.org/1999/xlink">
    <title>commerce/cart</title>
    <g id="commerce/cart" stroke="none" stroke-width="1" fill="none" fill-rule="evenodd">
        <g id="dark" transform="translate(-1.000000, 0.000000)" fill="#000000" fill-rule="nonzero">
            <path d="M13.8632812,11.0224609 C14.1108398,11.0224609 14.3266602,10.8193359 14.3266602,10.5463867 C14.3266602,10.2734375 14.1108398,10.0703125 13.8632812,10.0703125 L6.56347656,10.0703125 C6.20166016,10.0703125 5.97949219,9.81640625 5.92236328,9.42919922 L5.82080078,8.76269531 L13.8759766,8.76269531 C14.8027344,8.76269531 15.2788086,8.19140625 15.4121094,7.28369141 L15.9199219,3.92578125 C15.9326172,3.84326172 15.9453125,3.74169922 15.9453125,3.68457031 C15.9453125,3.37988281 15.7167969,3.17041016 15.3676758,3.17041016 L5.00830078,3.17041016 L4.88134766,2.36425781 C4.81787109,1.87548828 4.64013672,1.62792969 3.99267578,1.62792969 L1.76464844,1.62792969 C1.51074219,1.62792969 1.29492188,1.85009766 1.29492188,2.10400391 C1.29492188,2.36425781 1.51074219,2.58642578 1.76464844,2.58642578 L3.91015625,2.58642578 L4.92578125,9.55615234 C5.05908203,10.4575195 5.53515625,11.0224609 6.45556641,11.0224609 L13.8632812,11.0224609 Z M6.95703125,14.1074219 C7.52832031,14.1074219 7.98535156,13.6567383 7.98535156,13.0791016 C7.98535156,12.5078125 7.52832031,12.0507812 6.95703125,12.0507812 C6.37939453,12.0507812 5.92236328,12.5078125 5.92236328,13.0791016 C5.92236328,13.6567383 6.37939453,14.1074219 6.95703125,14.1074219 Z M12.8920898,14.1074219 C13.4697266,14.1074219 13.9267578,13.6567383 13.9267578,13.0791016 C13.9267578,12.5078125 13.4697266,12.0507812 12.8920898,12.0507812 C12.3208008,12.0507812 11.8574219,12.5078125 11.8574219,13.0791016 C11.8574219,13.6567383 12.3208008,14.1074219 12.8920898,14.1074219 Z" id="solid"></path>
        </g>
        <g id="light" transform="translate(-1.000000, 0.000000)" fill="#000000" fill-rule="nonzero">
            <path d="M13.8632812,11.0224609 C14.1108398,11.0224609 14.3266602,10.8193359 14.3266602,10.5463867 C14.3266602,10.2734375 14.1108398,10.0703125 13.8632812,10.0703125 L6.56347656,10.0703125 C6.20166016,10.0703125 5.97949219,9.81640625 5.92236328,9.42919922 L5.82080078,8.76269531 L13.8759766,8.76269531 C14.8027344,8.76269531 15.2788086,8.19140625 15.4121094,7.28369141 L15.9199219,3.92578125 C15.9326172,3.84326172 15.9453125,3.74169922 15.9453125,3.68457031 C15.9453125,3.37988281 15.7167969,3.17041016 15.3676758,3.17041016 L5.00195312,3.17041016 L4.88134766,2.36425781 C4.81787109,1.87548828 4.64013672,1.62792969 3.99267578,1.62792969 L1.76464844,1.62792969 C1.51074219,1.62792969 1.29492188,1.85009766 1.29492188,2.10400391 C1.29492188,2.36425781 1.51074219,2.58642578 1.76464844,2.58642578 L3.91015625,2.58642578 L4.92578125,9.55615234 C5.05908203,10.4575195 5.53515625,11.0224609 6.45556641,11.0224609 L13.8632812,11.0224609 Z M6.95703125,14.1074219 C7.52832031,14.1074219 7.98535156,13.6567383 7.98535156,13.0791016 C7.98535156,12.5078125 7.52832031,12.0507812 6.95703125,12.0507812 C6.37939453,12.0507812 5.92236328,12.5078125 5.92236328,13.0791016 C5.92236328,13.6567383 6.37939453,14.1074219 6.95703125,14.1074219 Z M12.8920898,14.1074219 C13.4697266,14.1074219 13.9267578,13.6567383 13.9267578,13.0791016 C13.9267578,12.5078125 13.4697266,12.0507812 12.8920898,12.0507812 C12.3208008,12.0507812 11.8574219,12.5078125 11.8574219,13.0791016 C11.8574219,13.6567383 12.3208008,14.1074219 12.8920898,14.1074219 Z" id="translucent"></path>
            <path d="M13.8632812,11.0224609 C14.1108398,11.0224609 14.3266602,10.8193359 14.3266602,10.5463867 C14.3266602,10.2734375 14.1108398,10.0703125 13.8632812,10.0703125 L6.56347656,10.0703125 C6.20166016,10.0703125 5.97949219,9.81640625 5.92236328,9.42919922 L5.82080078,8.76269531 L13.8759766,8.76269531 C14.8027344,8.76269531 15.2788086,8.19140625 15.4121094,7.28369141 L15.9199219,3.92578125 C15.9326172,3.84326172 15.9453125,3.74169922 15.9453125,3.68457031 C15.9453125,3.37988281 15.7167969,3.17041016 15.3676758,3.17041016 L5.00195312,3.17041016 L4.88134766,2.36425781 C4.81787109,1.87548828 4.64013672,1.62792969 3.99267578,1.62792969 L1.76464844,1.62792969 C1.51074219,1.62792969 1.29492188,1.85009766 1.29492188,2.10400391 C1.29492188,2.36425781 1.51074219,2.58642578 1.76464844,2.58642578 L3.91015625,2.58642578 L4.92578125,9.55615234 C5.05908203,10.4575195 5.53515625,11.0224609 6.45556641,11.0224609 L13.8632812,11.0224609 Z M5.68115234,7.81054688 L5.14160156,4.12890625 L14.8662109,4.12890625 L14.4155273,7.16943359 C14.3647461,7.56298828 14.1552734,7.80419922 13.7807617,7.80419922 L5.68115234,7.81054688 Z M6.95703125,14.1074219 C7.52832031,14.1074219 7.98535156,13.6567383 7.98535156,13.0791016 C7.98535156,12.5078125 7.52832031,12.0507812 6.95703125,12.0507812 C6.37939453,12.0507812 5.92236328,12.5078125 5.92236328,13.0791016 C5.92236328,13.6567383 6.37939453,14.1074219 6.95703125,14.1074219 Z M12.8920898,14.1074219 C13.4697266,14.1074219 13.9267578,13.6567383 13.9267578,13.0791016 C13.9267578,12.5078125 13.4697266,12.0507812 12.8920898,12.0507812 C12.3208008,12.0507812 11.8574219,12.5078125 11.8574219,13.0791016 C11.8574219,13.6567383 12.3208008,14.1074219 12.8920898,14.1074219 Z" id="solid"></path>
        </g>
    </g>
</svg>