<?xml version="1.0" encoding="UTF-8"?>
<svg width="15px" height="15px" viewBox="0 0 15 15" version="1.1" xmlns="http://www.w3.org/2000/svg" xmlns:xlink="http://www.w3.org/1999/xlink">
    <title>commerce/cart</title>
    <g id="commerce/cart" stroke="none" stroke-width="1" fill="none" fill-rule="evenodd">
        <g id="dark" transform="translate(-1.000000, 0.000000)" fill="#000000" fill-rule="nonzero" opacity="0.75">
            <path d="M13.8632812,11.0224609 C14.1108398,11.0224609 14.3266602,10.8193359 14.3266602,10.5463867 C14.3266602,10.2734375 14.1108398,10.0703125 13.8632812,10.0703125 L6.56347656,10.0703125 C6.20166016,10.0703125 5.97949219,9.81640625 5.92236328,9.42919922 L5.82080078,8.76269531 L13.8759766,8.76269531 C14.8027344,8.76269531 15.2788086,8.19140625 15.4121094,7.28369141 L15.9199219,3.92578125 C15.9326172,3.84326172 15.9453125,3.74169922 15.9453125,3.68457031 C15.9453125,3.37988281 15.7167969,3.17041016 15.3676758,3.17041016 L5.00830078,3.17041016 L4.88134766,2.36425781 C4.81787109,1.87548828 4.64013672,1.62792969 3.99267578,1.62792969 L1.76464844,1.62792969 C1.51074219,1.62792969 1.29492188,1.85009766 1.29492188,2.10400391 C1.29492188,2.36425781 1.51074219,2.58642578 1.76464844,2.58642578 L3.91015625,2.58642578 L4.92578125,9.55615234 C5.05908203,10.4575195 5.53515625,11.0224609 6.45556641,11.0224609 L13.8632812,11.0224609 Z M6.95703125,14.1074219 C7.52832031,14.1074219 7.98535156,13.6567383 7.98535156,13.0791016 C7.98535156,12.5078125 7.52832031,12.0507812 6.95703125,12.0507812 C6.37939453,12.0507812 5.92236328,12.5078125 5.92236328,13.0791016 C5.92236328,13.6567383 6.37939453,14.1074219 6.95703125,14.1074219 Z M12.8920898,14.1074219 C13.4697266,14.1074219 13.9267578,13.6567383 13.9267578,13.0791016 C13.9267578,12.5078125 13.4697266,12.0507812 12.8920898,12.0507812 C12.3208008,12.0507812 11.8574219,12.5078125 11.8574219,13.0791016 C11.8574219,13.6567383 12.3208008,14.1074219 12.8920898,14.1074219 Z" id="opaque"></path>
        </g>
        <g id="light" transform="translate(0.000000, 1.000000)" fill="#000000" fill-rule="nonzero">
            <path d="M12.8632812,10.0224609 C13.1108398,10.0224609 13.3266602,9.81933594 13.3266602,9.54638672 C13.3266602,9.2734375 13.1108398,9.0703125 12.8632812,9.0703125 L5.56347656,9.0703125 C5.20166016,9.0703125 4.97949219,8.81640625 4.92236328,8.42919922 L4.82080078,7.76269531 L12.8759766,7.76269531 C13.8027344,7.76269531 14.2788086,7.19140625 14.4121094,6.28369141 L14.9199219,2.92578125 C14.9326172,2.84326172 14.9453125,2.74169922 14.9453125,2.68457031 C14.9453125,2.37988281 14.7167969,2.17041016 14.3676758,2.17041016 L4.00195312,2.17041016 L3.88134766,1.36425781 C3.81787109,0.875488281 3.64013672,0.627929688 2.99267578,0.627929688 L0.764648438,0.627929688 C0.510742188,0.627929688 0.294921875,0.850097656 0.294921875,1.10400391 C0.294921875,1.36425781 0.510742188,1.58642578 0.764648438,1.58642578 L2.91015625,1.58642578 L3.92578125,8.55615234 C4.05908203,9.45751953 4.53515625,10.0224609 5.45556641,10.0224609 L12.8632812,10.0224609 Z" id="translucent" opacity="0.25"></path>
            <path d="M12.8632812,10.0224609 C13.1108398,10.0224609 13.3266602,9.81933594 13.3266602,9.54638672 C13.3266602,9.2734375 13.1108398,9.0703125 12.8632812,9.0703125 L5.56347656,9.0703125 C5.20166016,9.0703125 4.97949219,8.81640625 4.92236328,8.42919922 L4.82080078,7.76269531 L12.8759766,7.76269531 C13.8027344,7.76269531 14.2788086,7.19140625 14.4121094,6.28369141 L14.9199219,2.92578125 C14.9326172,2.84326172 14.9453125,2.74169922 14.9453125,2.68457031 C14.9453125,2.37988281 14.7167969,2.17041016 14.3676758,2.17041016 L4.00195312,2.17041016 L3.88134766,1.36425781 C3.81787109,0.875488281 3.64013672,0.627929688 2.99267578,0.627929688 L0.764648438,0.627929688 C0.510742188,0.627929688 0.294921875,0.850097656 0.294921875,1.10400391 C0.294921875,1.36425781 0.510742188,1.58642578 0.764648438,1.58642578 L2.91015625,1.58642578 L3.92578125,8.55615234 C4.05908203,9.45751953 4.53515625,10.0224609 5.45556641,10.0224609 L12.8632812,10.0224609 Z M4.68115234,6.81054688 L4.14160156,3.12890625 L13.8662109,3.12890625 L13.4155273,6.16943359 C13.3647461,6.56298828 13.1552734,6.80419922 12.7807617,6.80419922 L4.68115234,6.81054688 Z" id="solid" opacity="0.5"></path>
            <path d="M5.95703125,13.1074219 C6.52832031,13.1074219 6.98535156,12.6567383 6.98535156,12.0791016 C6.98535156,11.5078125 6.52832031,11.0507812 5.95703125,11.0507812 C5.37939453,11.0507812 4.92236328,11.5078125 4.92236328,12.0791016 C4.92236328,12.6567383 5.37939453,13.1074219 5.95703125,13.1074219 Z M11.8920898,13.1074219 C12.4697266,13.1074219 12.9267578,12.6567383 12.9267578,12.0791016 C12.9267578,11.5078125 12.4697266,11.0507812 11.8920898,11.0507812 C11.3208008,11.0507812 10.8574219,11.5078125 10.8574219,12.0791016 C10.8574219,12.6567383 11.3208008,13.1074219 11.8920898,13.1074219 Z" id="opaque" opacity="0.75"></path>
        </g>
    </g>
</svg>