<?xml version="1.0" encoding="UTF-8"?>
<svg width="15px" height="15px" viewBox="0 0 15 15" version="1.1" xmlns="http://www.w3.org/2000/svg" xmlns:xlink="http://www.w3.org/1999/xlink">
    <title>commerce/credit-card</title>
    <g id="commerce/credit-card" stroke="none" stroke-width="1" fill="none" fill-rule="evenodd">
        <g id="dark" transform="translate(-1.570000, 0.000000)" fill="#000000" fill-rule="nonzero" opacity="0.75">
            <path d="M16.5864258,4.56054688 L16.5864258,3.55126953 C16.5864258,2.24365234 15.9262695,1.58349609 14.5932617,1.58349609 L3.61181641,1.58349609 C2.28515625,1.58349609 1.61865234,2.23730469 1.61865234,3.55126953 L1.61865234,4.56054688 L16.5864258,4.56054688 Z M14.5932617,13.2695312 C15.9262695,13.2695312 16.5864258,12.609375 16.5864258,11.3017578 L16.5864258,6.00146484 L1.61865234,6.00146484 L1.61865234,11.3017578 C1.61865234,12.6157227 2.28515625,13.2695312 3.61181641,13.2695312 L14.5932617,13.2695312 Z M6.06201172,11.0732422 L4.50683594,11.0732422 C4.13232422,11.0732422 3.87841797,10.8193359 3.87841797,10.4638672 L3.87841797,9.28955078 C3.87841797,8.92773438 4.13232422,8.68017578 4.50683594,8.68017578 L6.06201172,8.68017578 C6.43017578,8.68017578 6.68408203,8.92773438 6.68408203,9.28955078 L6.68408203,10.4638672 C6.68408203,10.8193359 6.43017578,11.0732422 6.06201172,11.0732422 Z" id="opaque"></path>
        </g>
        <g id="light" transform="translate(-0.570000, 1.000000)" fill="#000000" fill-rule="nonzero">
            <path d="M13.5932617,12.2695312 C14.9262695,12.2695312 15.5864258,11.609375 15.5864258,10.3017578 L15.5864258,2.55126953 C15.5864258,1.24365234 14.9262695,0.583496094 13.5932617,0.583496094 L2.61181641,0.583496094 C1.28515625,0.583496094 0.618652344,1.23730469 0.618652344,2.55126953 L0.618652344,10.3017578 C0.618652344,11.6157227 1.28515625,12.2695312 2.61181641,12.2695312 L13.5932617,12.2695312 Z" id="translucent" opacity="0.25"></path>
            <path d="M13.5932617,12.2695312 C14.9262695,12.2695312 15.5864258,11.609375 15.5864258,10.3017578 L15.5864258,2.55126953 C15.5864258,1.24365234 14.9262695,0.583496094 13.5932617,0.583496094 L2.61181641,0.583496094 C1.28515625,0.583496094 0.618652344,1.23730469 0.618652344,2.55126953 L0.618652344,10.3017578 C0.618652344,11.6157227 1.28515625,12.2695312 2.61181641,12.2695312 L13.5932617,12.2695312 Z M14.5644531,3.56054688 L1.640625,3.56054688 L1.640625,2.60205078 C1.640625,1.94189453 1.98974609,1.60546875 2.62451172,1.60546875 L13.5805664,1.60546875 C14.2089844,1.60546875 14.5644531,1.94189453 14.5644531,2.60205078 L14.5644531,3.56054688 Z M13.5805664,11.2475586 L2.62451172,11.2475586 C1.98974609,11.2475586 1.640625,10.9111328 1.640625,10.2509766 L1.640625,5.00146484 L14.5644531,5.00146484 L14.5644531,10.2509766 C14.5644531,10.9111328 14.2089844,11.2475586 13.5805664,11.2475586 Z M5.18896484,9.8828125 C5.55712891,9.8828125 5.81103516,9.62890625 5.81103516,9.2734375 L5.81103516,8.09912109 C5.81103516,7.73730469 5.55712891,7.48974609 5.18896484,7.48974609 L3.63378906,7.48974609 C3.25927734,7.48974609 3.00537109,7.73730469 3.00537109,8.09912109 L3.00537109,9.2734375 C3.00537109,9.62890625 3.25927734,9.8828125 3.63378906,9.8828125 L5.18896484,9.8828125 Z" id="solid" opacity="0.5"></path>
        </g>
    </g>
</svg>