<?xml version="1.0" encoding="UTF-8"?>
<svg width="15px" height="15px" viewBox="0 0 15 15" version="1.1" xmlns="http://www.w3.org/2000/svg" xmlns:xlink="http://www.w3.org/1999/xlink">
    <title>commerce/credit-card</title>
    <g id="commerce/credit-card" stroke="none" stroke-width="1" fill="none" fill-rule="evenodd">
        <g id="dark" transform="translate(-1.570000, 0.000000)" fill="#000000" fill-rule="nonzero">
            <path d="M16.5864258,4.56054688 L16.5864258,3.55126953 C16.5864258,2.24365234 15.9262695,1.58349609 14.5932617,1.58349609 L3.61181641,1.58349609 C2.28515625,1.58349609 1.61865234,2.23730469 1.61865234,3.55126953 L1.61865234,4.56054688 L16.5864258,4.56054688 Z M14.5932617,13.2695312 C15.9262695,13.2695312 16.5864258,12.609375 16.5864258,11.3017578 L16.5864258,6.00146484 L1.61865234,6.00146484 L1.61865234,11.3017578 C1.61865234,12.6157227 2.28515625,13.2695312 3.61181641,13.2695312 L14.5932617,13.2695312 Z M6.06201172,11.0732422 L4.50683594,11.0732422 C4.13232422,11.0732422 3.87841797,10.8193359 3.87841797,10.4638672 L3.87841797,9.28955078 C3.87841797,8.92773438 4.13232422,8.68017578 4.50683594,8.68017578 L6.06201172,8.68017578 C6.43017578,8.68017578 6.68408203,8.92773438 6.68408203,9.28955078 L6.68408203,10.4638672 C6.68408203,10.8193359 6.43017578,11.0732422 6.06201172,11.0732422 Z" id="solid"></path>
        </g>
        <g id="light" transform="translate(-1.570000, 0.000000)" fill="#000000" fill-rule="nonzero">
            <path d="M14.5932617,13.2695312 C15.9262695,13.2695312 16.5864258,12.609375 16.5864258,11.3017578 L16.5864258,3.55126953 C16.5864258,2.24365234 15.9262695,1.58349609 14.5932617,1.58349609 L3.61181641,1.58349609 C2.28515625,1.58349609 1.61865234,2.23730469 1.61865234,3.55126953 L1.61865234,11.3017578 C1.61865234,12.6157227 2.28515625,13.2695312 3.61181641,13.2695312 L14.5932617,13.2695312 Z" id="translucent" opacity="0.35"></path>
            <path d="M14.5932617,13.2695312 C15.9262695,13.2695312 16.5864258,12.609375 16.5864258,11.3017578 L16.5864258,3.55126953 C16.5864258,2.24365234 15.9262695,1.58349609 14.5932617,1.58349609 L3.61181641,1.58349609 C2.28515625,1.58349609 1.61865234,2.23730469 1.61865234,3.55126953 L1.61865234,11.3017578 C1.61865234,12.6157227 2.28515625,13.2695312 3.61181641,13.2695312 L14.5932617,13.2695312 Z M15.5644531,4.56054688 L2.640625,4.56054688 L2.640625,3.60205078 C2.640625,2.94189453 2.98974609,2.60546875 3.62451172,2.60546875 L14.5805664,2.60546875 C15.2089844,2.60546875 15.5644531,2.94189453 15.5644531,3.60205078 L15.5644531,4.56054688 Z M14.5805664,12.2475586 L3.62451172,12.2475586 C2.98974609,12.2475586 2.640625,11.9111328 2.640625,11.2509766 L2.640625,6.00146484 L15.5644531,6.00146484 L15.5644531,11.2509766 C15.5644531,11.9111328 15.2089844,12.2475586 14.5805664,12.2475586 Z M6.18896484,10.8828125 C6.55712891,10.8828125 6.81103516,10.6289062 6.81103516,10.2734375 L6.81103516,9.09912109 C6.81103516,8.73730469 6.55712891,8.48974609 6.18896484,8.48974609 L4.63378906,8.48974609 C4.25927734,8.48974609 4.00537109,8.73730469 4.00537109,9.09912109 L4.00537109,10.2734375 C4.00537109,10.6289062 4.25927734,10.8828125 4.63378906,10.8828125 L6.18896484,10.8828125 Z" id="solid"></path>
        </g>
    </g>
</svg>