<?xml version="1.0" encoding="UTF-8"?>
<svg width="15px" height="15px" viewBox="0 0 15 15" version="1.1" xmlns="http://www.w3.org/2000/svg" xmlns:xlink="http://www.w3.org/1999/xlink">
    <title>commerce/signature</title>
    <g id="commerce/signature" stroke="none" stroke-width="1" fill="none" fill-rule="evenodd">
        <g id="dark" transform="translate(-1.000000, 0.000000)" fill="#000000" fill-rule="nonzero">
            <path d="M6.22070312,13.9882812 C7.34863281,13.9882812 8.24707031,13.2998047 8.84765625,12.1523438 L15.8544922,12.1523438 C16.1083984,12.1523438 16.3085938,11.9326172 16.3085938,11.6884766 C16.3085938,11.4345703 16.1083984,11.2246094 15.8544922,11.2246094 L9.23339844,11.2246094 C9.48730469,10.4482422 9.63867188,9.54003906 9.66796875,8.54394531 C9.98046875,8.47558594 10.2978516,8.44140625 10.625,8.44140625 C10.7617188,8.44140625 10.8349609,8.5 10.8349609,8.59765625 C10.8349609,8.98339844 10.5908203,9.30078125 10.5908203,9.75488281 C10.5908203,10.1699219 10.8984375,10.4335938 11.3183594,10.4335938 C12.3535156,10.4335938 13.59375,8.77832031 13.9355469,8.77832031 C14.2431641,8.77832031 13.9111328,10.2480469 15.1513672,10.2480469 C15.3808594,10.2480469 15.6640625,10.1845703 15.8789062,10.0429688 C16.0205078,9.9453125 16.1230469,9.79882812 16.1230469,9.60839844 C16.1230469,9.36914062 15.9619141,9.15917969 15.7080078,9.15917969 C15.546875,9.15917969 15.4052734,9.27636719 15.2685547,9.27636719 C14.8388672,9.27636719 15.2539062,7.68457031 14.2041016,7.68457031 C13.3203125,7.68457031 12.0849609,9.20800781 11.7871094,9.20800781 C11.7431641,9.20800781 11.71875,9.18359375 11.71875,9.12988281 C11.71875,8.98339844 11.8652344,8.70019531 11.8652344,8.40722656 C11.8652344,7.8359375 11.4306641,7.484375 10.7373047,7.484375 C10.3662109,7.484375 10.0097656,7.5234375 9.66308594,7.58691406 C9.51171875,4.96484375 8.22265625,2.98730469 6.35253906,2.98730469 C4.99023438,2.98730469 4.00390625,4.06152344 4.00390625,5.52148438 C4.00390625,7.15234375 5.04882812,8.52929688 6.24023438,9.42773438 C5.67382812,9.98925781 5.24414062,10.6191406 4.98046875,11.2246094 L1.69921875,11.2246094 C1.45019531,11.2246094 1.24511719,11.4345703 1.24511719,11.6884766 C1.24511719,11.9326172 1.45019531,12.1523438 1.69921875,12.1523438 L4.71679688,12.1523438 C4.70214844,12.2548828 4.69726562,12.3574219 4.69726562,12.4550781 C4.69726562,13.3779297 5.21484375,13.9882812 6.22070312,13.9882812 Z M6.94335938,8.8125 C5.99121094,8.10449219 4.95605469,6.98144531 4.95605469,5.51171875 C4.95605469,4.61328125 5.54199219,3.94433594 6.35253906,3.94433594 C7.70996094,3.94433594 8.64746094,5.64355469 8.72070312,7.84082031 C8.06640625,8.08007812 7.47070312,8.41699219 6.94335938,8.8125 Z M3.68164062,10.2724609 C3.83300781,10.1259766 3.83300781,9.89160156 3.68164062,9.74023438 L3.11523438,9.17382812 L3.68164062,8.60742188 C3.83300781,8.45605469 3.83300781,8.23144531 3.68164062,8.08007812 C3.53515625,7.92871094 3.30078125,7.93359375 3.15429688,8.08007812 L2.58300781,8.64648438 L2.01171875,8.08007812 C1.86035156,7.92871094 1.63574219,7.92871094 1.484375,8.08007812 C1.33300781,8.23144531 1.33300781,8.4609375 1.484375,8.61230469 L2.05078125,9.17871094 L1.484375,9.74511719 C1.33300781,9.89648438 1.33300781,10.1210938 1.484375,10.2724609 C1.63085938,10.4238281 1.86523438,10.4189453 2.01171875,10.2724609 L2.58300781,9.70605469 L3.15429688,10.2724609 C3.30566406,10.4238281 3.53027344,10.4238281 3.68164062,10.2724609 Z M8.203125,11.2246094 L6.04492188,11.2246094 C6.27929688,10.8046875 6.62109375,10.3603516 7.05078125,9.95996094 C7.15820312,10.0185547 7.26074219,10.0722656 7.36328125,10.1210938 C7.45117188,10.1650391 7.52929688,10.1845703 7.61230469,10.1845703 C7.85644531,10.1845703 8.05175781,10.0039062 8.05175781,9.76953125 C8.05175781,9.61816406 7.98828125,9.47167969 7.80761719,9.36425781 L7.79785156,9.359375 C8.07617188,9.16894531 8.37890625,8.99804688 8.69628906,8.86132812 C8.6328125,9.75 8.46191406,10.5605469 8.203125,11.2246094 Z M6.33300781,13.0361328 C5.90332031,13.0361328 5.69335938,12.7578125 5.69335938,12.3378906 C5.69335938,12.2744141 5.69824219,12.2158203 5.70800781,12.1523438 L7.72460938,12.1523438 C7.33886719,12.7089844 6.86035156,13.0361328 6.33300781,13.0361328 Z" id="solid"></path>
        </g>
        <g id="light" transform="translate(-1.000000, 0.000000)" fill="#000000" fill-rule="nonzero">
            <path d="M6.22070312,13.9882812 C7.34863281,13.9882812 8.24707031,13.2998047 8.84765625,12.1523438 L15.8544922,12.1523438 C16.1083984,12.1523438 16.3085938,11.9326172 16.3085938,11.6884766 C16.3085938,11.4345703 16.1083984,11.2246094 15.8544922,11.2246094 L9.23339844,11.2246094 C9.48730469,10.4482422 9.63867188,9.54003906 9.66796875,8.54394531 C9.98046875,8.47558594 10.2978516,8.44140625 10.625,8.44140625 C10.7617188,8.44140625 10.8349609,8.5 10.8349609,8.59765625 C10.8349609,8.98339844 10.5908203,9.30078125 10.5908203,9.75488281 C10.5908203,10.1699219 10.8984375,10.4335938 11.3183594,10.4335938 C12.3535156,10.4335938 13.59375,8.77832031 13.9355469,8.77832031 C14.2431641,8.77832031 13.9111328,10.2480469 15.1513672,10.2480469 C15.3808594,10.2480469 15.6640625,10.1845703 15.8789062,10.0429688 C16.0205078,9.9453125 16.1230469,9.79882812 16.1230469,9.60839844 C16.1230469,9.36914062 15.9619141,9.15917969 15.7080078,9.15917969 C15.546875,9.15917969 15.4052734,9.27636719 15.2685547,9.27636719 C14.8388672,9.27636719 15.2539062,7.68457031 14.2041016,7.68457031 C13.3203125,7.68457031 12.0849609,9.20800781 11.7871094,9.20800781 C11.7431641,9.20800781 11.71875,9.18359375 11.71875,9.12988281 C11.71875,8.98339844 11.8652344,8.70019531 11.8652344,8.40722656 C11.8652344,7.8359375 11.4306641,7.484375 10.7373047,7.484375 C10.3662109,7.484375 10.0097656,7.5234375 9.66308594,7.58691406 C9.51171875,4.96484375 8.22265625,2.98730469 6.35253906,2.98730469 C4.99023438,2.98730469 4.00390625,4.06152344 4.00390625,5.52148438 C4.00390625,7.15234375 5.04882812,8.52929688 6.24023438,9.42773438 C5.67382812,9.98925781 5.24414062,10.6191406 4.98046875,11.2246094 L1.69921875,11.2246094 C1.45019531,11.2246094 1.24511719,11.4345703 1.24511719,11.6884766 C1.24511719,11.9326172 1.45019531,12.1523438 1.69921875,12.1523438 L4.71679688,12.1523438 C4.70214844,12.2548828 4.69726562,12.3574219 4.69726562,12.4550781 C4.69726562,13.3779297 5.21484375,13.9882812 6.22070312,13.9882812 Z M6.94335938,8.8125 C5.99121094,8.10449219 4.95605469,6.98144531 4.95605469,5.51171875 C4.95605469,4.61328125 5.54199219,3.94433594 6.35253906,3.94433594 C7.70996094,3.94433594 8.64746094,5.64355469 8.72070312,7.84082031 C8.06640625,8.08007812 7.47070312,8.41699219 6.94335938,8.8125 Z M3.68164062,10.2724609 C3.83300781,10.1259766 3.83300781,9.89160156 3.68164062,9.74023438 L3.11523438,9.17382812 L3.68164062,8.60742188 C3.83300781,8.45605469 3.83300781,8.23144531 3.68164062,8.08007812 C3.53515625,7.92871094 3.30078125,7.93359375 3.15429688,8.08007812 L2.58300781,8.64648438 L2.01171875,8.08007812 C1.86035156,7.92871094 1.63574219,7.92871094 1.484375,8.08007812 C1.33300781,8.23144531 1.33300781,8.4609375 1.484375,8.61230469 L2.05078125,9.17871094 L1.484375,9.74511719 C1.33300781,9.89648438 1.33300781,10.1210938 1.484375,10.2724609 C1.63085938,10.4238281 1.86523438,10.4189453 2.01171875,10.2724609 L2.58300781,9.70605469 L3.15429688,10.2724609 C3.30566406,10.4238281 3.53027344,10.4238281 3.68164062,10.2724609 Z M8.203125,11.2246094 L6.04492188,11.2246094 C6.27929688,10.8046875 6.62109375,10.3603516 7.05078125,9.95996094 C7.15820312,10.0185547 7.26074219,10.0722656 7.36328125,10.1210938 C7.45117188,10.1650391 7.52929688,10.1845703 7.61230469,10.1845703 C7.85644531,10.1845703 8.05175781,10.0039062 8.05175781,9.76953125 C8.05175781,9.61816406 7.98828125,9.47167969 7.80761719,9.36425781 L7.79785156,9.359375 C8.07617188,9.16894531 8.37890625,8.99804688 8.69628906,8.86132812 C8.6328125,9.75 8.46191406,10.5605469 8.203125,11.2246094 Z M6.33300781,13.0361328 C5.90332031,13.0361328 5.69335938,12.7578125 5.69335938,12.3378906 C5.69335938,12.2744141 5.69824219,12.2158203 5.70800781,12.1523438 L7.72460938,12.1523438 C7.33886719,12.7089844 6.86035156,13.0361328 6.33300781,13.0361328 Z" id="solid"></path>
        </g>
    </g>
</svg>