<?xml version="1.0" encoding="UTF-8"?>
<svg width="15px" height="15px" viewBox="0 0 15 15" version="1.1" xmlns="http://www.w3.org/2000/svg" xmlns:xlink="http://www.w3.org/1999/xlink">
    <title>objects-tools/calendar</title>
    <g id="objects-tools/calendar" stroke="none" stroke-width="1" fill="none" fill-rule="evenodd">
        <g id="dark" transform="translate(1.000000, 1.000000)" fill="#000000" fill-rule="nonzero">
            <path d="M6.07763672,5.76318359 C6.29980469,5.76318359 6.37597656,5.69970703 6.37597656,5.47753906 L6.37597656,5.10302734 C6.37597656,4.88085938 6.29980469,4.81103516 6.07763672,4.81103516 L5.703125,4.81103516 C5.48095703,4.81103516 5.40478516,4.88085938 5.40478516,5.10302734 L5.40478516,5.47753906 C5.40478516,5.69970703 5.48095703,5.76318359 5.703125,5.76318359 L6.07763672,5.76318359 Z M8.18505859,5.76318359 C8.40722656,5.76318359 8.48339844,5.69970703 8.48339844,5.47753906 L8.48339844,5.10302734 C8.48339844,4.88085938 8.40722656,4.81103516 8.18505859,4.81103516 L7.81689453,4.81103516 C7.58837891,4.81103516 7.51855469,4.88085938 7.51855469,5.10302734 L7.51855469,5.47753906 C7.51855469,5.69970703 7.58837891,5.76318359 7.81689453,5.76318359 L8.18505859,5.76318359 Z M10.2988281,5.76318359 C10.5209961,5.76318359 10.5908203,5.69970703 10.5908203,5.47753906 L10.5908203,5.10302734 C10.5908203,4.88085938 10.5209961,4.81103516 10.2988281,4.81103516 L9.92431641,4.81103516 C9.70214844,4.81103516 9.62597656,4.88085938 9.62597656,5.10302734 L9.62597656,5.47753906 C9.62597656,5.69970703 9.70214844,5.76318359 9.92431641,5.76318359 L10.2988281,5.76318359 Z M3.97021484,7.83886719 C4.19238281,7.83886719 4.26220703,7.77539062 4.26220703,7.55322266 L4.26220703,7.17871094 C4.26220703,6.95654297 4.19238281,6.89306641 3.97021484,6.89306641 L3.59570312,6.89306641 C3.37353516,6.89306641 3.29736328,6.95654297 3.29736328,7.17871094 L3.29736328,7.55322266 C3.29736328,7.77539062 3.37353516,7.83886719 3.59570312,7.83886719 L3.97021484,7.83886719 Z M6.07763672,7.83886719 C6.29980469,7.83886719 6.37597656,7.77539062 6.37597656,7.55322266 L6.37597656,7.17871094 C6.37597656,6.95654297 6.29980469,6.89306641 6.07763672,6.89306641 L5.703125,6.89306641 C5.48095703,6.89306641 5.40478516,6.95654297 5.40478516,7.17871094 L5.40478516,7.55322266 C5.40478516,7.77539062 5.48095703,7.83886719 5.703125,7.83886719 L6.07763672,7.83886719 Z M8.18505859,7.83886719 C8.40722656,7.83886719 8.48339844,7.77539062 8.48339844,7.55322266 L8.48339844,7.17871094 C8.48339844,6.95654297 8.40722656,6.89306641 8.18505859,6.89306641 L7.81689453,6.89306641 C7.58837891,6.89306641 7.51855469,6.95654297 7.51855469,7.17871094 L7.51855469,7.55322266 C7.51855469,7.77539062 7.58837891,7.83886719 7.81689453,7.83886719 L8.18505859,7.83886719 Z M10.2988281,7.83886719 C10.5209961,7.83886719 10.5908203,7.77539062 10.5908203,7.55322266 L10.5908203,7.17871094 C10.5908203,6.95654297 10.5209961,6.89306641 10.2988281,6.89306641 L9.92431641,6.89306641 C9.70214844,6.89306641 9.62597656,6.95654297 9.62597656,7.17871094 L9.62597656,7.55322266 C9.62597656,7.77539062 9.70214844,7.83886719 9.92431641,7.83886719 L10.2988281,7.83886719 Z M3.97021484,9.92089844 C4.19238281,9.92089844 4.26220703,9.85107422 4.26220703,9.62890625 L4.26220703,9.25439453 C4.26220703,9.03222656 4.19238281,8.96875 3.97021484,8.96875 L3.59570312,8.96875 C3.37353516,8.96875 3.29736328,9.03222656 3.29736328,9.25439453 L3.29736328,9.62890625 C3.29736328,9.85107422 3.37353516,9.92089844 3.59570312,9.92089844 L3.97021484,9.92089844 Z M6.07763672,9.92089844 C6.29980469,9.92089844 6.37597656,9.85107422 6.37597656,9.62890625 L6.37597656,9.25439453 C6.37597656,9.03222656 6.29980469,8.96875 6.07763672,8.96875 L5.703125,8.96875 C5.48095703,8.96875 5.40478516,9.03222656 5.40478516,9.25439453 L5.40478516,9.62890625 C5.40478516,9.85107422 5.48095703,9.92089844 5.703125,9.92089844 L6.07763672,9.92089844 Z M8.18505859,9.92089844 C8.40722656,9.92089844 8.48339844,9.85107422 8.48339844,9.62890625 L8.48339844,9.25439453 C8.48339844,9.03222656 8.40722656,8.96875 8.18505859,8.96875 L7.81689453,8.96875 C7.58837891,8.96875 7.51855469,9.03222656 7.51855469,9.25439453 L7.51855469,9.62890625 C7.51855469,9.85107422 7.58837891,9.92089844 7.81689453,9.92089844 L8.18505859,9.92089844 Z" id="translucent" opacity="0.35"></path>
            <path d="M11.2827148,12.2695312 C12.609375,12.2695312 13.2695312,11.609375 13.2695312,10.3017578 L13.2695312,2.55126953 C13.2695312,1.24365234 12.609375,0.583496094 11.2827148,0.583496094 L2.61181641,0.583496094 C1.28515625,0.583496094 0.618652344,1.23730469 0.618652344,2.55126953 L0.618652344,10.3017578 C0.618652344,11.6157227 1.28515625,12.2695312 2.61181641,12.2695312 L11.2827148,12.2695312 Z M11.3652344,11.2475586 L2.51660156,11.2475586 C1.95166016,11.2475586 1.640625,10.9492188 1.640625,10.3588867 L1.640625,4.37304688 C1.640625,3.7890625 1.95166016,3.484375 2.51660156,3.484375 L11.3652344,3.484375 C11.9301758,3.484375 12.2475586,3.7890625 12.2475586,4.37304688 L12.2475586,10.3588867 C12.2475586,10.9492188 11.9301758,11.2475586 11.3652344,11.2475586 Z" id="solid"></path>
        </g>
        <g id="light" fill="#000000" fill-rule="nonzero">
            <path d="M12.2827148,13.2695312 C13.609375,13.2695312 14.2695312,12.609375 14.2695312,11.3017578 L14.2695312,3.55126953 C14.2695312,2.24365234 13.609375,1.58349609 12.2827148,1.58349609 L3.61181641,1.58349609 C2.28515625,1.58349609 1.61865234,2.23730469 1.61865234,3.55126953 L1.61865234,11.3017578 C1.61865234,12.6157227 2.28515625,13.2695312 3.61181641,13.2695312 L12.2827148,13.2695312 Z" id="translucent" opacity="0.35"></path>
            <path d="M12.2827148,13.2695312 C13.609375,13.2695312 14.2695312,12.609375 14.2695312,11.3017578 L14.2695312,3.55126953 C14.2695312,2.24365234 13.609375,1.58349609 12.2827148,1.58349609 L3.61181641,1.58349609 C2.28515625,1.58349609 1.61865234,2.23730469 1.61865234,3.55126953 L1.61865234,11.3017578 C1.61865234,12.6157227 2.28515625,13.2695312 3.61181641,13.2695312 L12.2827148,13.2695312 Z M12.3652344,12.2475586 L3.51660156,12.2475586 C2.95166016,12.2475586 2.640625,11.9492188 2.640625,11.3588867 L2.640625,5.37304688 C2.640625,4.7890625 2.95166016,4.484375 3.51660156,4.484375 L12.3652344,4.484375 C12.9301758,4.484375 13.2475586,4.7890625 13.2475586,5.37304688 L13.2475586,11.3588867 C13.2475586,11.9492188 12.9301758,12.2475586 12.3652344,12.2475586 Z M7.07763672,6.76318359 C7.29980469,6.76318359 7.37597656,6.69970703 7.37597656,6.47753906 L7.37597656,6.10302734 C7.37597656,5.88085938 7.29980469,5.81103516 7.07763672,5.81103516 L6.703125,5.81103516 C6.48095703,5.81103516 6.40478516,5.88085938 6.40478516,6.10302734 L6.40478516,6.47753906 C6.40478516,6.69970703 6.48095703,6.76318359 6.703125,6.76318359 L7.07763672,6.76318359 Z M9.18505859,6.76318359 C9.40722656,6.76318359 9.48339844,6.69970703 9.48339844,6.47753906 L9.48339844,6.10302734 C9.48339844,5.88085938 9.40722656,5.81103516 9.18505859,5.81103516 L8.81689453,5.81103516 C8.58837891,5.81103516 8.51855469,5.88085938 8.51855469,6.10302734 L8.51855469,6.47753906 C8.51855469,6.69970703 8.58837891,6.76318359 8.81689453,6.76318359 L9.18505859,6.76318359 Z M11.2988281,6.76318359 C11.5209961,6.76318359 11.5908203,6.69970703 11.5908203,6.47753906 L11.5908203,6.10302734 C11.5908203,5.88085938 11.5209961,5.81103516 11.2988281,5.81103516 L10.9243164,5.81103516 C10.7021484,5.81103516 10.6259766,5.88085938 10.6259766,6.10302734 L10.6259766,6.47753906 C10.6259766,6.69970703 10.7021484,6.76318359 10.9243164,6.76318359 L11.2988281,6.76318359 Z M4.97021484,8.83886719 C5.19238281,8.83886719 5.26220703,8.77539062 5.26220703,8.55322266 L5.26220703,8.17871094 C5.26220703,7.95654297 5.19238281,7.89306641 4.97021484,7.89306641 L4.59570312,7.89306641 C4.37353516,7.89306641 4.29736328,7.95654297 4.29736328,8.17871094 L4.29736328,8.55322266 C4.29736328,8.77539062 4.37353516,8.83886719 4.59570312,8.83886719 L4.97021484,8.83886719 Z M7.07763672,8.83886719 C7.29980469,8.83886719 7.37597656,8.77539062 7.37597656,8.55322266 L7.37597656,8.17871094 C7.37597656,7.95654297 7.29980469,7.89306641 7.07763672,7.89306641 L6.703125,7.89306641 C6.48095703,7.89306641 6.40478516,7.95654297 6.40478516,8.17871094 L6.40478516,8.55322266 C6.40478516,8.77539062 6.48095703,8.83886719 6.703125,8.83886719 L7.07763672,8.83886719 Z M9.18505859,8.83886719 C9.40722656,8.83886719 9.48339844,8.77539062 9.48339844,8.55322266 L9.48339844,8.17871094 C9.48339844,7.95654297 9.40722656,7.89306641 9.18505859,7.89306641 L8.81689453,7.89306641 C8.58837891,7.89306641 8.51855469,7.95654297 8.51855469,8.17871094 L8.51855469,8.55322266 C8.51855469,8.77539062 8.58837891,8.83886719 8.81689453,8.83886719 L9.18505859,8.83886719 Z M11.2988281,8.83886719 C11.5209961,8.83886719 11.5908203,8.77539062 11.5908203,8.55322266 L11.5908203,8.17871094 C11.5908203,7.95654297 11.5209961,7.89306641 11.2988281,7.89306641 L10.9243164,7.89306641 C10.7021484,7.89306641 10.6259766,7.95654297 10.6259766,8.17871094 L10.6259766,8.55322266 C10.6259766,8.77539062 10.7021484,8.83886719 10.9243164,8.83886719 L11.2988281,8.83886719 Z M4.97021484,10.9208984 C5.19238281,10.9208984 5.26220703,10.8510742 5.26220703,10.6289062 L5.26220703,10.2543945 C5.26220703,10.0322266 5.19238281,9.96875 4.97021484,9.96875 L4.59570312,9.96875 C4.37353516,9.96875 4.29736328,10.0322266 4.29736328,10.2543945 L4.29736328,10.6289062 C4.29736328,10.8510742 4.37353516,10.9208984 4.59570312,10.9208984 L4.97021484,10.9208984 Z M7.07763672,10.9208984 C7.29980469,10.9208984 7.37597656,10.8510742 7.37597656,10.6289062 L7.37597656,10.2543945 C7.37597656,10.0322266 7.29980469,9.96875 7.07763672,9.96875 L6.703125,9.96875 C6.48095703,9.96875 6.40478516,10.0322266 6.40478516,10.2543945 L6.40478516,10.6289062 C6.40478516,10.8510742 6.48095703,10.9208984 6.703125,10.9208984 L7.07763672,10.9208984 Z M9.18505859,10.9208984 C9.40722656,10.9208984 9.48339844,10.8510742 9.48339844,10.6289062 L9.48339844,10.2543945 C9.48339844,10.0322266 9.40722656,9.96875 9.18505859,9.96875 L8.81689453,9.96875 C8.58837891,9.96875 8.51855469,10.0322266 8.51855469,10.2543945 L8.51855469,10.6289062 C8.51855469,10.8510742 8.58837891,10.9208984 8.81689453,10.9208984 L9.18505859,10.9208984 Z" id="solid"></path>
        </g>
    </g>
</svg>