<?xml version="1.0" encoding="UTF-8"?>
<svg width="15px" height="15px" viewBox="0 0 15 15" version="1.1" xmlns="http://www.w3.org/2000/svg" xmlns:xlink="http://www.w3.org/1999/xlink">
    <title>objects-tools/doc</title>
    <g id="objects-tools/doc" stroke="none" stroke-width="1" fill="none" fill-rule="evenodd">
        <g id="dark" fill="#000000" fill-rule="nonzero" opacity="0.75">
            <path d="M10.8706055,14.2216797 C12.1845703,14.2216797 12.8383789,13.5551758 12.8383789,12.2348633 L12.8383789,6.47119141 L8.24267578,6.47119141 C7.43017578,6.47119141 7.04296875,6.08398438 7.04296875,5.27148438 L7.04296875,0.612304688 L4.12939453,0.612304688 C2.82177734,0.612304688 2.16162109,1.28515625 2.16162109,2.60546875 L2.16162109,12.2348633 C2.16162109,13.5615234 2.81542969,14.2216797 4.12939453,14.2216797 L10.8706055,14.2216797 Z M12.762207,5.6015625 C12.7241211,5.34130859 12.5400391,5.08740234 12.2353516,4.77636719 L8.73779297,1.21533203 C8.43945312,0.910644531 8.17919922,0.7265625 7.91259766,0.682128906 L7.91259766,5.25878906 C7.91259766,5.48730469 8.02685547,5.6015625 8.26171875,5.6015625 L12.762207,5.6015625 Z" id="opaque"></path>
        </g>
        <g id="light" transform="translate(2.000000, 0.000000)" fill="#000000" fill-rule="nonzero">
            <path d="M8.87060547,14.2216797 C10.1845703,14.2216797 10.8383789,13.5551758 10.8383789,12.2348633 L10.8383789,6.47119141 C10.8383789,5.65234375 10.7431641,5.296875 10.2353516,4.77636719 L6.73779297,1.21533203 C6.25537109,0.720214844 5.85546875,0.612304688 5.14453125,0.612304688 L2.12939453,0.612304688 C0.821777344,0.612304688 0.161621094,1.28515625 0.161621094,2.60546875 L0.161621094,12.2348633 C0.161621094,13.5615234 0.815429688,14.2216797 2.12939453,14.2216797 L8.87060547,14.2216797 Z" id="translucent" opacity="0.25"></path>
            <path d="M8.87060547,14.2216797 C10.1845703,14.2216797 10.8383789,13.5551758 10.8383789,12.2348633 L10.8383789,6.47119141 C10.8383789,5.65234375 10.7431641,5.296875 10.2353516,4.77636719 L6.73779297,1.21533203 C6.25537109,0.720214844 5.85546875,0.612304688 5.14453125,0.612304688 L2.12939453,0.612304688 C0.821777344,0.612304688 0.161621094,1.28515625 0.161621094,2.60546875 L0.161621094,12.2348633 C0.161621094,13.5615234 0.815429688,14.2216797 2.12939453,14.2216797 L8.87060547,14.2216797 Z M8.81982422,13.199707 L2.17382812,13.199707 C1.52001953,13.199707 1.18359375,12.8505859 1.18359375,12.2158203 L1.18359375,2.62451172 C1.18359375,1.99609375 1.52001953,1.63427734 2.18017578,1.63427734 L5.00488281,1.63427734 L5.00488281,5.32226562 C5.00488281,6.12207031 5.40478516,6.515625 6.19824219,6.515625 L9.81640625,6.515625 L9.81640625,12.2158203 C9.81640625,12.8505859 9.47998047,13.199707 8.81982422,13.199707 Z M9.61962891,5.55712891 L6.3125,5.55712891 C6.05859375,5.55712891 5.96337891,5.45556641 5.96337891,5.20166016 L5.96337891,1.83105469 L9.61962891,5.55712891 Z" id="solid" opacity="0.5"></path>
        </g>
    </g>
</svg>