<?xml version="1.0" encoding="UTF-8"?>
<svg width="15px" height="15px" viewBox="0 0 15 15" version="1.1" xmlns="http://www.w3.org/2000/svg" xmlns:xlink="http://www.w3.org/1999/xlink">
    <title>objects-tools/pencil-and-outline</title>
    <g id="objects-tools/pencil-and-outline" stroke="none" stroke-width="1" fill="none" fill-rule="evenodd">
        <g id="dark" transform="translate(1.000000, 0.000000)" fill="#000000" fill-rule="nonzero">
            <path d="M8.29931641,13.5742187 C8.32470703,13.3520508 8.18505859,13.1108398 7.86767578,13.0664062 C6.85205078,12.9267578 4.75732422,12.4697266 3.22753906,10.9272461 C0.739257812,8.43261719 0.26953125,4.66210937 2.30078125,2.63085937 C3.95117187,0.986816406 6.69970703,1.19628906 8.72460937,2.28808594 L9.38476562,1.64697266 C6.921875,0.16796875 3.60839844,0.0473632812 1.66601562,1.99609375 C-0.64453125,4.31298828 -0.33984375,8.62304687 2.59277344,11.5556641 C4.35107422,13.3139648 6.63623047,13.8408203 7.75976562,13.9487305 C8.08984375,13.9868164 8.27392578,13.7836914 8.29931641,13.5742187 Z M12.184082,10.6923828 C13.7075195,9.16259766 13.5107422,6.44580078 11.8793945,4.10986328 L11.2319336,4.75732422 C12.5268555,6.67431641 12.7807617,8.82617187 11.5493164,10.0576172 C10.0512695,11.5556641 7.57568359,10.8447266 5.87451172,9.23876953 L4.90332031,9.65771484 C6.97900391,11.7333984 10.3178711,12.5522461 12.184082,10.6923828 Z" id="translucent" opacity="0.35"></path>
            <path d="M11.8984375,2.56103516 L12.40625,2.05322266 C12.6474609,1.81201172 12.6601563,1.45654297 12.4125977,1.22802734 L12.2475586,1.07568359 C12.0317383,0.872558594 11.6953125,0.87890625 11.4604492,1.10107422 L10.9589844,1.61523437 L11.8984375,2.56103516 Z M4.49072266,9.20068359 L5.73486328,8.71191406 L11.4350586,3.01806641 L10.4892578,2.07861328 L4.79541016,7.76611328 L4.27490234,8.97851563 C4.21777344,9.11181641 4.35107422,9.24511719 4.49072266,9.20068359 Z" id="solid"></path>
        </g>
        <g id="light" transform="translate(1.000000, 0.000000)" fill="#000000" fill-rule="nonzero">
            <path d="M8.29931641,13.5742187 C8.32470703,13.3520508 8.18505859,13.1108398 7.86767578,13.0664062 C6.85205078,12.9267578 4.75732422,12.4697266 3.22753906,10.9272461 C0.739257812,8.43261719 0.26953125,4.66210937 2.30078125,2.63085937 C3.95117187,0.986816406 6.69970703,1.19628906 8.72460937,2.28808594 L9.38476562,1.64697266 C6.921875,0.16796875 3.60839844,0.0473632812 1.66601562,1.99609375 C-0.64453125,4.31298828 -0.33984375,8.62304687 2.59277344,11.5556641 C4.35107422,13.3139648 6.63623047,13.8408203 7.75976562,13.9487305 C8.08984375,13.9868164 8.27392578,13.7836914 8.29931641,13.5742187 Z M12.184082,10.6923828 C13.7075195,9.16259766 13.5107422,6.44580078 11.8793945,4.10986328 L11.2319336,4.75732422 C12.5268555,6.67431641 12.7807617,8.82617187 11.5493164,10.0576172 C10.0512695,11.5556641 7.57568359,10.8447266 5.87451172,9.23876953 L4.90332031,9.65771484 C6.97900391,11.7333984 10.3178711,12.5522461 12.184082,10.6923828 Z" id="translucent" opacity="0.35"></path>
            <path d="M11.8984375,2.56103516 L12.40625,2.05322266 C12.6474609,1.81201172 12.6601563,1.45654297 12.4125977,1.22802734 L12.2475586,1.07568359 C12.0317383,0.872558594 11.6953125,0.87890625 11.4604492,1.10107422 L10.9589844,1.61523437 L11.8984375,2.56103516 Z M4.49072266,9.20068359 L5.73486328,8.71191406 L11.4350586,3.01806641 L10.4892578,2.07861328 L4.79541016,7.76611328 L4.27490234,8.97851563 C4.21777344,9.11181641 4.35107422,9.24511719 4.49072266,9.20068359 Z" id="solid"></path>
        </g>
    </g>
</svg>