<?xml version="1.0" encoding="UTF-8"?>
<svg width="15px" height="15px" viewBox="0 0 15 15" version="1.1" xmlns="http://www.w3.org/2000/svg" xmlns:xlink="http://www.w3.org/1999/xlink">
    <title>objects-tools/pencil</title>
    <g id="objects-tools/pencil" stroke="none" stroke-width="1" fill="none" fill-rule="evenodd">
        <g id="dark" fill="#000000" fill-rule="nonzero">
            <path d="M11.6608887,4.51611328 L12.302002,3.88769531 C12.6257324,3.56396484 12.6384277,3.21484375 12.3527832,2.92285156 L12.1369629,2.70703125 C11.8513184,2.42138672 11.5021973,2.453125 11.1784668,2.76416016 L10.5373535,3.39892578 L11.6608887,4.51611328 Z M2.71069336,12.5458984 L4.17700195,11.980957 L11.1022949,5.06201172 L9.99145508,3.94482422 L3.05981445,10.8701172 L2.45678711,12.2792969 C2.3996582,12.4316406 2.55834961,12.609375 2.71069336,12.5458984 Z" id="solid"></path>
        </g>
        <g id="light" fill="#000000" fill-rule="nonzero">
            <path d="M11.6608887,4.51611328 L12.302002,3.88769531 C12.6257324,3.56396484 12.6384277,3.21484375 12.3527832,2.92285156 L12.1369629,2.70703125 C11.8513184,2.42138672 11.5021973,2.453125 11.1784668,2.76416016 L10.5373535,3.39892578 L11.6608887,4.51611328 Z M2.71069336,12.5458984 L4.17700195,11.980957 L11.1022949,5.06201172 L9.99145508,3.94482422 L3.05981445,10.8701172 L2.45678711,12.2792969 C2.3996582,12.4316406 2.55834961,12.609375 2.71069336,12.5458984 Z" id="solid"></path>
        </g>
    </g>
</svg>