<?xml version="1.0" encoding="UTF-8"?>
<svg width="15px" height="15px" viewBox="0 0 15 15" version="1.1" xmlns="http://www.w3.org/2000/svg" xmlns:xlink="http://www.w3.org/1999/xlink">
    <title>objects-tools/pencil-and-outline</title>
    <g id="objects-tools/pencil-and-outline" stroke="none" stroke-width="1" fill="none" fill-rule="evenodd">
        <g id="dark" fill="#7B7B7B" fill-rule="nonzero">
            <path d="M9.29931641,13.5742188 C9.32470703,13.3520508 9.18505859,13.1108398 8.86767578,13.0664062 C7.85205078,12.9267578 5.75732422,12.4697266 4.22753906,10.9272461 C1.73925781,8.43261719 1.26953125,4.66210938 3.30078125,2.63085938 C4.95117188,0.986816406 7.69970703,1.19628906 9.72460938,2.28808594 L10.3847656,1.64697266 C7.921875,0.16796875 4.60839844,0.0473632813 2.66601562,1.99609375 C0.35546875,4.31298828 0.66015625,8.62304688 3.59277344,11.5556641 C5.35107422,13.3139648 7.63623047,13.8408203 8.75976562,13.9487305 C9.08984375,13.9868164 9.27392578,13.7836914 9.29931641,13.5742188 Z M12.8984375,2.56103516 L13.40625,2.05322266 C13.6474609,1.81201172 13.6601562,1.45654297 13.4125977,1.22802734 L13.2475586,1.07568359 C13.0317383,0.872558594 12.6953125,0.87890625 12.4604492,1.10107422 L11.9589844,1.61523438 L12.8984375,2.56103516 Z M5.49072266,9.20068359 L6.73486328,8.71191406 L12.4350586,3.01806641 L11.4892578,2.07861328 L5.79541016,7.76611328 L5.27490234,8.97851562 C5.21777344,9.11181641 5.35107422,9.24511719 5.49072266,9.20068359 Z M13.184082,10.6923828 C14.7075195,9.16259766 14.5107422,6.44580078 12.8793945,4.10986328 L12.2319336,4.75732422 C13.5268555,6.67431641 13.7807617,8.82617188 12.5493164,10.0576172 C11.0512695,11.5556641 8.57568359,10.8447266 6.87451172,9.23876953 L5.90332031,9.65771484 C7.97900391,11.7333984 11.3178711,12.5522461 13.184082,10.6923828 Z" id="fill"></path>
        </g>
        <g id="light" fill="#7B7B7B" fill-rule="nonzero">
            <path d="M9.29931641,13.5742188 C9.32470703,13.3520508 9.18505859,13.1108398 8.86767578,13.0664062 C7.85205078,12.9267578 5.75732422,12.4697266 4.22753906,10.9272461 C1.73925781,8.43261719 1.26953125,4.66210938 3.30078125,2.63085938 C4.95117188,0.986816406 7.69970703,1.19628906 9.72460938,2.28808594 L10.3847656,1.64697266 C7.921875,0.16796875 4.60839844,0.0473632813 2.66601562,1.99609375 C0.35546875,4.31298828 0.66015625,8.62304688 3.59277344,11.5556641 C5.35107422,13.3139648 7.63623047,13.8408203 8.75976562,13.9487305 C9.08984375,13.9868164 9.27392578,13.7836914 9.29931641,13.5742188 Z M12.8984375,2.56103516 L13.40625,2.05322266 C13.6474609,1.81201172 13.6601562,1.45654297 13.4125977,1.22802734 L13.2475586,1.07568359 C13.0317383,0.872558594 12.6953125,0.87890625 12.4604492,1.10107422 L11.9589844,1.61523438 L12.8984375,2.56103516 Z M5.49072266,9.20068359 L6.73486328,8.71191406 L12.4350586,3.01806641 L11.4892578,2.07861328 L5.79541016,7.76611328 L5.27490234,8.97851562 C5.21777344,9.11181641 5.35107422,9.24511719 5.49072266,9.20068359 Z M13.184082,10.6923828 C14.7075195,9.16259766 14.5107422,6.44580078 12.8793945,4.10986328 L12.2319336,4.75732422 C13.5268555,6.67431641 13.7807617,8.82617188 12.5493164,10.0576172 C11.0512695,11.5556641 8.57568359,10.8447266 6.87451172,9.23876953 L5.90332031,9.65771484 C7.97900391,11.7333984 11.3178711,12.5522461 13.184082,10.6923828 Z" id="stroke"></path>
        </g>
    </g>
</svg>