<?xml version="1.0" encoding="UTF-8"?>
<svg width="15px" height="15px" viewBox="0 0 15 15" version="1.1" xmlns="http://www.w3.org/2000/svg" xmlns:xlink="http://www.w3.org/1999/xlink">
    <title>objects-tools/puzzle-piece</title>
    <g id="objects-tools/puzzle-piece" stroke="none" stroke-width="1" fill="none" fill-rule="evenodd">
        <g id="dark" transform="translate(-2.000000, 0.000000)" fill="#000000" fill-rule="nonzero">
            <path d="M7.66455078,12.3696289 C7.93310547,12.3696289 8.04589844,12.144043 7.85791016,11.8325195 C7.65380859,11.5048828 7.54638672,11.2202148 7.54638672,10.8549805 C7.54638672,9.96337891 8.1640625,9.16845703 9.28662109,9.16845703 C10.4091797,9.16845703 11.0268555,9.96337891 11.0268555,10.8549805 C11.0268555,11.2202148 10.9194336,11.5048828 10.7207031,11.8325195 C10.5273438,12.144043 10.6401367,12.3696289 10.9140625,12.3696289 L12.2890625,12.3696289 C13.4169922,12.3696289 14.0078125,11.7895508 14.0078125,10.6777344 L14.0078125,8.73876953 C14.0078125,8.47021484 14.2280273,8.35742188 14.5449219,8.54541016 C14.8725586,8.74951172 15.1518555,8.8515625 15.5224609,8.8515625 C16.4140625,8.8515625 17.2036133,8.23925781 17.2036133,7.11669922 C17.2036133,5.99414062 16.4140625,5.37646484 15.5224609,5.37646484 C15.1518555,5.37646484 14.8725586,5.47851562 14.5449219,5.68261719 C14.2280273,5.87060547 14.0078125,5.76318359 14.0078125,5.48925781 L14.0078125,3.55566406 C14.0078125,2.44384766 13.4169922,1.86376953 12.2890625,1.86376953 L10.9140625,1.86376953 C10.6401367,1.86376953 10.5273438,2.08935547 10.7207031,2.40087891 C10.9194336,2.72851562 11.0268555,3.01318359 11.0268555,3.37841797 C11.0268555,4.27001953 10.4091797,5.06494141 9.28662109,5.06494141 C8.1640625,5.06494141 7.54638672,4.27001953 7.54638672,3.37841797 C7.54638672,3.01318359 7.65380859,2.72851562 7.85791016,2.40087891 C8.04589844,2.08935547 7.93310547,1.86376953 7.66455078,1.86376953 L6.28417969,1.86376953 C5.16162109,1.86376953 4.56542969,2.44384766 4.56542969,3.55566406 L4.56542969,5.48925781 C4.56542969,5.76318359 4.34521484,5.87060547 4.02832031,5.68261719 C3.70068359,5.47851562 3.42138672,5.37646484 3.05078125,5.37646484 C2.16455078,5.37646484 1.36962891,5.99414062 1.36962891,7.11669922 C1.36962891,8.23925781 2.16455078,8.8515625 3.05078125,8.8515625 C3.42138672,8.8515625 3.70068359,8.74951172 4.02832031,8.54541016 C4.34521484,8.35742188 4.56542969,8.47021484 4.56542969,8.73876953 L4.56542969,10.6777344 C4.56542969,11.7895508 5.16162109,12.3696289 6.28417969,12.3696289 L7.66455078,12.3696289 Z" id="solid"></path>
        </g>
        <g id="light" transform="translate(-1.000000, 1.000000)" fill="#000000" fill-rule="nonzero">
            <path d="M7.11035156,11.3803711 C7.59375,11.3803711 7.91601562,11.0581055 7.91601562,10.6445312 C7.91601562,10.4082031 7.82470703,10.1933594 7.64208984,9.98388672 C7.42724609,9.73144531 7.27685547,9.45751953 7.27685547,9.14599609 C7.27685547,8.56054688 7.69580078,8.09326172 8.35107422,8.09326172 C9.00634766,8.09326172 9.42529297,8.56054688 9.42529297,9.14599609 C9.42529297,9.45751953 9.28027344,9.73144531 9.06005859,9.98388672 C8.87744141,10.1933594 8.78613281,10.4082031 8.78613281,10.6445312 C8.78613281,11.0581055 9.10839844,11.3803711 9.59179688,11.3803711 L11.3696289,11.3803711 C12.465332,11.3803711 13.0722656,10.7895508 13.0722656,9.70458984 L13.0722656,7.91601562 C13.0722656,7.83007812 13.1313477,7.78710938 13.2333984,7.8515625 C13.5449219,8.06640625 13.9155273,8.21142578 14.3398438,8.21142578 C15.3818359,8.21142578 16.3325195,7.38964844 16.3325195,6.1328125 C16.3325195,4.87597656 15.3818359,4.04882812 14.3398438,4.04882812 C13.9155273,4.04882812 13.5449219,4.19921875 13.2333984,4.40869141 C13.1313477,4.47314453 13.0722656,4.43554688 13.0722656,4.34423828 L13.0722656,2.5234375 C13.0722656,1.43847656 12.465332,0.84765625 11.3696289,0.84765625 L9.59179688,0.84765625 C9.10839844,0.84765625 8.78613281,1.16992188 8.78613281,1.58886719 C8.78613281,1.81982422 8.87744141,2.03466797 9.06005859,2.24414062 C9.28027344,2.49658203 9.42529297,2.77050781 9.42529297,3.08203125 C9.42529297,3.66210937 9.00097656,4.13476562 8.35107422,4.13476562 C7.70654297,4.13476562 7.27685547,3.66210937 7.27685547,3.08203125 C7.27685547,2.77050781 7.42724609,2.49658203 7.64208984,2.24414062 C7.82470703,2.03466797 7.91601562,1.81982422 7.91601562,1.58886719 C7.91601562,1.16992188 7.59375,0.84765625 7.11035156,0.84765625 L5.33251953,0.84765625 C4.23681641,0.84765625 3.62988281,1.43847656 3.62988281,2.5234375 L3.62988281,4.34423828 C3.62988281,4.43554688 3.57080078,4.47314453 3.47412109,4.40869141 C3.15722656,4.19921875 2.78662109,4.04882812 2.36230469,4.04882812 C1.3203125,4.04882812 0.369628906,4.87597656 0.369628906,6.1328125 C0.369628906,7.38964844 1.3203125,8.21142578 2.36230469,8.21142578 C2.78662109,8.21142578 3.15722656,8.06640625 3.47412109,7.8515625 C3.57080078,7.78710938 3.62988281,7.83007812 3.62988281,7.91601562 L3.62988281,9.70458984 C3.62988281,10.7895508 4.23681641,11.3803711 5.33251953,11.3803711 L7.11035156,11.3803711 Z" id="translucent" opacity="0.35"></path>
            <path d="M7.11035156,11.3803711 C7.59375,11.3803711 7.91601562,11.0581055 7.91601562,10.6445312 C7.91601562,10.4082031 7.82470703,10.1933594 7.64208984,9.98388672 C7.42724609,9.73144531 7.27685547,9.45751953 7.27685547,9.14599609 C7.27685547,8.56054688 7.69580078,8.09326172 8.35107422,8.09326172 C9.00634766,8.09326172 9.42529297,8.56054688 9.42529297,9.14599609 C9.42529297,9.45751953 9.28027344,9.73144531 9.06005859,9.98388672 C8.87744141,10.1933594 8.78613281,10.4082031 8.78613281,10.6445312 C8.78613281,11.0581055 9.10839844,11.3803711 9.59179688,11.3803711 L11.3696289,11.3803711 C12.465332,11.3803711 13.0722656,10.7895508 13.0722656,9.70458984 L13.0722656,7.91601562 C13.0722656,7.83007812 13.1313477,7.78710938 13.2333984,7.8515625 C13.5449219,8.06640625 13.9155273,8.21142578 14.3398438,8.21142578 C15.3818359,8.21142578 16.3325195,7.38964844 16.3325195,6.1328125 C16.3325195,4.87597656 15.3818359,4.04882812 14.3398438,4.04882812 C13.9155273,4.04882812 13.5449219,4.19921875 13.2333984,4.40869141 C13.1313477,4.47314453 13.0722656,4.43554688 13.0722656,4.34423828 L13.0722656,2.5234375 C13.0722656,1.43847656 12.465332,0.84765625 11.3696289,0.84765625 L9.59179688,0.84765625 C9.10839844,0.84765625 8.78613281,1.16992188 8.78613281,1.58886719 C8.78613281,1.81982422 8.87744141,2.03466797 9.06005859,2.24414062 C9.28027344,2.49658203 9.42529297,2.77050781 9.42529297,3.08203125 C9.42529297,3.66210937 9.00097656,4.13476562 8.35107422,4.13476562 C7.70654297,4.13476562 7.27685547,3.66210937 7.27685547,3.08203125 C7.27685547,2.77050781 7.42724609,2.49658203 7.64208984,2.24414062 C7.82470703,2.03466797 7.91601562,1.81982422 7.91601562,1.58886719 C7.91601562,1.16992188 7.59375,0.84765625 7.11035156,0.84765625 L5.33251953,0.84765625 C4.23681641,0.84765625 3.62988281,1.43847656 3.62988281,2.5234375 L3.62988281,4.34423828 C3.62988281,4.43554688 3.57080078,4.47314453 3.47412109,4.40869141 C3.15722656,4.19921875 2.78662109,4.04882812 2.36230469,4.04882812 C1.3203125,4.04882812 0.369628906,4.87597656 0.369628906,6.1328125 C0.369628906,7.38964844 1.3203125,8.21142578 2.36230469,8.21142578 C2.78662109,8.21142578 3.15722656,8.06640625 3.47412109,7.8515625 C3.57080078,7.78710938 3.62988281,7.83007812 3.62988281,7.91601562 L3.62988281,9.70458984 C3.62988281,10.7895508 4.23681641,11.3803711 5.33251953,11.3803711 L7.11035156,11.3803711 Z M6.48730469,10.3598633 L5.34863281,10.3598633 C4.91357422,10.3598633 4.65039062,10.112793 4.65039062,9.66162109 L4.65039062,7.37353516 C4.65039062,6.89013672 4.328125,6.56787109 3.91455078,6.56787109 C3.67822266,6.56787109 3.46337891,6.65917969 3.25390625,6.84179688 C3.00146484,7.05664062 2.72753906,7.20703125 2.41601562,7.20703125 C1.8359375,7.20703125 1.36328125,6.77734375 1.36328125,6.1328125 C1.36328125,5.48291016 1.8359375,5.05859375 2.41601562,5.05859375 C2.72753906,5.05859375 3.00146484,5.20361328 3.25390625,5.42382812 C3.46337891,5.60107422 3.67822266,5.69775391 3.91455078,5.69775391 C4.328125,5.69775391 4.65039062,5.37548828 4.65039062,4.89208984 L4.65039062,2.56640625 C4.65039062,2.12060547 4.91357422,1.86816406 5.34863281,1.86816406 L6.48730469,1.86816406 C6.71826172,1.86816406 6.6484375,1.98095703 6.58935547,2.08837891 C6.40673828,2.39990234 6.27246094,2.74365234 6.27246094,3.13574219 C6.27246094,4.17773438 7.09423828,5.12841797 8.35107422,5.12841797 C9.60791016,5.12841797 10.4350586,4.17773438 10.4350586,3.13574219 C10.4350586,2.74365234 10.2954102,2.39990234 10.112793,2.08837891 C10.0537109,1.98095703 9.98388672,1.86816406 10.2148438,1.86816406 L11.3535156,1.86816406 C11.7885742,1.86816406 12.0517578,2.12060547 12.0517578,2.56640625 L12.0517578,4.89208984 C12.0517578,5.37548828 12.3740234,5.69775391 12.7929688,5.69775391 C13.0239258,5.69775391 13.2387695,5.60107422 13.4482422,5.42382812 C13.7006836,5.20361328 13.9746094,5.05859375 14.2861328,5.05859375 C14.8662109,5.05859375 15.3442383,5.48291016 15.3442383,6.1328125 C15.3442383,6.77734375 14.8662109,7.20703125 14.2861328,7.20703125 C13.9746094,7.20703125 13.7006836,7.05664062 13.4482422,6.84179688 C13.2387695,6.65917969 13.0239258,6.56787109 12.7929688,6.56787109 C12.3740234,6.56787109 12.0517578,6.89013672 12.0517578,7.37353516 L12.0517578,9.66162109 C12.0517578,10.112793 11.7885742,10.3598633 11.3535156,10.3598633 L10.2148438,10.3598633 C9.98388672,10.3598633 10.0537109,10.2470703 10.112793,10.1396484 C10.2954102,9.828125 10.4350586,9.484375 10.4350586,9.09228516 C10.4350586,8.04492188 9.61865234,7.09960938 8.35107422,7.09960938 C7.08886719,7.09960938 6.27246094,8.04492188 6.27246094,9.09228516 C6.27246094,9.484375 6.40673828,9.828125 6.58935547,10.1396484 C6.6484375,10.2470703 6.71826172,10.3598633 6.48730469,10.3598633 Z" id="solid"></path>
        </g>
    </g>
</svg>