<?xml version="1.0" encoding="UTF-8"?>
<svg width="15px" height="15px" viewBox="0 0 15 15" version="1.1" xmlns="http://www.w3.org/2000/svg" xmlns:xlink="http://www.w3.org/1999/xlink">
    <title>objects-tools/trash</title>
    <g id="objects-tools/trash" stroke="none" stroke-width="1" fill="none" fill-rule="evenodd">
        <g id="dark" fill="#7B7B7B" fill-rule="nonzero">
            <path d="M10.5183105,13.6948242 C11.3054199,13.6948242 11.7814941,13.2568359 11.8132324,12.4697266 L12.2194824,3.19580078 L13.1716309,3.19580078 C13.4318848,3.19580078 13.6477051,2.97363281 13.6477051,2.71337891 C13.6477051,2.453125 13.4318848,2.23730469 13.1716309,2.23730469 L10.3405762,2.23730469 L10.3405762,1.26611328 C10.3405762,0.307617188 9.7121582,-0.282714844 8.6965332,-0.282714844 L6.29077148,-0.282714844 C5.27514648,-0.282714844 4.64672852,0.307617188 4.64672852,1.26611328 L4.64672852,2.23730469 L1.82836914,2.23730469 C1.57446289,2.23730469 1.35229492,2.453125 1.35229492,2.71337891 C1.35229492,2.97998047 1.57446289,3.19580078 1.82836914,3.19580078 L2.78686523,3.19580078 L3.19311523,12.4697266 C3.22485352,13.2568359 3.70092773,13.6948242 4.48168945,13.6948242 L10.5183105,13.6948242 Z M9.19799805,2.23730469 L5.7956543,2.23730469 L5.7956543,1.32958984 C5.7956543,1.01220703 6.01782227,0.796386719 6.3605957,0.796386719 L8.63305664,0.796386719 C8.97583008,0.796386719 9.19799805,1.01220703 9.19799805,1.32958984 L9.19799805,2.23730469 Z M5.4909668,11.8793945 C5.26245117,11.8793945 5.10375977,11.7333984 5.09741211,11.5048828 L4.90063477,4.59228516 C4.89428711,4.37011719 5.05297852,4.21777344 5.30053711,4.21777344 C5.52270508,4.21777344 5.68774414,4.36376953 5.6940918,4.5859375 L5.88452148,11.5048828 C5.89086914,11.7270508 5.73217773,11.8793945 5.4909668,11.8793945 Z M7.50317383,11.8793945 C7.26196289,11.8793945 7.09057617,11.7270508 7.09057617,11.5048828 L7.09057617,4.59228516 C7.09057617,4.37011719 7.26196289,4.21777344 7.50317383,4.21777344 C7.74438477,4.21777344 7.90942383,4.37011719 7.90942383,4.59228516 L7.90942383,11.5048828 C7.90942383,11.7270508 7.74438477,11.8793945 7.50317383,11.8793945 Z M9.5090332,11.8793945 C9.26782227,11.8793945 9.10913086,11.7270508 9.11547852,11.5048828 L9.3059082,4.59228516 C9.31225586,4.36376953 9.47729492,4.21777344 9.69946289,4.21777344 C9.94067383,4.21777344 10.1057129,4.37011719 10.0993652,4.59228516 L9.90258789,11.5048828 C9.89624023,11.7333984 9.73754883,11.8793945 9.5090332,11.8793945 Z" id="fill"></path>
        </g>
        <g id="light" transform="translate(1.000000, -1.000000)" fill="#7B7B7B" fill-rule="nonzero">
            <path d="M9.41040039,14.9233398 C10.3181152,14.9233398 10.9274902,14.3330078 10.9719238,13.425293 L11.4099121,4.19580078 L12.1716309,4.19580078 C12.4318848,4.19580078 12.6477051,3.97363281 12.6477051,3.71337891 C12.6477051,3.453125 12.4318848,3.23730469 12.1716309,3.23730469 L9.27075195,3.23730469 L9.27075195,2.26611328 C9.27075195,1.34570312 8.67407227,0.787109375 7.6965332,0.787109375 L5.29077148,0.787109375 C4.31323242,0.787109375 3.71655273,1.34570312 3.71655273,2.26611328 L3.71655273,3.23730469 L0.828369141,3.23730469 C0.574462891,3.23730469 0.352294922,3.453125 0.352294922,3.71337891 C0.352294922,3.97998047 0.574462891,4.19580078 0.828369141,4.19580078 L1.59008789,4.19580078 L2.02807617,13.4316406 C2.07250977,14.3393555 2.67553711,14.9233398 3.58959961,14.9233398 L9.41040039,14.9233398 Z M8.26147461,3.23730469 L4.72583008,3.23730469 L4.72583008,2.32958984 C4.72583008,1.96777344 4.97338867,1.73291016 5.35424805,1.73291016 L7.63305664,1.73291016 C8.01391602,1.73291016 8.26147461,1.96777344 8.26147461,2.32958984 L8.26147461,3.23730469 Z" id="fill" opacity="0.35"></path>
            <path d="M9.41040039,14.9233398 C10.3181152,14.9233398 10.9274902,14.3330078 10.9719238,13.425293 L11.4099121,4.19580078 L12.1716309,4.19580078 C12.4318848,4.19580078 12.6477051,3.97363281 12.6477051,3.71337891 C12.6477051,3.453125 12.4318848,3.23730469 12.1716309,3.23730469 L9.27075195,3.23730469 L9.27075195,2.26611328 C9.27075195,1.34570312 8.67407227,0.787109375 7.6965332,0.787109375 L5.29077148,0.787109375 C4.31323242,0.787109375 3.71655273,1.34570312 3.71655273,2.26611328 L3.71655273,3.23730469 L0.828369141,3.23730469 C0.574462891,3.23730469 0.352294922,3.453125 0.352294922,3.71337891 C0.352294922,3.97998047 0.574462891,4.19580078 0.828369141,4.19580078 L1.59008789,4.19580078 L2.02807617,13.4316406 C2.07250977,14.3393555 2.67553711,14.9233398 3.58959961,14.9233398 L9.41040039,14.9233398 Z M8.26147461,3.23730469 L4.72583008,3.23730469 L4.72583008,2.32958984 C4.72583008,1.96777344 4.97338867,1.73291016 5.35424805,1.73291016 L7.63305664,1.73291016 C8.01391602,1.73291016 8.26147461,1.96777344 8.26147461,2.32958984 L8.26147461,3.23730469 Z M9.30883789,13.9648438 L3.6784668,13.9648438 C3.31665039,13.9648438 3.04370117,13.6918945 3.0246582,13.3173828 L2.58032227,4.19580078 L10.3879395,4.19580078 L9.9753418,13.3173828 C9.95629883,13.6982422 9.68334961,13.9648438 9.30883789,13.9648438 Z M4.61791992,12.8793945 C4.85913086,12.8793945 5.01782227,12.7270508 5.01147461,12.5048828 L4.82104492,5.71289062 C4.81469727,5.49072266 4.6496582,5.34472656 4.42114258,5.34472656 C4.17993164,5.34472656 4.02124023,5.49707031 4.02758789,5.71923828 L4.22436523,12.5048828 C4.23071289,12.7333984 4.38305664,12.8793945 4.61791992,12.8793945 Z M6.50317383,12.8793945 C6.74438477,12.8793945 6.90942383,12.7270508 6.90942383,12.5048828 L6.90942383,5.71923828 C6.90942383,5.49707031 6.74438477,5.34472656 6.50317383,5.34472656 C6.26196289,5.34472656 6.09057617,5.49707031 6.09057617,5.71923828 L6.09057617,12.5048828 C6.09057617,12.7270508 6.26196289,12.8793945 6.50317383,12.8793945 Z M8.38208008,12.8793945 C8.6105957,12.8793945 8.76928711,12.7333984 8.77563477,12.5048828 L8.97241211,5.71923828 C8.97875977,5.49707031 8.8137207,5.34472656 8.57250977,5.34472656 C8.3503418,5.34472656 8.18530273,5.49072266 8.17895508,5.71923828 L7.98852539,12.5048828 C7.98217773,12.7270508 8.14086914,12.8793945 8.38208008,12.8793945 Z" id="stroke"></path>
        </g>
    </g>
</svg>