<?xml version="1.0" encoding="UTF-8"?>
<svg width="11px" height="10px" viewBox="0 0 11 10" version="1.1" xmlns="http://www.w3.org/2000/svg" xmlns:xlink="http://www.w3.org/1999/xlink">
    <!-- Generator: Sketch 64 (93537) - https://sketch.com -->
    <title>data</title>
    <desc>Created with Sketch.</desc>
    <g id="data" stroke="none" stroke-width="1" fill="none" fill-rule="evenodd" stroke-linecap="round">
        <path d="M0.133692801,2.763799 L5.280187,0.05745798 C5.425873,-0.01915266 5.599932,-0.01915266 5.745618,0.05745798 L10.89211,2.763799 C11.01432,2.828061 11.06129,2.979223 10.99702,3.101427 C10.97348,3.146209 10.93689,3.182792 10.89211,3.206341 L5.745618,5.912681 C5.599932,5.989292 5.425873,5.989292 5.280187,5.912681 L0.133692801,3.206341 C0.0114881806,3.142078 -0.0354830594,2.990916 0.0287795906,2.868712 C0.0523285506,2.82393 0.0889110606,2.787348 0.133692801,2.763799 Z" id="Path" stroke="#7B7B7B" stroke-width="0.75" fill-opacity="0.25" fill="#7B7B7B"></path>
        <path d="M11.01227,5.143154 C9.841903,5.758605 8.086352,6.68178 5.745618,7.912681 C5.599932,7.989292 5.425873,7.989292 5.280187,7.912681 C2.938494,6.681276 1.182224,5.757723 0.0113778506,5.14202" id="Path" stroke="#7B7B7B" stroke-width="0.75"></path>
        <path d="M11.01227,7.143154 C9.841903,7.758605 8.086352,8.68178 5.745618,9.912681 C5.599932,9.989292 5.425873,9.989292 5.280187,9.912681 C2.938494,8.681276 1.182224,7.757723 0.0113778506,7.14202" id="Path" stroke="#7B7B7B" stroke-width="0.75"></path>
    </g>
</svg>