<?xml version="1.0" encoding="UTF-8"?>
<svg width="15px" height="15px" viewBox="0 0 15 15" version="1.1" xmlns="http://www.w3.org/2000/svg" xmlns:xlink="http://www.w3.org/1999/xlink">
    <title>health/bandage</title>
    <g id="health/bandage" stroke="none" stroke-width="1" fill="none" fill-rule="evenodd">
        <g id="dark" transform="translate(1.000000, 0.000000)" fill="#000000" fill-rule="nonzero">
            <path d="M11.4350586,7.56933594 L12.4506836,6.45849609 C13.8979492,5.01123047 13.8725586,3.17675781 12.5649414,1.85644531 C11.2573242,0.529785156 9.40380859,0.5234375 7.95654297,1.96435547 L6.85205078,2.98632813 C7.39794922,2.82763672 7.98828125,2.95458984 8.61035156,3.57666016 L10.9208984,5.88720703 C11.5429688,6.50292969 11.5874023,7.01708984 11.4350586,7.56933594 Z M6.04589844,12.8696289 L7.13769531,11.8413086 C6.58544922,12 6.02685547,11.8920898 5.41113281,11.2763672 L3.09423828,8.95947266 C2.47216797,8.34375 2.42138672,7.82958984 2.57373047,7.27734375 L1.55175781,8.37548828 C0.0981445313,9.81640625 0.129882813,11.6572266 1.4375,12.9775391 C2.74511719,14.3041992 4.59863281,14.3168945 6.04589844,12.8696289 Z" id="translucent" opacity="0.35"></path>
            <path d="M7.89941406,10.6289062 L10.2163086,8.31201172 C10.8701172,7.65820312 10.8574219,7.05517578 10.2226562,6.42041016 L7.99462891,4.19238281 C7.35986328,3.55761719 6.76318359,3.54492188 6.10302734,4.20507812 L3.78613281,6.515625 C3.13867187,7.16943359 3.15136719,7.77880859 3.78613281,8.41357422 L6.0078125,10.6289062 C6.64257812,11.2636719 7.25195312,11.2827148 7.89941406,10.6289062 Z M6.58544922,6.50292969 C6.34423828,6.26171875 6.34423828,5.88720703 6.57910156,5.65234375 C6.8203125,5.41113281 7.18847656,5.41113281 7.42333984,5.65234375 C7.65820313,5.88720703 7.66455078,6.25537109 7.41699219,6.50292969 C7.19482422,6.72509766 6.80761719,6.72509766 6.58544922,6.50292969 Z M5.23974609,7.84228516 C4.99853516,7.60107422 4.99853516,7.23291016 5.23974609,6.99169922 C5.48095703,6.75048828 5.84912109,6.75683594 6.09033203,6.99804688 C6.3125,7.2265625 6.31884766,7.60107422 6.09033203,7.82958984 C5.84277344,8.08349609 5.47460938,8.07080078 5.23974609,7.84228516 Z M7.91210938,7.82958984 C7.68994141,7.60742188 7.68994141,7.2265625 7.91210938,6.99804688 C8.15966797,6.75048828 8.52783203,6.75683594 8.76269531,6.99169922 C9.00390625,7.23291016 9.00390625,7.60107422 8.76269531,7.84228516 C8.52783203,8.07080078 8.15332031,8.07080078 7.91210938,7.82958984 Z M6.57910156,9.17529297 C6.34423828,8.94677734 6.33789062,8.57861328 6.58544922,8.33105469 C6.8203125,8.09619141 7.19482422,8.10253906 7.41699219,8.33105469 C7.65820312,8.56591797 7.66455078,8.94677734 7.42333984,9.17529297 C7.17578125,9.41650391 6.8203125,9.41650391 6.57910156,9.17529297 Z" id="solid"></path>
        </g>
        <g id="light" transform="translate(1.000000, 0.000000)" fill="#000000" fill-rule="nonzero">
            <path d="M6.16650391,12.8569336 L8.10253906,10.9082031 L10.5717773,8.4453125 L12.5141602,6.50292969 C13.9868164,5.03662109 13.9931641,3.13232422 12.6538086,1.78662109 C11.3081055,0.447265625 9.40380859,0.453613281 7.9375,1.91992188 L5.99511719,3.86865234 L3.53222656,6.33789063 L1.58349609,8.27392578 C0.1171875,9.74658203 0.104492188,11.6508789 1.44384766,12.996582 C2.78955078,14.3359375 4.69384766,14.3232422 6.16650391,12.8569336 Z" id="translucent"></path>
            <path d="M6.16650391,12.8569336 L8.10253906,10.9082031 L10.5717773,8.4453125 L12.5141602,6.50292969 C13.9868164,5.03662109 13.9931641,3.13232422 12.6538086,1.78662109 C11.3081055,0.447265625 9.40380859,0.453613281 7.9375,1.91992188 L5.99511719,3.86865234 L3.53222656,6.33789063 L1.58349609,8.27392578 C0.1171875,9.74658203 0.104492188,11.6508789 1.44384766,12.996582 C2.78955078,14.3359375 4.69384766,14.3232422 6.16650391,12.8569336 Z M10.9208984,6.64892578 C10.8320313,6.50927734 10.7177734,6.36962891 10.578125,6.22363281 L8.21044922,3.86230469 C8.07080078,3.72265625 7.93115234,3.60839844 7.79150391,3.51953125 L8.65478516,2.65625 C9.67041016,1.63427734 11.0097656,1.49462891 11.980957,2.453125 C12.9584961,3.41796875 12.8061523,4.77001953 11.7841797,5.78564453 L10.9208984,6.64892578 Z M6.47119141,10.152832 L4.28759766,7.96923828 C3.92578125,7.60742188 3.96386719,7.33447266 4.34472656,6.95996094 L6.62353516,4.6875 C6.99804688,4.30664063 7.26464844,4.26855469 7.62646484,4.63037109 L9.81005859,6.81396484 C10.171875,7.17578125 10.1337891,7.44238281 9.75292969,7.81689453 L7.47412109,10.0957031 C7.09960938,10.4765625 6.83300781,10.5146484 6.47119141,10.152832 Z M7.04248047,6.68066406 C7.35351563,6.68066406 7.58203125,6.43945313 7.58203125,6.14746094 C7.59472656,5.85546875 7.34716797,5.60791016 7.04882813,5.60791016 C6.75048828,5.60791016 6.515625,5.85546875 6.515625,6.16015625 C6.515625,6.43310547 6.76318359,6.68066406 7.04248047,6.68066406 Z M5.82373047,7.92480469 C6.11572266,7.92480469 6.35058594,7.67089844 6.35058594,7.39794922 C6.35058594,7.09326172 6.11572266,6.85205078 5.81738281,6.85205078 C5.51269531,6.85205078 5.27783203,7.09326172 5.27783203,7.39160156 C5.27783203,7.68359375 5.51269531,7.92480469 5.82373047,7.92480469 Z M8.28027344,7.92480469 C8.57861328,7.92480469 8.82617188,7.67724609 8.81982422,7.38525391 C8.81982422,7.09326172 8.58496094,6.85205078 8.27392578,6.85205078 C7.99462891,6.85205078 7.74707031,7.09960938 7.74707031,7.37255859 C7.74707031,7.67724609 7.98828125,7.92480469 8.28027344,7.92480469 Z M7.04882813,9.16259766 C7.34716797,9.16259766 7.58203125,8.92138672 7.58203125,8.61669922 C7.58203125,8.34375 7.34716797,8.08984375 7.05517578,8.08984375 C6.74414063,8.08984375 6.50927734,8.33105469 6.50927734,8.62304688 C6.50927734,8.92138672 6.74414063,9.16259766 7.04882813,9.16259766 Z M2.11669922,12.3237305 C1.13916016,11.3588867 1.29150391,10.0131836 2.31347656,8.99121094 L3.17675781,8.12792969 C3.265625,8.27392578 3.37988281,8.41357422 3.51953125,8.55322266 L5.88720703,10.9208984 C6.02685547,11.0605469 6.16650391,11.1748047 6.30615234,11.2636719 L5.44921875,12.1269531 C4.42724609,13.1425781 3.08789063,13.2885742 2.11669922,12.3237305 Z" id="solid"></path>
        </g>
    </g>
</svg>