<?xml version="1.0" encoding="UTF-8"?>
<svg width="15px" height="15px" viewBox="0 0 15 15" version="1.1" xmlns="http://www.w3.org/2000/svg" xmlns:xlink="http://www.w3.org/1999/xlink">
    <title>health/bed-double</title>
    <g id="health/bed-double" stroke="none" stroke-width="1" fill="none" fill-rule="evenodd">
        <g id="dark" transform="translate(-0.500000, 2.000000)" fill="#000000" fill-rule="nonzero">
            <path d="M3.4765625,4.06445312 L3.4765625,3.25585938 C3.4765625,2.6875 3.78710938,2.3828125 4.36132812,2.3828125 L6.52929688,2.3828125 C7.10351562,2.3828125 7.4140625,2.6875 7.4140625,3.25585938 L7.4140625,4.06445312 L8.73242188,4.06445312 L8.73242188,3.25585938 C8.73242188,2.6875 9.04296875,2.3828125 9.640625,2.3828125 L11.6972656,2.3828125 C12.3007812,2.3828125 12.6113281,2.6875 12.6113281,3.25585938 L12.6113281,4.06445312 L14.1464844,4.06445312 L14.1464844,2.3828125 C14.1464844,1.26953125 13.5488281,0.689453125 12.4589844,0.689453125 L3.62890625,0.689453125 C2.5390625,0.689453125 1.94140625,1.26953125 1.94140625,2.3828125 L1.94140625,4.06445312 L3.4765625,4.06445312 Z" id="translucent" opacity="0.25"></path>
            <path d="M1.37304688,10.84375 C1.68359375,10.84375 1.88867188,10.6445312 1.88867188,10.328125 L1.88867188,9.484375 C1.95898438,9.50195312 2.1640625,9.51367188 2.31054688,9.51367188 L13.7773438,9.51367188 C13.9238281,9.51367188 14.1289062,9.50195312 14.1992188,9.484375 L14.1992188,10.328125 C14.1992188,10.6445312 14.4042969,10.84375 14.7148438,10.84375 L15.078125,10.84375 C15.3886719,10.84375 15.59375,10.6445312 15.59375,10.328125 L15.59375,6.765625 C15.59375,5.59960938 14.9492188,4.9609375 13.7773438,4.9609375 L2.31054688,4.9609375 C1.13867188,4.9609375 0.494140625,5.59960938 0.494140625,6.765625 L0.494140625,10.328125 C0.494140625,10.6445312 0.69921875,10.84375 1.00976562,10.84375 L1.37304688,10.84375 Z" id="opaque" opacity="0.75"></path>
        </g>
        <g id="light" transform="translate(-0.500000, 2.000000)" fill="#000000" fill-rule="nonzero">
            <path d="M1.37304688,10.84375 C1.68359375,10.84375 1.88867188,10.6445312 1.88867188,10.328125 L1.88867188,9.484375 C1.95898438,9.50195312 2.1640625,9.51367188 2.31054688,9.51367188 L13.7773438,9.51367188 C13.9238281,9.51367188 14.1289062,9.50195312 14.1992188,9.484375 L14.1992188,10.328125 C14.1992188,10.6445312 14.4042969,10.84375 14.7148438,10.84375 L15.078125,10.84375 C15.3886719,10.84375 15.59375,10.6445312 15.59375,10.328125 L15.59375,6.22070312 C15.59375,5.16015625 15.0605469,4.54492188 14.0761719,4.4453125 L14.0761719,2.3828125 C14.0761719,1.26953125 13.4785156,0.689453125 12.3886719,0.689453125 L3.69921875,0.689453125 C2.609375,0.689453125 2.01171875,1.26953125 2.01171875,2.3828125 L2.01171875,4.4453125 C1.02734375,4.54492188 0.494140625,5.16015625 0.494140625,6.22070312 L0.494140625,10.328125 C0.494140625,10.6445312 0.69921875,10.84375 1.00976562,10.84375 L1.37304688,10.84375 Z" id="translucent" opacity="0.25"></path>
            <path d="M1.37304688,10.84375 C1.68359375,10.84375 1.88867188,10.6445312 1.88867188,10.328125 L1.88867188,9.484375 C1.95898438,9.50195312 2.1640625,9.51367188 2.31054688,9.51367188 L13.7773438,9.51367188 C13.9238281,9.51367188 14.1289062,9.50195312 14.1992188,9.484375 L14.1992188,10.328125 C14.1992188,10.6445312 14.4042969,10.84375 14.7148438,10.84375 L15.078125,10.84375 C15.3886719,10.84375 15.59375,10.6445312 15.59375,10.328125 L15.59375,6.22070312 C15.59375,5.16015625 15.0605469,4.54492188 14.0761719,4.4453125 L14.0761719,2.3828125 C14.0761719,1.26953125 13.4785156,0.689453125 12.3886719,0.689453125 L3.69921875,0.689453125 C2.609375,0.689453125 2.01171875,1.26953125 2.01171875,2.3828125 L2.01171875,4.4453125 C1.02734375,4.54492188 0.494140625,5.16015625 0.494140625,6.22070312 L0.494140625,10.328125 C0.494140625,10.6445312 0.69921875,10.84375 1.00976562,10.84375 L1.37304688,10.84375 Z M7.4609375,4.43359375 L3.58789062,4.43359375 L3.58789062,3.35546875 C3.58789062,2.79296875 3.8984375,2.48242188 4.47265625,2.48242188 L6.58203125,2.48242188 C7.15039062,2.48242188 7.4609375,2.79296875 7.4609375,3.35546875 L7.4609375,4.43359375 Z M12.5,4.43359375 L8.62695312,4.43359375 L8.62695312,3.35546875 C8.62695312,2.79296875 8.9375,2.48242188 9.50585938,2.48242188 L11.6152344,2.48242188 C12.1894531,2.48242188 12.5,2.79296875 12.5,3.35546875 L12.5,4.43359375 Z M14.2578125,8.51171875 L1.83007812,8.51171875 C1.6953125,8.51171875 1.61914062,8.42382812 1.61914062,8.27734375 L1.61914062,6.15039062 C1.61914062,5.71679688 1.90625,5.43554688 2.33984375,5.43554688 L13.7480469,5.43554688 C14.1816406,5.43554688 14.46875,5.71679688 14.46875,6.15039062 L14.46875,8.27734375 C14.46875,8.42382812 14.3925781,8.51171875 14.2578125,8.51171875 Z" id="solid" opacity="0.5"></path>
        </g>
    </g>
</svg>