<?xml version="1.0" encoding="UTF-8"?>
<svg width="15px" height="15px" viewBox="0 0 15 15" version="1.1" xmlns="http://www.w3.org/2000/svg" xmlns:xlink="http://www.w3.org/1999/xlink">
    <title>health/bed-double</title>
    <g id="health/bed-double" stroke="none" stroke-width="1" fill="none" fill-rule="evenodd">
        <g id="dark" transform="translate(-0.500000, 2.000000)" fill="#000000" fill-rule="nonzero">
            <path d="M3.4765625,4.06445312 L3.4765625,3.25585938 C3.4765625,2.6875 3.78710938,2.3828125 4.36132812,2.3828125 L6.52929688,2.3828125 C7.10351562,2.3828125 7.4140625,2.6875 7.4140625,3.25585938 L7.4140625,4.06445312 L8.73242188,4.06445312 L8.73242188,3.25585938 C8.73242188,2.6875 9.04296875,2.3828125 9.640625,2.3828125 L11.6972656,2.3828125 C12.3007812,2.3828125 12.6113281,2.6875 12.6113281,3.25585938 L12.6113281,4.06445312 L14.1464844,4.06445312 L14.1464844,2.3828125 C14.1464844,1.26953125 13.5488281,0.689453125 12.4589844,0.689453125 L3.62890625,0.689453125 C2.5390625,0.689453125 1.94140625,1.26953125 1.94140625,2.3828125 L1.94140625,4.06445312 L3.4765625,4.06445312 Z" id="translucent" opacity="0.35"></path>
            <path d="M1.37304688,10.84375 C1.68359375,10.84375 1.88867188,10.6445312 1.88867188,10.328125 L1.88867188,9.484375 C1.95898438,9.50195312 2.1640625,9.51367188 2.31054688,9.51367188 L13.7773438,9.51367188 C13.9238281,9.51367188 14.1289062,9.50195312 14.1992188,9.484375 L14.1992188,10.328125 C14.1992188,10.6445312 14.4042969,10.84375 14.7148438,10.84375 L15.078125,10.84375 C15.3886719,10.84375 15.59375,10.6445312 15.59375,10.328125 L15.59375,6.765625 C15.59375,5.59960938 14.9492188,4.9609375 13.7773438,4.9609375 L2.31054688,4.9609375 C1.13867188,4.9609375 0.494140625,5.59960938 0.494140625,6.765625 L0.494140625,10.328125 C0.494140625,10.6445312 0.69921875,10.84375 1.00976562,10.84375 L1.37304688,10.84375 Z" id="solid"></path>
        </g>
        <g id="light" transform="translate(-1.500000, 0.000000)" fill="#000000" fill-rule="nonzero">
            <path d="M2.37304688,12.84375 C2.68359375,12.84375 2.88867188,12.6445312 2.88867188,12.328125 L2.88867188,11.484375 C2.95898438,11.5019531 3.1640625,11.5136719 3.31054688,11.5136719 L14.7773438,11.5136719 C14.9238281,11.5136719 15.1289062,11.5019531 15.1992188,11.484375 L15.1992188,12.328125 C15.1992188,12.6445312 15.4042969,12.84375 15.7148438,12.84375 L16.078125,12.84375 C16.3886719,12.84375 16.59375,12.6445312 16.59375,12.328125 L16.59375,8.22070312 C16.59375,7.16015625 16.0605469,6.54492188 15.0761719,6.4453125 L15.0761719,4.3828125 C15.0761719,3.26953125 14.4785156,2.68945312 13.3886719,2.68945312 L4.69921875,2.68945312 C3.609375,2.68945312 3.01171875,3.26953125 3.01171875,4.3828125 L3.01171875,6.4453125 C2.02734375,6.54492188 1.49414062,7.16015625 1.49414062,8.22070312 L1.49414062,12.328125 C1.49414062,12.6445312 1.69921875,12.84375 2.00976562,12.84375 L2.37304688,12.84375 Z" id="translucent" opacity="0.35"></path>
            <path d="M2.37304688,12.84375 C2.68359375,12.84375 2.88867188,12.6445312 2.88867188,12.328125 L2.88867188,11.484375 C2.95898438,11.5019531 3.1640625,11.5136719 3.31054688,11.5136719 L14.7773438,11.5136719 C14.9238281,11.5136719 15.1289062,11.5019531 15.1992188,11.484375 L15.1992188,12.328125 C15.1992188,12.6445312 15.4042969,12.84375 15.7148438,12.84375 L16.078125,12.84375 C16.3886719,12.84375 16.59375,12.6445312 16.59375,12.328125 L16.59375,8.22070312 C16.59375,7.16015625 16.0605469,6.54492188 15.0761719,6.4453125 L15.0761719,4.3828125 C15.0761719,3.26953125 14.4785156,2.68945312 13.3886719,2.68945312 L4.69921875,2.68945312 C3.609375,2.68945312 3.01171875,3.26953125 3.01171875,4.3828125 L3.01171875,6.4453125 C2.02734375,6.54492188 1.49414062,7.16015625 1.49414062,8.22070312 L1.49414062,12.328125 C1.49414062,12.6445312 1.69921875,12.84375 2.00976562,12.84375 L2.37304688,12.84375 Z M8.4609375,6.43359375 L4.58789062,6.43359375 L4.58789062,5.35546875 C4.58789062,4.79296875 4.8984375,4.48242188 5.47265625,4.48242188 L7.58203125,4.48242188 C8.15039062,4.48242188 8.4609375,4.79296875 8.4609375,5.35546875 L8.4609375,6.43359375 Z M13.5,6.43359375 L9.62695312,6.43359375 L9.62695312,5.35546875 C9.62695312,4.79296875 9.9375,4.48242188 10.5058594,4.48242188 L12.6152344,4.48242188 C13.1894531,4.48242188 13.5,4.79296875 13.5,5.35546875 L13.5,6.43359375 Z M15.2578125,10.5117188 L2.83007812,10.5117188 C2.6953125,10.5117188 2.61914062,10.4238281 2.61914062,10.2773438 L2.61914062,8.15039062 C2.61914062,7.71679688 2.90625,7.43554688 3.33984375,7.43554688 L14.7480469,7.43554688 C15.1816406,7.43554688 15.46875,7.71679688 15.46875,8.15039062 L15.46875,10.2773438 C15.46875,10.4238281 15.3925781,10.5117188 15.2578125,10.5117188 Z" id="solid"></path>
        </g>
    </g>
</svg>