<?xml version="1.0" encoding="UTF-8"?>
<svg width="15px" height="15px" viewBox="0 0 15 15" version="1.1" xmlns="http://www.w3.org/2000/svg" xmlns:xlink="http://www.w3.org/1999/xlink">
    <title>health/cross-case</title>
    <g id="health/cross-case" stroke="none" stroke-width="1" fill="none" fill-rule="evenodd">
        <g id="dark" transform="translate(-0.500000, 1.000000)" fill="#000000" fill-rule="nonzero">
            <path d="M11.7270508,2.46875 L11.7270508,1.82763672 C11.7270508,0.869140625 11.0986328,0.28515625 10.0893555,0.28515625 L5.84277344,0.28515625 C4.83349609,0.28515625 4.20507812,0.869140625 4.20507812,1.82763672 L4.20507812,2.46875 L11.7270508,2.46875 Z M10.5908203,2.46875 L5.34765625,2.46875 L5.34765625,1.89111328 C5.34765625,1.56738281 5.56982422,1.35791016 5.91259766,1.35791016 L10.0195312,1.35791016 C10.3686523,1.35791016 10.5908203,1.56738281 10.5908203,1.89111328 L10.5908203,2.46875 Z" id="translucent" opacity="0.35"></path>
            <path d="M13.3520508,12.5170898 C14.6660156,12.5170898 15.3134766,11.8823242 15.3134766,10.5810547 L15.3134766,4.40478516 C15.3134766,3.10986328 14.6660156,2.46875 13.3520508,2.46875 L2.58007812,2.46875 C1.27246094,2.46875 0.618652344,3.10986328 0.618652344,4.40478516 L0.618652344,10.5810547 C0.618652344,11.8823242 1.27246094,12.5170898 2.58007812,12.5170898 L13.3520508,12.5170898 Z M8.57861328,10.6699219 L7.35351562,10.6699219 C7.00439453,10.6699219 6.76953125,10.4287109 6.76953125,10.0795898 L6.76953125,8.69580078 L5.38574219,8.69580078 C5.03027344,8.69580078 4.7890625,8.45458984 4.7890625,8.10546875 L4.7890625,6.88037109 C4.7890625,6.53125 5.03027344,6.29638672 5.38574219,6.29638672 L6.76953125,6.29638672 L6.76953125,4.91894531 C6.76953125,4.55712891 7.00439453,4.32226563 7.35351562,4.32226563 L8.57861328,4.32226563 C8.92773438,4.32226563 9.15625,4.55712891 9.15625,4.91894531 L9.15625,6.29638672 L10.5463867,6.29638672 C10.9018555,6.29638672 11.1367188,6.53125 11.1367188,6.88037109 L11.1367188,8.10546875 C11.1367188,8.45458984 10.9018555,8.69580078 10.5463867,8.69580078 L9.15625,8.69580078 L9.15625,10.0795898 C9.15625,10.4287109 8.92773438,10.6699219 8.57861328,10.6699219 Z" id="solid"></path>
        </g>
        <g id="light" transform="translate(-1.500000, 0.000000)" fill="#000000" fill-rule="nonzero">
            <path d="M14.3520508,13.5170898 C15.6660156,13.5170898 16.3134766,12.8823242 16.3134766,11.5810547 L16.3134766,5.40478516 C16.3134766,4.10986328 15.6660156,3.46875 14.3520508,3.46875 L12.7270508,3.46875 L12.7270508,3.03076172 C12.7270508,1.83740234 12.0986328,1.28515625 10.949707,1.28515625 L6.98242188,1.28515625 C5.89697266,1.28515625 5.20507812,1.83740234 5.20507812,3.03076172 L5.20507812,3.46875 L3.58007812,3.46875 C2.27246094,3.46875 1.61865234,4.10986328 1.61865234,5.40478516 L1.61865234,11.5810547 C1.61865234,12.8823242 2.27246094,13.5170898 3.58007812,13.5170898 L14.3520508,13.5170898 Z M11.7431641,3.46875 L6.18896484,3.46875 L6.18896484,2.9609375 C6.18896484,2.47851562 6.47460938,2.21191406 6.96337891,2.21191406 L10.9624023,2.21191406 C11.4575195,2.21191406 11.7431641,2.47851562 11.7431641,2.9609375 L11.7431641,3.46875 Z" id="translucent" opacity="0.35"></path>
            <path d="M14.3520508,13.5170898 C15.6660156,13.5170898 16.3134766,12.8823242 16.3134766,11.5810547 L16.3134766,5.40478516 C16.3134766,4.10986328 15.6660156,3.46875 14.3520508,3.46875 L12.7270508,3.46875 L12.7270508,3.03076172 C12.7270508,1.83740234 12.0986328,1.28515625 10.949707,1.28515625 L6.98242188,1.28515625 C5.89697266,1.28515625 5.20507812,1.83740234 5.20507812,3.03076172 L5.20507812,3.46875 L3.58007812,3.46875 C2.27246094,3.46875 1.61865234,4.10986328 1.61865234,5.40478516 L1.61865234,11.5810547 C1.61865234,12.8823242 2.27246094,13.5170898 3.58007812,13.5170898 L14.3520508,13.5170898 Z M11.7431641,3.46875 L6.18896484,3.46875 L6.18896484,2.9609375 C6.18896484,2.47851562 6.47460938,2.21191406 6.96337891,2.21191406 L10.9624023,2.21191406 C11.4575195,2.21191406 11.7431641,2.47851562 11.7431641,2.9609375 L11.7431641,3.46875 Z M14.3393555,12.5014648 L3.59277344,12.5014648 C2.97070312,12.5014648 2.640625,12.184082 2.640625,11.5302734 L2.640625,5.45556641 C2.640625,4.80810547 2.97070312,4.484375 3.59277344,4.484375 L14.3393555,4.484375 C14.9614258,4.484375 15.2915039,4.80810547 15.2915039,5.45556641 L15.2915039,11.5302734 C15.2915039,12.184082 14.9614258,12.5014648 14.3393555,12.5014648 Z M9.55322266,11.5683594 C9.89599609,11.5683594 10.1245117,11.3398438 10.1245117,10.9970703 L10.1245117,9.65136719 L11.4638672,9.65136719 C11.8129883,9.65136719 12.0415039,9.42919922 12.0415039,9.08642578 L12.0415039,7.90576172 C12.0415039,7.56298828 11.8129883,7.33447266 11.4638672,7.33447266 L10.1245117,7.33447266 L10.1245117,5.99511719 C10.1245117,5.65234375 9.89599609,5.42382812 9.55322266,5.42382812 L8.37255859,5.42382812 C8.02978516,5.42382812 7.80126953,5.65234375 7.80126953,5.99511719 L7.80126953,7.33447266 L6.46191406,7.33447266 C6.11914062,7.33447266 5.88427734,7.56298828 5.88427734,7.90576172 L5.88427734,9.08642578 C5.88427734,9.42919922 6.11914062,9.65136719 6.46191406,9.65136719 L7.80126953,9.65136719 L7.80126953,10.9970703 C7.80126953,11.3398438 8.02978516,11.5683594 8.37255859,11.5683594 L9.55322266,11.5683594 Z" id="solid"></path>
        </g>
    </g>
</svg>