<?xml version="1.0" encoding="UTF-8"?>
<svg width="15px" height="15px" viewBox="0 0 15 15" version="1.1" xmlns="http://www.w3.org/2000/svg" xmlns:xlink="http://www.w3.org/1999/xlink">
    <title>health/cross-case</title>
    <g id="health/cross-case" stroke="none" stroke-width="1" fill="none" fill-rule="evenodd">
        <g id="dark" transform="translate(-0.500000, 1.000000)" fill="#000000" fill-rule="nonzero">
            <path d="M11.7270508,2.46875 L11.7270508,1.82763672 C11.7270508,0.869140625 11.0986328,0.28515625 10.0893555,0.28515625 L5.84277344,0.28515625 C4.83349609,0.28515625 4.20507812,0.869140625 4.20507812,1.82763672 L4.20507812,2.46875 L11.7270508,2.46875 Z M10.5908203,2.46875 L5.34765625,2.46875 L5.34765625,1.89111328 C5.34765625,1.56738281 5.56982422,1.35791016 5.91259766,1.35791016 L10.0195312,1.35791016 C10.3686523,1.35791016 10.5908203,1.56738281 10.5908203,1.89111328 L10.5908203,2.46875 Z" id="translucent" opacity="0.25"></path>
            <path d="M13.3520508,12.5170898 C14.6660156,12.5170898 15.3134766,11.8823242 15.3134766,10.5810547 L15.3134766,4.40478516 C15.3134766,3.10986328 14.6660156,2.46875 13.3520508,2.46875 L2.58007812,2.46875 C1.27246094,2.46875 0.618652344,3.10986328 0.618652344,4.40478516 L0.618652344,10.5810547 C0.618652344,11.8823242 1.27246094,12.5170898 2.58007812,12.5170898 L13.3520508,12.5170898 Z M8.57861328,10.6699219 L7.35351562,10.6699219 C7.00439453,10.6699219 6.76953125,10.4287109 6.76953125,10.0795898 L6.76953125,8.69580078 L5.38574219,8.69580078 C5.03027344,8.69580078 4.7890625,8.45458984 4.7890625,8.10546875 L4.7890625,6.88037109 C4.7890625,6.53125 5.03027344,6.29638672 5.38574219,6.29638672 L6.76953125,6.29638672 L6.76953125,4.91894531 C6.76953125,4.55712891 7.00439453,4.32226563 7.35351562,4.32226563 L8.57861328,4.32226563 C8.92773438,4.32226563 9.15625,4.55712891 9.15625,4.91894531 L9.15625,6.29638672 L10.5463867,6.29638672 C10.9018555,6.29638672 11.1367188,6.53125 11.1367188,6.88037109 L11.1367188,8.10546875 C11.1367188,8.45458984 10.9018555,8.69580078 10.5463867,8.69580078 L9.15625,8.69580078 L9.15625,10.0795898 C9.15625,10.4287109 8.92773438,10.6699219 8.57861328,10.6699219 Z" id="opaque" opacity="0.75"></path>
        </g>
        <g id="light" transform="translate(-0.500000, 1.000000)" fill="#000000" fill-rule="nonzero">
            <path d="M13.3520508,12.5170898 C14.6660156,12.5170898 15.3134766,11.8823242 15.3134766,10.5810547 L15.3134766,4.40478516 C15.3134766,3.10986328 14.6660156,2.46875 13.3520508,2.46875 L11.7270508,2.46875 L11.7270508,2.03076172 C11.7270508,0.837402344 11.0986328,0.28515625 9.94970703,0.28515625 L5.98242188,0.28515625 C4.89697266,0.28515625 4.20507812,0.837402344 4.20507812,2.03076172 L4.20507812,2.46875 L2.58007812,2.46875 C1.27246094,2.46875 0.618652344,3.10986328 0.618652344,4.40478516 L0.618652344,10.5810547 C0.618652344,11.8823242 1.27246094,12.5170898 2.58007812,12.5170898 L13.3520508,12.5170898 Z M10.7431641,2.46875 L5.18896484,2.46875 L5.18896484,1.9609375 C5.18896484,1.47851562 5.47460938,1.21191406 5.96337891,1.21191406 L9.96240234,1.21191406 C10.4575195,1.21191406 10.7431641,1.47851562 10.7431641,1.9609375 L10.7431641,2.46875 Z" id="translucent" opacity="0.25"></path>
            <path d="M13.3520508,12.5170898 C14.6660156,12.5170898 15.3134766,11.8823242 15.3134766,10.5810547 L15.3134766,4.40478516 C15.3134766,3.10986328 14.6660156,2.46875 13.3520508,2.46875 L11.7270508,2.46875 L11.7270508,2.03076172 C11.7270508,0.837402344 11.0986328,0.28515625 9.94970703,0.28515625 L5.98242188,0.28515625 C4.89697266,0.28515625 4.20507812,0.837402344 4.20507812,2.03076172 L4.20507812,2.46875 L2.58007812,2.46875 C1.27246094,2.46875 0.618652344,3.10986328 0.618652344,4.40478516 L0.618652344,10.5810547 C0.618652344,11.8823242 1.27246094,12.5170898 2.58007812,12.5170898 L13.3520508,12.5170898 Z M10.7431641,2.46875 L5.18896484,2.46875 L5.18896484,1.9609375 C5.18896484,1.47851562 5.47460938,1.21191406 5.96337891,1.21191406 L9.96240234,1.21191406 C10.4575195,1.21191406 10.7431641,1.47851562 10.7431641,1.9609375 L10.7431641,2.46875 Z M13.3393555,11.5014648 L2.59277344,11.5014648 C1.97070312,11.5014648 1.640625,11.184082 1.640625,10.5302734 L1.640625,4.45556641 C1.640625,3.80810547 1.97070312,3.484375 2.59277344,3.484375 L13.3393555,3.484375 C13.9614258,3.484375 14.2915039,3.80810547 14.2915039,4.45556641 L14.2915039,10.5302734 C14.2915039,11.184082 13.9614258,11.5014648 13.3393555,11.5014648 Z M8.55322266,10.5683594 C8.89599609,10.5683594 9.12451172,10.3398438 9.12451172,9.99707031 L9.12451172,8.65136719 L10.4638672,8.65136719 C10.8129883,8.65136719 11.0415039,8.42919922 11.0415039,8.08642578 L11.0415039,6.90576172 C11.0415039,6.56298828 10.8129883,6.33447266 10.4638672,6.33447266 L9.12451172,6.33447266 L9.12451172,4.99511719 C9.12451172,4.65234375 8.89599609,4.42382812 8.55322266,4.42382812 L7.37255859,4.42382812 C7.02978516,4.42382812 6.80126953,4.65234375 6.80126953,4.99511719 L6.80126953,6.33447266 L5.46191406,6.33447266 C5.11914062,6.33447266 4.88427734,6.56298828 4.88427734,6.90576172 L4.88427734,8.08642578 C4.88427734,8.42919922 5.11914062,8.65136719 5.46191406,8.65136719 L6.80126953,8.65136719 L6.80126953,9.99707031 C6.80126953,10.3398438 7.02978516,10.5683594 7.37255859,10.5683594 L8.55322266,10.5683594 Z" id="solid" opacity="0.5"></path>
        </g>
    </g>
</svg>