<?xml version="1.0" encoding="UTF-8"?>
<svg width="15px" height="15px" viewBox="0 0 15 15" version="1.1" xmlns="http://www.w3.org/2000/svg" xmlns:xlink="http://www.w3.org/1999/xlink">
    <title>health/cross</title>
    <g id="health/cross" stroke="none" stroke-width="1" fill="none" fill-rule="evenodd">
        <g id="dark" transform="translate(-0.750000, 0.000000)" fill="#000000" fill-rule="nonzero">
            <path d="M9.48339844,14.0058594 C10.2133789,14.0058594 10.7021484,13.5107422 10.7021484,12.7744141 L10.7021484,9.89892578 L13.5776367,9.89892578 C14.3139648,9.89892578 14.809082,9.41015625 14.809082,8.68017578 L14.809082,6.14111328 C14.809082,5.41113281 14.3139648,4.92236328 13.5776367,4.92236328 L10.7021484,4.92236328 L10.7021484,2.05322266 C10.7021484,1.31689453 10.2133789,0.821777344 9.48339844,0.821777344 L6.94433594,0.821777344 C6.21435547,0.821777344 5.72558594,1.31689453 5.72558594,2.05322266 L5.72558594,4.92236328 L2.85009766,4.92236328 C2.11376953,4.92236328 1.61865234,5.41113281 1.61865234,6.14111328 L1.61865234,8.68017578 C1.61865234,9.41015625 2.12011719,9.89892578 2.85644531,9.89892578 L5.72558594,9.89892578 L5.72558594,12.7744141 C5.72558594,13.5107422 6.21435547,14.0058594 6.94433594,14.0058594 L9.48339844,14.0058594 Z" id="solid"></path>
        </g>
        <g id="light" transform="translate(-1.000000, 0.000000)" fill="#000000" fill-rule="nonzero">
            <path d="M9.45800781,14.2280273 C10.6513672,14.2280273 11.2353516,13.6503906 11.2353516,12.4760742 L11.2353516,10.2226562 L13.4887695,10.2226562 C14.6630859,10.2226562 15.2407227,9.63867188 15.2407227,8.4453125 L15.2407227,6.38867188 C15.2407227,5.1953125 14.6630859,4.61132812 13.4887695,4.61132812 L11.2353516,4.61132812 L11.2353516,2.3515625 C11.2353516,1.17724609 10.6513672,0.599609375 9.45800781,0.599609375 L7.40136719,0.599609375 C6.20800781,0.599609375 5.62402344,1.17724609 5.62402344,2.3515625 L5.62402344,4.61132812 L3.37060547,4.61132812 C2.19628906,4.61132812 1.61865234,5.1953125 1.61865234,6.38867188 L1.61865234,8.4453125 C1.61865234,9.63867188 2.19628906,10.2226562 3.37060547,10.2226562 L5.62402344,10.2226562 L5.62402344,12.4760742 C5.62402344,13.6503906 6.20800781,14.2280273 7.40136719,14.2280273 L9.45800781,14.2280273 Z" id="translucent" opacity="0.35"></path>
            <path d="M9.45800781,14.2280273 C10.6513672,14.2280273 11.2353516,13.6503906 11.2353516,12.4760742 L11.2353516,10.2226562 L13.4887695,10.2226562 C14.6630859,10.2226562 15.2407227,9.63867188 15.2407227,8.4453125 L15.2407227,6.38867188 C15.2407227,5.1953125 14.6630859,4.61132812 13.4887695,4.61132812 L11.2353516,4.61132812 L11.2353516,2.3515625 C11.2353516,1.17724609 10.6513672,0.599609375 9.45800781,0.599609375 L7.40136719,0.599609375 C6.20800781,0.599609375 5.62402344,1.17724609 5.62402344,2.3515625 L5.62402344,4.61132812 L3.37060547,4.61132812 C2.19628906,4.61132812 1.61865234,5.1953125 1.61865234,6.38867188 L1.61865234,8.4453125 C1.61865234,9.63867188 2.19628906,10.2226562 3.37060547,10.2226562 L5.62402344,10.2226562 L5.62402344,12.4760742 C5.62402344,13.6503906 6.20800781,14.2280273 7.40136719,14.2280273 L9.45800781,14.2280273 Z M9.43896484,13.2060547 L7.42041016,13.2060547 C6.90625,13.2060547 6.64599609,12.9458008 6.64599609,12.425293 L6.64599609,9.20068359 L3.42773438,9.20068359 C2.90722656,9.20068359 2.640625,8.94042969 2.640625,8.42626953 L2.640625,6.40771484 C2.640625,5.89355469 2.90722656,5.63330078 3.42773438,5.63330078 L6.64599609,5.63330078 L6.64599609,2.40869141 C6.64599609,1.88818359 6.90625,1.62158203 7.42041016,1.62158203 L9.43896484,1.62158203 C9.953125,1.62158203 10.2133789,1.88818359 10.2133789,2.40869141 L10.2133789,5.63330078 L13.4316406,5.63330078 C13.9521484,5.63330078 14.21875,5.89355469 14.21875,6.40771484 L14.21875,8.42626953 C14.21875,8.94042969 13.9521484,9.20068359 13.4316406,9.20068359 L10.2133789,9.20068359 L10.2133789,12.425293 C10.2133789,12.9458008 9.953125,13.2060547 9.43896484,13.2060547 Z" id="solid"></path>
        </g>
    </g>
</svg>