<?xml version="1.0" encoding="UTF-8"?>
<svg width="15px" height="15px" viewBox="0 0 15 15" version="1.1" xmlns="http://www.w3.org/2000/svg" xmlns:xlink="http://www.w3.org/1999/xlink">
    <title>health/ecg-rectangle</title>
    <g id="health/ecg-rectangle" stroke="none" stroke-width="1" fill="none" fill-rule="evenodd">
        <g id="dark" transform="translate(-1.500000, 0.000000)" fill="#000000" fill-rule="nonzero">
            <path d="M13.1333008,8.83251953 L13.6030273,7.50585938 C13.6855469,7.28369141 13.8188477,7.16308594 14.0727539,7.16308594 L14.0727539,7.16308594 L16.5864258,7.16308594 L16.5864258,3.55126953 C16.5864258,2.24365234 15.9262695,1.58349609 14.5932617,1.58349609 L14.5932617,1.58349609 L3.61181641,1.58349609 C2.28515625,1.58349609 1.61865234,2.23730469 1.61865234,3.55126953 L1.61865234,3.55126953 L1.61865234,7.16308594 L3.91015625,7.16308594 L5.04638672,4.3828125 C5.19873047,4.01464844 5.71289062,4.02099609 5.82714844,4.36376953 L5.82714844,4.36376953 L7.29980469,8.83251953 L7.77587891,7.50585938 C7.85205078,7.28369141 7.98535156,7.16308594 8.24560547,7.16308594 L8.24560547,7.16308594 L9.73730469,7.16308594 L10.8798828,4.3828125 C11.0258789,4.01464844 11.5463867,4.02099609 11.6542969,4.36376953 L11.6542969,4.36376953 L13.1333008,8.83251953 Z M14.5932617,13.2695312 C15.9262695,13.2695312 16.5864258,12.609375 16.5864258,11.3017578 L16.5864258,11.3017578 L16.5864258,7.98193359 L14.3012695,7.98193359 L13.5332031,10.4003906 C13.4189453,10.7558594 12.8540039,10.7685547 12.7460938,10.4194336 L12.7460938,10.4194336 L11.2734375,5.69042969 L10.4355469,7.63916016 C10.3466797,7.86132812 10.2260742,7.98193359 9.96582031,7.98193359 L9.96582031,7.98193359 L8.46777344,7.98193359 L7.69970703,10.4003906 C7.58544922,10.7558594 7.02685547,10.7685547 6.91894531,10.4194336 L6.91894531,10.4194336 L5.43994141,5.69042969 L4.64013672,7.63916016 C4.54492188,7.86132812 4.42431641,7.98193359 4.04345703,7.98193359 L4.04345703,7.98193359 L1.61865234,7.98193359 L1.61865234,11.3017578 C1.61865234,12.6157227 2.28515625,13.2695312 3.61181641,13.2695312 L3.61181641,13.2695312 L14.5932617,13.2695312 Z" id="solid"></path>
        </g>
        <g id="light" transform="translate(-1.500000, 0.000000)" fill="#000000" fill-rule="nonzero">
            <path d="M14.5932617,13.2695312 C15.9262695,13.2695312 16.5864258,12.609375 16.5864258,11.3017578 L16.5864258,3.55126953 C16.5864258,2.24365234 15.9262695,1.58349609 14.5932617,1.58349609 L3.61181641,1.58349609 C2.28515625,1.58349609 1.61865234,2.23730469 1.61865234,3.55126953 L1.61865234,11.3017578 C1.61865234,12.6157227 2.28515625,13.2695312 3.61181641,13.2695312 L14.5932617,13.2695312 Z" id="translucent" opacity="0.35"></path>
            <path d="M14.5932617,13.2695312 C15.9262695,13.2695312 16.5864258,12.609375 16.5864258,11.3017578 L16.5864258,3.55126953 C16.5864258,2.24365234 15.9262695,1.58349609 14.5932617,1.58349609 L3.61181641,1.58349609 C2.28515625,1.58349609 1.61865234,2.23730469 1.61865234,3.55126953 L1.61865234,11.3017578 C1.61865234,12.6157227 2.28515625,13.2695312 3.61181641,13.2695312 L14.5932617,13.2695312 Z M14.5805664,12.2475586 L3.62451172,12.2475586 C2.98974609,12.2475586 2.640625,11.9111328 2.640625,11.2509766 L2.640625,3.60205078 C2.640625,2.94189453 2.98974609,2.60546875 3.62451172,2.60546875 L14.5805664,2.60546875 C15.2089844,2.60546875 15.5644531,2.94189453 15.5644531,3.60205078 L15.5644531,7.16308594 L14.0791016,7.16308594 C13.8188477,7.16308594 13.6855469,7.28369141 13.609375,7.50585938 L13.1396484,8.83251953 L11.6606445,4.36376953 C11.5463867,4.02099609 11.0322266,4.01464844 10.8862305,4.3828125 L9.74365234,7.16308594 L8.24560547,7.16308594 C7.99169922,7.16308594 7.85839844,7.28369141 7.77587891,7.50585938 L7.30615234,8.83251953 L5.82714844,4.36376953 C5.71923828,4.02099609 5.19873047,4.01464844 5.05273438,4.3828125 L3.91015625,7.16308594 L2.64697266,7.16308594 L2.64697266,7.98193359 L4.17041016,7.98193359 C4.43066406,7.98193359 4.55126953,7.86132812 4.64013672,7.63916016 L5.44628906,5.69042969 L6.91894531,10.4194336 C7.02685547,10.7685547 7.59179688,10.7558594 7.70605469,10.4003906 L8.47412109,7.98193359 L9.97216797,7.98193359 C10.2324219,7.98193359 10.3466797,7.86132812 10.4418945,7.63916016 L11.2734375,5.69042969 L12.7524414,10.4194336 C12.8603516,10.7685547 13.425293,10.7558594 13.5332031,10.4003906 L14.3076172,7.98193359 L15.5644531,7.98193359 L15.5644531,11.2509766 C15.5644531,11.9111328 15.2089844,12.2475586 14.5805664,12.2475586 Z" id="solid"></path>
        </g>
    </g>
</svg>