<?xml version="1.0" encoding="UTF-8"?>
<svg width="15px" height="15px" viewBox="0 0 15 15" version="1.1" xmlns="http://www.w3.org/2000/svg" xmlns:xlink="http://www.w3.org/1999/xlink">
    <title>health/ecg</title>
    <g id="health/ecg" stroke="none" stroke-width="1" fill="none" fill-rule="evenodd" opacity="0.75">
        <g id="dark" fill="#000000" fill-rule="nonzero">
            <path d="M8.57568359,13.9169922 L10.1879883,6.33154297 L10.5688477,8.21679687 C10.6259766,8.50878906 10.7910156,8.6484375 11.0893555,8.6484375 L13.5522461,8.6484375 C13.8061523,8.6484375 14.0092773,8.45166016 14.0092773,8.20410156 C14.0092773,7.95019531 13.8125,7.75341797 13.5522461,7.75341797 L11.3051758,7.75341797 L10.5751953,4.52246094 C10.4799805,4.08447266 9.82617188,4.08447266 9.71826172,4.54150391 L8.125,11.6572266 L6.45556641,1.54541016 C6.38574219,1.10107422 5.73828125,1.08837891 5.63671875,1.54541016 L4.29101562,7.75341797 L1.75195312,7.75341797 C1.49169922,7.75341797 1.29492188,7.95654297 1.29492188,8.20410156 C1.29492188,8.45166016 1.49169922,8.6484375 1.75195312,8.6484375 L4.56396484,8.6484375 C4.84960938,8.6484375 5.02099609,8.52148438 5.08447266,8.26757812 L6.03662109,3.89404297 L7.70605469,13.9169922 C7.78222656,14.3740234 8.48681641,14.3676758 8.57568359,13.9169922 Z" id="opaque"></path>
        </g>
        <g id="light" fill="#000000" fill-rule="nonzero">
            <path d="M8.57568359,13.9169922 L10.1879883,6.33154297 L10.5688477,8.21679687 C10.6259766,8.50878906 10.7910156,8.6484375 11.0893555,8.6484375 L13.5522461,8.6484375 C13.8061523,8.6484375 14.0092773,8.45166016 14.0092773,8.20410156 C14.0092773,7.95019531 13.8125,7.75341797 13.5522461,7.75341797 L11.3051758,7.75341797 L10.5751953,4.52246094 C10.4799805,4.08447266 9.82617188,4.08447266 9.71826172,4.54150391 L8.125,11.6572266 L6.45556641,1.54541016 C6.38574219,1.10107422 5.73828125,1.08837891 5.63671875,1.54541016 L4.29101562,7.75341797 L1.75195312,7.75341797 C1.49169922,7.75341797 1.29492188,7.95654297 1.29492188,8.20410156 C1.29492188,8.45166016 1.49169922,8.6484375 1.75195312,8.6484375 L4.56396484,8.6484375 C4.84960938,8.6484375 5.02099609,8.52148438 5.08447266,8.26757812 L6.03662109,3.89404297 L7.70605469,13.9169922 C7.78222656,14.3740234 8.48681641,14.3676758 8.57568359,13.9169922 Z" id="opaque"></path>
        </g>
    </g>
</svg>