<?xml version="1.0" encoding="UTF-8"?>
<svg width="15px" height="15px" viewBox="0 0 15 15" version="1.1" xmlns="http://www.w3.org/2000/svg" xmlns:xlink="http://www.w3.org/1999/xlink">
    <title>health/heart</title>
    <g id="health/heart" stroke="none" stroke-width="1" fill="none" fill-rule="evenodd">
        <g id="dark" fill="#000000" fill-rule="nonzero">
            <path d="M7.87109375,13.440918 C8.00439453,13.440918 8.19482422,13.3520508 8.33447266,13.2695312 C11.9082031,10.984375 14.1743164,8.32470703 14.1743164,5.62060547 C14.1743164,3.37353516 12.6318359,1.78662109 10.6386719,1.78662109 C9.40087891,1.78662109 8.44873047,2.47216797 7.87109375,3.51953125 C7.30615234,2.47851562 6.34130859,1.78662109 5.10351562,1.78662109 C3.11035156,1.78662109 1.56787109,3.37353516 1.56787109,5.62060547 C1.56787109,8.32470703 3.83398438,10.984375 7.4140625,13.2695312 C7.54736328,13.3520508 7.73779297,13.440918 7.87109375,13.440918 Z" id="solid"></path>
        </g>
        <g id="light" fill="#000000" fill-rule="nonzero">
            <path d="M7.87109375,13.440918 C8.00439453,13.440918 8.19482422,13.3520508 8.33447266,13.2695312 C11.9082031,10.984375 14.1743164,8.32470703 14.1743164,5.62060547 C14.1743164,3.37353516 12.6318359,1.78662109 10.5751953,1.78662109 C9.40087891,1.78662109 8.44873047,2.34521484 7.87109375,3.20214844 C7.30615234,2.3515625 6.34130859,1.78662109 5.16699219,1.78662109 C3.11035156,1.78662109 1.56787109,3.37353516 1.56787109,5.62060547 C1.56787109,8.32470703 3.83398438,10.984375 7.4140625,13.2695312 C7.54736328,13.3520508 7.73779297,13.440918 7.87109375,13.440918 Z" id="translucent" opacity="0.35"></path>
            <path d="M7.87109375,13.440918 C8.00439453,13.440918 8.19482422,13.3520508 8.33447266,13.2695312 C11.9082031,10.984375 14.1743164,8.32470703 14.1743164,5.62060547 C14.1743164,3.37353516 12.6318359,1.78662109 10.5751953,1.78662109 C9.40087891,1.78662109 8.44873047,2.34521484 7.87109375,3.20214844 C7.30615234,2.3515625 6.34130859,1.78662109 5.16699219,1.78662109 C3.11035156,1.78662109 1.56787109,3.37353516 1.56787109,5.62060547 C1.56787109,8.32470703 3.83398438,10.984375 7.4140625,13.2695312 C7.54736328,13.3520508 7.73779297,13.440918 7.87109375,13.440918 Z M7.87109375,12.3681641 C7.84570312,12.3681641 7.80126953,12.3364258 7.74414062,12.2919922 C5.08447266,10.5273438 2.58984375,7.98193359 2.58984375,5.62060547 C2.58984375,3.93212891 3.68164062,2.80859375 5.15429688,2.80859375 C6.34765625,2.80859375 7.03320312,3.55126953 7.43945312,4.18603516 C7.61083984,4.43994141 7.71875,4.50976562 7.87109375,4.50976562 C8.0234375,4.50976562 8.11865234,4.43359375 8.30273438,4.18603516 C8.74072266,3.56396484 9.40087891,2.80859375 10.5878906,2.80859375 C12.0605469,2.80859375 13.1523438,3.93212891 13.1523438,5.62060547 C13.1523438,7.98193359 10.6577148,10.5273438 8.00439453,12.2919922 C7.94091797,12.3364258 7.89648438,12.3681641 7.87109375,12.3681641 Z" id="solid"></path>
        </g>
    </g>
</svg>