<?xml version="1.0" encoding="UTF-8"?>
<svg width="15px" height="15px" viewBox="0 0 15 15" version="1.1" xmlns="http://www.w3.org/2000/svg" xmlns:xlink="http://www.w3.org/1999/xlink">
    <title>health/pills</title>
    <g id="health/pills" stroke="none" stroke-width="1" fill="none" fill-rule="evenodd">
        <g id="dark" transform="translate(-1.500000, 0.000000)" fill="#000000" fill-rule="nonzero" opacity="0.75">
            <path d="M9.08349609,7.82958984 L12.8349609,4.07177734 L10.8481445,2.07861328 C9.67382812,0.904296875 8.15039062,0.872558594 7.01416016,2.00244141 C5.88427734,3.12597656 5.90332031,4.65576172 7.08398437,5.83642578 L9.08349609,7.82958984 Z M15.5834961,10.5717773 C16.7133789,9.44824219 16.6879883,7.91845703 15.5073242,6.73779297 L13.5078125,4.73828125 L9.75,8.50244141 L11.7495117,10.5019531 C12.9238281,11.6762695 14.4472656,11.7016602 15.5834961,10.5717773 Z M8.04248047,10.1337891 C7.8203125,8.52148438 6.43652344,7.27099609 4.75439453,7.27099609 C3.06591797,7.27099609 1.68212891,8.52148438 1.45996094,10.1337891 L8.04248047,10.1337891 Z M4.75439453,13.9296875 C6.43652344,13.9296875 7.81396484,12.6791992 8.04248047,11.0605469 L1.45996094,11.0605469 C1.68212891,12.6791992 3.05957031,13.9296875 4.75439453,13.9296875 Z" id="opaque"></path>
        </g>
        <g id="light" transform="translate(-0.500000, 1.000000)" fill="#000000" fill-rule="nonzero">
            <path d="M14.8120117,9.63525391 C16.0117188,8.44189453 16.0180664,6.84228516 14.824707,5.64892578 L10.0893555,0.919921875 C8.89599609,-0.2734375 7.30908203,-0.2734375 6.10302734,0.926269531 C4.90332031,2.11962891 4.90332031,3.71923828 6.09667969,4.91259766 L10.8256836,9.64794922 C12.019043,10.8413086 13.605957,10.8349609 14.8120117,9.63525391 Z M3.92578125,13.0629883 C5.83642578,13.0629883 7.38525391,11.5078125 7.38525391,9.59082031 C7.38525391,7.69287109 5.83642578,6.13769531 3.92578125,6.13769531 C2.01513672,6.13769531 0.459960938,7.69287109 0.459960938,9.59082031 C0.459960938,11.5078125 2.00878906,13.0629883 3.92578125,13.0629883 Z" id="translucent" opacity="0.25"></path>
            <path d="M14.8120117,9.63525391 C16.0117188,8.44189453 16.0180664,6.84228516 14.824707,5.64892578 L10.0893555,0.919921875 C8.89599609,-0.2734375 7.30908203,-0.2734375 6.10302734,0.926269531 C4.90332031,2.11962891 4.90332031,3.71923828 6.09667969,4.91259766 L10.8256836,9.64794922 C12.019043,10.8413086 13.605957,10.8349609 14.8120117,9.63525391 Z M8.81982422,6.18212891 L6.89013672,4.25878906 C6.09667969,3.46533203 6.07763672,2.41796875 6.83300781,1.65625 C7.58837891,0.89453125 8.64208984,0.919921875 9.43554688,1.71337891 L11.3588867,3.64306641 L8.81982422,6.18212891 Z M11.4858398,8.84814453 L9.54980469,6.91210937 L12.0888672,4.37304687 L14.0249023,6.30908203 C14.8183594,7.09619141 14.84375,8.14990234 14.0820312,8.90527344 C13.3266602,9.66699219 12.2729492,9.64160156 11.4858398,8.84814453 Z M3.92578125,13.0629883 C5.83642578,13.0629883 7.38525391,11.5078125 7.38525391,9.59082031 C7.38525391,7.69287109 5.83642578,6.13769531 3.92578125,6.13769531 C2.01513672,6.13769531 0.459960938,7.69287109 0.459960938,9.59082031 C0.459960938,11.5078125 2.00878906,13.0629883 3.92578125,13.0629883 Z M6.3125,9.08300781 L1.5390625,9.08300781 C1.77392578,7.98486328 2.7578125,7.15966797 3.92578125,7.15966797 C5.09375,7.15966797 6.07763672,7.98486328 6.3125,9.08300781 Z M3.92578125,12.0410156 C2.75146484,12.0410156 1.77392578,11.2158203 1.5390625,10.1113281 L6.3125,10.1113281 C6.07128906,11.2094727 5.10009766,12.0410156 3.92578125,12.0410156 Z" id="solid" opacity="0.5"></path>
        </g>
    </g>
</svg>