<?xml version="1.0" encoding="UTF-8"?>
<svg width="15px" height="15px" viewBox="0 0 15 15" version="1.1" xmlns="http://www.w3.org/2000/svg" xmlns:xlink="http://www.w3.org/1999/xlink">
    <title>health/star-of-life</title>
    <g id="health/star-of-life" stroke="none" stroke-width="1" fill="none" fill-rule="evenodd">
        <g id="dark" fill="#000000" fill-rule="nonzero">
            <path d="M7.53491211,13.3647461 C8.23950195,13.3647461 8.47436523,13.1743164 8.47436523,12.4824219 L8.47436523,9.08007812 L11.4006348,10.7685547 C11.6291504,10.9018555 11.8068848,10.9780273 11.9592285,10.9780273 C12.2067871,10.9780273 12.3845215,10.800293 12.6320801,10.4384766 L12.6765137,10.3686523 C12.8288574,10.1401367 12.9050293,9.94970703 12.9050293,9.78466797 C12.9050293,9.52441406 12.7145996,9.32763672 12.3527832,9.12451172 L9.31860352,7.37255859 L12.3464355,5.71582031 C12.708252,5.51904297 12.8796387,5.32861328 12.8796387,5.06835938 C12.8796387,4.90332031 12.8098145,4.71923828 12.6765137,4.47802734 L12.6257324,4.40185547 C12.4099121,4.02099609 12.2194824,3.85595703 11.9719238,3.85595703 C11.8132324,3.85595703 11.6228027,3.93212891 11.3942871,4.05908203 L8.47436523,5.75390625 L8.47436523,2.35791016 C8.47436523,1.66601562 8.23950195,1.47558594 7.53491211,1.47558594 L7.45239258,1.47558594 C6.74780273,1.47558594 6.5065918,1.66601562 6.5065918,2.35791016 L6.5065918,5.75390625 L3.58666992,4.05908203 C3.35180664,3.91943359 3.1550293,3.84326172 2.98364258,3.84326172 C2.72338867,3.84326172 2.52026367,4.00830078 2.33618164,4.40185547 L2.30444336,4.47167969 C2.19018555,4.71923828 2.12670898,4.91601562 2.12670898,5.08105469 C2.12670898,5.33496094 2.27905273,5.51269531 2.6472168,5.72216797 L5.66870117,7.37255859 L2.62817383,9.12451172 C2.27270508,9.32763672 2.0949707,9.51806641 2.0949707,9.77197266 C2.0949707,9.93701172 2.17114258,10.1337891 2.31713867,10.375 L2.34887695,10.4321289 C2.55834961,10.8066406 2.75512695,10.984375 3.0090332,10.984375 C3.16137695,10.984375 3.35180664,10.9018555 3.58032227,10.7685547 L6.5065918,9.08007812 L6.5065918,12.4824219 C6.5065918,13.1743164 6.74780273,13.3647461 7.45239258,13.3647461 L7.53491211,13.3647461 Z" id="solid"></path>
        </g>
        <g id="light" fill="#000000" fill-rule="nonzero">
            <path d="M7.703125,14.1328125 C8.73779297,14.1328125 9.23925781,13.6757812 9.23925781,12.7109375 L9.23925781,10.4194336 L11.2133789,11.5683594 C11.5117188,11.7397461 11.784668,11.8222656 12.0322266,11.8222656 C12.4892578,11.8222656 12.8764648,11.5366211 13.2128906,10.9589844 L13.4223633,10.597168 C13.6191406,10.2543945 13.7207031,9.94335938 13.7207031,9.6640625 C13.7207031,9.21972656 13.4604492,8.8515625 12.9526367,8.55957031 L10.972168,7.41699219 L12.9462891,6.27441406 C13.4604492,5.98242188 13.7143555,5.61425781 13.7143555,5.16992188 C13.7143555,4.89697266 13.612793,4.5859375 13.4160156,4.24316406 L13.2128906,3.88769531 C12.8701172,3.30371094 12.4829102,3.01806641 12.0195312,3.01806641 C11.7719727,3.01806641 11.5053711,3.10058594 11.2070312,3.27197266 L9.23925781,4.40820312 L9.23925781,2.12939453 C9.23925781,1.16455078 8.73779297,0.707519531 7.703125,0.707519531 L7.29052734,0.707519531 C6.25585938,0.707519531 5.76074219,1.16455078 5.76074219,2.12939453 L5.76074219,4.40820312 L3.79296875,3.27197266 C3.50097656,3.10058594 3.22802734,3.01806641 2.98046875,3.01806641 C2.51708984,3.01806641 2.12988281,3.30371094 1.78710938,3.88769531 L1.58398438,4.24316406 C1.38720703,4.5859375 1.28564453,4.89697266 1.28564453,5.16992188 C1.28564453,5.61425781 1.54589844,5.98242188 2.05371094,6.27441406 L4.02783203,7.41699219 L2.05371094,8.55957031 C1.53955078,8.8515625 1.27929688,9.21972656 1.27929688,9.6640625 C1.27929688,9.94335938 1.38085938,10.2543945 1.57763672,10.597168 L1.78710938,10.9589844 C2.12353516,11.5366211 2.51074219,11.8222656 2.96777344,11.8222656 C3.21533203,11.8222656 3.49462891,11.7397461 3.78662109,11.5683594 L5.76074219,10.4194336 L5.76074219,12.7109375 C5.76074219,13.6757812 6.25585938,14.1328125 7.29052734,14.1328125 L7.703125,14.1328125 Z" id="translucent" opacity="0.35"></path>
            <path d="M7.703125,14.1328125 C8.73779297,14.1328125 9.23925781,13.6757812 9.23925781,12.7109375 L9.23925781,10.4194336 L11.2133789,11.5683594 C11.5117188,11.7397461 11.784668,11.8222656 12.0322266,11.8222656 C12.4892578,11.8222656 12.8764648,11.5366211 13.2128906,10.9589844 L13.4223633,10.597168 C13.6191406,10.2543945 13.7207031,9.94335938 13.7207031,9.6640625 C13.7207031,9.21972656 13.4604492,8.8515625 12.9526367,8.55957031 L10.972168,7.41699219 L12.9462891,6.27441406 C13.4604492,5.98242188 13.7143555,5.61425781 13.7143555,5.16992188 C13.7143555,4.89697266 13.612793,4.5859375 13.4160156,4.24316406 L13.2128906,3.88769531 C12.8701172,3.30371094 12.4829102,3.01806641 12.0195312,3.01806641 C11.7719727,3.01806641 11.5053711,3.10058594 11.2070312,3.27197266 L9.23925781,4.40820312 L9.23925781,2.12939453 C9.23925781,1.16455078 8.73779297,0.707519531 7.703125,0.707519531 L7.29052734,0.707519531 C6.25585938,0.707519531 5.76074219,1.16455078 5.76074219,2.12939453 L5.76074219,4.40820312 L3.79296875,3.27197266 C3.50097656,3.10058594 3.22802734,3.01806641 2.98046875,3.01806641 C2.51708984,3.01806641 2.12988281,3.30371094 1.78710938,3.88769531 L1.58398438,4.24316406 C1.38720703,4.5859375 1.28564453,4.89697266 1.28564453,5.16992188 C1.28564453,5.61425781 1.54589844,5.98242188 2.05371094,6.27441406 L4.02783203,7.41699219 L2.05371094,8.55957031 C1.53955078,8.8515625 1.27929688,9.21972656 1.27929688,9.6640625 C1.27929688,9.94335938 1.38085938,10.2543945 1.57763672,10.597168 L1.78710938,10.9589844 C2.12353516,11.5366211 2.51074219,11.8222656 2.96777344,11.8222656 C3.21533203,11.8222656 3.49462891,11.7397461 3.78662109,11.5683594 L5.76074219,10.4194336 L5.76074219,12.7109375 C5.76074219,13.6757812 6.25585938,14.1328125 7.29052734,14.1328125 L7.703125,14.1328125 Z M7.53808594,13.1806641 L7.46191406,13.1806641 C6.94140625,13.1806641 6.77001953,13.0283203 6.77001953,12.5268555 L6.77001953,8.94042969 C6.77001953,8.84521484 6.71289062,8.78173828 6.63037109,8.78173828 C6.60498047,8.78173828 6.57958984,8.78808594 6.54785156,8.80712891 L3.44384766,10.6035156 C3.27880859,10.6987305 3.14550781,10.7431641 3.02490234,10.7431641 C2.83447266,10.7431641 2.69482422,10.6098633 2.53613281,10.3305664 L2.49169922,10.2670898 C2.39013672,10.0830078 2.33300781,9.93701172 2.33300781,9.81005859 C2.33300781,9.62597656 2.44726562,9.48632812 2.71386719,9.34033203 L5.86865234,7.51220703 C5.92578125,7.48046875 5.95751953,7.4296875 5.95751953,7.37890625 C5.95751953,7.32177734 5.92578125,7.27099609 5.86230469,7.23925781 L2.72021484,5.5 C2.45996094,5.34765625 2.33935547,5.20800781 2.33935547,5.02392578 C2.33935547,4.90332031 2.39013672,4.75732422 2.49169922,4.57324219 L2.53613281,4.50341797 C2.69482422,4.21777344 2.84082031,4.09082031 3.03125,4.09082031 C3.15185547,4.09082031 3.28515625,4.13525391 3.45019531,4.23046875 L6.53515625,6.02050781 C6.56689453,6.03955078 6.59228516,6.04589844 6.62402344,6.04589844 C6.71289062,6.04589844 6.77001953,5.98242188 6.77001953,5.88085938 L6.77001953,2.31347656 C6.77001953,1.81201172 6.94140625,1.65966797 7.46191406,1.65966797 L7.53808594,1.65966797 C8.05859375,1.65966797 8.22998047,1.81201172 8.22998047,2.31347656 L8.22998047,5.88085938 C8.22998047,5.97607422 8.28710938,6.04589844 8.36962891,6.04589844 C8.40136719,6.04589844 8.42675781,6.03955078 8.45849609,6.02050781 L11.5561523,4.23046875 C11.7211914,4.13525391 11.8544922,4.09082031 11.96875,4.09082031 C12.1591797,4.09082031 12.3051758,4.21777344 12.4702148,4.50341797 L12.5083008,4.57324219 C12.6098633,4.75732422 12.6669922,4.90332031 12.6669922,5.02392578 C12.6669922,5.20800781 12.5463867,5.34765625 12.2861328,5.5 L9.14404297,7.23925781 C9.08056641,7.27099609 9.04248047,7.32177734 9.04248047,7.37890625 C9.04248047,7.4296875 9.08056641,7.47412109 9.13769531,7.51220703 L12.2924805,9.34033203 C12.5527344,9.48632812 12.6733398,9.62597656 12.6733398,9.81005859 C12.6733398,9.93701172 12.6098633,10.0830078 12.5083008,10.2670898 L12.4702148,10.3305664 C12.3051758,10.6098633 12.1655273,10.7431641 11.9750977,10.7431641 C11.8544922,10.7431641 11.7211914,10.6923828 11.5625,10.6035156 L8.45214844,8.80712891 C8.42041016,8.78808594 8.40136719,8.78173828 8.36962891,8.78173828 C8.28710938,8.78173828 8.22998047,8.84521484 8.22998047,8.94042969 L8.22998047,12.5268555 C8.22998047,13.0283203 8.05859375,13.1806641 7.53808594,13.1806641 Z" id="solid"></path>
        </g>
    </g>
</svg>