<?xml version="1.0" encoding="UTF-8"?>
<svg width="15px" height="15px" viewBox="0 0 15 15" version="1.1" xmlns="http://www.w3.org/2000/svg" xmlns:xlink="http://www.w3.org/1999/xlink">
    <title>connectivity/antenna-radiowaves</title>
    <g id="connectivity/antenna-radiowaves" stroke="none" stroke-width="1" fill="none" fill-rule="evenodd">
        <g id="dark" transform="translate(-0.500000, 0.000000)" fill="#000000" fill-rule="nonzero">
            <path d="M12.9619141,10.2988281 C14.015625,9.15625 14.6123047,7.6328125 14.6123047,5.98876953 C14.6123047,4.34472656 14.015625,2.82128906 12.9619141,1.67871094 C12.7207031,1.41210938 12.3652344,1.41210938 12.1621094,1.64697266 C11.9589844,1.87548828 12.0224609,2.17382812 12.2509766,2.43408203 C13.1015625,3.37988281 13.5776367,4.62402344 13.5776367,5.98876953 C13.5776367,7.35351562 13.1015625,8.59765625 12.2509766,9.54345703 C12.0224609,9.80371094 11.9589844,10.1020508 12.1621094,10.3305664 C12.3652344,10.5654297 12.7207031,10.5654297 12.9619141,10.2988281 Z M3.58642578,10.3305664 C3.78955078,10.1020508 3.72607422,9.80371094 3.49755859,9.54345703 C2.64697266,8.59765625 2.17089844,7.35351562 2.17089844,5.98876953 C2.17089844,4.62402344 2.64697266,3.37988281 3.49755859,2.43408203 C3.72607422,2.17382812 3.78955078,1.87548828 3.58642578,1.64697266 C3.38330078,1.41210938 3.02783203,1.41210938 2.78662109,1.67871094 C1.73291016,2.82128906 1.13623047,4.34472656 1.13623047,5.98876953 C1.13623047,7.6328125 1.73291016,9.15625 2.78662109,10.2988281 C3.02783203,10.5654297 3.38330078,10.5654297 3.58642578,10.3305664 Z M5.49072266,8.52148438 C5.69384766,8.29296875 5.61132812,8.00732422 5.40820312,7.734375 C5.02734375,7.26464844 4.84326172,6.64892578 4.84326172,5.98876953 C4.84326172,5.32861328 5.04638672,4.73193359 5.40820312,4.24316406 C5.60498047,3.96386719 5.69384766,3.68457031 5.49072266,3.45605469 C5.28125,3.21484375 4.90039062,3.20849609 4.67822266,3.50048828 C4.12597656,4.18603516 3.80859375,5.05566406 3.80859375,5.98876953 C3.80859375,6.921875 4.12597656,7.79150391 4.67822266,8.47705078 C4.90039062,8.76904297 5.28125,8.76269531 5.49072266,8.52148438 Z M11.0703125,8.47705078 C11.6225586,7.79150391 11.9399414,6.921875 11.9399414,5.98876953 C11.9399414,5.05566406 11.6225586,4.18603516 11.0703125,3.50048828 C10.8481445,3.20849609 10.4672852,3.21484375 10.2578125,3.45605469 C10.0546875,3.68457031 10.1435547,3.96386719 10.340332,4.24316406 C10.7021484,4.73193359 10.9052734,5.32861328 10.9052734,5.98876953 C10.9052734,6.64892578 10.7211914,7.26464844 10.340332,7.734375 C10.137207,8.00732422 10.0546875,8.29296875 10.2578125,8.52148438 C10.4672852,8.76269531 10.8481445,8.76904297 11.0703125,8.47705078 Z M7.87744141,13.2695312 C8.17578125,13.2695312 8.35986328,13.0537109 8.35986328,12.7236328 L8.35986328,7.0234375 C8.74707031,6.83935547 9.01367188,6.44580078 9.01367188,5.98876953 C9.01367188,5.35400391 8.51220703,4.83984375 7.87744141,4.83984375 C7.23632812,4.83984375 6.73486328,5.35400391 6.73486328,5.98876953 C6.73486328,6.44580078 7.00146484,6.83935547 7.38867188,7.0234375 L7.38867188,12.7236328 C7.38867188,13.0473633 7.58544922,13.2695312 7.87744141,13.2695312 Z" id="solid"></path>
        </g>
        <g id="light" transform="translate(0.500000, 1.000000)" fill="#000000" fill-rule="nonzero">
            <path d="M11.9619141,9.29882812 C13.015625,8.15625 13.6123047,6.6328125 13.6123047,4.98876953 C13.6123047,3.34472656 13.015625,1.82128906 11.9619141,0.678710937 C11.7207031,0.412109375 11.3652344,0.412109375 11.1621094,0.646972656 C10.9589844,0.875488281 11.0224609,1.17382812 11.2509766,1.43408203 C12.1015625,2.37988281 12.5776367,3.62402344 12.5776367,4.98876953 C12.5776367,6.35351562 12.1015625,7.59765625 11.2509766,8.54345703 C11.0224609,8.80371094 10.9589844,9.10205078 11.1621094,9.33056641 C11.3652344,9.56542969 11.7207031,9.56542969 11.9619141,9.29882812 Z M2.58642578,9.33056641 C2.78955078,9.10205078 2.72607422,8.80371094 2.49755859,8.54345703 C1.64697266,7.59765625 1.17089844,6.35351562 1.17089844,4.98876953 C1.17089844,3.62402344 1.64697266,2.37988281 2.49755859,1.43408203 C2.72607422,1.17382812 2.78955078,0.875488281 2.58642578,0.646972656 C2.38330078,0.412109375 2.02783203,0.412109375 1.78662109,0.678710937 C0.732910156,1.82128906 0.136230469,3.34472656 0.136230469,4.98876953 C0.136230469,6.6328125 0.732910156,8.15625 1.78662109,9.29882812 C2.02783203,9.56542969 2.38330078,9.56542969 2.58642578,9.33056641 Z M4.49072266,7.52148437 C4.69384766,7.29296875 4.61132812,7.00732422 4.40820312,6.734375 C4.02734375,6.26464844 3.84326172,5.64892578 3.84326172,4.98876953 C3.84326172,4.32861328 4.04638672,3.73193359 4.40820312,3.24316406 C4.60498047,2.96386719 4.69384766,2.68457031 4.49072266,2.45605469 C4.28125,2.21484375 3.90039062,2.20849609 3.67822266,2.50048828 C3.12597656,3.18603516 2.80859375,4.05566406 2.80859375,4.98876953 C2.80859375,5.921875 3.12597656,6.79150391 3.67822266,7.47705078 C3.90039062,7.76904297 4.28125,7.76269531 4.49072266,7.52148437 Z M10.0703125,7.47705078 C10.6225586,6.79150391 10.9399414,5.921875 10.9399414,4.98876953 C10.9399414,4.05566406 10.6225586,3.18603516 10.0703125,2.50048828 C9.84814453,2.20849609 9.46728516,2.21484375 9.2578125,2.45605469 C9.0546875,2.68457031 9.14355469,2.96386719 9.34033203,3.24316406 C9.70214844,3.73193359 9.90527344,4.32861328 9.90527344,4.98876953 C9.90527344,5.64892578 9.72119141,6.26464844 9.34033203,6.734375 C9.13720703,7.00732422 9.0546875,7.29296875 9.2578125,7.52148437 C9.46728516,7.76269531 9.84814453,7.76904297 10.0703125,7.47705078 Z M6.87744141,12.2695312 C7.17578125,12.2695312 7.35986328,12.0537109 7.35986328,11.7236328 L7.35986328,6.0234375 C7.74707031,5.83935547 8.01367188,5.44580078 8.01367188,4.98876953 C8.01367188,4.35400391 7.51220703,3.83984375 6.87744141,3.83984375 C6.23632812,3.83984375 5.73486328,4.35400391 5.73486328,4.98876953 C5.73486328,5.44580078 6.00146484,5.83935547 6.38867188,6.0234375 L6.38867188,11.7236328 C6.38867188,12.0473633 6.58544922,12.2695312 6.87744141,12.2695312 Z" id="solid"></path>
        </g>
    </g>
</svg>