<?xml version="1.0" encoding="UTF-8"?>
<svg width="15px" height="15px" viewBox="0 0 15 15" version="1.1" xmlns="http://www.w3.org/2000/svg" xmlns:xlink="http://www.w3.org/1999/xlink">
    <title>connectivity/bolt-horizontal</title>
    <g id="connectivity/bolt-horizontal" stroke="none" stroke-width="1" fill="none" fill-rule="evenodd">
        <g id="dark" transform="translate(-1.000000, 1.000000)" fill="#000000" fill-rule="nonzero">
            <path d="M11.112793,10.7421875 C11.4082031,10.7421875 11.6713867,10.6025391 11.918457,10.2963867 L15.8286133,5.38720703 C16.3334961,4.74804688 15.7373047,3.96386719 14.9746094,4.37744141 L11.1020508,6.56884766 L6.64941406,4.15185547 C6.41845703,4.02294922 6.20361328,3.95849609 6.01025391,3.95849609 C5.71484375,3.95849609 5.45703125,4.09814453 5.20996094,4.40429688 L1.31054688,9.31347656 C0.735839844,10.0332031 1.43408203,10.7099609 2.1484375,10.3071289 L6.02636719,8.13183594 L10.4736328,10.5488281 C10.7045898,10.6723633 10.9140625,10.7421875 11.112793,10.7421875 Z" id="solid"></path>
        </g>
        <g id="light" transform="translate(0.000000, 4.000000)" fill="#000000" fill-rule="nonzero">
            <path d="M10.112793,7.7421875 C10.4082031,7.7421875 10.6713867,7.60253906 10.918457,7.29638672 L14.8286133,2.38720703 C15.3334961,1.74804688 14.7373047,0.963867188 13.9746094,1.37744141 L10.1020508,3.56884766 L5.64941406,1.15185547 C5.41845703,1.02294922 5.20361328,0.958496094 5.01025391,0.958496094 C4.71484375,0.958496094 4.45703125,1.09814453 4.20996094,1.40429688 L0.310546875,6.31347656 C-0.264160156,7.03320312 0.434082031,7.70996094 1.1484375,7.30712891 L5.02636719,5.13183594 L9.47363281,7.54882812 C9.70458984,7.67236328 9.9140625,7.7421875 10.112793,7.7421875 Z" id="translucent" opacity="0.35"></path>
            <path d="M10.112793,7.7421875 C10.4082031,7.7421875 10.6713867,7.60253906 10.918457,7.29638672 L14.8286133,2.38720703 C15.3334961,1.74804688 14.7373047,0.963867188 13.9746094,1.37744141 L10.1020508,3.56884766 L5.64941406,1.15185547 C5.41845703,1.02294922 5.20361328,0.958496094 5.01025391,0.958496094 C4.71484375,0.958496094 4.45703125,1.09814453 4.20996094,1.40429688 L0.310546875,6.31347656 C-0.264160156,7.03320312 0.434082031,7.70996094 1.1484375,7.30712891 L5.02636719,5.13183594 L9.47363281,7.54882812 C9.70458984,7.67236328 9.9140625,7.7421875 10.112793,7.7421875 Z M9.93554688,6.68408203 L5.1875,4.1328125 C4.97802734,4.02001953 4.91357422,4.046875 4.74707031,4.15429688 L1.65869141,6.10400391 C1.59960938,6.14160156 1.56201172,6.08251953 1.60498047,6.03417969 L4.96191406,2.08105469 C5.03173828,1.99511719 5.1015625,1.984375 5.19287109,2.03271484 L9.93554688,4.60009766 C10.1450195,4.70751953 10.2148438,4.68066406 10.3813477,4.57324219 L13.4804688,2.5859375 C13.5288086,2.55371094 13.5825195,2.60742188 13.5395508,2.65576172 L10.1665039,6.63574219 C10.0966797,6.72167969 10.0268555,6.73242188 9.93554688,6.68408203 Z" id="solid"></path>
        </g>
    </g>
</svg>