<?xml version="1.0" encoding="UTF-8"?>
<svg width="15px" height="15px" viewBox="0 0 15 15" version="1.1" xmlns="http://www.w3.org/2000/svg" xmlns:xlink="http://www.w3.org/1999/xlink">
    <title>connectivity/network</title>
    <g id="connectivity/network" stroke="none" stroke-width="1" fill="none" fill-rule="evenodd">
        <g id="dark" fill="#000000" fill-rule="nonzero" opacity="0.75">
            <path d="M7.61083984,13.8916016 C11.152832,13.8916016 14.0854492,10.9526367 14.0854492,7.41699219 C14.0854492,3.875 11.1464844,0.942382812 7.60449219,0.942382812 C4.06884766,0.942382812 1.13623047,3.875 1.13623047,7.41699219 C1.13623047,10.9526367 4.07519531,13.8916016 7.61083984,13.8916016 Z M6.95703125,6.47119141 C6.57617188,6.40771484 6.20166016,6.3125 5.83984375,6.19189453 C5.81445312,5.94433594 5.70654297,5.72216797 5.53515625,5.56347656 C6.09375,4.14794922 6.98242188,2.86572266 8.14404297,1.83105469 C8.23291016,1.83740234 8.32177734,1.85009766 8.41064453,1.86279297 C7.57910156,3.265625 7.07763672,4.83984375 6.95703125,6.47119141 Z M4.28466797,5.46191406 C3.78955078,5.15722656 3.32617188,4.7890625 2.91357422,4.37011719 C3.82128906,2.98632812 5.32568359,2.00878906 7.03955078,1.83105469 C6.07470703,2.84033203 5.32568359,4.01464844 4.81787109,5.29052734 C4.64013672,5.29052734 4.44970703,5.35400391 4.28466797,5.46191406 Z M8.28369141,6.58544922 C8.09326172,6.58544922 7.90283203,6.57910156 7.71875,6.56640625 C7.82666016,5.01123047 8.30273438,3.52587891 9.09619141,2.21191406 C8.88671875,2.92919922 8.79150391,3.67822266 8.79785156,4.44628906 C8.80419922,5.02392578 8.87402344,5.59521484 9.00732422,6.14746094 C8.89306641,6.26171875 8.81054688,6.40771484 8.76611328,6.56640625 C8.60742188,6.57910156 8.44873047,6.58544922 8.28369141,6.58544922 Z M10.4926758,6.24267578 C10.3212891,6.0078125 10.0419922,5.85546875 9.72460938,5.84912109 C9.62939453,5.39208984 9.57226562,4.92236328 9.56591797,4.43994141 C9.55957031,3.70996094 9.66113281,2.97998047 9.87695312,2.29443359 C11.1210938,2.85302734 12.1367188,3.86230469 12.7080078,5.10009766 C12.0415039,5.60791016 11.2924805,5.98876953 10.4926758,6.24267578 Z M4.08154297,9.13720703 C3.3515625,8.78173828 2.65332031,8.33105469 2.01220703,7.79150391 C2.00585938,7.66455078 1.99951172,7.54394531 1.99951172,7.41699219 C1.99951172,6.58544922 2.18359375,5.79833984 2.52001953,5.08105469 C2.93261719,5.47460938 3.38330078,5.82373047 3.87207031,6.11572266 C3.859375,6.16650391 3.859375,6.22363281 3.859375,6.28076172 C3.859375,6.6171875 4.02441406,6.91552734 4.28466797,7.09960938 C4.15136719,7.75976562 4.08154297,8.4453125 4.08154297,9.13720703 Z M11.8447266,9.51171875 C11.2353516,8.95947266 10.7275391,8.29931641 10.3466797,7.56933594 C10.5180664,7.42333984 10.6323242,7.22021484 10.6767578,6.99169922 C11.5019531,6.73779297 12.2827148,6.35693359 12.9936523,5.84912109 C13.1396484,6.35058594 13.222168,6.87744141 13.222168,7.41699219 C13.222168,7.96289062 13.1396484,8.49609375 12.9873047,8.99755859 C12.6191406,9.19433594 12.2382812,9.36572266 11.8447266,9.51171875 Z M6.94433594,10.0258789 C6.23339844,9.91796875 5.52880859,9.73388672 4.84960938,9.47363281 C4.83056641,8.71826172 4.88769531,7.97558594 5.03369141,7.25830078 C5.26220703,7.21386719 5.45898438,7.09326172 5.60498047,6.921875 C6.03027344,7.06787109 6.47460938,7.17578125 6.92529297,7.24560547 L6.92529297,7.28369141 L6.92529297,7.28369141 C6.92529297,8.10888672 7.02050781,8.92138672 7.20458984,9.71484375 C7.09667969,9.79736328 7.0078125,9.90527344 6.94433594,10.0258789 Z M8.74707031,10.1274414 C8.61376953,9.79101562 8.30908203,9.54980469 7.94091797,9.50537109 C7.78222656,8.80078125 7.69335938,8.07080078 7.69335938,7.33447266 C7.89013672,7.34716797 8.08691406,7.35351562 8.28369141,7.35351562 C8.48681641,7.35351562 8.68359375,7.34716797 8.87402344,7.328125 C9.02636719,7.58203125 9.29296875,7.75976562 9.60400391,7.79785156 C9.96582031,8.52783203 10.4482422,9.20068359 11.0258789,9.77832031 C10.2768555,9.98779297 9.51513672,10.1020508 8.74707031,10.1274414 Z M4.41162109,12.0063477 C3.35791016,11.2636719 2.56445312,10.1782227 2.20898438,8.92138672 C2.80566406,9.34667969 3.44042969,9.70849609 4.10693359,9.99414062 C4.13232422,10.6733398 4.23388672,11.3461914 4.41162109,12.0063477 Z M7.61083984,13.0283203 C6.83007812,13.0283203 6.07470703,12.8632812 5.39550781,12.5585938 C5.12890625,11.8349609 4.95751953,11.0795898 4.89404297,10.3051758 C5.54150391,10.5273438 6.20166016,10.6923828 6.88085938,10.7875977 C7.00146484,11.1748047 7.35693359,11.4541016 7.78222656,11.4731445 C7.99804688,11.980957 8.25830078,12.4760742 8.55664062,12.9458008 C8.24560547,12.996582 7.93457031,13.0283203 7.61083984,13.0283203 Z M9.33740234,12.7490234 C9.01367188,12.2602539 8.734375,11.7397461 8.50585938,11.206543 C8.59472656,11.1176758 8.67089844,11.0097656 8.72167969,10.8955078 C9.72460938,10.8637695 10.7275391,10.6987305 11.6923828,10.3813477 C11.8320312,10.4956055 11.984375,10.6035156 12.1303711,10.7114258 C11.4384766,11.6508789 10.4672852,12.3745117 9.33740234,12.7490234 Z" id="opaque"></path>
        </g>
        <g id="light" transform="translate(1.000000, 0.000000)" fill="#000000" fill-rule="nonzero">
            <path d="M6.61083984,13.8916016 C10.152832,13.8916016 13.0854492,10.9526367 13.0854492,7.41699219 C13.0854492,3.875 10.1464844,0.942382812 6.60449219,0.942382812 C3.06884766,0.942382812 0.136230469,3.875 0.136230469,7.41699219 C0.136230469,10.9526367 3.07519531,13.8916016 6.61083984,13.8916016 Z" id="translucent" opacity="0.25"></path>
            <path d="M6.61083984,13.8916016 C10.152832,13.8916016 13.0854492,10.9526367 13.0854492,7.41699219 C13.0854492,3.875 10.1464844,0.942382812 6.60449219,0.942382812 C3.06884766,0.942382812 0.136230469,3.875 0.136230469,7.41699219 C0.136230469,10.9526367 3.07519531,13.8916016 6.61083984,13.8916016 Z M5.95703125,6.47119141 C5.57617188,6.40771484 5.20166016,6.3125 4.83984375,6.19189453 C4.81445312,5.94433594 4.70654297,5.72216797 4.53515625,5.56347656 C5.09375,4.14794922 5.98242188,2.86572266 7.14404297,1.83105469 C7.23291016,1.83740234 7.32177734,1.85009766 7.41064453,1.86279297 C6.57910156,3.265625 6.07763672,4.83984375 5.95703125,6.47119141 Z M3.28466797,5.46191406 C2.78955078,5.15722656 2.32617188,4.7890625 1.91357422,4.37011719 C2.82128906,2.98632812 4.32568359,2.00878906 6.03955078,1.83105469 C5.07470703,2.84033203 4.32568359,4.01464844 3.81787109,5.29052734 C3.64013672,5.29052734 3.44970703,5.35400391 3.28466797,5.46191406 Z M7.28369141,6.58544922 C7.09326172,6.58544922 6.90283203,6.57910156 6.71875,6.56640625 C6.82666016,5.01123047 7.30273438,3.52587891 8.09619141,2.21191406 C7.88671875,2.92919922 7.79150391,3.67822266 7.79785156,4.44628906 C7.80419922,5.02392578 7.87402344,5.59521484 8.00732422,6.14746094 C7.89306641,6.26171875 7.81054688,6.40771484 7.76611328,6.56640625 C7.60742188,6.57910156 7.44873047,6.58544922 7.28369141,6.58544922 Z M9.49267578,6.24267578 C9.32128906,6.0078125 9.04199219,5.85546875 8.72460938,5.84912109 C8.62939453,5.39208984 8.57226562,4.92236328 8.56591797,4.43994141 C8.55957031,3.70996094 8.66113281,2.97998047 8.87695312,2.29443359 C10.1210938,2.85302734 11.1367188,3.86230469 11.7080078,5.10009766 C11.0415039,5.60791016 10.2924805,5.98876953 9.49267578,6.24267578 Z M3.08154297,9.13720703 C2.3515625,8.78173828 1.65332031,8.33105469 1.01220703,7.79150391 C1.00585938,7.66455078 0.999511719,7.54394531 0.999511719,7.41699219 C0.999511719,6.58544922 1.18359375,5.79833984 1.52001953,5.08105469 C1.93261719,5.47460938 2.38330078,5.82373047 2.87207031,6.11572266 C2.859375,6.16650391 2.859375,6.22363281 2.859375,6.28076172 C2.859375,6.6171875 3.02441406,6.91552734 3.28466797,7.09960938 C3.15136719,7.75976562 3.08154297,8.4453125 3.08154297,9.13720703 Z M10.8447266,9.51171875 C10.2353516,8.95947266 9.72753906,8.29931641 9.34667969,7.56933594 C9.51806641,7.42333984 9.63232422,7.22021484 9.67675781,6.99169922 C10.5019531,6.73779297 11.2827148,6.35693359 11.9936523,5.84912109 C12.1396484,6.35058594 12.222168,6.87744141 12.222168,7.41699219 C12.222168,7.96289062 12.1396484,8.49609375 11.9873047,8.99755859 C11.6191406,9.19433594 11.2382812,9.36572266 10.8447266,9.51171875 Z M5.94433594,10.0258789 C5.23339844,9.91796875 4.52880859,9.73388672 3.84960938,9.47363281 C3.83056641,8.71826172 3.88769531,7.97558594 4.03369141,7.25830078 C4.26220703,7.21386719 4.45898438,7.09326172 4.60498047,6.921875 C5.03027344,7.06787109 5.47460938,7.17578125 5.92529297,7.24560547 L5.92529297,7.28369141 L5.92529297,7.28369141 C5.92529297,8.10888672 6.02050781,8.92138672 6.20458984,9.71484375 C6.09667969,9.79736328 6.0078125,9.90527344 5.94433594,10.0258789 Z M7.74707031,10.1274414 C7.61376953,9.79101562 7.30908203,9.54980469 6.94091797,9.50537109 C6.78222656,8.80078125 6.69335938,8.07080078 6.69335938,7.33447266 C6.89013672,7.34716797 7.08691406,7.35351562 7.28369141,7.35351562 C7.48681641,7.35351562 7.68359375,7.34716797 7.87402344,7.328125 C8.02636719,7.58203125 8.29296875,7.75976562 8.60400391,7.79785156 C8.96582031,8.52783203 9.44824219,9.20068359 10.0258789,9.77832031 C9.27685547,9.98779297 8.51513672,10.1020508 7.74707031,10.1274414 Z M3.41162109,12.0063477 C2.35791016,11.2636719 1.56445312,10.1782227 1.20898438,8.92138672 C1.80566406,9.34667969 2.44042969,9.70849609 3.10693359,9.99414062 C3.13232422,10.6733398 3.23388672,11.3461914 3.41162109,12.0063477 Z M6.61083984,13.0283203 C5.83007812,13.0283203 5.07470703,12.8632812 4.39550781,12.5585938 C4.12890625,11.8349609 3.95751953,11.0795898 3.89404297,10.3051758 C4.54150391,10.5273438 5.20166016,10.6923828 5.88085938,10.7875977 C6.00146484,11.1748047 6.35693359,11.4541016 6.78222656,11.4731445 C6.99804688,11.980957 7.25830078,12.4760742 7.55664062,12.9458008 C7.24560547,12.996582 6.93457031,13.0283203 6.61083984,13.0283203 Z M8.33740234,12.7490234 C8.01367188,12.2602539 7.734375,11.7397461 7.50585938,11.206543 C7.59472656,11.1176758 7.67089844,11.0097656 7.72167969,10.8955078 C8.72460938,10.8637695 9.72753906,10.6987305 10.6923828,10.3813477 C10.8320312,10.4956055 10.984375,10.6035156 11.1303711,10.7114258 C10.4384766,11.6508789 9.46728516,12.3745117 8.33740234,12.7490234 Z" id="solid" opacity="0.5"></path>
        </g>
    </g>
</svg>