<?xml version="1.0" encoding="UTF-8"?>
<svg width="15px" height="15px" viewBox="0 0 15 15" version="1.1" xmlns="http://www.w3.org/2000/svg" xmlns:xlink="http://www.w3.org/1999/xlink">
    <title>connectivity/wifi</title>
    <g id="connectivity/wifi" stroke="none" stroke-width="1" fill="none" fill-rule="evenodd">
        <g id="dark" transform="translate(-0.750000, 0.000000)" fill="#000000" fill-rule="nonzero">
            <path d="M2.62158203,6.6171875 C4.12597656,5.02392578 6.10644531,4.18603516 8.32177734,4.18603516 C10.5498047,4.18603516 12.5302734,5.03027344 14.0283203,6.62353516 C14.1362305,6.73144531 14.3076172,6.73144531 14.421875,6.61083984 L15.2597656,5.76660156 C15.3676758,5.65869141 15.3676758,5.51904297 15.2851562,5.41748047 C13.8505859,3.65283203 11.152832,2.3515625 8.32177734,2.3515625 C5.49072266,2.3515625 2.78662109,3.65283203 1.35839844,5.41748047 C1.26953125,5.51904297 1.26953125,5.65869141 1.37744141,5.76660156 L2.21533203,6.62353516 C2.32958984,6.74414062 2.50732422,6.73779297 2.62158203,6.6171875 Z M11.8891602,9.16259766 L12.8349609,8.22949219 C12.9428711,8.12792969 12.9492188,7.99462891 12.8603516,7.88671875 C11.9399414,6.75048828 10.2260742,5.91259766 8.32177734,5.91259766 C6.42382812,5.91259766 4.70996094,6.75683594 3.78955078,7.88671875 C3.70068359,7.99462891 3.70703125,8.12158203 3.80859375,8.22949219 L4.75439453,9.16894531 C4.88769531,9.30224609 5.04638672,9.28955078 5.17333984,9.14990234 C5.90332031,8.33105469 7.10302734,7.74072266 8.32177734,7.75341797 C9.55957031,7.74072266 10.746582,8.35009766 11.4956055,9.16894531 C11.6098633,9.29589844 11.7685547,9.29589844 11.8891602,9.16259766 Z M8.32177734,12.5014648 C8.45507812,12.5014648 8.57568359,12.4316406 8.81054688,12.203125 L10.2958984,10.7749023 C10.3911133,10.6860352 10.4101562,10.5463867 10.3276367,10.4384766 C9.92773438,9.92431641 9.18505859,9.47998047 8.32177734,9.47998047 C7.44580078,9.47998047 6.68408203,9.94335938 6.29052734,10.4765625 C6.23339844,10.5654297 6.25244141,10.6860352 6.35400391,10.7749023 L7.83935547,12.203125 C8.06787109,12.4316406 8.18847656,12.5014648 8.32177734,12.5014648 Z" id="solid"></path>
        </g>
        <g id="light" transform="translate(-0.750000, 0.000000)" fill="#000000" fill-rule="nonzero">
            <path d="M2.62158203,6.6171875 C4.12597656,5.02392578 6.10644531,4.18603516 8.32177734,4.18603516 C10.5498047,4.18603516 12.5302734,5.03027344 14.0283203,6.62353516 C14.1362305,6.73144531 14.3076172,6.73144531 14.421875,6.61083984 L15.2597656,5.76660156 C15.3676758,5.65869141 15.3676758,5.51904297 15.2851562,5.41748047 C13.8505859,3.65283203 11.152832,2.3515625 8.32177734,2.3515625 C5.49072266,2.3515625 2.78662109,3.65283203 1.35839844,5.41748047 C1.26953125,5.51904297 1.26953125,5.65869141 1.37744141,5.76660156 L2.21533203,6.62353516 C2.32958984,6.74414062 2.50732422,6.73779297 2.62158203,6.6171875 Z M11.8891602,9.16259766 L12.8349609,8.22949219 C12.9428711,8.12792969 12.9492188,7.99462891 12.8603516,7.88671875 C11.9399414,6.75048828 10.2260742,5.91259766 8.32177734,5.91259766 C6.42382812,5.91259766 4.70996094,6.75683594 3.78955078,7.88671875 C3.70068359,7.99462891 3.70703125,8.12158203 3.80859375,8.22949219 L4.75439453,9.16894531 C4.88769531,9.30224609 5.04638672,9.28955078 5.17333984,9.14990234 C5.90332031,8.33105469 7.10302734,7.74072266 8.32177734,7.75341797 C9.55957031,7.74072266 10.746582,8.35009766 11.4956055,9.16894531 C11.6098633,9.29589844 11.7685547,9.29589844 11.8891602,9.16259766 Z M8.32177734,12.5014648 C8.45507812,12.5014648 8.57568359,12.4316406 8.81054688,12.203125 L10.2958984,10.7749023 C10.3911133,10.6860352 10.4101562,10.5463867 10.3276367,10.4384766 C9.92773438,9.92431641 9.18505859,9.47998047 8.32177734,9.47998047 C7.44580078,9.47998047 6.68408203,9.94335938 6.29052734,10.4765625 C6.23339844,10.5654297 6.25244141,10.6860352 6.35400391,10.7749023 L7.83935547,12.203125 C8.06787109,12.4316406 8.18847656,12.5014648 8.32177734,12.5014648 Z" id="solid"></path>
        </g>
    </g>
</svg>