<?xml version="1.0" encoding="UTF-8"?>
<svg width="15px" height="15px" viewBox="0 0 15 15" version="1.1" xmlns="http://www.w3.org/2000/svg" xmlns:xlink="http://www.w3.org/1999/xlink">
    <title>devices/candy-bar-phone</title>
    <g id="devices/candy-bar-phone" stroke="none" stroke-width="1" fill="none" fill-rule="evenodd">
        <g id="dark" fill="#000000" fill-rule="nonzero">
            <path d="M9.59790039,13.7519531 C10.6325684,13.7519531 11.3244629,13.0917969 11.3244629,12.1015625 L11.3244629,2.73876953 C11.3244629,1.74853516 10.6325684,1.08837891 9.59790039,1.08837891 L5.40209961,1.08837891 C4.36743164,1.08837891 3.67553711,1.74853516 3.67553711,2.73876953 L3.67553711,12.1015625 C3.67553711,13.0917969 4.36743164,13.7519531 5.40209961,13.7519531 L9.59790039,13.7519531 Z M9.46459961,12.7299805 L5.53540039,12.7299805 C4.99584961,12.7299805 4.69750977,12.4443359 4.69750977,11.9365234 L4.69750977,2.90380859 C4.69750977,2.39599609 4.99584961,2.11035156 5.53540039,2.11035156 L9.46459961,2.11035156 C9.99780273,2.11035156 10.3024902,2.39599609 10.3024902,2.90380859 L10.3024902,11.9365234 C10.3024902,12.4443359 9.99780273,12.7299805 9.46459961,12.7299805 Z M9.15356445,6.85839844 C9.48364258,6.85839844 9.68041992,6.68066406 9.68041992,6.37597656 L9.68041992,3.24658203 C9.68041992,2.94189453 9.48364258,2.76416016 9.15356445,2.76416016 L5.84643555,2.76416016 C5.51635742,2.76416016 5.31958008,2.94189453 5.31958008,3.24658203 L5.31958008,6.37597656 C5.31958008,6.68066406 5.51635742,6.85839844 5.84643555,6.85839844 L9.15356445,6.85839844 Z M6.31616211,8.71826172 C6.45581055,8.71826172 6.5637207,8.62304688 6.5637207,8.48974609 L6.5637207,7.88671875 C6.5637207,7.75976562 6.45581055,7.66455078 6.31616211,7.66455078 L5.73217773,7.66455078 C5.59887695,7.66455078 5.50366211,7.75976562 5.50366211,7.88671875 L5.50366211,8.48974609 C5.50366211,8.62304688 5.59887695,8.71826172 5.73217773,8.71826172 L6.31616211,8.71826172 Z M7.76977539,8.71826172 C7.90942383,8.71826172 8.01098633,8.62304688 8.01098633,8.48974609 L8.01098633,7.88671875 C8.01098633,7.75976562 7.90942383,7.66455078 7.76977539,7.66455078 L7.18579102,7.66455078 C7.05249023,7.66455078 6.95727539,7.75976562 6.95727539,7.88671875 L6.95727539,8.48974609 C6.95727539,8.62304688 7.05249023,8.71826172 7.18579102,8.71826172 L7.76977539,8.71826172 Z M9.22338867,8.71826172 C9.36938477,8.71826172 9.47094727,8.62304688 9.47094727,8.48974609 L9.47094727,7.88671875 C9.47094727,7.75976562 9.36938477,7.66455078 9.22338867,7.66455078 L8.6394043,7.66455078 C8.50610352,7.66455078 8.41088867,7.75976562 8.41088867,7.88671875 L8.41088867,8.48974609 C8.41088867,8.62304688 8.50610352,8.71826172 8.6394043,8.71826172 L9.22338867,8.71826172 Z M6.31616211,10.2797852 C6.45581055,10.2797852 6.5637207,10.1845703 6.5637207,10.0576172 L6.5637207,9.45458984 C6.5637207,9.32128906 6.45581055,9.22607422 6.31616211,9.22607422 L5.73217773,9.22607422 C5.59887695,9.22607422 5.50366211,9.32128906 5.50366211,9.45458984 L5.50366211,10.0576172 C5.50366211,10.1845703 5.59887695,10.2797852 5.73217773,10.2797852 L6.31616211,10.2797852 Z M7.76977539,10.2797852 C7.90942383,10.2797852 8.01098633,10.1845703 8.01098633,10.0576172 L8.01098633,9.45458984 C8.01098633,9.32128906 7.90942383,9.22607422 7.76977539,9.22607422 L7.18579102,9.22607422 C7.05249023,9.22607422 6.95727539,9.32128906 6.95727539,9.45458984 L6.95727539,10.0576172 C6.95727539,10.1845703 7.05249023,10.2797852 7.18579102,10.2797852 L7.76977539,10.2797852 Z M9.22338867,10.2797852 C9.36938477,10.2797852 9.47094727,10.1845703 9.47094727,10.0576172 L9.47094727,9.45458984 C9.47094727,9.32128906 9.36938477,9.22607422 9.22338867,9.22607422 L8.6394043,9.22607422 C8.50610352,9.22607422 8.41088867,9.32128906 8.41088867,9.45458984 L8.41088867,10.0576172 C8.41088867,10.1845703 8.50610352,10.2797852 8.6394043,10.2797852 L9.22338867,10.2797852 Z M6.31616211,11.8476562 C6.45581055,11.8476562 6.5637207,11.7524414 6.5637207,11.6191406 L6.5637207,11.0161133 C6.5637207,10.8828125 6.45581055,10.7875977 6.31616211,10.7875977 L5.73217773,10.7875977 C5.59887695,10.7875977 5.50366211,10.8828125 5.50366211,11.0161133 L5.50366211,11.6191406 C5.50366211,11.7524414 5.59887695,11.8476562 5.73217773,11.8476562 L6.31616211,11.8476562 Z M7.76977539,11.8476562 C7.90942383,11.8476562 8.01098633,11.7524414 8.01098633,11.6191406 L8.01098633,11.0161133 C8.01098633,10.8828125 7.90942383,10.7875977 7.76977539,10.7875977 L7.18579102,10.7875977 C7.05249023,10.7875977 6.95727539,10.8828125 6.95727539,11.0161133 L6.95727539,11.6191406 C6.95727539,11.7524414 7.05249023,11.8476562 7.18579102,11.8476562 L7.76977539,11.8476562 Z M9.22338867,11.8476562 C9.36938477,11.8476562 9.47094727,11.7524414 9.47094727,11.6191406 L9.47094727,11.0161133 C9.47094727,10.8828125 9.36938477,10.7875977 9.22338867,10.7875977 L8.6394043,10.7875977 C8.50610352,10.7875977 8.41088867,10.8828125 8.41088867,11.0161133 L8.41088867,11.6191406 C8.41088867,11.7524414 8.50610352,11.8476562 8.6394043,11.8476562 L9.22338867,11.8476562 Z" id="solid"></path>
        </g>
        <g id="light" fill="#000000" fill-rule="nonzero">
            <path d="M9.59790039,13.7519531 C10.6325684,13.7519531 11.3244629,13.0917969 11.3244629,12.1015625 L11.3244629,2.73876953 C11.3244629,1.74853516 10.6325684,1.08837891 9.59790039,1.08837891 L5.40209961,1.08837891 C4.36743164,1.08837891 3.67553711,1.74853516 3.67553711,2.73876953 L3.67553711,12.1015625 C3.67553711,13.0917969 4.36743164,13.7519531 5.40209961,13.7519531 L9.59790039,13.7519531 Z" id="translucent" opacity="0.35"></path>
            <path d="M9.59790039,13.7519531 C10.6325684,13.7519531 11.3244629,13.0917969 11.3244629,12.1015625 L11.3244629,2.73876953 C11.3244629,1.74853516 10.6325684,1.08837891 9.59790039,1.08837891 L5.40209961,1.08837891 C4.36743164,1.08837891 3.67553711,1.74853516 3.67553711,2.73876953 L3.67553711,12.1015625 C3.67553711,13.0917969 4.36743164,13.7519531 5.40209961,13.7519531 L9.59790039,13.7519531 Z M9.46459961,12.7299805 L5.53540039,12.7299805 C4.99584961,12.7299805 4.69750977,12.4443359 4.69750977,11.9365234 L4.69750977,2.90380859 C4.69750977,2.39599609 4.99584961,2.11035156 5.53540039,2.11035156 L9.46459961,2.11035156 C9.99780273,2.11035156 10.3024902,2.39599609 10.3024902,2.90380859 L10.3024902,11.9365234 C10.3024902,12.4443359 9.99780273,12.7299805 9.46459961,12.7299805 Z M9.15356445,6.85839844 C9.48364258,6.85839844 9.68041992,6.68066406 9.68041992,6.37597656 L9.68041992,3.24658203 C9.68041992,2.94189453 9.48364258,2.76416016 9.15356445,2.76416016 L5.84643555,2.76416016 C5.51635742,2.76416016 5.31958008,2.94189453 5.31958008,3.24658203 L5.31958008,6.37597656 C5.31958008,6.68066406 5.51635742,6.85839844 5.84643555,6.85839844 L9.15356445,6.85839844 Z M6.31616211,8.71826172 C6.45581055,8.71826172 6.5637207,8.62304688 6.5637207,8.48974609 L6.5637207,7.88671875 C6.5637207,7.75976562 6.45581055,7.66455078 6.31616211,7.66455078 L5.73217773,7.66455078 C5.59887695,7.66455078 5.50366211,7.75976562 5.50366211,7.88671875 L5.50366211,8.48974609 C5.50366211,8.62304688 5.59887695,8.71826172 5.73217773,8.71826172 L6.31616211,8.71826172 Z M7.76977539,8.71826172 C7.90942383,8.71826172 8.01098633,8.62304688 8.01098633,8.48974609 L8.01098633,7.88671875 C8.01098633,7.75976562 7.90942383,7.66455078 7.76977539,7.66455078 L7.18579102,7.66455078 C7.05249023,7.66455078 6.95727539,7.75976562 6.95727539,7.88671875 L6.95727539,8.48974609 C6.95727539,8.62304688 7.05249023,8.71826172 7.18579102,8.71826172 L7.76977539,8.71826172 Z M9.22338867,8.71826172 C9.36938477,8.71826172 9.47094727,8.62304688 9.47094727,8.48974609 L9.47094727,7.88671875 C9.47094727,7.75976562 9.36938477,7.66455078 9.22338867,7.66455078 L8.6394043,7.66455078 C8.50610352,7.66455078 8.41088867,7.75976562 8.41088867,7.88671875 L8.41088867,8.48974609 C8.41088867,8.62304688 8.50610352,8.71826172 8.6394043,8.71826172 L9.22338867,8.71826172 Z M6.31616211,10.2797852 C6.45581055,10.2797852 6.5637207,10.1845703 6.5637207,10.0576172 L6.5637207,9.45458984 C6.5637207,9.32128906 6.45581055,9.22607422 6.31616211,9.22607422 L5.73217773,9.22607422 C5.59887695,9.22607422 5.50366211,9.32128906 5.50366211,9.45458984 L5.50366211,10.0576172 C5.50366211,10.1845703 5.59887695,10.2797852 5.73217773,10.2797852 L6.31616211,10.2797852 Z M7.76977539,10.2797852 C7.90942383,10.2797852 8.01098633,10.1845703 8.01098633,10.0576172 L8.01098633,9.45458984 C8.01098633,9.32128906 7.90942383,9.22607422 7.76977539,9.22607422 L7.18579102,9.22607422 C7.05249023,9.22607422 6.95727539,9.32128906 6.95727539,9.45458984 L6.95727539,10.0576172 C6.95727539,10.1845703 7.05249023,10.2797852 7.18579102,10.2797852 L7.76977539,10.2797852 Z M9.22338867,10.2797852 C9.36938477,10.2797852 9.47094727,10.1845703 9.47094727,10.0576172 L9.47094727,9.45458984 C9.47094727,9.32128906 9.36938477,9.22607422 9.22338867,9.22607422 L8.6394043,9.22607422 C8.50610352,9.22607422 8.41088867,9.32128906 8.41088867,9.45458984 L8.41088867,10.0576172 C8.41088867,10.1845703 8.50610352,10.2797852 8.6394043,10.2797852 L9.22338867,10.2797852 Z M6.31616211,11.8476562 C6.45581055,11.8476562 6.5637207,11.7524414 6.5637207,11.6191406 L6.5637207,11.0161133 C6.5637207,10.8828125 6.45581055,10.7875977 6.31616211,10.7875977 L5.73217773,10.7875977 C5.59887695,10.7875977 5.50366211,10.8828125 5.50366211,11.0161133 L5.50366211,11.6191406 C5.50366211,11.7524414 5.59887695,11.8476562 5.73217773,11.8476562 L6.31616211,11.8476562 Z M7.76977539,11.8476562 C7.90942383,11.8476562 8.01098633,11.7524414 8.01098633,11.6191406 L8.01098633,11.0161133 C8.01098633,10.8828125 7.90942383,10.7875977 7.76977539,10.7875977 L7.18579102,10.7875977 C7.05249023,10.7875977 6.95727539,10.8828125 6.95727539,11.0161133 L6.95727539,11.6191406 C6.95727539,11.7524414 7.05249023,11.8476562 7.18579102,11.8476562 L7.76977539,11.8476562 Z M9.22338867,11.8476562 C9.36938477,11.8476562 9.47094727,11.7524414 9.47094727,11.6191406 L9.47094727,11.0161133 C9.47094727,10.8828125 9.36938477,10.7875977 9.22338867,10.7875977 L8.6394043,10.7875977 C8.50610352,10.7875977 8.41088867,10.8828125 8.41088867,11.0161133 L8.41088867,11.6191406 C8.41088867,11.7524414 8.50610352,11.8476562 8.6394043,11.8476562 L9.22338867,11.8476562 Z" id="solid"></path>
        </g>
    </g>
</svg>