<?xml version="1.0" encoding="UTF-8"?>
<svg width="15px" height="15px" viewBox="0 0 15 15" version="1.1" xmlns="http://www.w3.org/2000/svg" xmlns:xlink="http://www.w3.org/1999/xlink">
    <title>devices/display</title>
    <g id="devices/display" stroke="none" stroke-width="1" fill="none" fill-rule="evenodd">
        <g id="dark" transform="translate(-2.000000, 0.000000)" fill="#000000" fill-rule="nonzero" opacity="0.75">
            <path d="M12.1049805,13.809082 C12.390625,13.809082 12.6191406,13.5805664 12.6191406,13.3012695 C12.6191406,13.015625 12.390625,12.7807617 12.1049805,12.7807617 L11.3242188,12.7807617 L11.1464844,11.5556641 L15.1201172,11.5556641 C16.2055664,11.5556641 16.7514648,11.0351562 16.7514648,9.92431641 L16.7514648,2.64990234 C16.7514648,1.5390625 16.2055664,1.01855469 15.1201172,1.01855469 L3.25,1.01855469 C2.16455078,1.01855469 1.61865234,1.5390625 1.61865234,2.64990234 L1.61865234,9.92431641 C1.61865234,11.0351562 2.16455078,11.5556641 3.25,11.5556641 L7.22363281,11.5556641 L7.03955078,12.7807617 L6.32226562,12.7807617 C6.04296875,12.7807617 5.81445312,13.015625 5.81445312,13.3012695 C5.81445312,13.5805664 6.04296875,13.809082 6.32226562,13.809082 L12.1049805,13.809082 Z M15.1010742,10.5336914 L3.26904297,10.5336914 C2.83105469,10.5336914 2.640625,10.355957 2.640625,9.91162109 L2.640625,2.66894531 C2.640625,2.21826172 2.83105469,2.04052734 3.26904297,2.04052734 L15.1010742,2.04052734 C15.5327148,2.04052734 15.7294922,2.21826172 15.7294922,2.66894531 L15.7294922,9.91162109 C15.7294922,10.355957 15.5327148,10.5336914 15.1010742,10.5336914 Z" id="opaque"></path>
        </g>
        <g id="light" transform="translate(-2.000000, 0.000000)" fill="#000000" fill-rule="nonzero">
            <path d="M12.1049805,13.809082 C12.390625,13.809082 12.6191406,13.5805664 12.6191406,13.3012695 C12.6191406,13.015625 12.390625,12.7807617 12.1049805,12.7807617 L11.3242188,12.7807617 L11.1464844,11.5556641 L15.1201172,11.5556641 C16.2055664,11.5556641 16.7514648,11.0351562 16.7514648,9.92431641 L16.7514648,2.64990234 C16.7514648,1.5390625 16.2055664,1.01855469 15.1201172,1.01855469 L3.25,1.01855469 C2.16455078,1.01855469 1.61865234,1.5390625 1.61865234,2.64990234 L1.61865234,9.92431641 C1.61865234,11.0351562 2.16455078,11.5556641 3.25,11.5556641 L7.22363281,11.5556641 L7.03955078,12.7807617 L6.32226562,12.7807617 C6.04296875,12.7807617 5.81445312,13.015625 5.81445312,13.3012695 C5.81445312,13.5805664 6.04296875,13.809082 6.32226562,13.809082 L12.1049805,13.809082 Z" id="translucent" opacity="0.25"></path>
            <path d="M12.1049805,13.809082 C12.390625,13.809082 12.6191406,13.5805664 12.6191406,13.3012695 C12.6191406,13.015625 12.390625,12.7807617 12.1049805,12.7807617 L11.3242188,12.7807617 L11.1464844,11.5556641 L15.1201172,11.5556641 C16.2055664,11.5556641 16.7514648,11.0351562 16.7514648,9.92431641 L16.7514648,2.64990234 C16.7514648,1.5390625 16.2055664,1.01855469 15.1201172,1.01855469 L3.25,1.01855469 C2.16455078,1.01855469 1.61865234,1.5390625 1.61865234,2.64990234 L1.61865234,9.92431641 C1.61865234,11.0351562 2.16455078,11.5556641 3.25,11.5556641 L7.22363281,11.5556641 L7.03955078,12.7807617 L6.32226562,12.7807617 C6.04296875,12.7807617 5.81445312,13.015625 5.81445312,13.3012695 C5.81445312,13.5805664 6.04296875,13.809082 6.32226562,13.809082 L12.1049805,13.809082 Z M15.1010742,10.5336914 L3.26904297,10.5336914 C2.83105469,10.5336914 2.640625,10.355957 2.640625,9.91162109 L2.640625,2.66894531 C2.640625,2.21826172 2.83105469,2.04052734 3.26904297,2.04052734 L15.1010742,2.04052734 C15.5327148,2.04052734 15.7294922,2.21826172 15.7294922,2.66894531 L15.7294922,9.91162109 C15.7294922,10.355957 15.5327148,10.5336914 15.1010742,10.5336914 Z" id="solid" opacity="0.5"></path>
        </g>
    </g>
</svg>