<?xml version="1.0" encoding="UTF-8"?>
<svg width="15px" height="15px" viewBox="0 0 15 15" version="1.1" xmlns="http://www.w3.org/2000/svg" xmlns:xlink="http://www.w3.org/1999/xlink">
    <title>devices/flip-phone</title>
    <g id="devices/flip-phone" stroke="none" stroke-width="1" fill="none" fill-rule="evenodd">
        <g id="dark" transform="translate(3.000000, 0.000000)" fill="#000000" fill-rule="nonzero">
            <path d="M5.36645508,11.8730469 C5.60766602,11.8730469 5.7980957,11.6826172 5.7980957,11.4414062 C5.7980957,11.2001953 5.60766602,11.0097656 5.36645508,11.0097656 L3.60180664,11.0097656 C3.36694336,11.0097656 3.17016602,11.2001953 3.17016602,11.4414062 C3.17016602,11.6826172 3.36694336,11.8730469 3.60180664,11.8730469 L5.36645508,11.8730469 Z" id="translucent" opacity="0.25"></path>
            <path d="M4.50317383,13.9614258 C7.23901367,13.9614258 8.94018555,12.387207 8.94018555,9.65136719 L8.94018555,4.43994141 C8.94018555,3.43066406 8.27368164,2.78955078 7.21362305,2.78955078 L1.08178711,2.78955078 L1.08178711,1.39941406 C1.08178711,1.12011719 0.853271484,0.885253906 0.567626953,0.885253906 C0.288330078,0.885253906 0.0598144531,1.12011719 0.0598144531,1.39941406 L0.0598144531,9.65136719 C0.0598144531,12.387207 1.76098633,13.9614258 4.50317383,13.9614258 Z M4.50317383,12.9648438 C2.41479492,12.9648438 1.08178711,11.777832 1.08178711,9.72119141 L1.08178711,3.81152344 L7.08032227,3.81152344 C7.61352539,3.81152344 7.91821289,4.10351562 7.91821289,4.60498047 L7.91821289,9.72119141 C7.91821289,11.777832 6.59155273,12.9648438 4.50317383,12.9648438 Z M6.72485352,8.73095703 C7.07397461,8.73095703 7.28344727,8.52148438 7.28344727,8.18505859 L7.28344727,4.99853516 C7.28344727,4.65576172 7.07397461,4.44628906 6.72485352,4.44628906 L2.27514648,4.44628906 C1.93237305,4.44628906 1.71655273,4.65576172 1.71655273,4.99853516 L1.71655273,8.18505859 C1.71655273,8.52148438 1.93237305,8.73095703 2.27514648,8.73095703 L6.72485352,8.73095703 Z" id="opaque" opacity="0.75"></path>
        </g>
        <g id="light" transform="translate(3.000000, 0.000000)" fill="#000000" fill-rule="nonzero">
            <path d="M4.50317383,13.9614258 C7.23901367,13.9614258 8.94018555,12.387207 8.94018555,9.65136719 L8.94018555,4.43994141 C8.94018555,3.43066406 8.27368164,2.78955078 7.21362305,2.78955078 L1.08178711,2.78955078 L1.08178711,1.39941406 C1.08178711,1.12011719 0.853271484,0.885253906 0.567626953,0.885253906 C0.288330078,0.885253906 0.0598144531,1.12011719 0.0598144531,1.39941406 L0.0598144531,9.65136719 C0.0598144531,12.387207 1.76098633,13.9614258 4.50317383,13.9614258 Z" id="translucent" opacity="0.25"></path>
            <path d="M4.50317383,13.9614258 C7.23901367,13.9614258 8.94018555,12.387207 8.94018555,9.65136719 L8.94018555,4.43994141 C8.94018555,3.43066406 8.27368164,2.78955078 7.21362305,2.78955078 L1.08178711,2.78955078 L1.08178711,1.39941406 C1.08178711,1.12011719 0.853271484,0.885253906 0.567626953,0.885253906 C0.288330078,0.885253906 0.0598144531,1.12011719 0.0598144531,1.39941406 L0.0598144531,9.65136719 C0.0598144531,12.387207 1.76098633,13.9614258 4.50317383,13.9614258 Z M4.50317383,12.9648438 C2.41479492,12.9648438 1.08178711,11.777832 1.08178711,9.72119141 L1.08178711,3.81152344 L7.08032227,3.81152344 C7.61352539,3.81152344 7.91821289,4.10351562 7.91821289,4.60498047 L7.91821289,9.72119141 C7.91821289,11.777832 6.59155273,12.9648438 4.50317383,12.9648438 Z M6.72485352,8.73095703 C7.07397461,8.73095703 7.28344727,8.52148438 7.28344727,8.18505859 L7.28344727,4.99853516 C7.28344727,4.65576172 7.07397461,4.44628906 6.72485352,4.44628906 L2.27514648,4.44628906 C1.93237305,4.44628906 1.71655273,4.65576172 1.71655273,4.99853516 L1.71655273,8.18505859 C1.71655273,8.52148438 1.93237305,8.73095703 2.27514648,8.73095703 L6.72485352,8.73095703 Z M5.36645508,11.8730469 C5.60766602,11.8730469 5.7980957,11.6826172 5.7980957,11.4414062 C5.7980957,11.2001953 5.60766602,11.0097656 5.36645508,11.0097656 L3.60180664,11.0097656 C3.36694336,11.0097656 3.17016602,11.2001953 3.17016602,11.4414062 C3.17016602,11.6826172 3.36694336,11.8730469 3.60180664,11.8730469 L5.36645508,11.8730469 Z" id="solid" opacity="0.5"></path>
        </g>
    </g>
</svg>