<?xml version="1.0" encoding="UTF-8"?>
<svg width="15px" height="15px" viewBox="0 0 15 15" version="1.1" xmlns="http://www.w3.org/2000/svg" xmlns:xlink="http://www.w3.org/1999/xlink">
    <title>devices/game-controller</title>
    <g id="devices/game-controller" stroke="none" stroke-width="1" fill="none" fill-rule="evenodd">
        <g id="dark" transform="translate(-2.000000, 1.000000)" fill="#000000" fill-rule="nonzero">
            <path d="M14.8295898,11.9936523 C16.0595703,11.9936523 16.8759766,11.1772461 16.8759766,9.92041016 C16.8759766,9.38330078 16.7524414,8.765625 16.5429688,8.07275391 C16.215332,6.97167969 15.640625,5.47314453 15.0927734,4.31298828 C14.6308594,3.34619141 14.3945312,2.90576172 13.2558594,2.64794922 C12.2460938,2.41699219 10.8442383,2.26123047 9.12548828,2.26123047 C7.40673828,2.26123047 5.99951172,2.41699219 4.98974609,2.64794922 C3.85107422,2.90576172 3.61474609,3.34619141 3.15283203,4.31298828 C2.60498047,5.47314453 2.03027344,6.97167969 1.70263672,8.07275391 C1.49316406,8.765625 1.36962891,9.38330078 1.36962891,9.92041016 C1.36962891,11.1772461 2.18603516,11.9936523 3.41601562,11.9936523 C4.15185547,11.9936523 4.65673828,11.7250977 5.10791016,11.1665039 L6.08007812,9.99023438 C6.21972656,9.82373047 6.38085938,9.74316406 6.54199219,9.74316406 L11.7036133,9.74316406 C11.8647461,9.74316406 12.0258789,9.82373047 12.1655273,9.99023438 L13.1376953,11.1665039 C13.5888672,11.7250977 14.09375,11.9936523 14.8295898,11.9936523 Z M6.61181641,7.88476562 C6.34326172,7.88476562 6.1875,7.71289062 6.1875,7.43896484 L6.1875,6.49902344 L5.22070312,6.49902344 C4.94140625,6.49902344 4.77490234,6.32714844 4.77490234,6.04785156 C4.77490234,5.77929688 4.94140625,5.61279297 5.22070312,5.61279297 L6.1875,5.61279297 L6.1875,4.67285156 C6.1875,4.39892578 6.34326172,4.23242188 6.61181641,4.23242188 C6.875,4.23242188 7.03613281,4.39892578 7.03613281,4.67285156 L7.03613281,5.61279297 L7.94384766,5.61279297 C8.24462891,5.61279297 8.421875,5.77929688 8.421875,6.04785156 C8.421875,6.32714844 8.24462891,6.49902344 7.94384766,6.49902344 L7.03613281,6.49902344 L7.03613281,7.43896484 C7.03613281,7.71289062 6.875,7.88476562 6.61181641,7.88476562 Z M12.4072266,5.97802734 C11.9775391,5.97802734 11.6391602,5.64501953 11.6391602,5.20996094 C11.6391602,4.76953125 11.9775391,4.43115234 12.4072266,4.43115234 C12.8476562,4.43115234 13.1806641,4.76953125 13.1806641,5.20996094 C13.1806641,5.64501953 12.8476562,5.97802734 12.4072266,5.97802734 Z M10.828125,7.57324219 C10.3984375,7.57324219 10.0546875,7.23486328 10.0546875,6.79980469 C10.0546875,6.359375 10.3984375,6.02099609 10.828125,6.02099609 C11.2631836,6.02099609 11.6015625,6.359375 11.6015625,6.79980469 C11.6015625,7.23486328 11.2631836,7.57324219 10.828125,7.57324219 Z" id="solid"></path>
        </g>
        <g id="light" transform="translate(-2.000000, 1.000000)" fill="#000000" fill-rule="nonzero">
            <path d="M14.8295898,11.9936523 C16.0595703,11.9936523 16.8759766,11.1772461 16.8759766,9.92041016 C16.8759766,9.38330078 16.7524414,8.765625 16.5429688,8.07275391 C16.215332,6.97167969 15.640625,5.47314453 15.0927734,4.31298828 C14.6308594,3.34619141 14.3945312,2.90576172 13.2558594,2.64794922 C12.2460938,2.41699219 10.8442383,2.26123047 9.12548828,2.26123047 C7.40673828,2.26123047 5.99951172,2.41699219 4.98974609,2.64794922 C3.85107422,2.90576172 3.61474609,3.34619141 3.15283203,4.31298828 C2.60498047,5.47314453 2.03027344,6.97167969 1.70263672,8.07275391 C1.49316406,8.765625 1.36962891,9.38330078 1.36962891,9.92041016 C1.36962891,11.1772461 2.18603516,11.9936523 3.41601562,11.9936523 C4.0390625,11.9936523 4.65673828,11.7250977 5.10791016,11.1665039 L6.08007812,9.99023438 C6.21972656,9.82373047 6.38085938,9.74316406 6.54199219,9.74316406 L11.7036133,9.74316406 C11.8647461,9.74316406 12.0258789,9.82373047 12.1655273,9.99023438 L13.1376953,11.1665039 C13.5888672,11.7250977 14.206543,11.9936523 14.8295898,11.9936523 Z" id="translucent" opacity="0.35"></path>
            <path d="M14.8295898,11.9936523 C16.0595703,11.9936523 16.8759766,11.1772461 16.8759766,9.92041016 C16.8759766,9.38330078 16.7524414,8.765625 16.5429688,8.07275391 C16.215332,6.97167969 15.640625,5.47314453 15.0927734,4.31298828 C14.6308594,3.34619141 14.3945312,2.90576172 13.2558594,2.64794922 C12.2460938,2.41699219 10.8442383,2.26123047 9.12548828,2.26123047 C7.40673828,2.26123047 5.99951172,2.41699219 4.98974609,2.64794922 C3.85107422,2.90576172 3.61474609,3.34619141 3.15283203,4.31298828 C2.60498047,5.47314453 2.03027344,6.97167969 1.70263672,8.07275391 C1.49316406,8.765625 1.36962891,9.38330078 1.36962891,9.92041016 C1.36962891,11.1772461 2.18603516,11.9936523 3.41601562,11.9936523 C4.0390625,11.9936523 4.65673828,11.7250977 5.10791016,11.1665039 L6.08007812,9.99023438 C6.21972656,9.82373047 6.38085938,9.74316406 6.54199219,9.74316406 L11.7036133,9.74316406 C11.8647461,9.74316406 12.0258789,9.82373047 12.1655273,9.99023438 L13.1376953,11.1665039 C13.5888672,11.7250977 14.206543,11.9936523 14.8295898,11.9936523 Z M14.840332,11.1611328 C14.4321289,11.1611328 14.034668,10.9462891 13.7231445,10.5649414 L12.7133789,9.34570312 C12.4555664,9.03417969 12.2407227,8.87841797 11.7412109,8.87841797 L6.50439453,8.87841797 C6.00488281,8.87841797 5.79003906,9.03417969 5.53222656,9.34570312 L4.52246094,10.5649414 C4.2109375,10.9462891 3.81347656,11.1611328 3.40527344,11.1611328 C2.71240234,11.1611328 2.19140625,10.6938477 2.19140625,9.95263672 C2.19140625,9.61425781 2.26660156,9.20605469 2.43847656,8.62060547 C2.79833984,7.38525391 3.42138672,5.78466797 3.96386719,4.59765625 C4.22705078,4.02294922 4.37207031,3.67382812 5.0703125,3.51269531 C6.04248047,3.28173828 7.42822266,3.12597656 9.12548828,3.12597656 C10.8173828,3.12597656 12.203125,3.28173828 13.175293,3.51269531 C13.8735352,3.67382812 14.0131836,4.02294922 14.2817383,4.59765625 C14.8349609,5.78466797 15.4311523,7.390625 15.8071289,8.62060547 C15.984375,9.20605469 16.0541992,9.61425781 16.0541992,9.95263672 C16.0541992,10.6938477 15.5332031,11.1611328 14.840332,11.1611328 Z M6.61181641,7.88476562 C6.875,7.88476562 7.03613281,7.71289062 7.03613281,7.43896484 L7.03613281,6.49902344 L7.94384766,6.49902344 C8.24462891,6.49902344 8.421875,6.32714844 8.421875,6.04785156 C8.421875,5.77929688 8.24462891,5.61279297 7.94384766,5.61279297 L7.03613281,5.61279297 L7.03613281,4.67285156 C7.03613281,4.39892578 6.875,4.23242188 6.61181641,4.23242188 C6.34326172,4.23242188 6.1875,4.39892578 6.1875,4.67285156 L6.1875,5.61279297 L5.22070312,5.61279297 C4.94140625,5.61279297 4.77490234,5.77929688 4.77490234,6.04785156 C4.77490234,6.32714844 4.94140625,6.49902344 5.22070312,6.49902344 L6.1875,6.49902344 L6.1875,7.43896484 C6.1875,7.71289062 6.34326172,7.88476562 6.61181641,7.88476562 Z M12.4609375,5.97802734 C12.9013672,5.97802734 13.234375,5.64501953 13.234375,5.20996094 C13.234375,4.76953125 12.9013672,4.43115234 12.4609375,4.43115234 C12.03125,4.43115234 11.6875,4.76953125 11.6875,5.20996094 C11.6875,5.64501953 12.03125,5.97802734 12.4609375,5.97802734 Z M10.8818359,7.57324219 C11.3168945,7.57324219 11.6552734,7.23486328 11.6552734,6.79980469 C11.6552734,6.359375 11.3168945,6.02099609 10.8818359,6.02099609 C10.4521484,6.02099609 10.1083984,6.359375 10.1083984,6.79980469 C10.1083984,7.23486328 10.4521484,7.57324219 10.8818359,7.57324219 Z" id="solid"></path>
        </g>
    </g>
</svg>