<?xml version="1.0" encoding="UTF-8"?>
<svg width="15px" height="15px" viewBox="0 0 15 15" version="1.1" xmlns="http://www.w3.org/2000/svg" xmlns:xlink="http://www.w3.org/1999/xlink">
    <title>devices/game-controller</title>
    <g id="devices/game-controller" stroke="none" stroke-width="1" fill="none" fill-rule="evenodd">
        <g id="dark" transform="translate(-2.000000, 1.000000)" fill="#000000" fill-rule="nonzero" opacity="0.75">
            <path d="M14.8295898,11.9936523 C16.0595703,11.9936523 16.8759766,11.1772461 16.8759766,9.92041016 C16.8759766,9.38330078 16.7524414,8.765625 16.5429688,8.07275391 C16.215332,6.97167969 15.640625,5.47314453 15.0927734,4.31298828 C14.6308594,3.34619141 14.3945312,2.90576172 13.2558594,2.64794922 C12.2460938,2.41699219 10.8442383,2.26123047 9.12548828,2.26123047 C7.40673828,2.26123047 5.99951172,2.41699219 4.98974609,2.64794922 C3.85107422,2.90576172 3.61474609,3.34619141 3.15283203,4.31298828 C2.60498047,5.47314453 2.03027344,6.97167969 1.70263672,8.07275391 C1.49316406,8.765625 1.36962891,9.38330078 1.36962891,9.92041016 C1.36962891,11.1772461 2.18603516,11.9936523 3.41601562,11.9936523 C4.15185547,11.9936523 4.65673828,11.7250977 5.10791016,11.1665039 L6.08007812,9.99023438 C6.21972656,9.82373047 6.38085938,9.74316406 6.54199219,9.74316406 L11.7036133,9.74316406 C11.8647461,9.74316406 12.0258789,9.82373047 12.1655273,9.99023438 L13.1376953,11.1665039 C13.5888672,11.7250977 14.09375,11.9936523 14.8295898,11.9936523 Z M6.61181641,7.88476562 C6.34326172,7.88476562 6.1875,7.71289062 6.1875,7.43896484 L6.1875,6.49902344 L5.22070312,6.49902344 C4.94140625,6.49902344 4.77490234,6.32714844 4.77490234,6.04785156 C4.77490234,5.77929688 4.94140625,5.61279297 5.22070312,5.61279297 L6.1875,5.61279297 L6.1875,4.67285156 C6.1875,4.39892578 6.34326172,4.23242188 6.61181641,4.23242188 C6.875,4.23242188 7.03613281,4.39892578 7.03613281,4.67285156 L7.03613281,5.61279297 L7.94384766,5.61279297 C8.24462891,5.61279297 8.421875,5.77929688 8.421875,6.04785156 C8.421875,6.32714844 8.24462891,6.49902344 7.94384766,6.49902344 L7.03613281,6.49902344 L7.03613281,7.43896484 C7.03613281,7.71289062 6.875,7.88476562 6.61181641,7.88476562 Z M12.4072266,5.97802734 C11.9775391,5.97802734 11.6391602,5.64501953 11.6391602,5.20996094 C11.6391602,4.76953125 11.9775391,4.43115234 12.4072266,4.43115234 C12.8476562,4.43115234 13.1806641,4.76953125 13.1806641,5.20996094 C13.1806641,5.64501953 12.8476562,5.97802734 12.4072266,5.97802734 Z M10.828125,7.57324219 C10.3984375,7.57324219 10.0546875,7.23486328 10.0546875,6.79980469 C10.0546875,6.359375 10.3984375,6.02099609 10.828125,6.02099609 C11.2631836,6.02099609 11.6015625,6.359375 11.6015625,6.79980469 C11.6015625,7.23486328 11.2631836,7.57324219 10.828125,7.57324219 Z" id="opaque"></path>
        </g>
        <g id="light" transform="translate(-1.000000, 3.000000)" fill="#000000" fill-rule="nonzero">
            <path d="M13.8295898,9.99365234 C15.0595703,9.99365234 15.8759766,9.17724609 15.8759766,7.92041016 C15.8759766,7.38330078 15.7524414,6.765625 15.5429688,6.07275391 C15.215332,4.97167969 14.640625,3.47314453 14.0927734,2.31298828 C13.6308594,1.34619141 13.3945312,0.905761719 12.2558594,0.647949219 C11.2460938,0.416992188 9.84423828,0.261230469 8.12548828,0.261230469 C6.40673828,0.261230469 4.99951172,0.416992188 3.98974609,0.647949219 C2.85107422,0.905761719 2.61474609,1.34619141 2.15283203,2.31298828 C1.60498047,3.47314453 1.03027344,4.97167969 0.702636719,6.07275391 C0.493164062,6.765625 0.369628906,7.38330078 0.369628906,7.92041016 C0.369628906,9.17724609 1.18603516,9.99365234 2.41601562,9.99365234 C3.0390625,9.99365234 3.65673828,9.72509766 4.10791016,9.16650391 L5.08007812,7.99023438 C5.21972656,7.82373047 5.38085938,7.74316406 5.54199219,7.74316406 L10.7036133,7.74316406 C10.8647461,7.74316406 11.0258789,7.82373047 11.1655273,7.99023438 L12.1376953,9.16650391 C12.5888672,9.72509766 13.206543,9.99365234 13.8295898,9.99365234 Z" id="translucent" opacity="0.25"></path>
            <path d="M13.8295898,9.99365234 C15.0595703,9.99365234 15.8759766,9.17724609 15.8759766,7.92041016 C15.8759766,7.38330078 15.7524414,6.765625 15.5429688,6.07275391 C15.215332,4.97167969 14.640625,3.47314453 14.0927734,2.31298828 C13.6308594,1.34619141 13.3945312,0.905761719 12.2558594,0.647949219 C11.2460938,0.416992188 9.84423828,0.261230469 8.12548828,0.261230469 C6.40673828,0.261230469 4.99951172,0.416992188 3.98974609,0.647949219 C2.85107422,0.905761719 2.61474609,1.34619141 2.15283203,2.31298828 C1.60498047,3.47314453 1.03027344,4.97167969 0.702636719,6.07275391 C0.493164062,6.765625 0.369628906,7.38330078 0.369628906,7.92041016 C0.369628906,9.17724609 1.18603516,9.99365234 2.41601562,9.99365234 C3.0390625,9.99365234 3.65673828,9.72509766 4.10791016,9.16650391 L5.08007812,7.99023438 C5.21972656,7.82373047 5.38085938,7.74316406 5.54199219,7.74316406 L10.7036133,7.74316406 C10.8647461,7.74316406 11.0258789,7.82373047 11.1655273,7.99023438 L12.1376953,9.16650391 C12.5888672,9.72509766 13.206543,9.99365234 13.8295898,9.99365234 Z M13.840332,9.16113281 C13.4321289,9.16113281 13.034668,8.94628906 12.7231445,8.56494141 L11.7133789,7.34570312 C11.4555664,7.03417969 11.2407227,6.87841797 10.7412109,6.87841797 L5.50439453,6.87841797 C5.00488281,6.87841797 4.79003906,7.03417969 4.53222656,7.34570312 L3.52246094,8.56494141 C3.2109375,8.94628906 2.81347656,9.16113281 2.40527344,9.16113281 C1.71240234,9.16113281 1.19140625,8.69384766 1.19140625,7.95263672 C1.19140625,7.61425781 1.26660156,7.20605469 1.43847656,6.62060547 C1.79833984,5.38525391 2.42138672,3.78466797 2.96386719,2.59765625 C3.22705078,2.02294922 3.37207031,1.67382812 4.0703125,1.51269531 C5.04248047,1.28173828 6.42822266,1.12597656 8.12548828,1.12597656 C9.81738281,1.12597656 11.203125,1.28173828 12.175293,1.51269531 C12.8735352,1.67382812 13.0131836,2.02294922 13.2817383,2.59765625 C13.8349609,3.78466797 14.4311523,5.390625 14.8071289,6.62060547 C14.984375,7.20605469 15.0541992,7.61425781 15.0541992,7.95263672 C15.0541992,8.69384766 14.5332031,9.16113281 13.840332,9.16113281 Z M5.61181641,5.88476562 C5.875,5.88476562 6.03613281,5.71289062 6.03613281,5.43896484 L6.03613281,4.49902344 L6.94384766,4.49902344 C7.24462891,4.49902344 7.421875,4.32714844 7.421875,4.04785156 C7.421875,3.77929688 7.24462891,3.61279297 6.94384766,3.61279297 L6.03613281,3.61279297 L6.03613281,2.67285156 C6.03613281,2.39892578 5.875,2.23242188 5.61181641,2.23242188 C5.34326172,2.23242188 5.1875,2.39892578 5.1875,2.67285156 L5.1875,3.61279297 L4.22070312,3.61279297 C3.94140625,3.61279297 3.77490234,3.77929688 3.77490234,4.04785156 C3.77490234,4.32714844 3.94140625,4.49902344 4.22070312,4.49902344 L5.1875,4.49902344 L5.1875,5.43896484 C5.1875,5.71289062 5.34326172,5.88476562 5.61181641,5.88476562 Z M11.4609375,3.97802734 C11.9013672,3.97802734 12.234375,3.64501953 12.234375,3.20996094 C12.234375,2.76953125 11.9013672,2.43115234 11.4609375,2.43115234 C11.03125,2.43115234 10.6875,2.76953125 10.6875,3.20996094 C10.6875,3.64501953 11.03125,3.97802734 11.4609375,3.97802734 Z M9.88183594,5.57324219 C10.3168945,5.57324219 10.6552734,5.23486328 10.6552734,4.79980469 C10.6552734,4.359375 10.3168945,4.02099609 9.88183594,4.02099609 C9.45214844,4.02099609 9.10839844,4.359375 9.10839844,4.79980469 C9.10839844,5.23486328 9.45214844,5.57324219 9.88183594,5.57324219 Z" id="solid" opacity="0.5"></path>
        </g>
    </g>
</svg>