<?xml version="1.0" encoding="UTF-8"?>
<svg width="15px" height="15px" viewBox="0 0 15 15" version="1.1" xmlns="http://www.w3.org/2000/svg" xmlns:xlink="http://www.w3.org/1999/xlink">
    <title>devices/headphones</title>
    <g id="devices/headphones" stroke="none" stroke-width="1" fill="none" fill-rule="evenodd">
        <g id="dark" transform="translate(-1.000000, 0.000000)" fill="#000000" fill-rule="nonzero">
            <path d="M2.4375,10.9018555 C2.5390625,10.9018555 2.59619141,10.8383789 2.59619141,10.7431641 L2.59619141,7.16308594 C2.59619141,4.15429688 4.86230469,2.19921875 8.18212891,2.19921875 C11.4956055,2.19921875 13.7680664,4.15429688 13.7680664,7.16308594 L13.7680664,10.7431641 C13.7680664,10.8383789 13.8251953,10.9018555 13.9267578,10.9018555 L14.2695312,10.9018555 C14.5424805,10.9018555 14.7456055,10.7241211 14.7456055,10.4638672 L14.7456055,6.92822266 C14.7456055,3.55761719 12.0859375,1.21533203 8.39794922,1.21533203 L7.96630859,1.21533203 C4.27832031,1.21533203 1.61865234,3.55761719 1.61865234,6.92822266 L1.61865234,10.4638672 C1.61865234,10.7241211 1.81542969,10.9018555 2.09472656,10.9018555 L2.4375,10.9018555 Z M4.51953125,13.4155273 C5.29394531,13.4155273 5.73193359,13.0029297 5.73193359,12.2729492 L5.73193359,9.53076172 C5.73193359,8.80078125 5.29394531,8.38818359 4.51953125,8.38818359 L3.92285156,8.38818359 C3.49121094,8.38818359 3.25634766,8.61669922 3.25634766,9.03564453 L3.25634766,12.7680664 C3.25634766,13.1933594 3.49121094,13.4155273 3.92285156,13.4155273 L4.51953125,13.4155273 Z M12.4477539,13.4155273 C12.8793945,13.4155273 13.1206055,13.1933594 13.1206055,12.7680664 L13.1206055,9.03564453 C13.1206055,8.61669922 12.8793945,8.38818359 12.4477539,8.38818359 L11.8510742,8.38818359 C11.0766602,8.38818359 10.6386719,8.80078125 10.6386719,9.53076172 L10.6386719,12.2729492 C10.6386719,13.0029297 11.0766602,13.4155273 11.8510742,13.4155273 L12.4477539,13.4155273 Z" id="solid"></path>
        </g>
        <g id="light" transform="translate(-1.000000, 0.000000)" fill="#000000" fill-rule="nonzero">
            <path d="M2.4375,10.9018555 C2.5390625,10.9018555 2.59619141,10.8383789 2.59619141,10.7431641 L2.59619141,7.16308594 C2.59619141,4.15429688 4.86230469,2.19921875 8.18212891,2.19921875 C11.4956055,2.19921875 13.7680664,4.15429688 13.7680664,7.16308594 L13.7680664,10.7431641 C13.7680664,10.8383789 13.8251953,10.9018555 13.9267578,10.9018555 L14.2695312,10.9018555 C14.5424805,10.9018555 14.7456055,10.7241211 14.7456055,10.4638672 L14.7456055,6.92822266 C14.7456055,3.55761719 12.0859375,1.21533203 8.39794922,1.21533203 L7.96630859,1.21533203 C4.27832031,1.21533203 1.61865234,3.55761719 1.61865234,6.92822266 L1.61865234,10.4638672 C1.61865234,10.7241211 1.81542969,10.9018555 2.09472656,10.9018555 L2.4375,10.9018555 Z M4.51953125,13.4155273 C5.29394531,13.4155273 5.73193359,13.0029297 5.73193359,12.2729492 L5.73193359,9.53076172 C5.73193359,8.80078125 5.29394531,8.38818359 4.51953125,8.38818359 L3.92285156,8.38818359 C3.49121094,8.38818359 3.25634766,8.61669922 3.25634766,9.03564453 L3.25634766,12.7680664 C3.25634766,13.1933594 3.49121094,13.4155273 3.92285156,13.4155273 L4.51953125,13.4155273 Z M12.4477539,13.4155273 C12.8793945,13.4155273 13.1206055,13.1933594 13.1206055,12.7680664 L13.1206055,9.03564453 C13.1206055,8.61669922 12.8793945,8.38818359 12.4477539,8.38818359 L11.8510742,8.38818359 C11.0766602,8.38818359 10.6386719,8.80078125 10.6386719,9.53076172 L10.6386719,12.2729492 C10.6386719,13.0029297 11.0766602,13.4155273 11.8510742,13.4155273 L12.4477539,13.4155273 Z" id="solid"></path>
        </g>
    </g>
</svg>