<?xml version="1.0" encoding="UTF-8"?>
<svg width="15px" height="15px" viewBox="0 0 15 15" version="1.1" xmlns="http://www.w3.org/2000/svg" xmlns:xlink="http://www.w3.org/1999/xlink">
    <title>devices/hifi-speaker</title>
    <g id="devices/hifi-speaker" stroke="none" stroke-width="1" fill="none" fill-rule="evenodd">
        <g id="dark" transform="translate(2.000000, -1.000000)" fill="#000000" fill-rule="nonzero">
            <path d="M5.5,5.49072266 C6.00146484,5.49072266 6.4140625,5.078125 6.4140625,4.57666016 C6.4140625,4.07519531 5.98876953,3.67529297 5.5,3.67529297 C4.9921875,3.67529297 4.5859375,4.06884766 4.5859375,4.57666016 C4.5859375,5.078125 4.99853516,5.49072266 5.5,5.49072266 Z M5.5,12.1367188 C6.25537109,12.1367188 6.85205078,11.5336914 6.85205078,10.7783203 C6.85205078,10.0102539 6.25537109,9.42626953 5.5,9.42626953 C4.74462891,9.42626953 4.14160156,10.0102539 4.14160156,10.7783203 C4.14160156,11.5336914 4.75097656,12.1367188 5.5,12.1367188 Z" id="translucent" opacity="0.35"></path>
            <path d="M9.03564453,15.8754883 C10.3432617,15.8754883 11.003418,15.215332 11.003418,13.8823242 L11.003418,2.97070312 C11.003418,1.64404297 10.3432617,0.977539062 9.03564453,0.977539062 L1.96435547,0.977539062 C0.650390625,0.977539062 -0.00341796875,1.64404297 -0.00341796875,2.97070312 L-0.00341796875,13.8823242 C-0.00341796875,15.215332 0.656738281,15.8754883 1.96435547,15.8754883 L9.03564453,15.8754883 Z M5.49365234,6.35400391 C4.50341797,6.35400391 3.72265625,5.56689453 3.72265625,4.57666016 C3.72265625,3.59277344 4.50341797,2.80566406 5.49365234,2.81201172 C6.47753906,2.81835938 7.25830078,3.59277344 7.26464844,4.57666016 C7.27099609,5.56689453 6.47753906,6.35400391 5.49365234,6.35400391 Z M5.5,13.9902344 C3.72900391,13.9902344 2.30078125,12.5620117 2.30078125,10.7783203 C2.30078125,9.00097656 3.72900391,7.57275391 5.5,7.57908049 C7.27099609,7.59179688 8.69921875,9.00097656 8.69921875,10.7783203 C8.69921875,12.5620117 7.27099609,13.9902344 5.5,13.9902344 Z" id="solid"></path>
        </g>
        <g id="light" fill="#000000" fill-rule="nonzero">
            <path d="M11.0356445,14.8754883 C12.3432617,14.8754883 13.003418,14.215332 13.003418,12.8823242 L13.003418,1.97070312 C13.003418,0.644042969 12.3432617,-0.0224609375 11.0356445,-0.0224609375 L3.96435547,-0.0224609375 C2.65039062,-0.0224609375 1.99658203,0.644042969 1.99658203,1.97070312 L1.99658203,12.8823242 C1.99658203,14.215332 2.65673828,14.8754883 3.96435547,14.8754883 L11.0356445,14.8754883 Z M7.5,4.68115234 C6.99853516,4.68115234 6.5859375,4.26855469 6.5859375,3.76708984 C6.5859375,3.25927734 6.9921875,2.86572266 7.5,2.86572266 C7.98876953,2.86572266 8.4140625,3.265625 8.4140625,3.76708984 C8.4140625,4.26855469 8.00146484,4.68115234 7.5,4.68115234 Z M7.5,11.0097656 C6.75097656,11.0097656 6.14160156,10.4067383 6.14160156,9.65136719 C6.14160156,8.88330078 6.74462891,8.29931641 7.5,8.29931641 C8.25537109,8.29931641 8.85205078,8.88330078 8.85205078,9.65136719 C8.85205078,10.4067383 8.25537109,11.0097656 7.5,11.0097656 Z" id="translucent" opacity="0.35"></path>
            <path d="M11.0356445,14.8754883 C12.3432617,14.8754883 13.003418,14.215332 13.003418,12.8823242 L13.003418,1.97070312 C13.003418,0.644042969 12.3432617,-0.0224609375 11.0356445,-0.0224609375 L3.96435547,-0.0224609375 C2.65039062,-0.0224609375 1.99658203,0.644042969 1.99658203,1.97070312 L1.99658203,12.8823242 C1.99658203,14.215332 2.65673828,14.8754883 3.96435547,14.8754883 L11.0356445,14.8754883 Z M10.9785156,13.8535156 L4.01513672,13.8535156 C3.35498047,13.8535156 3.01855469,13.4916992 3.01855469,12.8696289 L3.01855469,1.98339844 C3.01855469,1.34863281 3.35498047,0.999511719 4.01513672,0.999511719 L10.9785156,0.999511719 C11.6386719,0.999511719 11.9814453,1.34863281 11.9814453,1.98339844 L11.9814453,12.8696289 C11.9814453,13.4916992 11.6386719,13.8535156 10.9785156,13.8535156 Z M7.49365234,5.54443359 C8.47753906,5.54443359 9.27099609,4.75732422 9.26464844,3.76708984 C9.25830078,2.78320312 8.47753906,2.00878906 7.49365234,2.00244141 C6.50341797,1.99609375 5.72265625,2.78320312 5.72265625,3.76708984 C5.72265625,4.75732422 6.50341797,5.54443359 7.49365234,5.54443359 Z M7.5,4.68115234 C6.99853516,4.68115234 6.5859375,4.26855469 6.5859375,3.76708984 C6.5859375,3.25927734 6.9921875,2.86572266 7.5,2.86572266 C7.98876953,2.86572266 8.4140625,3.265625 8.4140625,3.76708984 C8.4140625,4.26855469 8.00146484,4.68115234 7.5,4.68115234 Z M7.5,12.8632812 C9.27099609,12.8632812 10.6992188,11.4350586 10.6992188,9.65136719 C10.6992188,7.87402344 9.27099609,6.46484375 7.5,6.45212736 C5.72900391,6.44580078 4.30078125,7.87402344 4.30078125,9.65136719 C4.30078125,11.4350586 5.72900391,12.8632812 7.5,12.8632812 Z M7.5,11.0097656 C6.75097656,11.0097656 6.14160156,10.4067383 6.14160156,9.65136719 C6.14160156,8.88330078 6.74462891,8.29931641 7.5,8.29931641 C8.25537109,8.29931641 8.85205078,8.88330078 8.85205078,9.65136719 C8.85205078,10.4067383 8.25537109,11.0097656 7.5,11.0097656 Z" id="solid"></path>
        </g>
    </g>
</svg>