<?xml version="1.0" encoding="UTF-8"?>
<svg width="15px" height="15px" viewBox="0 0 15 15" version="1.1" xmlns="http://www.w3.org/2000/svg" xmlns:xlink="http://www.w3.org/1999/xlink">
    <title>devices/hifi-speaker</title>
    <g id="devices/hifi-speaker" stroke="none" stroke-width="1" fill="none" fill-rule="evenodd">
        <g id="dark" transform="translate(2.000000, -1.000000)" fill="#000000" fill-rule="nonzero">
            <path d="M5.5,5.49072266 C6.00146484,5.49072266 6.4140625,5.078125 6.4140625,4.57666016 C6.4140625,4.07519531 5.98876953,3.67529297 5.5,3.67529297 C4.9921875,3.67529297 4.5859375,4.06884766 4.5859375,4.57666016 C4.5859375,5.078125 4.99853516,5.49072266 5.5,5.49072266 Z M5.5,12.1367188 C6.25537109,12.1367188 6.85205078,11.5336914 6.85205078,10.7783203 C6.85205078,10.0102539 6.25537109,9.42626953 5.5,9.42626953 C4.74462891,9.42626953 4.14160156,10.0102539 4.14160156,10.7783203 C4.14160156,11.5336914 4.75097656,12.1367188 5.5,12.1367188 Z" id="translucent" opacity="0.25"></path>
            <path d="M9.03564453,15.8754883 C10.3432617,15.8754883 11.003418,15.215332 11.003418,13.8823242 L11.003418,2.97070312 C11.003418,1.64404297 10.3432617,0.977539062 9.03564453,0.977539062 L1.96435547,0.977539062 C0.650390625,0.977539062 -0.00341796875,1.64404297 -0.00341796875,2.97070312 L-0.00341796875,13.8823242 C-0.00341796875,15.215332 0.656738281,15.8754883 1.96435547,15.8754883 L9.03564453,15.8754883 Z M5.49365234,6.35400391 C4.50341797,6.35400391 3.72265625,5.56689453 3.72265625,4.57666016 C3.72265625,3.59277344 4.50341797,2.80566406 5.49365234,2.81201172 C6.47753906,2.81835938 7.25830078,3.59277344 7.26464844,4.57666016 C7.27099609,5.56689453 6.47753906,6.35400391 5.49365234,6.35400391 Z M5.5,13.9902344 C3.72900391,13.9902344 2.30078125,12.5620117 2.30078125,10.7783203 C2.30078125,9.00097656 3.72900391,7.57275391 5.5,7.57908049 C7.27099609,7.59179688 8.69921875,9.00097656 8.69921875,10.7783203 C8.69921875,12.5620117 7.27099609,13.9902344 5.5,13.9902344 Z" id="opaque" opacity="0.75"></path>
        </g>
        <g id="light" transform="translate(2.000000, -1.000000)" fill="#000000" fill-rule="nonzero">
            <path d="M9.03564453,15.8754883 C10.3432617,15.8754883 11.003418,15.215332 11.003418,13.8823242 L11.003418,2.97070312 C11.003418,1.64404297 10.3432617,0.977539062 9.03564453,0.977539062 L1.96435547,0.977539062 C0.650390625,0.977539062 -0.00341796875,1.64404297 -0.00341796875,2.97070312 L-0.00341796875,13.8823242 C-0.00341796875,15.215332 0.656738281,15.8754883 1.96435547,15.8754883 L9.03564453,15.8754883 Z M5.5,5.68115234 C4.99853516,5.68115234 4.5859375,5.26855469 4.5859375,4.76708984 C4.5859375,4.25927734 4.9921875,3.86572266 5.5,3.86572266 C5.98876953,3.86572266 6.4140625,4.265625 6.4140625,4.76708984 C6.4140625,5.26855469 6.00146484,5.68115234 5.5,5.68115234 Z M5.5,12.0097656 C4.75097656,12.0097656 4.14160156,11.4067383 4.14160156,10.6513672 C4.14160156,9.88330078 4.74462891,9.29931641 5.5,9.29931641 C6.25537109,9.29931641 6.85205078,9.88330078 6.85205078,10.6513672 C6.85205078,11.4067383 6.25537109,12.0097656 5.5,12.0097656 Z" id="translucent" opacity="0.25"></path>
            <path d="M9.03564453,15.8754883 C10.3432617,15.8754883 11.003418,15.215332 11.003418,13.8823242 L11.003418,2.97070312 C11.003418,1.64404297 10.3432617,0.977539062 9.03564453,0.977539062 L1.96435547,0.977539062 C0.650390625,0.977539062 -0.00341796875,1.64404297 -0.00341796875,2.97070312 L-0.00341796875,13.8823242 C-0.00341796875,15.215332 0.656738281,15.8754883 1.96435547,15.8754883 L9.03564453,15.8754883 Z M8.97851562,14.8535156 L2.01513672,14.8535156 C1.35498047,14.8535156 1.01855469,14.4916992 1.01855469,13.8696289 L1.01855469,2.98339844 C1.01855469,2.34863281 1.35498047,1.99951172 2.01513672,1.99951172 L8.97851562,1.99951172 C9.63867188,1.99951172 9.98144531,2.34863281 9.98144531,2.98339844 L9.98144531,13.8696289 C9.98144531,14.4916992 9.63867188,14.8535156 8.97851562,14.8535156 Z M5.49365234,6.54443359 C6.47753906,6.54443359 7.27099609,5.75732422 7.26464844,4.76708984 C7.25830078,3.78320312 6.47753906,3.00878906 5.49365234,3.00244141 C4.50341797,2.99609375 3.72265625,3.78320312 3.72265625,4.76708984 C3.72265625,5.75732422 4.50341797,6.54443359 5.49365234,6.54443359 Z M5.5,5.68115234 C4.99853516,5.68115234 4.5859375,5.26855469 4.5859375,4.76708984 C4.5859375,4.25927734 4.9921875,3.86572266 5.5,3.86572266 C5.98876953,3.86572266 6.4140625,4.265625 6.4140625,4.76708984 C6.4140625,5.26855469 6.00146484,5.68115234 5.5,5.68115234 Z M5.5,13.8632812 C7.27099609,13.8632812 8.69921875,12.4350586 8.69921875,10.6513672 C8.69921875,8.87402344 7.27099609,7.46484375 5.5,7.45212736 C3.72900391,7.44580078 2.30078125,8.87402344 2.30078125,10.6513672 C2.30078125,12.4350586 3.72900391,13.8632812 5.5,13.8632812 Z M5.5,12.0097656 C4.75097656,12.0097656 4.14160156,11.4067383 4.14160156,10.6513672 C4.14160156,9.88330078 4.74462891,9.29931641 5.5,9.29931641 C6.25537109,9.29931641 6.85205078,9.88330078 6.85205078,10.6513672 C6.85205078,11.4067383 6.25537109,12.0097656 5.5,12.0097656 Z" id="solid" opacity="0.5"></path>
        </g>
    </g>
</svg>