<?xml version="1.0" encoding="UTF-8"?>
<svg width="15px" height="15px" viewBox="0 0 15 15" version="1.1" xmlns="http://www.w3.org/2000/svg" xmlns:xlink="http://www.w3.org/1999/xlink">
    <title>devices/keyboard</title>
    <g id="devices/keyboard" stroke="none" stroke-width="1" fill="none" fill-rule="evenodd">
        <g id="dark" transform="translate(-2.000000, 0.000000)" fill="#000000" fill-rule="nonzero">
            <path d="M15.6025391,12.4316406 C16.9228516,12.4316406 17.5957031,11.7714844 17.5957031,10.4638672 L17.5957031,4.36376953 C17.5957031,3.0625 16.9228516,2.40234375 15.6025391,2.40234375 L3.61181641,2.40234375 C2.27880859,2.40234375 1.61865234,3.05615234 1.61865234,4.36376953 L1.61865234,10.4638672 C1.61865234,11.7714844 2.27880859,12.4316406 3.61181641,12.4316406 L15.6025391,12.4316406 Z M15.5834961,11.409668 L3.62451172,11.409668 C2.98974609,11.409668 2.640625,11.0668945 2.640625,10.4067383 L2.640625,4.42089844 C2.640625,3.76074219 2.98974609,3.42431641 3.62451172,3.42431641 L15.5834961,3.42431641 C16.2119141,3.42431641 16.5737305,3.76074219 16.5737305,4.42089844 L16.5737305,10.4067383 C16.5737305,11.0668945 16.2119141,11.409668 15.5834961,11.409668 Z M4.77978516,5.93798828 C4.95751953,5.93798828 5.06542969,5.83007812 5.06542969,5.65869141 L5.06542969,5.07470703 C5.06542969,4.89697266 4.95751953,4.7890625 4.77978516,4.7890625 L4.19580078,4.7890625 C4.02441406,4.7890625 3.91650391,4.89697266 3.91650391,5.07470703 L3.91650391,5.65869141 C3.91650391,5.83007812 4.02441406,5.93798828 4.19580078,5.93798828 L4.77978516,5.93798828 Z M6.82373047,5.93798828 C6.99511719,5.93798828 7.10302734,5.83007812 7.10302734,5.65869141 L7.10302734,5.07470703 C7.10302734,4.89697266 6.99511719,4.7890625 6.82373047,4.7890625 L6.23974609,4.7890625 C6.06201172,4.7890625 5.95410156,4.89697266 5.95410156,5.07470703 L5.95410156,5.65869141 C5.95410156,5.83007812 6.06201172,5.93798828 6.23974609,5.93798828 L6.82373047,5.93798828 Z M8.86132812,5.93798828 C9.0390625,5.93798828 9.14697266,5.83007812 9.14697266,5.65869141 L9.14697266,5.07470703 C9.14697266,4.89697266 9.0390625,4.7890625 8.86132812,4.7890625 L8.28369141,4.7890625 C8.10595703,4.7890625 7.99804688,4.89697266 7.99804688,5.07470703 L7.99804688,5.65869141 C7.99804688,5.83007812 8.10595703,5.93798828 8.28369141,5.93798828 L8.86132812,5.93798828 Z M10.9052734,5.93798828 C11.0830078,5.93798828 11.190918,5.83007812 11.190918,5.65869141 L11.190918,5.07470703 C11.190918,4.89697266 11.0830078,4.7890625 10.9052734,4.7890625 L10.3212891,4.7890625 C10.1499023,4.7890625 10.0419922,4.89697266 10.0419922,5.07470703 L10.0419922,5.65869141 C10.0419922,5.83007812 10.1499023,5.93798828 10.3212891,5.93798828 L10.9052734,5.93798828 Z M12.9492188,5.93798828 C13.1206055,5.93798828 13.2285156,5.83007812 13.2285156,5.65869141 L13.2285156,5.07470703 C13.2285156,4.89697266 13.1206055,4.7890625 12.9492188,4.7890625 L12.3652344,4.7890625 C12.1875,4.7890625 12.0795898,4.89697266 12.0795898,5.07470703 L12.0795898,5.65869141 C12.0795898,5.83007812 12.1875,5.93798828 12.3652344,5.93798828 L12.9492188,5.93798828 Z M14.9868164,5.93798828 C15.1645508,5.93798828 15.2724609,5.83007812 15.2724609,5.65869141 L15.2724609,5.07470703 C15.2724609,4.89697266 15.1645508,4.7890625 14.9868164,4.7890625 L14.4091797,4.7890625 C14.2314453,4.7890625 14.1235352,4.89697266 14.1235352,5.07470703 L14.1235352,5.65869141 C14.1235352,5.83007812 14.2314453,5.93798828 14.4091797,5.93798828 L14.9868164,5.93798828 Z M14.9868164,7.98193359 C15.1645508,7.98193359 15.2724609,7.87402344 15.2724609,7.69628906 L15.2724609,7.11865234 C15.2724609,6.94091797 15.1645508,6.83300781 14.9868164,6.83300781 L14.4091797,6.83300781 C14.2314453,6.83300781 14.1235352,6.94091797 14.1235352,7.11865234 L14.1235352,7.69628906 C14.1235352,7.87402344 14.2314453,7.98193359 14.4091797,7.98193359 L14.9868164,7.98193359 Z M12.9492188,7.98193359 C13.1206055,7.98193359 13.2285156,7.87402344 13.2285156,7.69628906 L13.2285156,7.11865234 C13.2285156,6.94091797 13.1206055,6.83300781 12.9492188,6.83300781 L12.3652344,6.83300781 C12.1875,6.83300781 12.0795898,6.94091797 12.0795898,7.11865234 L12.0795898,7.69628906 C12.0795898,7.87402344 12.1875,7.98193359 12.3652344,7.98193359 L12.9492188,7.98193359 Z M10.9052734,7.98193359 C11.0830078,7.98193359 11.190918,7.87402344 11.190918,7.69628906 L11.190918,7.11865234 C11.190918,6.94091797 11.0830078,6.83300781 10.9052734,6.83300781 L10.3212891,6.83300781 C10.1499023,6.83300781 10.0419922,6.94091797 10.0419922,7.11865234 L10.0419922,7.69628906 C10.0419922,7.87402344 10.1499023,7.98193359 10.3212891,7.98193359 L10.9052734,7.98193359 Z M8.86132812,7.98193359 C9.0390625,7.98193359 9.14697266,7.87402344 9.14697266,7.69628906 L9.14697266,7.11865234 C9.14697266,6.94091797 9.0390625,6.83300781 8.86132812,6.83300781 L8.28369141,6.83300781 C8.10595703,6.83300781 7.99804688,6.94091797 7.99804688,7.11865234 L7.99804688,7.69628906 C7.99804688,7.87402344 8.10595703,7.98193359 8.28369141,7.98193359 L8.86132812,7.98193359 Z M6.82373047,7.98193359 C6.99511719,7.98193359 7.10302734,7.87402344 7.10302734,7.69628906 L7.10302734,7.11865234 C7.10302734,6.94091797 6.99511719,6.83300781 6.82373047,6.83300781 L6.23974609,6.83300781 C6.06201172,6.83300781 5.95410156,6.94091797 5.95410156,7.11865234 L5.95410156,7.69628906 C5.95410156,7.87402344 6.06201172,7.98193359 6.23974609,7.98193359 L6.82373047,7.98193359 Z M4.77978516,7.98193359 C4.95751953,7.98193359 5.06542969,7.87402344 5.06542969,7.69628906 L5.06542969,7.11865234 C5.06542969,6.94091797 4.95751953,6.83300781 4.77978516,6.83300781 L4.19580078,6.83300781 C4.02441406,6.83300781 3.91650391,6.94091797 3.91650391,7.11865234 L3.91650391,7.69628906 C3.91650391,7.87402344 4.02441406,7.98193359 4.19580078,7.98193359 L4.77978516,7.98193359 Z M4.77978516,10.0258789 C4.95751953,10.0258789 5.06542969,9.91796875 5.06542969,9.74023438 L5.06542969,9.15625 C5.06542969,8.98486328 4.95751953,8.87695312 4.77978516,8.87695312 L4.19580078,8.87695312 C4.02441406,8.87695312 3.91650391,8.98486328 3.91650391,9.15625 L3.91650391,9.74023438 C3.91650391,9.91796875 4.02441406,10.0258789 4.19580078,10.0258789 L4.77978516,10.0258789 Z M12.8857422,10.0258789 C13.1015625,10.0258789 13.2285156,9.89892578 13.2285156,9.67675781 L13.2285156,9.21972656 C13.2285156,9.00390625 13.1015625,8.87695312 12.8857422,8.87695312 L6.30322266,8.87695312 C6.08105469,8.87695312 5.95410156,9.00390625 5.95410156,9.21972656 L5.95410156,9.67675781 C5.95410156,9.89892578 6.08105469,10.0258789 6.30322266,10.0258789 L12.8857422,10.0258789 Z M14.9868164,10.0258789 C15.1645508,10.0258789 15.2724609,9.91796875 15.2724609,9.74023438 L15.2724609,9.15625 C15.2724609,8.98486328 15.1645508,8.87695312 14.9868164,8.87695312 L14.4091797,8.87695312 C14.2314453,8.87695312 14.1235352,8.98486328 14.1235352,9.15625 L14.1235352,9.74023438 C14.1235352,9.91796875 14.2314453,10.0258789 14.4091797,10.0258789 L14.9868164,10.0258789 Z" id="solid"></path>
        </g>
        <g id="light" transform="translate(-2.000000, 0.000000)" fill="#000000" fill-rule="nonzero">
            <path d="M15.6025391,12.4316406 C16.9228516,12.4316406 17.5957031,11.7714844 17.5957031,10.4638672 L17.5957031,4.36376953 C17.5957031,3.0625 16.9228516,2.40234375 15.6025391,2.40234375 L3.61181641,2.40234375 C2.27880859,2.40234375 1.61865234,3.05615234 1.61865234,4.36376953 L1.61865234,10.4638672 C1.61865234,11.7714844 2.27880859,12.4316406 3.61181641,12.4316406 L15.6025391,12.4316406 Z" id="translucent" opacity="0.35"></path>
            <path d="M15.6025391,12.4316406 C16.9228516,12.4316406 17.5957031,11.7714844 17.5957031,10.4638672 L17.5957031,4.36376953 C17.5957031,3.0625 16.9228516,2.40234375 15.6025391,2.40234375 L3.61181641,2.40234375 C2.27880859,2.40234375 1.61865234,3.05615234 1.61865234,4.36376953 L1.61865234,10.4638672 C1.61865234,11.7714844 2.27880859,12.4316406 3.61181641,12.4316406 L15.6025391,12.4316406 Z M15.5834961,11.409668 L3.62451172,11.409668 C2.98974609,11.409668 2.640625,11.0668945 2.640625,10.4067383 L2.640625,4.42089844 C2.640625,3.76074219 2.98974609,3.42431641 3.62451172,3.42431641 L15.5834961,3.42431641 C16.2119141,3.42431641 16.5737305,3.76074219 16.5737305,4.42089844 L16.5737305,10.4067383 C16.5737305,11.0668945 16.2119141,11.409668 15.5834961,11.409668 Z M4.77978516,5.93798828 C4.95751953,5.93798828 5.06542969,5.83007812 5.06542969,5.65869141 L5.06542969,5.07470703 C5.06542969,4.89697266 4.95751953,4.7890625 4.77978516,4.7890625 L4.19580078,4.7890625 C4.02441406,4.7890625 3.91650391,4.89697266 3.91650391,5.07470703 L3.91650391,5.65869141 C3.91650391,5.83007812 4.02441406,5.93798828 4.19580078,5.93798828 L4.77978516,5.93798828 Z M6.82373047,5.93798828 C6.99511719,5.93798828 7.10302734,5.83007812 7.10302734,5.65869141 L7.10302734,5.07470703 C7.10302734,4.89697266 6.99511719,4.7890625 6.82373047,4.7890625 L6.23974609,4.7890625 C6.06201172,4.7890625 5.95410156,4.89697266 5.95410156,5.07470703 L5.95410156,5.65869141 C5.95410156,5.83007812 6.06201172,5.93798828 6.23974609,5.93798828 L6.82373047,5.93798828 Z M8.86132812,5.93798828 C9.0390625,5.93798828 9.14697266,5.83007812 9.14697266,5.65869141 L9.14697266,5.07470703 C9.14697266,4.89697266 9.0390625,4.7890625 8.86132812,4.7890625 L8.28369141,4.7890625 C8.10595703,4.7890625 7.99804688,4.89697266 7.99804688,5.07470703 L7.99804688,5.65869141 C7.99804688,5.83007812 8.10595703,5.93798828 8.28369141,5.93798828 L8.86132812,5.93798828 Z M10.9052734,5.93798828 C11.0830078,5.93798828 11.190918,5.83007812 11.190918,5.65869141 L11.190918,5.07470703 C11.190918,4.89697266 11.0830078,4.7890625 10.9052734,4.7890625 L10.3212891,4.7890625 C10.1499023,4.7890625 10.0419922,4.89697266 10.0419922,5.07470703 L10.0419922,5.65869141 C10.0419922,5.83007812 10.1499023,5.93798828 10.3212891,5.93798828 L10.9052734,5.93798828 Z M12.9492188,5.93798828 C13.1206055,5.93798828 13.2285156,5.83007812 13.2285156,5.65869141 L13.2285156,5.07470703 C13.2285156,4.89697266 13.1206055,4.7890625 12.9492188,4.7890625 L12.3652344,4.7890625 C12.1875,4.7890625 12.0795898,4.89697266 12.0795898,5.07470703 L12.0795898,5.65869141 C12.0795898,5.83007812 12.1875,5.93798828 12.3652344,5.93798828 L12.9492188,5.93798828 Z M14.9868164,5.93798828 C15.1645508,5.93798828 15.2724609,5.83007812 15.2724609,5.65869141 L15.2724609,5.07470703 C15.2724609,4.89697266 15.1645508,4.7890625 14.9868164,4.7890625 L14.4091797,4.7890625 C14.2314453,4.7890625 14.1235352,4.89697266 14.1235352,5.07470703 L14.1235352,5.65869141 C14.1235352,5.83007812 14.2314453,5.93798828 14.4091797,5.93798828 L14.9868164,5.93798828 Z M14.9868164,7.98193359 C15.1645508,7.98193359 15.2724609,7.87402344 15.2724609,7.69628906 L15.2724609,7.11865234 C15.2724609,6.94091797 15.1645508,6.83300781 14.9868164,6.83300781 L14.4091797,6.83300781 C14.2314453,6.83300781 14.1235352,6.94091797 14.1235352,7.11865234 L14.1235352,7.69628906 C14.1235352,7.87402344 14.2314453,7.98193359 14.4091797,7.98193359 L14.9868164,7.98193359 Z M12.9492188,7.98193359 C13.1206055,7.98193359 13.2285156,7.87402344 13.2285156,7.69628906 L13.2285156,7.11865234 C13.2285156,6.94091797 13.1206055,6.83300781 12.9492188,6.83300781 L12.3652344,6.83300781 C12.1875,6.83300781 12.0795898,6.94091797 12.0795898,7.11865234 L12.0795898,7.69628906 C12.0795898,7.87402344 12.1875,7.98193359 12.3652344,7.98193359 L12.9492188,7.98193359 Z M10.9052734,7.98193359 C11.0830078,7.98193359 11.190918,7.87402344 11.190918,7.69628906 L11.190918,7.11865234 C11.190918,6.94091797 11.0830078,6.83300781 10.9052734,6.83300781 L10.3212891,6.83300781 C10.1499023,6.83300781 10.0419922,6.94091797 10.0419922,7.11865234 L10.0419922,7.69628906 C10.0419922,7.87402344 10.1499023,7.98193359 10.3212891,7.98193359 L10.9052734,7.98193359 Z M8.86132812,7.98193359 C9.0390625,7.98193359 9.14697266,7.87402344 9.14697266,7.69628906 L9.14697266,7.11865234 C9.14697266,6.94091797 9.0390625,6.83300781 8.86132812,6.83300781 L8.28369141,6.83300781 C8.10595703,6.83300781 7.99804688,6.94091797 7.99804688,7.11865234 L7.99804688,7.69628906 C7.99804688,7.87402344 8.10595703,7.98193359 8.28369141,7.98193359 L8.86132812,7.98193359 Z M6.82373047,7.98193359 C6.99511719,7.98193359 7.10302734,7.87402344 7.10302734,7.69628906 L7.10302734,7.11865234 C7.10302734,6.94091797 6.99511719,6.83300781 6.82373047,6.83300781 L6.23974609,6.83300781 C6.06201172,6.83300781 5.95410156,6.94091797 5.95410156,7.11865234 L5.95410156,7.69628906 C5.95410156,7.87402344 6.06201172,7.98193359 6.23974609,7.98193359 L6.82373047,7.98193359 Z M4.77978516,7.98193359 C4.95751953,7.98193359 5.06542969,7.87402344 5.06542969,7.69628906 L5.06542969,7.11865234 C5.06542969,6.94091797 4.95751953,6.83300781 4.77978516,6.83300781 L4.19580078,6.83300781 C4.02441406,6.83300781 3.91650391,6.94091797 3.91650391,7.11865234 L3.91650391,7.69628906 C3.91650391,7.87402344 4.02441406,7.98193359 4.19580078,7.98193359 L4.77978516,7.98193359 Z M4.77978516,10.0258789 C4.95751953,10.0258789 5.06542969,9.91796875 5.06542969,9.74023438 L5.06542969,9.15625 C5.06542969,8.98486328 4.95751953,8.87695312 4.77978516,8.87695312 L4.19580078,8.87695312 C4.02441406,8.87695312 3.91650391,8.98486328 3.91650391,9.15625 L3.91650391,9.74023438 C3.91650391,9.91796875 4.02441406,10.0258789 4.19580078,10.0258789 L4.77978516,10.0258789 Z M12.8857422,10.0258789 C13.1015625,10.0258789 13.2285156,9.89892578 13.2285156,9.67675781 L13.2285156,9.21972656 C13.2285156,9.00390625 13.1015625,8.87695312 12.8857422,8.87695312 L6.30322266,8.87695312 C6.08105469,8.87695312 5.95410156,9.00390625 5.95410156,9.21972656 L5.95410156,9.67675781 C5.95410156,9.89892578 6.08105469,10.0258789 6.30322266,10.0258789 L12.8857422,10.0258789 Z M14.9868164,10.0258789 C15.1645508,10.0258789 15.2724609,9.91796875 15.2724609,9.74023438 L15.2724609,9.15625 C15.2724609,8.98486328 15.1645508,8.87695312 14.9868164,8.87695312 L14.4091797,8.87695312 C14.2314453,8.87695312 14.1235352,8.98486328 14.1235352,9.15625 L14.1235352,9.74023438 C14.1235352,9.91796875 14.2314453,10.0258789 14.4091797,10.0258789 L14.9868164,10.0258789 Z" id="solid"></path>
        </g>
    </g>
</svg>