<?xml version="1.0" encoding="UTF-8"?>
<svg width="15px" height="15px" viewBox="0 0 15 15" version="1.1" xmlns="http://www.w3.org/2000/svg" xmlns:xlink="http://www.w3.org/1999/xlink">
    <title>devices/laptop</title>
    <g id="devices/laptop" stroke="none" stroke-width="1" fill="none" fill-rule="evenodd">
        <g id="dark" transform="translate(-2.000000, 1.000000)" fill="#000000" fill-rule="nonzero">
            <path d="M16.5268555,11.628418 C16.902832,11.628418 17.2143555,11.3168945 17.2143555,10.940918 C17.2143555,10.5595703 16.902832,10.2480469 16.5268555,10.2480469 L15.3935547,10.2480469 L15.3935547,3.91552734 C15.3935547,3.07226562 14.9316406,2.62646484 14.09375,2.62646484 L4.49023438,2.62646484 C3.68457031,2.62646484 3.19042969,3.07226562 3.19042969,3.91552734 L3.19042969,10.2480469 L2.05712891,10.2480469 C1.68115234,10.2480469 1.36962891,10.5595703 1.36962891,10.940918 C1.36962891,11.3168945 1.68115234,11.628418 2.05712891,11.628418 L16.5268555,11.628418 Z M14.324707,10.2480469 L4.25927734,10.2480469 L4.25927734,4.20019531 C4.25927734,3.85644531 4.42578125,3.6953125 4.76416016,3.6953125 L13.8198242,3.6953125 C14.152832,3.6953125 14.324707,3.85644531 14.324707,4.20019531 L14.324707,10.2480469 Z" id="solid"></path>
        </g>
        <g id="light" transform="translate(-2.000000, 1.000000)" fill="#000000" fill-rule="nonzero">
            <path d="M16.5268555,11.628418 C16.902832,11.628418 17.2143555,11.3168945 17.2143555,10.940918 C17.2143555,10.5595703 16.902832,10.2480469 16.5268555,10.2480469 L15.3935547,10.2480469 L15.3935547,3.91552734 C15.3935547,3.07226562 14.9316406,2.62646484 14.09375,2.62646484 L4.49023438,2.62646484 C3.68457031,2.62646484 3.19042969,3.07226562 3.19042969,3.91552734 L3.19042969,10.2480469 L2.05712891,10.2480469 C1.68115234,10.2480469 1.36962891,10.5595703 1.36962891,10.940918 C1.36962891,11.3168945 1.68115234,11.628418 2.05712891,11.628418 L16.5268555,11.628418 Z" id="translucent"></path>
            <path d="M16.5268555,11.628418 C16.902832,11.628418 17.2143555,11.3168945 17.2143555,10.940918 C17.2143555,10.5595703 16.902832,10.2480469 16.5268555,10.2480469 L15.3935547,10.2480469 L15.3935547,3.91552734 C15.3935547,3.07226562 14.9316406,2.62646484 14.09375,2.62646484 L4.49023438,2.62646484 C3.68457031,2.62646484 3.19042969,3.07226562 3.19042969,3.91552734 L3.19042969,10.2480469 L2.05712891,10.2480469 C1.68115234,10.2480469 1.36962891,10.5595703 1.36962891,10.940918 C1.36962891,11.3168945 1.68115234,11.628418 2.05712891,11.628418 L16.5268555,11.628418 Z M14.324707,10.2480469 L4.25927734,10.2480469 L4.25927734,4.20019531 C4.25927734,3.85644531 4.42578125,3.6953125 4.76416016,3.6953125 L13.8198242,3.6953125 C14.152832,3.6953125 14.324707,3.85644531 14.324707,4.20019531 L14.324707,10.2480469 Z" id="solid"></path>
        </g>
    </g>
</svg>