<?xml version="1.0" encoding="UTF-8"?>
<svg width="15px" height="15px" viewBox="0 0 15 15" version="1.1" xmlns="http://www.w3.org/2000/svg" xmlns:xlink="http://www.w3.org/1999/xlink">
    <title>devices/printer</title>
    <g id="devices/printer" stroke="none" stroke-width="1" fill="none" fill-rule="evenodd">
        <g id="dark" fill="#000000" fill-rule="nonzero">
            <path d="M12.3681641,2.19287109 L12.3681641,2.08496094 C12.3681641,1.14550781 11.6381836,0.7265625 10.6098633,0.7265625 L4.890625,0.7265625 C3.90673828,0.7265625 3.13232422,1.14550781 3.13232422,2.08496094 L3.13232422,2.19287109 L12.3681641,2.19287109 Z M9.96240234,9.84179688 C10.1845703,9.84179688 10.355957,9.67041016 10.355957,9.44189453 C10.355957,9.22607422 10.1845703,9.06103516 9.96240234,9.06103516 L5.55078125,9.06103516 C5.31591797,9.06103516 5.15087891,9.22607422 5.15087891,9.44189453 C5.15087891,9.67041016 5.31591797,9.84179688 5.55078125,9.84179688 L9.96240234,9.84179688 Z M9.96240234,12.0571289 C10.1845703,12.0571289 10.355957,11.8857422 10.355957,11.6699219 C10.355957,11.4477539 10.1845703,11.2763672 9.96240234,11.2763672 L5.55078125,11.2763672 C5.31591797,11.2763672 5.15087891,11.4477539 5.15087891,11.6699219 C5.15087891,11.8857422 5.31591797,12.0571289 5.55078125,12.0571289 L9.96240234,12.0571289 Z" id="translucent" opacity="0.25"></path>
            <path d="M11.3398438,14.3549805 C12.1459961,14.3549805 12.5522461,13.9931641 12.5522461,13.1489258 L12.5522461,11.9301758 L12.9902344,11.9301758 C14.2280273,11.9301758 14.8818359,11.3081055 14.8818359,10.0703125 L14.8818359,4.90332031 C14.8818359,3.66552734 14.2280273,3.03710938 12.9902344,3.03710938 L2.50390625,3.03710938 C1.3359375,3.03710938 0.618652344,3.66552734 0.618652344,4.90332031 L0.618652344,10.0703125 C0.618652344,11.3081055 1.27246094,11.9301758 2.50390625,11.9301758 L2.94824219,11.9301758 L2.94824219,13.1489258 C2.94824219,13.9931641 3.35449219,14.3549805 4.16064453,14.3549805 L11.3398438,14.3549805 Z M11.6635742,5.95068359 C11.2128906,5.95068359 10.8383789,5.59521484 10.8383789,5.13818359 C10.8383789,4.70019531 11.2128906,4.31933594 11.6635742,4.31933594 C12.0952148,4.31933594 12.4760742,4.70019531 12.4760742,5.13818359 C12.4760742,5.58886719 12.0952148,5.94433594 11.6635742,5.95068359 Z M11.0288086,13.402832 L4.47802734,13.402832 C4.13525391,13.402832 3.97021484,13.237793 3.97021484,12.8950195 L3.97021484,8.17871094 C3.97021484,7.84228516 4.14160156,7.67724609 4.47802734,7.67724609 L11.0288086,7.67724609 C11.3652344,7.67724609 11.5302734,7.84228516 11.5302734,8.17871094 L11.5302734,12.8950195 C11.5302734,13.237793 11.3652344,13.402832 11.0288086,13.402832 Z" id="opaque" opacity="0.75"></path>
        </g>
        <g id="light" fill="#000000" fill-rule="nonzero">
            <path d="M11.1875,14.3613281 C11.9936523,14.3613281 12.3999023,13.9931641 12.3999023,13.1489258 L12.3999023,12.4760742 L13.0727539,12.4760742 C14.3041992,12.4760742 14.9580078,11.8540039 14.9580078,10.6162109 L14.9580078,4.67480469 C14.9580078,3.44335938 14.3041992,2.81494141 13.0727539,2.81494141 L12.4443359,2.81494141 L12.4443359,2.47851562 C12.4443359,1.24072266 11.8286133,0.688476562 10.6479492,0.688476562 L4.92871094,0.688476562 C3.81152344,0.688476562 3.13232422,1.24072266 3.13232422,2.47851562 L3.13232422,2.81494141 L2.51025391,2.81494141 C1.3359375,2.81494141 0.618652344,3.44335938 0.618652344,4.67480469 L0.618652344,10.6162109 C0.618652344,11.8540039 1.27246094,12.4760742 2.51025391,12.4760742 L3.17675781,12.4760742 L3.17675781,13.1489258 C3.17675781,13.9931641 3.58300781,14.3613281 4.38916016,14.3613281 L11.1875,14.3613281 Z M11.4604492,2.81494141 L4.11621094,2.81494141 L4.11621094,2.40869141 C4.11621094,1.87548828 4.38916016,1.61523438 4.91601562,1.61523438 L10.6606445,1.61523438 C11.1938477,1.61523438 11.4604492,1.87548828 11.4604492,2.40869141 L11.4604492,2.81494141 Z M11.6635742,6.07128906 C12.0888672,6.06494141 12.4506836,5.72216797 12.4506836,5.27783203 C12.4506836,4.85888672 12.0888672,4.49072266 11.6635742,4.49072266 C11.2319336,4.49072266 10.8637695,4.85888672 10.8637695,5.27783203 C10.8637695,5.72216797 11.2319336,6.07128906 11.6635742,6.07128906 Z M10.8764648,13.402832 L4.70654297,13.402832 C4.37011719,13.402832 4.19873047,13.237793 4.19873047,12.8950195 L4.19873047,8.21679688 C4.19873047,7.87402344 4.37011719,7.71533203 4.70654297,7.71533203 L10.8764648,7.71533203 C11.2192383,7.71533203 11.3779297,7.87402344 11.3779297,8.21679688 L11.3779297,12.8950195 C11.3779297,13.237793 11.2192383,13.402832 10.8764648,13.402832 Z" id="translucent" opacity="0.25"></path>
            <path d="M11.1875,14.3613281 C11.9936523,14.3613281 12.3999023,13.9931641 12.3999023,13.1489258 L12.3999023,12.4760742 L13.0727539,12.4760742 C14.3041992,12.4760742 14.9580078,11.8540039 14.9580078,10.6162109 L14.9580078,4.67480469 C14.9580078,3.44335938 14.3041992,2.81494141 13.0727539,2.81494141 L12.4443359,2.81494141 L12.4443359,2.47851562 C12.4443359,1.24072266 11.8286133,0.688476562 10.6479492,0.688476562 L4.92871094,0.688476562 C3.81152344,0.688476562 3.13232422,1.24072266 3.13232422,2.47851562 L3.13232422,2.81494141 L2.51025391,2.81494141 C1.3359375,2.81494141 0.618652344,3.44335938 0.618652344,4.67480469 L0.618652344,10.6162109 C0.618652344,11.8540039 1.27246094,12.4760742 2.51025391,12.4760742 L3.17675781,12.4760742 L3.17675781,13.1489258 C3.17675781,13.9931641 3.58300781,14.3613281 4.38916016,14.3613281 L11.1875,14.3613281 Z M11.4604492,2.81494141 L4.11621094,2.81494141 L4.11621094,2.40869141 C4.11621094,1.87548828 4.38916016,1.61523438 4.91601562,1.61523438 L10.6606445,1.61523438 C11.1938477,1.61523438 11.4604492,1.87548828 11.4604492,2.40869141 L11.4604492,2.81494141 Z M3.17675781,11.5175781 L2.49755859,11.5175781 C1.93261719,11.5175781 1.64697266,11.2255859 1.64697266,10.6669922 L1.64697266,4.62402344 C1.64697266,4.06542969 1.93261719,3.7734375 2.49755859,3.7734375 L13.0854492,3.7734375 C13.644043,3.7734375 13.9360352,4.06542969 13.9360352,4.62402344 L13.9360352,10.6669922 C13.9360352,11.2255859 13.644043,11.5175781 13.0854492,11.5175781 L12.3999023,11.5175781 L12.3999023,7.96923828 C12.3999023,7.125 11.9936523,6.75683594 11.1875,6.75683594 L4.38916016,6.75683594 C3.62109375,6.75683594 3.17675781,7.125 3.17675781,7.96923828 L3.17675781,11.5175781 Z M11.6635742,6.07128906 C12.0888672,6.06494141 12.4506836,5.72216797 12.4506836,5.27783203 C12.4506836,4.85888672 12.0888672,4.49072266 11.6635742,4.49072266 C11.2319336,4.49072266 10.8637695,4.85888672 10.8637695,5.27783203 C10.8637695,5.72216797 11.2319336,6.07128906 11.6635742,6.07128906 Z M10.8764648,13.402832 L4.70654297,13.402832 C4.37011719,13.402832 4.19873047,13.237793 4.19873047,12.8950195 L4.19873047,8.21679688 C4.19873047,7.87402344 4.37011719,7.71533203 4.70654297,7.71533203 L10.8764648,7.71533203 C11.2192383,7.71533203 11.3779297,7.87402344 11.3779297,8.21679688 L11.3779297,12.8950195 C11.3779297,13.237793 11.2192383,13.402832 10.8764648,13.402832 Z M10.0068359,9.84179688 C10.2290039,9.84179688 10.394043,9.67041016 10.394043,9.44189453 C10.394043,9.22607422 10.2290039,9.06103516 10.0068359,9.06103516 L5.58886719,9.06103516 C5.36035156,9.06103516 5.18896484,9.22607422 5.18896484,9.44189453 C5.18896484,9.67041016 5.36035156,9.84179688 5.58886719,9.84179688 L10.0068359,9.84179688 Z M10.0068359,12.0571289 C10.2290039,12.0571289 10.394043,11.8857422 10.394043,11.6699219 C10.394043,11.4477539 10.2290039,11.2763672 10.0068359,11.2763672 L5.58886719,11.2763672 C5.36035156,11.2763672 5.18896484,11.4477539 5.18896484,11.6699219 C5.18896484,11.8857422 5.36035156,12.0571289 5.58886719,12.0571289 L10.0068359,12.0571289 Z" id="solid" opacity="0.5"></path>
        </g>
    </g>
</svg>