<?xml version="1.0" encoding="UTF-8"?>
<svg width="15px" height="15px" viewBox="0 0 15 15" version="1.1" xmlns="http://www.w3.org/2000/svg" xmlns:xlink="http://www.w3.org/1999/xlink">
    <title>devices/server-rack</title>
    <g id="devices/server-rack" stroke="none" stroke-width="1" fill="none" fill-rule="evenodd">
        <g id="dark" transform="translate(-2.000000, 0.000000)" fill="#000000" fill-rule="nonzero" opacity="0.75">
            <path d="M14.5932617,13.2695312 C15.9262695,13.2695312 16.5864258,12.609375 16.5864258,11.3017578 L16.5864258,3.55126953 C16.5864258,2.24365234 15.9262695,1.58349609 14.5932617,1.58349609 L3.61181641,1.58349609 C2.28515625,1.58349609 1.61865234,2.23730469 1.61865234,3.55126953 L1.61865234,11.3017578 C1.61865234,12.6157227 2.28515625,13.2695312 3.61181641,13.2695312 L14.5932617,13.2695312 Z M15.5644531,5.18261719 L2.640625,5.18261719 L2.640625,3.60205078 C2.640625,2.94189453 2.98974609,2.60546875 3.62451172,2.60546875 L14.5805664,2.60546875 C15.2089844,2.60546875 15.5644531,2.94189453 15.5644531,3.60205078 L15.5644531,5.18261719 Z M13.3364258,4.70654297 C13.7744141,4.69384766 14.1362305,4.33203125 14.1362305,3.89404297 C14.1362305,3.44970703 13.7744141,3.07519531 13.3364258,3.07519531 C12.8984375,3.07519531 12.5239258,3.44970703 12.5239258,3.89404297 C12.5239258,4.33203125 12.8984375,4.71289062 13.3364258,4.70654297 Z M15.5644531,8.71191406 L2.640625,8.71191406 L2.640625,6.14111328 L15.5644531,6.14111328 L15.5644531,8.71191406 Z M13.3364258,8.22314453 C13.7744141,8.21044922 14.1362305,7.84863281 14.1362305,7.41064453 C14.1362305,6.96630859 13.7744141,6.59179688 13.3364258,6.59179688 C12.8984375,6.59179688 12.5239258,6.96630859 12.5239258,7.41064453 C12.5239258,7.84863281 12.8984375,8.22949219 13.3364258,8.22314453 Z M14.5805664,12.2475586 L3.62451172,12.2475586 C2.98974609,12.2475586 2.640625,11.9111328 2.640625,11.2509766 L2.640625,9.67041016 L15.5644531,9.67041016 L15.5644531,11.2509766 C15.5644531,11.9111328 15.2089844,12.2475586 14.5805664,12.2475586 Z M13.3364258,11.7397461 C13.7744141,11.7270508 14.1362305,11.3652344 14.1362305,10.9272461 C14.1362305,10.4829102 13.7744141,10.1083984 13.3364258,10.1083984 C12.8984375,10.1083984 12.5239258,10.4829102 12.5239258,10.9272461 C12.5239258,11.3652344 12.8984375,11.7460938 13.3364258,11.7397461 Z" id="opaque"></path>
        </g>
        <g id="light" transform="translate(-1.000000, 1.000000)" fill="#000000" fill-rule="nonzero">
            <path d="M13.5932617,12.2695312 C14.9262695,12.2695312 15.5864258,11.609375 15.5864258,10.3017578 L15.5864258,2.55126953 C15.5864258,1.24365234 14.9262695,0.583496094 13.5932617,0.583496094 L2.61181641,0.583496094 C1.28515625,0.583496094 0.618652344,1.23730469 0.618652344,2.55126953 L0.618652344,10.3017578 C0.618652344,11.6157227 1.28515625,12.2695312 2.61181641,12.2695312 L13.5932617,12.2695312 Z" id="translucent" opacity="0.25"></path>
            <path d="M13.5932617,12.2695312 C14.9262695,12.2695312 15.5864258,11.609375 15.5864258,10.3017578 L15.5864258,2.55126953 C15.5864258,1.24365234 14.9262695,0.583496094 13.5932617,0.583496094 L2.61181641,0.583496094 C1.28515625,0.583496094 0.618652344,1.23730469 0.618652344,2.55126953 L0.618652344,10.3017578 C0.618652344,11.6157227 1.28515625,12.2695312 2.61181641,12.2695312 L13.5932617,12.2695312 Z M14.5644531,4.18261719 L1.640625,4.18261719 L1.640625,2.60205078 C1.640625,1.94189453 1.98974609,1.60546875 2.62451172,1.60546875 L13.5805664,1.60546875 C14.2089844,1.60546875 14.5644531,1.94189453 14.5644531,2.60205078 L14.5644531,4.18261719 Z M12.3364258,3.70654297 C12.7744141,3.69384766 13.1362305,3.33203125 13.1362305,2.89404297 C13.1362305,2.44970703 12.7744141,2.07519531 12.3364258,2.07519531 C11.8984375,2.07519531 11.5239258,2.44970703 11.5239258,2.89404297 C11.5239258,3.33203125 11.8984375,3.71289062 12.3364258,3.70654297 Z M14.5644531,7.71191406 L1.640625,7.71191406 L1.640625,5.14111328 L14.5644531,5.14111328 L14.5644531,7.71191406 Z M12.3364258,7.22314453 C12.7744141,7.21044922 13.1362305,6.84863281 13.1362305,6.41064453 C13.1362305,5.96630859 12.7744141,5.59179688 12.3364258,5.59179688 C11.8984375,5.59179688 11.5239258,5.96630859 11.5239258,6.41064453 C11.5239258,6.84863281 11.8984375,7.22949219 12.3364258,7.22314453 Z M13.5805664,11.2475586 L2.62451172,11.2475586 C1.98974609,11.2475586 1.640625,10.9111328 1.640625,10.2509766 L1.640625,8.67041016 L14.5644531,8.67041016 L14.5644531,10.2509766 C14.5644531,10.9111328 14.2089844,11.2475586 13.5805664,11.2475586 Z M12.3364258,10.7397461 C12.7744141,10.7270508 13.1362305,10.3652344 13.1362305,9.92724609 C13.1362305,9.48291016 12.7744141,9.10839844 12.3364258,9.10839844 C11.8984375,9.10839844 11.5239258,9.48291016 11.5239258,9.92724609 C11.5239258,10.3652344 11.8984375,10.7460938 12.3364258,10.7397461 Z" id="solid" opacity="0.5"></path>
        </g>
    </g>
</svg>