<?xml version="1.0" encoding="UTF-8"?>
<svg width="15px" height="15px" viewBox="0 0 15 15" version="1.1" xmlns="http://www.w3.org/2000/svg" xmlns:xlink="http://www.w3.org/1999/xlink">
    <title>devices/server-rack</title>
    <g id="devices/server-rack" stroke="none" stroke-width="1" fill="none" fill-rule="evenodd">
        <g id="dark" transform="translate(-2.000000, 0.000000)" fill="#000000" fill-rule="nonzero">
            <path d="M14.5932617,13.2695312 C15.9262695,13.2695312 16.5864258,12.609375 16.5864258,11.3017578 L16.5864258,3.55126953 C16.5864258,2.24365234 15.9262695,1.58349609 14.5932617,1.58349609 L3.61181641,1.58349609 C2.28515625,1.58349609 1.61865234,2.23730469 1.61865234,3.55126953 L1.61865234,11.3017578 C1.61865234,12.6157227 2.28515625,13.2695312 3.61181641,13.2695312 L14.5932617,13.2695312 Z M15.5644531,5.18261719 L2.640625,5.18261719 L2.640625,3.60205078 C2.640625,2.94189453 2.98974609,2.60546875 3.62451172,2.60546875 L14.5805664,2.60546875 C15.2089844,2.60546875 15.5644531,2.94189453 15.5644531,3.60205078 L15.5644531,5.18261719 Z M13.3364258,4.70654297 C13.7744141,4.69384766 14.1362305,4.33203125 14.1362305,3.89404297 C14.1362305,3.44970703 13.7744141,3.07519531 13.3364258,3.07519531 C12.8984375,3.07519531 12.5239258,3.44970703 12.5239258,3.89404297 C12.5239258,4.33203125 12.8984375,4.71289062 13.3364258,4.70654297 Z M15.5644531,8.71191406 L2.640625,8.71191406 L2.640625,6.14111328 L15.5644531,6.14111328 L15.5644531,8.71191406 Z M13.3364258,8.22314453 C13.7744141,8.21044922 14.1362305,7.84863281 14.1362305,7.41064453 C14.1362305,6.96630859 13.7744141,6.59179688 13.3364258,6.59179688 C12.8984375,6.59179688 12.5239258,6.96630859 12.5239258,7.41064453 C12.5239258,7.84863281 12.8984375,8.22949219 13.3364258,8.22314453 Z M14.5805664,12.2475586 L3.62451172,12.2475586 C2.98974609,12.2475586 2.640625,11.9111328 2.640625,11.2509766 L2.640625,9.67041016 L15.5644531,9.67041016 L15.5644531,11.2509766 C15.5644531,11.9111328 15.2089844,12.2475586 14.5805664,12.2475586 Z M13.3364258,11.7397461 C13.7744141,11.7270508 14.1362305,11.3652344 14.1362305,10.9272461 C14.1362305,10.4829102 13.7744141,10.1083984 13.3364258,10.1083984 C12.8984375,10.1083984 12.5239258,10.4829102 12.5239258,10.9272461 C12.5239258,11.3652344 12.8984375,11.7460938 13.3364258,11.7397461 Z" id="solid"></path>
        </g>
        <g id="light" transform="translate(-2.000000, 0.000000)" fill="#000000" fill-rule="nonzero">
            <path d="M14.5932617,13.2695312 C15.9262695,13.2695312 16.5864258,12.609375 16.5864258,11.3017578 L16.5864258,3.55126953 C16.5864258,2.24365234 15.9262695,1.58349609 14.5932617,1.58349609 L3.61181641,1.58349609 C2.28515625,1.58349609 1.61865234,2.23730469 1.61865234,3.55126953 L1.61865234,11.3017578 C1.61865234,12.6157227 2.28515625,13.2695312 3.61181641,13.2695312 L14.5932617,13.2695312 Z" id="translucent" opacity="0.35"></path>
            <path d="M14.5932617,13.2695312 C15.9262695,13.2695312 16.5864258,12.609375 16.5864258,11.3017578 L16.5864258,3.55126953 C16.5864258,2.24365234 15.9262695,1.58349609 14.5932617,1.58349609 L3.61181641,1.58349609 C2.28515625,1.58349609 1.61865234,2.23730469 1.61865234,3.55126953 L1.61865234,11.3017578 C1.61865234,12.6157227 2.28515625,13.2695312 3.61181641,13.2695312 L14.5932617,13.2695312 Z M15.5644531,5.18261719 L2.640625,5.18261719 L2.640625,3.60205078 C2.640625,2.94189453 2.98974609,2.60546875 3.62451172,2.60546875 L14.5805664,2.60546875 C15.2089844,2.60546875 15.5644531,2.94189453 15.5644531,3.60205078 L15.5644531,5.18261719 Z M13.3364258,4.70654297 C13.7744141,4.69384766 14.1362305,4.33203125 14.1362305,3.89404297 C14.1362305,3.44970703 13.7744141,3.07519531 13.3364258,3.07519531 C12.8984375,3.07519531 12.5239258,3.44970703 12.5239258,3.89404297 C12.5239258,4.33203125 12.8984375,4.71289062 13.3364258,4.70654297 Z M15.5644531,8.71191406 L2.640625,8.71191406 L2.640625,6.14111328 L15.5644531,6.14111328 L15.5644531,8.71191406 Z M13.3364258,8.22314453 C13.7744141,8.21044922 14.1362305,7.84863281 14.1362305,7.41064453 C14.1362305,6.96630859 13.7744141,6.59179688 13.3364258,6.59179688 C12.8984375,6.59179688 12.5239258,6.96630859 12.5239258,7.41064453 C12.5239258,7.84863281 12.8984375,8.22949219 13.3364258,8.22314453 Z M14.5805664,12.2475586 L3.62451172,12.2475586 C2.98974609,12.2475586 2.640625,11.9111328 2.640625,11.2509766 L2.640625,9.67041016 L15.5644531,9.67041016 L15.5644531,11.2509766 C15.5644531,11.9111328 15.2089844,12.2475586 14.5805664,12.2475586 Z M13.3364258,11.7397461 C13.7744141,11.7270508 14.1362305,11.3652344 14.1362305,10.9272461 C14.1362305,10.4829102 13.7744141,10.1083984 13.3364258,10.1083984 C12.8984375,10.1083984 12.5239258,10.4829102 12.5239258,10.9272461 C12.5239258,11.3652344 12.8984375,11.7460938 13.3364258,11.7397461 Z" id="solid"></path>
        </g>
    </g>
</svg>