<?xml version="1.0" encoding="UTF-8"?>
<svg width="15px" height="15px" viewBox="0 0 15 15" version="1.1" xmlns="http://www.w3.org/2000/svg" xmlns:xlink="http://www.w3.org/1999/xlink">
    <title>devices/tv</title>
    <g id="devices/tv" stroke="none" stroke-width="1" fill="none" fill-rule="evenodd">
        <g id="dark" transform="translate(-2.000000, 0.000000)" fill="#000000" fill-rule="nonzero">
            <path d="M15.84375,11.6064453 C16.9291992,11.6064453 17.46875,11.0859375 17.46875,9.97509766 L17.46875,2.70068359 C17.46875,1.58984375 16.9291992,1.06933594 15.84375,1.06933594 L3.25,1.06933594 C2.16455078,1.06933594 1.61865234,1.58984375 1.61865234,2.70068359 L1.61865234,9.97509766 C1.61865234,11.0859375 2.16455078,11.6064453 3.25,11.6064453 L15.84375,11.6064453 Z M13.0888672,13.7519531 C13.3681641,13.7519531 13.6030273,13.5234375 13.6030273,13.2441406 C13.6030273,12.9584961 13.3681641,12.7236328 13.0888672,12.7236328 L6.00488281,12.7236328 C5.71923828,12.7236328 5.49072266,12.9584961 5.49072266,13.2441406 C5.49072266,13.5234375 5.71923828,13.7519531 6.00488281,13.7519531 L13.0888672,13.7519531 Z" id="solid"></path>
        </g>
        <g id="light" transform="translate(-1.000000, 1.000000)" fill="#000000" fill-rule="nonzero">
            <path d="M14.84375,10.6064453 C15.9291992,10.6064453 16.46875,10.0859375 16.46875,8.97509766 L16.46875,1.70068359 C16.46875,0.58984375 15.9291992,0.0693359375 14.84375,0.0693359375 L2.25,0.0693359375 C1.16455078,0.0693359375 0.618652344,0.58984375 0.618652344,1.70068359 L0.618652344,8.97509766 C0.618652344,10.0859375 1.16455078,10.6064453 2.25,10.6064453 L14.84375,10.6064453 Z M12.0888672,12.7519531 C12.3681641,12.7519531 12.6030273,12.5234375 12.6030273,12.2441406 C12.6030273,11.9584961 12.3681641,11.7236328 12.0888672,11.7236328 L5.00488281,11.7236328 C4.71923828,11.7236328 4.49072266,11.9584961 4.49072266,12.2441406 C4.49072266,12.5234375 4.71923828,12.7519531 5.00488281,12.7519531 L12.0888672,12.7519531 Z" id="translucent" opacity="0.35"></path>
            <path d="M14.84375,10.6064453 C15.9291992,10.6064453 16.46875,10.0859375 16.46875,8.97509766 L16.46875,1.70068359 C16.46875,0.58984375 15.9291992,0.0693359375 14.84375,0.0693359375 L2.25,0.0693359375 C1.16455078,0.0693359375 0.618652344,0.58984375 0.618652344,1.70068359 L0.618652344,8.97509766 C0.618652344,10.0859375 1.16455078,10.6064453 2.25,10.6064453 L14.84375,10.6064453 Z M14.824707,9.58447266 L2.26904297,9.58447266 C1.83105469,9.58447266 1.640625,9.40673828 1.640625,8.95605469 L1.640625,1.71337891 C1.640625,1.26904297 1.83105469,1.09130859 2.26904297,1.09130859 L14.824707,1.09130859 C15.2563477,1.09130859 15.4467773,1.26904297 15.4467773,1.71337891 L15.4467773,8.95605469 C15.4467773,9.40673828 15.2563477,9.58447266 14.824707,9.58447266 Z M12.0888672,12.7519531 C12.3681641,12.7519531 12.6030273,12.5234375 12.6030273,12.2441406 C12.6030273,11.9584961 12.3681641,11.7236328 12.0888672,11.7236328 L5.00488281,11.7236328 C4.71923828,11.7236328 4.49072266,11.9584961 4.49072266,12.2441406 C4.49072266,12.5234375 4.71923828,12.7519531 5.00488281,12.7519531 L12.0888672,12.7519531 Z" id="solid"></path>
        </g>
    </g>
</svg>