<?xml version="1.0" encoding="UTF-8"?>
<svg width="15px" height="15px" viewBox="0 0 15 15" version="1.1" xmlns="http://www.w3.org/2000/svg" xmlns:xlink="http://www.w3.org/1999/xlink">
    <title>human/ear</title>
    <g id="human/ear" stroke="none" stroke-width="1" fill="none" fill-rule="evenodd">
        <g id="dark" fill="#7B7B7B" fill-rule="nonzero">
            <path d="M5.66552734,13.5742188 C6.94140625,13.5742188 7.89355469,13.015625 8.49658203,11.9365234 L9.06787109,10.9145508 C10.4072266,8.46435547 12.6162109,8.14697266 12.6162109,4.99853516 C12.6162109,2.02783203 10.6928711,0.041015625 7.81103516,0.041015625 C4.859375,0.041015625 2.86621094,2.04052734 2.86621094,5.02392578 L2.86621094,10.7050781 C2.86621094,12.4570312 3.95800781,13.5742188 5.66552734,13.5742188 Z M7.50634766,9.62597656 C7.24609375,9.62597656 7.02392578,9.41015625 7.02392578,9.14990234 C7.02392578,9.02929688 7.06835938,8.91503906 7.15087891,8.80712891 L7.91259766,7.84863281 C8.06494141,7.66455078 8.16650391,7.39794922 8.16650391,7.20117188 C8.16650391,6.8203125 7.89355469,6.56005859 7.46191406,6.56005859 L5.53222656,6.56005859 L5.53222656,7.96289062 C5.53222656,8.22314453 5.31005859,8.4453125 5.04980469,8.4453125 C4.78955078,8.4453125 4.57373047,8.22314453 4.57373047,7.96289062 L4.57373047,4.79541016 C4.57373047,3.01171875 5.82421875,1.81201172 7.8046875,1.81201172 C9.72167969,1.81201172 10.9150391,3.01171875 10.9150391,4.79541016 C10.9150391,5.05566406 10.6928711,5.27783203 10.4326172,5.27783203 C10.1723633,5.27783203 9.95654297,5.05566406 9.95654297,4.79541016 C9.95654297,3.5703125 9.16308594,2.77050781 7.8046875,2.77050781 C6.3828125,2.77050781 5.53222656,3.57666016 5.53222656,4.79541016 L5.53222656,5.6015625 L7.44921875,5.6015625 C8.47753906,5.6015625 9.15673828,6.22998047 9.15673828,7.16308594 C9.15673828,7.55664062 8.98535156,8.0390625 8.72509766,8.36914062 L7.89990234,9.41650391 C7.79199219,9.54980469 7.65234375,9.62597656 7.50634766,9.62597656 Z" id="fill"></path>
        </g>
        <g id="light" transform="translate(2.000000, 0.000000)" fill="#7B7B7B" fill-rule="nonzero">
            <path d="M3.66552734,13.5742188 C4.94140625,13.5742188 5.89355469,13.015625 6.49658203,11.9365234 L7.06787109,10.9145508 C8.40722656,8.46435547 10.6162109,8.14697266 10.6162109,4.99853516 C10.6162109,2.02783203 8.69287109,0.041015625 5.81103516,0.041015625 C2.859375,0.041015625 0.866210938,2.04052734 0.866210938,5.02392578 L0.866210938,10.7050781 C0.866210938,12.4570312 1.95800781,13.5742188 3.66552734,13.5742188 Z" id="fill" opacity="0.35"></path>
            <path d="M3.66552734,13.5742188 C4.94140625,13.5742188 5.89355469,13.015625 6.49658203,11.9365234 L7.06787109,10.9145508 C8.40722656,8.46435547 10.6162109,8.14697266 10.6162109,4.99853516 C10.6162109,2.02783203 8.69287109,0.041015625 5.81103516,0.041015625 C2.859375,0.041015625 0.866210938,2.04052734 0.866210938,5.02392578 L0.866210938,10.7050781 C0.866210938,12.4570312 1.95800781,13.5742188 3.66552734,13.5742188 Z M3.70996094,12.590332 C2.53564453,12.590332 1.82470703,11.8540039 1.82470703,10.6416016 L1.82470703,5.02392578 C1.82470703,2.60546875 3.41796875,0.999511719 5.81103516,0.999511719 C8.12158203,0.999511719 9.65771484,2.60546875 9.65771484,4.99853516 C9.65771484,7.6328125 7.59472656,8.08984375 6.2109375,10.4829102 L5.65869141,11.4287109 C5.20800781,12.2158203 4.57958984,12.590332 3.70996094,12.590332 Z M5.31591797,9.43554688 C5.46191406,9.43554688 5.6015625,9.359375 5.70947266,9.22607422 L6.53466797,8.17871094 C6.79492188,7.84863281 6.96630859,7.36621094 6.96630859,6.97265625 C6.96630859,6.03955078 6.28710938,5.41113281 5.25878906,5.41113281 L3.65917969,5.41113281 L3.65917969,4.98583984 C3.65917969,3.76708984 4.50976562,2.9609375 5.8046875,2.9609375 C7.03613281,2.9609375 7.82958984,3.76074219 7.82958984,4.98583984 C7.82958984,5.24609375 8.04541016,5.46826172 8.30566406,5.46826172 C8.56591797,5.46826172 8.78808594,5.24609375 8.78808594,4.98583984 C8.78808594,3.20214844 7.59472656,2.00244141 5.8046875,2.00244141 C3.95117188,2.00244141 2.70068359,3.20214844 2.70068359,4.98583984 L2.70068359,7.77246094 C2.70068359,8.03271484 2.91650391,8.25488281 3.17675781,8.25488281 C3.43701172,8.25488281 3.65917969,8.03271484 3.65917969,7.77246094 L3.65917969,6.36962891 L5.27148438,6.36962891 C5.703125,6.36962891 5.97607422,6.62988281 5.97607422,7.01074219 C5.97607422,7.20751953 5.87451172,7.47412109 5.72216797,7.65820312 L4.96044922,8.61669922 C4.87792969,8.72460938 4.83349609,8.83886719 4.83349609,8.95947266 C4.83349609,9.21972656 5.05566406,9.43554688 5.31591797,9.43554688 Z" id="stroke"></path>
        </g>
    </g>
</svg>
