<?xml version="1.0" encoding="UTF-8"?>
<svg width="15px" height="15px" viewBox="0 0 15 15" version="1.1" xmlns="http://www.w3.org/2000/svg" xmlns:xlink="http://www.w3.org/1999/xlink">
    <title>human/eyebrow</title>
    <g id="human/eyebrow" stroke="none" stroke-width="1" fill="none" fill-rule="evenodd" opacity="0.75">
        <g id="dark" fill="#000000" fill-rule="nonzero">
            <path d="M2.48193359,6.96630859 C3.68164063,6.96630859 7.72509766,4.05908203 9.69287109,4.05908203 C10.3847656,4.05908203 10.9941406,4.33837891 11.6352539,4.92236328 L13.2285156,6.38867188 C13.7553711,6.87109375 14.5043945,6.29980469 14.1933594,5.76025391 C13.9140625,5.30322266 13.4887695,4.66845703 12.5493164,3.62744141 C11.5336914,2.49755859 10.6069336,1.78027344 9.15332031,1.78027344 C7.26806641,1.78027344 4.39892578,2.87207031 1.73291016,4.28759766 C0.596679687,4.890625 1.21240234,6.96630859 2.48193359,6.96630859 Z M9.32470703,12.5332031 C9.33740234,12.1269531 9.30566406,11.6254883 9.27392578,11.2636719 C9.79443359,11.1938477 10.2832031,11.0859375 10.746582,10.9272461 C10.9560547,11.4604492 11.0322266,11.9619141 11.0830078,12.1904297 C11.1972656,12.831543 12.0478516,12.5458984 11.9082031,11.980957 C11.7939453,11.4921875 11.6542969,10.9970703 11.4956055,10.6162109 C12.0478516,10.3432617 12.5239258,10.0004883 12.9111328,9.58789062 C13.425293,9.03564453 12.6635742,8.26123047 12.0668945,8.8515625 C11.2290039,9.68310547 9.80078125,10.1972656 8.2265625,10.1972656 C6.5,10.1972656 4.85595703,9.79736328 3.28173828,8.94042969 C2.56445312,8.546875 2.03125,9.56884766 2.77392578,9.96240234 C3.13574219,10.152832 3.49755859,10.3242188 3.86572266,10.4702148 C3.70703125,10.762207 3.43408203,11.2001953 3.25634766,11.3842773 C2.81201172,11.8476562 3.45947266,12.4189453 3.90380859,11.9365234 C4.23388672,11.574707 4.51318359,11.0478516 4.66552734,10.762207 C5.12890625,10.9145508 5.60498047,11.0351562 6.08105469,11.1240234 C5.96044922,11.612793 5.81445312,12.1015625 5.71923828,12.3173828 C5.45898438,12.9140625 6.26513672,13.2250977 6.51904297,12.6157227 C6.69042969,12.1904297 6.81738281,11.6000977 6.88085938,11.2446289 C7.32519531,11.3017578 7.77587891,11.3271484 8.2265625,11.3271484 C8.30908203,11.3271484 8.39160156,11.3208008 8.47412109,11.3208008 C8.51220703,11.8095703 8.48681641,12.3046875 8.47412109,12.5268555 C8.44238281,13.1743164 9.31201172,13.1870117 9.32470703,12.5332031 Z" id="opaque"></path>
        </g>
        <g id="light" fill="#000000" fill-rule="nonzero">
            <path d="M2.48193359,6.96630859 C3.68164063,6.96630859 7.72509766,4.05908203 9.69287109,4.05908203 C10.3847656,4.05908203 10.9941406,4.33837891 11.6352539,4.92236328 L13.2285156,6.38867188 C13.7553711,6.87109375 14.5043945,6.29980469 14.1933594,5.76025391 C13.9140625,5.30322266 13.4887695,4.66845703 12.5493164,3.62744141 C11.5336914,2.49755859 10.6069336,1.78027344 9.15332031,1.78027344 C7.26806641,1.78027344 4.39892578,2.87207031 1.73291016,4.28759766 C0.596679687,4.890625 1.21240234,6.96630859 2.48193359,6.96630859 Z M9.32470703,12.5332031 C9.33740234,12.1269531 9.30566406,11.6254883 9.27392578,11.2636719 C9.79443359,11.1938477 10.2832031,11.0859375 10.746582,10.9272461 C10.9560547,11.4604492 11.0322266,11.9619141 11.0830078,12.1904297 C11.1972656,12.831543 12.0478516,12.5458984 11.9082031,11.980957 C11.7939453,11.4921875 11.6542969,10.9970703 11.4956055,10.6162109 C12.0478516,10.3432617 12.5239258,10.0004883 12.9111328,9.58789062 C13.425293,9.03564453 12.6635742,8.26123047 12.0668945,8.8515625 C11.2290039,9.68310547 9.80078125,10.1972656 8.2265625,10.1972656 C6.5,10.1972656 4.85595703,9.79736328 3.28173828,8.94042969 C2.56445312,8.546875 2.03125,9.56884766 2.77392578,9.96240234 C3.13574219,10.152832 3.49755859,10.3242188 3.86572266,10.4702148 C3.70703125,10.762207 3.43408203,11.2001953 3.25634766,11.3842773 C2.81201172,11.8476562 3.45947266,12.4189453 3.90380859,11.9365234 C4.23388672,11.574707 4.51318359,11.0478516 4.66552734,10.762207 C5.12890625,10.9145508 5.60498047,11.0351562 6.08105469,11.1240234 C5.96044922,11.612793 5.81445312,12.1015625 5.71923828,12.3173828 C5.45898438,12.9140625 6.26513672,13.2250977 6.51904297,12.6157227 C6.69042969,12.1904297 6.81738281,11.6000977 6.88085938,11.2446289 C7.32519531,11.3017578 7.77587891,11.3271484 8.2265625,11.3271484 C8.30908203,11.3271484 8.39160156,11.3208008 8.47412109,11.3208008 C8.51220703,11.8095703 8.48681641,12.3046875 8.47412109,12.5268555 C8.44238281,13.1743164 9.31201172,13.1870117 9.32470703,12.5332031 Z" id="opaque"></path>
        </g>
    </g>
</svg>