<?xml version="1.0" encoding="UTF-8"?>
<svg width="15px" height="15px" viewBox="0 0 15 15" version="1.1" xmlns="http://www.w3.org/2000/svg" xmlns:xlink="http://www.w3.org/1999/xlink">
    <title>human/eyes</title>
    <g id="human/eyes" stroke="none" stroke-width="1" fill="none" fill-rule="evenodd">
        <g id="dark" transform="translate(-1.000000, 0.000000)" fill="#000000" fill-rule="nonzero">
            <path d="M4.53857422,13.1171875 C6.44287109,13.1171875 7.95996094,10.8066406 7.95996094,7.41699219 C7.95996094,4.02734375 6.44287109,1.72314453 4.53857422,1.72314453 C2.75488281,1.72314453 1.30761719,3.76074219 1.13623047,6.8203125 C1.43457031,6.23632812 2.00585938,5.88720703 2.75488281,5.88720703 C3.859375,5.88720703 4.58935547,6.66162109 4.58935547,7.80419922 C4.58935547,8.96582031 3.859375,9.73388672 2.75488281,9.73388672 C2.08203125,9.73388672 1.54882812,9.45458984 1.23144531,8.97216797 C1.61865234,11.4921875 2.9453125,13.1171875 4.53857422,13.1171875 Z M12.4541016,13.1171875 C14.3583984,13.1171875 15.8754883,10.8066406 15.8754883,7.41699219 C15.8754883,4.02734375 14.3583984,1.72314453 12.4541016,1.72314453 C10.6704102,1.72314453 9.22314453,3.76074219 9.05175781,6.8203125 C9.35009766,6.23632812 9.92138672,5.88720703 10.6640625,5.88720703 C11.7749023,5.88720703 12.5048828,6.66162109 12.5048828,7.80419922 C12.5048828,8.96582031 11.7749023,9.73388672 10.6640625,9.73388672 C9.99755859,9.73388672 9.46435547,9.45458984 9.14697266,8.97216797 C9.53417969,11.4921875 10.8608398,13.1171875 12.4541016,13.1171875 Z M2.73583984,7.125 C2.79296875,6.83935547 2.65332031,6.56640625 2.41210938,6.52197266 C2.18994141,6.47753906 1.95507812,6.68701172 1.90429688,6.97265625 C1.85351562,7.26464844 2.00585938,7.53759766 2.234375,7.57568359 C2.46289062,7.62011719 2.67236328,7.41064453 2.73583984,7.125 Z M10.6513672,7.125 C10.7021484,6.83935547 10.5625,6.56005859 10.3276367,6.52197266 C10.1054688,6.47753906 9.87060547,6.68701172 9.81982422,6.97265625 C9.76904297,7.26464844 9.91503906,7.53125 10.1499023,7.57568359 C10.3720703,7.62011719 10.5942383,7.41064453 10.6513672,7.125 Z" id="solid"></path>
        </g>
        <g id="light" transform="translate(-1.000000, 0.000000)" fill="#000000" fill-rule="nonzero">
            <path d="M4.61474609,13.2060547 C6.54443359,13.2060547 8.08691406,10.8574219 8.08691406,7.41699219 C8.08691406,3.97021484 6.54443359,1.63427734 4.61474609,1.63427734 C2.67871094,1.63427734 1.13623047,3.97021484 1.13623047,7.41699219 C1.13623047,10.8574219 2.67871094,13.2060547 4.61474609,13.2060547 Z M12.4985352,13.2060547 C14.4345703,13.2060547 15.9770508,10.8574219 15.9770508,7.41699219 C15.9770508,3.97021484 14.4345703,1.63427734 12.4985352,1.63427734 C10.5688477,1.63427734 9.02636719,3.97021484 9.02636719,7.41699219 C9.02636719,10.8574219 10.5688477,13.2060547 12.4985352,13.2060547 Z" id="translucent" opacity="0.35"></path>
            <path d="M4.61474609,13.2060547 C6.54443359,13.2060547 8.08691406,10.8574219 8.08691406,7.41699219 C8.08691406,3.97021484 6.54443359,1.63427734 4.61474609,1.63427734 C2.67871094,1.63427734 1.13623047,3.97021484 1.13623047,7.41699219 C1.13623047,10.8574219 2.67871094,13.2060547 4.61474609,13.2060547 Z M12.4985352,13.2060547 C14.4345703,13.2060547 15.9770508,10.8574219 15.9770508,7.41699219 C15.9770508,3.97021484 14.4345703,1.63427734 12.4985352,1.63427734 C10.5688477,1.63427734 9.02636719,3.97021484 9.02636719,7.41699219 C9.02636719,10.8574219 10.5688477,13.2060547 12.4985352,13.2060547 Z M4.61474609,12.3110352 C3.56738281,12.3110352 2.640625,11.1875 2.24707031,9.38476562 C2.52001953,9.5625 2.85644531,9.65771484 3.24365234,9.65771484 C4.30371094,9.65771484 5.00830078,8.92138672 5.00830078,7.80419922 C5.00830078,6.70605469 4.30371094,5.96337891 3.24365234,5.96337891 C2.78662109,5.96337891 2.39941406,6.09667969 2.10742188,6.33789062 C2.35498047,4.04638672 3.40234375,2.54199219 4.61474609,2.52928171 C6.01757812,2.52294922 7.19189453,4.50976562 7.19189453,7.41699219 C7.19189453,10.3051758 6.01757812,12.2983398 4.61474609,12.3110352 Z M12.4985352,12.3046875 C11.4448242,12.3046875 10.5180664,11.1748047 10.1245117,9.38476562 C10.3974609,9.55615234 10.7402344,9.65771484 11.1210938,9.65771484 C12.1811523,9.65771484 12.8984375,8.92138672 12.8984375,7.80419922 C12.8984375,6.70605469 12.1811523,5.96337891 11.1210938,5.96337891 C10.6704102,5.96337891 10.2768555,6.09667969 9.97851562,6.33789062 C10.2324219,4.04638672 11.2797852,2.54199219 12.4985352,2.53564453 C13.8886719,2.53564453 15.0693359,4.52246094 15.0693359,7.41699219 C15.0693359,10.3115234 13.8886719,12.2983398 12.4985352,12.3046875 Z M2.7421875,7.58837891 C2.51367188,7.55664062 2.37402344,7.28369141 2.42480469,7.00439453 C2.48193359,6.73144531 2.69775391,6.52832031 2.91357422,6.57275391 C3.14208984,6.6171875 3.28173828,6.87744141 3.22460938,7.15039062 C3.17382812,7.4296875 2.96435547,7.62646484 2.7421875,7.58837891 Z M10.6196289,7.58837891 C10.3974609,7.55029297 10.2514648,7.28369141 10.3085938,7.00439453 C10.3657227,6.73144531 10.5751953,6.52832031 10.7973633,6.57275391 C11.0258789,6.61083984 11.1591797,6.87744141 11.1020508,7.15039062 C11.0512695,7.4296875 10.8417969,7.62646484 10.6196289,7.58837891 Z" id="solid"></path>
        </g>
    </g>
</svg>