<?xml version="1.0" encoding="UTF-8"?>
<svg width="15px" height="15px" viewBox="0 0 15 15" version="1.1" xmlns="http://www.w3.org/2000/svg" xmlns:xlink="http://www.w3.org/1999/xlink">
    <title>human/eyes</title>
    <g id="human/eyes" stroke="none" stroke-width="1" fill="none" fill-rule="evenodd">
        <g id="dark" transform="translate(-1.000000, 0.000000)" fill="#000000" fill-rule="nonzero" opacity="0.75">
            <path d="M4.53857422,13.1171875 C6.44287109,13.1171875 7.95996094,10.8066406 7.95996094,7.41699219 C7.95996094,4.02734375 6.44287109,1.72314453 4.53857422,1.72314453 C2.75488281,1.72314453 1.30761719,3.76074219 1.13623047,6.8203125 C1.43457031,6.23632812 2.00585938,5.88720703 2.75488281,5.88720703 C3.859375,5.88720703 4.58935547,6.66162109 4.58935547,7.80419922 C4.58935547,8.96582031 3.859375,9.73388672 2.75488281,9.73388672 C2.08203125,9.73388672 1.54882812,9.45458984 1.23144531,8.97216797 C1.61865234,11.4921875 2.9453125,13.1171875 4.53857422,13.1171875 Z M12.4541016,13.1171875 C14.3583984,13.1171875 15.8754883,10.8066406 15.8754883,7.41699219 C15.8754883,4.02734375 14.3583984,1.72314453 12.4541016,1.72314453 C10.6704102,1.72314453 9.22314453,3.76074219 9.05175781,6.8203125 C9.35009766,6.23632812 9.92138672,5.88720703 10.6640625,5.88720703 C11.7749023,5.88720703 12.5048828,6.66162109 12.5048828,7.80419922 C12.5048828,8.96582031 11.7749023,9.73388672 10.6640625,9.73388672 C9.99755859,9.73388672 9.46435547,9.45458984 9.14697266,8.97216797 C9.53417969,11.4921875 10.8608398,13.1171875 12.4541016,13.1171875 Z M2.73583984,7.125 C2.79296875,6.83935547 2.65332031,6.56640625 2.41210938,6.52197266 C2.18994141,6.47753906 1.95507812,6.68701172 1.90429688,6.97265625 C1.85351562,7.26464844 2.00585938,7.53759766 2.234375,7.57568359 C2.46289062,7.62011719 2.67236328,7.41064453 2.73583984,7.125 Z M10.6513672,7.125 C10.7021484,6.83935547 10.5625,6.56005859 10.3276367,6.52197266 C10.1054688,6.47753906 9.87060547,6.68701172 9.81982422,6.97265625 C9.76904297,7.26464844 9.91503906,7.53125 10.1499023,7.57568359 C10.3720703,7.62011719 10.5942383,7.41064453 10.6513672,7.125 Z" id="opaque"></path>
        </g>
        <g id="light" transform="translate(0.000000, 1.000000)" fill="#000000" fill-rule="nonzero">
            <path d="M3.61474609,12.2060547 C5.54443359,12.2060547 7.08691406,9.85742188 7.08691406,6.41699219 C7.08691406,2.97021484 5.54443359,0.634277344 3.61474609,0.634277344 C1.67871094,0.634277344 0.136230469,2.97021484 0.136230469,6.41699219 C0.136230469,9.85742188 1.67871094,12.2060547 3.61474609,12.2060547 Z M11.4985352,12.2060547 C13.4345703,12.2060547 14.9770508,9.85742188 14.9770508,6.41699219 C14.9770508,2.97021484 13.4345703,0.634277344 11.4985352,0.634277344 C9.56884766,0.634277344 8.02636719,2.97021484 8.02636719,6.41699219 C8.02636719,9.85742188 9.56884766,12.2060547 11.4985352,12.2060547 Z" id="translucent" opacity="0.25"></path>
            <path d="M3.61474609,12.2060547 C5.54443359,12.2060547 7.08691406,9.85742188 7.08691406,6.41699219 C7.08691406,2.97021484 5.54443359,0.634277344 3.61474609,0.634277344 C1.67871094,0.634277344 0.136230469,2.97021484 0.136230469,6.41699219 C0.136230469,9.85742188 1.67871094,12.2060547 3.61474609,12.2060547 Z M11.4985352,12.2060547 C13.4345703,12.2060547 14.9770508,9.85742188 14.9770508,6.41699219 C14.9770508,2.97021484 13.4345703,0.634277344 11.4985352,0.634277344 C9.56884766,0.634277344 8.02636719,2.97021484 8.02636719,6.41699219 C8.02636719,9.85742188 9.56884766,12.2060547 11.4985352,12.2060547 Z M3.61474609,11.3110352 C2.56738281,11.3110352 1.640625,10.1875 1.24707031,8.38476562 C1.52001953,8.5625 1.85644531,8.65771484 2.24365234,8.65771484 C3.30371094,8.65771484 4.00830078,7.92138672 4.00830078,6.80419922 C4.00830078,5.70605469 3.30371094,4.96337891 2.24365234,4.96337891 C1.78662109,4.96337891 1.39941406,5.09667969 1.10742188,5.33789062 C1.35498047,3.04638672 2.40234375,1.54199219 3.61474609,1.52928171 C5.01757812,1.52294922 6.19189453,3.50976562 6.19189453,6.41699219 C6.19189453,9.30517578 5.01757812,11.2983398 3.61474609,11.3110352 Z M11.4985352,11.3046875 C10.4448242,11.3046875 9.51806641,10.1748047 9.12451172,8.38476562 C9.39746094,8.55615234 9.74023438,8.65771484 10.1210938,8.65771484 C11.1811523,8.65771484 11.8984375,7.92138672 11.8984375,6.80419922 C11.8984375,5.70605469 11.1811523,4.96337891 10.1210938,4.96337891 C9.67041016,4.96337891 9.27685547,5.09667969 8.97851562,5.33789062 C9.23242188,3.04638672 10.2797852,1.54199219 11.4985352,1.53564453 C12.8886719,1.53564453 14.0693359,3.52246094 14.0693359,6.41699219 C14.0693359,9.31152344 12.8886719,11.2983398 11.4985352,11.3046875 Z M1.7421875,6.58837891 C1.51367188,6.55664062 1.37402344,6.28369141 1.42480469,6.00439453 C1.48193359,5.73144531 1.69775391,5.52832031 1.91357422,5.57275391 C2.14208984,5.6171875 2.28173828,5.87744141 2.22460938,6.15039062 C2.17382812,6.4296875 1.96435547,6.62646484 1.7421875,6.58837891 Z M9.61962891,6.58837891 C9.39746094,6.55029297 9.25146484,6.28369141 9.30859375,6.00439453 C9.36572266,5.73144531 9.57519531,5.52832031 9.79736328,5.57275391 C10.0258789,5.61083984 10.1591797,5.87744141 10.1020508,6.15039062 C10.0512695,6.4296875 9.84179688,6.62646484 9.61962891,6.58837891 Z" id="solid" opacity="0.5"></path>
        </g>
    </g>
</svg>