<?xml version="1.0" encoding="UTF-8"?>
<svg width="15px" height="15px" viewBox="0 0 15 15" version="1.1" xmlns="http://www.w3.org/2000/svg" xmlns:xlink="http://www.w3.org/1999/xlink">
    <title>human/face-smiling</title>
    <g id="human/face-smiling" stroke="none" stroke-width="1" fill="none" fill-rule="evenodd">
        <g id="dark" fill="#000000" fill-rule="nonzero">
            <path d="M7.61083984,13.8916016 C11.152832,13.8916016 14.0854492,10.9526367 14.0854492,7.41699219 C14.0854492,3.875 11.1464844,0.942382812 7.60449219,0.942382812 C4.06884766,0.942382812 1.13623047,3.875 1.13623047,7.41699219 C1.13623047,10.9526367 4.07519531,13.8916016 7.61083984,13.8916016 Z M5.71289062,6.80761719 C5.32568359,6.80761719 5.00830078,6.46484375 5.00830078,5.98876953 C5.00830078,5.50634766 5.32568359,5.16992188 5.71289062,5.16992188 C6.10009766,5.16992188 6.41748047,5.50634766 6.41748047,5.98876953 C6.41748047,6.46484375 6.10009766,6.80761719 5.71289062,6.80761719 Z M9.53417969,6.80761719 C9.15332031,6.80761719 8.8359375,6.46484375 8.8359375,5.98876953 C8.8359375,5.50634766 9.15332031,5.16992188 9.53417969,5.16992188 C9.92138672,5.16992188 10.2451172,5.50634766 10.2451172,5.98876953 C10.2451172,6.46484375 9.92138672,6.80761719 9.53417969,6.80761719 Z M7.60449219,10.6860352 C6.23339844,10.6860352 5.31933594,9.77197266 5.31933594,9.34033203 C5.31933594,9.18164062 5.46533203,9.11181641 5.61132812,9.17529297 C6.08740234,9.42919922 6.65234375,9.72753906 7.60449219,9.72753906 C8.55664062,9.72753906 9.12158203,9.43554687 9.60400391,9.17529297 C9.73730469,9.11181641 9.88964844,9.18164062 9.88964844,9.34033203 C9.88964844,9.77197266 8.97558594,10.6860352 7.60449219,10.6860352 Z" id="solid"></path>
        </g>
        <g id="light" fill="#000000" fill-rule="nonzero">
            <path d="M7.61083984,13.8916016 C11.152832,13.8916016 14.0854492,10.9526367 14.0854492,7.41699219 C14.0854492,3.875 11.1464844,0.942382812 7.60449219,0.942382812 C4.06884766,0.942382812 1.13623047,3.875 1.13623047,7.41699219 C1.13623047,10.9526367 4.07519531,13.8916016 7.61083984,13.8916016 Z" id="translucent" opacity="0.35"></path>
            <path d="M7.61083984,13.8916016 C11.152832,13.8916016 14.0854492,10.9526367 14.0854492,7.41699219 C14.0854492,3.875 11.1464844,0.942382812 7.60449219,0.942382812 C4.06884766,0.942382812 1.13623047,3.875 1.13623047,7.41699219 C1.13623047,10.9526367 4.07519531,13.8916016 7.61083984,13.8916016 Z M7.61083984,12.8125 C4.61474609,12.8125 2.22167969,10.4130859 2.22167969,7.41699219 C2.22167969,4.42089844 4.60839844,2.02148438 7.60449219,2.02148438 C10.6005859,2.02148438 13,4.42089844 13.0063602,7.41699219 C13.0126953,10.4130859 10.6069336,12.8125 7.61083984,12.8125 Z M5.77001953,6.83935547 C6.14453125,6.83935547 6.45556641,6.50927734 6.45556641,6.04589844 C6.45556641,5.58251953 6.14453125,5.25244141 5.77001953,5.25244141 C5.39550781,5.25244141 5.09082031,5.58251953 5.09082031,6.04589844 C5.09082031,6.50927734 5.39550781,6.83935547 5.77001953,6.83935547 Z M9.47705078,6.83935547 C9.8515625,6.83935547 10.1625977,6.50927734 10.1625977,6.04589844 C10.1625977,5.58251953 9.8515625,5.25244141 9.47705078,5.25244141 C9.10888672,5.25244141 8.79785156,5.58251953 8.79785156,6.04589844 C8.79785156,6.50927734 9.10888672,6.83935547 9.47705078,6.83935547 Z M7.60449219,10.597168 C8.93115234,10.597168 9.81982422,9.71484375 9.81982422,9.29589844 C9.81982422,9.14355469 9.67382812,9.07373047 9.54052734,9.13720703 C9.07714844,9.39111328 8.52490234,9.67675781 7.60449219,9.67675781 C6.68408203,9.67675781 6.13183594,9.38476562 5.67480469,9.13720703 C5.53515625,9.07373047 5.38916016,9.14355469 5.38916016,9.29589844 C5.38916016,9.71484375 6.27783203,10.597168 7.60449219,10.597168 Z" id="solid"></path>
        </g>
    </g>
</svg>