<?xml version="1.0" encoding="UTF-8"?>
<svg width="15px" height="15px" viewBox="0 0 15 15" version="1.1" xmlns="http://www.w3.org/2000/svg" xmlns:xlink="http://www.w3.org/1999/xlink">
    <title>human/figure-wave</title>
    <g id="human/figure-wave" stroke="none" stroke-width="1" fill="none" fill-rule="evenodd" opacity="0.75">
        <g id="dark" fill="#000000" fill-rule="nonzero">
            <path d="M8.5949707,14.3930664 C8.9440918,14.3930664 9.2043457,14.1645508 9.19165039,13.7646484 C9.11547852,10.5463867 9.02661133,8.08349609 9.12817383,6.05224609 C9.1472168,5.84912109 9.26147461,5.77294922 9.42651367,5.94433594 L10.1945801,6.74414062 C10.0803223,7.18847656 9.83911133,8.04541016 9.62963867,8.68652344 C9.58520508,8.81347656 9.57250977,8.91503906 9.57250977,9.02294922 C9.57250977,9.36572266 9.85180664,9.5625 10.1882324,9.5625 C10.4421387,9.5625 10.619873,9.4609375 10.6960449,9.23242188 C10.7849121,8.92773438 10.9880371,8.19775391 11.3308105,7.08056641 C11.4641113,6.64892578 11.4196777,6.36328125 11.1721191,6.08398438 L9.90258789,4.60498047 C9.18530273,3.76708984 8.45532227,3.62744141 7.67456055,3.62744141 C7.22387695,3.62744141 6.76049805,3.72265625 6.41772461,3.72265625 C6.19555664,3.72265625 6.08764648,3.68457031 5.92895508,3.58300781 L4.7800293,2.89111328 C4.76733398,2.42138672 4.7800293,1.07568359 4.78637695,0.713867188 C4.79272461,0.294921875 4.5769043,0.0600585938 4.18334961,0.0600585938 C3.84692383,0.0600585938 3.60571289,0.231445312 3.60571289,0.618652344 L3.59936523,2.99902344 C3.59936523,3.45605469 3.70092773,3.72265625 4.0246582,3.91943359 L5.75756836,4.97949219 C6.08129883,5.18261719 6.16381836,5.26513672 6.17016602,5.57617188 C6.22729492,7.89306641 6.21459961,10.2607422 6.15112305,13.7646484 C6.13208008,14.1645508 6.39233398,14.3930664 6.74145508,14.3930664 C7.13500977,14.3930664 7.3762207,14.1455078 7.36352539,13.7202148 C7.35083008,13.2441406 7.38256836,9.82275391 7.41430664,9.01025391 C7.4206543,8.74365234 7.50317383,8.61035156 7.67456055,8.61035156 C7.83325195,8.61035156 7.91577148,8.74365234 7.9284668,9.01025391 C7.96020508,9.82275391 7.9855957,13.2441406 7.97924805,13.7202148 C7.96020508,14.1455078 8.20776367,14.3930664 8.5949707,14.3930664 Z M7.65551758,2.93554688 C8.45532227,2.93554688 9.09643555,2.28808594 9.09643555,1.50097656 C9.09643555,0.701171875 8.45532227,0.0600585938 7.65551758,0.0600585938 C6.86206055,0.0600585938 6.21459961,0.701171875 6.21459961,1.50097656 C6.21459961,2.28808594 6.86206055,2.93554688 7.65551758,2.93554688 Z" id="opaque"></path>
        </g>
        <g id="light" fill="#000000" fill-rule="nonzero">
            <path d="M8.5949707,14.3930664 C8.9440918,14.3930664 9.2043457,14.1645508 9.19165039,13.7646484 C9.11547852,10.5463867 9.02661133,8.08349609 9.12817383,6.05224609 C9.1472168,5.84912109 9.26147461,5.77294922 9.42651367,5.94433594 L10.1945801,6.74414062 C10.0803223,7.18847656 9.83911133,8.04541016 9.62963867,8.68652344 C9.58520508,8.81347656 9.57250977,8.91503906 9.57250977,9.02294922 C9.57250977,9.36572266 9.85180664,9.5625 10.1882324,9.5625 C10.4421387,9.5625 10.619873,9.4609375 10.6960449,9.23242188 C10.7849121,8.92773438 10.9880371,8.19775391 11.3308105,7.08056641 C11.4641113,6.64892578 11.4196777,6.36328125 11.1721191,6.08398438 L9.90258789,4.60498047 C9.18530273,3.76708984 8.45532227,3.62744141 7.67456055,3.62744141 C7.22387695,3.62744141 6.76049805,3.72265625 6.41772461,3.72265625 C6.19555664,3.72265625 6.08764648,3.68457031 5.92895508,3.58300781 L4.7800293,2.89111328 C4.76733398,2.42138672 4.7800293,1.07568359 4.78637695,0.713867188 C4.79272461,0.294921875 4.5769043,0.0600585938 4.18334961,0.0600585938 C3.84692383,0.0600585938 3.60571289,0.231445312 3.60571289,0.618652344 L3.59936523,2.99902344 C3.59936523,3.45605469 3.70092773,3.72265625 4.0246582,3.91943359 L5.75756836,4.97949219 C6.08129883,5.18261719 6.16381836,5.26513672 6.17016602,5.57617188 C6.22729492,7.89306641 6.21459961,10.2607422 6.15112305,13.7646484 C6.13208008,14.1645508 6.39233398,14.3930664 6.74145508,14.3930664 C7.13500977,14.3930664 7.3762207,14.1455078 7.36352539,13.7202148 C7.35083008,13.2441406 7.38256836,9.82275391 7.41430664,9.01025391 C7.4206543,8.74365234 7.50317383,8.61035156 7.67456055,8.61035156 C7.83325195,8.61035156 7.91577148,8.74365234 7.9284668,9.01025391 C7.96020508,9.82275391 7.9855957,13.2441406 7.97924805,13.7202148 C7.96020508,14.1455078 8.20776367,14.3930664 8.5949707,14.3930664 Z M7.65551758,2.93554688 C8.45532227,2.93554688 9.09643555,2.28808594 9.09643555,1.50097656 C9.09643555,0.701171875 8.45532227,0.0600585938 7.65551758,0.0600585938 C6.86206055,0.0600585938 6.21459961,0.701171875 6.21459961,1.50097656 C6.21459961,2.28808594 6.86206055,2.93554688 7.65551758,2.93554688 Z" id="opaque"></path>
        </g>
    </g>
</svg>