<?xml version="1.0" encoding="UTF-8"?>
<svg width="15px" height="15px" viewBox="0 0 15 15" version="1.1" xmlns="http://www.w3.org/2000/svg" xmlns:xlink="http://www.w3.org/1999/xlink">
    <title>human/figure-walk</title>
    <g id="human/figure-walk" stroke="none" stroke-width="1" fill="none" fill-rule="evenodd" opacity="0.75">
        <g id="dark" fill="#000000" fill-rule="nonzero">
            <path d="M8.05224609,2.87841797 C8.88378906,2.87841797 9.55029297,2.19921875 9.55029297,1.38037109 C9.55029297,0.555175781 8.88378906,-0.124023438 8.05224609,-0.124023438 C7.21435547,-0.124023438 6.55419922,0.555175781 6.55419922,1.38037109 C6.55419922,2.19921875 7.21435547,2.87841797 8.05224609,2.87841797 Z M10.362793,13.3203125 L8.66796875,10.78125 C8.50292969,10.5209961 8.44580078,10.4511719 8.24267578,10.190918 L7.703125,9.48632812 L8.48388672,5.04296875 C8.65527344,4.07177734 7.96337891,3.47509766 7.07470703,3.47509766 C6.33837891,3.47509766 5.7734375,3.7734375 5.07519531,4.34472656 L3.38671875,5.72851562 C3.12646484,5.94433594 3.06298828,6.14111328 3.06298828,6.46484375 L3.06298828,8.05175781 C3.06298828,8.45800781 3.32324219,8.71191406 3.71679688,8.69921875 C4.06591797,8.69287109 4.31347656,8.42626953 4.31347656,8.03271484 L4.31347656,6.50292969 L5.41162109,5.6015625 C5.50048828,5.52539062 5.5703125,5.56982422 5.55126953,5.703125 L5.25292969,7.79785156 C5.15136719,8.51513672 5.29101562,9.10546875 5.64013672,9.49267578 L7.05566406,11.0605469 C7.13818359,11.1494141 7.20166016,11.2382812 7.25878906,11.3208008 L9.16308594,14.1264648 C9.75341797,14.9897461 10.972168,14.2280273 10.362793,13.3203125 Z M11.765625,7.84863281 C12.171875,7.84863281 12.4321289,7.59472656 12.4194336,7.19482422 C12.4194336,6.84570312 12.152832,6.60449219 11.746582,6.60449219 L10.2675781,6.60449219 L9.06152344,5.18261719 L8.78857422,6.73779297 L9.49316406,7.51855469 C9.72167969,7.77246094 9.88671875,7.84863281 10.2294922,7.84863281 L11.765625,7.84863281 Z M3.82470703,14.2280273 L5.86865234,11.8222656 C6.04003906,11.6254883 6.14160156,11.4794922 6.18603516,11.3017578 L6.24316406,11.0732422 L5.11962891,9.82275391 L4.80224609,10.8510742 L2.79003906,13.2124023 C2.12353516,13.9995117 3.19628906,14.9643555 3.82470703,14.2280273 Z" id="opaque"></path>
        </g>
        <g id="light" fill="#000000" fill-rule="nonzero">
            <path d="M8.05224609,2.87841797 C8.88378906,2.87841797 9.55029297,2.19921875 9.55029297,1.38037109 C9.55029297,0.555175781 8.88378906,-0.124023438 8.05224609,-0.124023438 C7.21435547,-0.124023438 6.55419922,0.555175781 6.55419922,1.38037109 C6.55419922,2.19921875 7.21435547,2.87841797 8.05224609,2.87841797 Z M10.362793,13.3203125 L8.66796875,10.78125 C8.50292969,10.5209961 8.44580078,10.4511719 8.24267578,10.190918 L7.703125,9.48632812 L8.48388672,5.04296875 C8.65527344,4.07177734 7.96337891,3.47509766 7.07470703,3.47509766 C6.33837891,3.47509766 5.7734375,3.7734375 5.07519531,4.34472656 L3.38671875,5.72851562 C3.12646484,5.94433594 3.06298828,6.14111328 3.06298828,6.46484375 L3.06298828,8.05175781 C3.06298828,8.45800781 3.32324219,8.71191406 3.71679688,8.69921875 C4.06591797,8.69287109 4.31347656,8.42626953 4.31347656,8.03271484 L4.31347656,6.50292969 L5.41162109,5.6015625 C5.50048828,5.52539062 5.5703125,5.56982422 5.55126953,5.703125 L5.25292969,7.79785156 C5.15136719,8.51513672 5.29101562,9.10546875 5.64013672,9.49267578 L7.05566406,11.0605469 C7.13818359,11.1494141 7.20166016,11.2382812 7.25878906,11.3208008 L9.16308594,14.1264648 C9.75341797,14.9897461 10.972168,14.2280273 10.362793,13.3203125 Z M11.765625,7.84863281 C12.171875,7.84863281 12.4321289,7.59472656 12.4194336,7.19482422 C12.4194336,6.84570312 12.152832,6.60449219 11.746582,6.60449219 L10.2675781,6.60449219 L9.06152344,5.18261719 L8.78857422,6.73779297 L9.49316406,7.51855469 C9.72167969,7.77246094 9.88671875,7.84863281 10.2294922,7.84863281 L11.765625,7.84863281 Z M3.82470703,14.2280273 L5.86865234,11.8222656 C6.04003906,11.6254883 6.14160156,11.4794922 6.18603516,11.3017578 L6.24316406,11.0732422 L5.11962891,9.82275391 L4.80224609,10.8510742 L2.79003906,13.2124023 C2.12353516,13.9995117 3.19628906,14.9643555 3.82470703,14.2280273 Z" id="opaque"></path>
        </g>
    </g>
</svg>