<?xml version="1.0" encoding="UTF-8"?>
<svg width="15px" height="15px" viewBox="0 0 15 15" version="1.1" xmlns="http://www.w3.org/2000/svg" xmlns:xlink="http://www.w3.org/1999/xlink">
    <title>human/hand-raised</title>
    <g id="human/hand-raised" stroke="none" stroke-width="1" fill="none" fill-rule="evenodd">
        <g id="dark" fill="#000000" fill-rule="nonzero" opacity="0.75">
            <path d="M7.45849609,13.9804688 C9.47705078,13.9804688 10.7275391,13.1362305 11.559082,11.4414062 C12.0478516,10.5019531 12.4223633,9.37207031 12.8222656,8.06445312 C12.9873047,7.53125 13.222168,6.85205078 13.222168,6.54736328 C13.222168,6.20458984 12.9746094,5.97607422 12.612793,5.97607422 C12.2128906,5.97607422 11.9716797,6.22998047 11.6796875,6.83300781 L10.7973633,8.68652344 C10.7084961,8.88964844 10.6069336,8.96582031 10.5053711,8.96582031 C10.3720703,8.96582031 10.2832031,8.88964844 10.2832031,8.66748047 L10.2832031,2.00878906 C10.2832031,1.63427734 9.97851562,1.32958984 9.60400391,1.32958984 C9.22949219,1.32958984 8.92480469,1.63427734 8.92480469,2.00878906 L8.92480469,6.76953125 C8.75341797,6.70605469 8.56298828,6.65527344 8.35986328,6.6171875 L8.35986328,1.09472656 C8.35986328,0.720214844 8.05517578,0.409179688 7.68066406,0.409179688 C7.30615234,0.409179688 6.99511719,0.720214844 6.99511719,1.09472656 L6.99511719,6.54736328 C6.79833984,6.56005859 6.59521484,6.59179688 6.3984375,6.62353516 L6.3984375,1.63427734 C6.3984375,1.25976562 6.09375,0.955078125 5.71923828,0.955078125 C5.34472656,0.955078125 5.04003906,1.25976562 5.04003906,1.63427734 L5.04003906,7.05517578 C4.83056641,7.15673828 4.64013672,7.26464844 4.46875,7.37890625 L4.46875,3.60839844 C4.46875,3.23388672 4.1640625,2.92919922 3.78955078,2.92919922 C3.41503906,2.92919922 3.10400391,3.23388672 3.10400391,3.60839844 L3.10400391,9.52441406 C3.10400391,12.3237305 4.93847656,13.9804688 7.45849609,13.9804688 Z" id="opaque"></path>
        </g>
        <g id="light" fill="#000000" fill-rule="nonzero">
            <path d="M7.48388672,14.012207 C9.71191406,14.012207 11.2861328,12.8061523 12.1303711,10.4257812 L13.2475586,7.28369141 C13.3237305,7.06787109 13.3618164,6.85839844 13.3618164,6.66796875 C13.3618164,5.99511719 12.8540039,5.52539062 12.206543,5.52539062 C11.7685547,5.52539062 11.375,5.78564453 11.1591797,6.28710938 L10.746582,7.30273437 C10.7338867,7.328125 10.7148438,7.34716797 10.6894531,7.34716797 C10.6577148,7.34716797 10.6450195,7.32177734 10.6450195,7.29003906 L10.6450195,2.19921875 C10.6450195,1.45654297 10.1816406,0.986816406 9.47070312,0.986816406 C9.21044922,0.986816406 8.97558594,1.08203125 8.79785156,1.24707031 C8.71533203,0.593261719 8.29638672,0.193359375 7.66796875,0.193359375 C7.05224609,0.193359375 6.62060547,0.605957031 6.52539062,1.234375 C6.36669922,1.07568359 6.13818359,0.986816406 5.90966797,0.986816406 C5.24951172,0.986816406 4.81152344,1.45019531 4.81152344,2.15478516 L4.81152344,2.859375 C4.64013672,2.68164062 4.37988281,2.58642578 4.11328125,2.58642578 C3.453125,2.58642578 2.99609375,3.06884766 2.99609375,3.78613281 L2.99609375,9.23876953 C2.99609375,12.2094727 4.79882812,14.012207 7.48388672,14.012207 Z" id="translucent" opacity="0.25"></path>
            <path d="M7.48388672,14.012207 C9.71191406,14.012207 11.2861328,12.8061523 12.1303711,10.4257812 L13.2475586,7.28369141 C13.3237305,7.06787109 13.3618164,6.85839844 13.3618164,6.66796875 C13.3618164,5.99511719 12.8540039,5.52539062 12.206543,5.52539062 C11.7685547,5.52539062 11.375,5.78564453 11.1591797,6.28710938 L10.746582,7.30273437 C10.7338867,7.328125 10.7148438,7.34716797 10.6894531,7.34716797 C10.6577148,7.34716797 10.6450195,7.32177734 10.6450195,7.29003906 L10.6450195,2.19921875 C10.6450195,1.45654297 10.1816406,0.986816406 9.47070312,0.986816406 C9.21044922,0.986816406 8.97558594,1.08203125 8.79785156,1.24707031 C8.71533203,0.593261719 8.29638672,0.193359375 7.66796875,0.193359375 C7.05224609,0.193359375 6.62060547,0.605957031 6.52539062,1.234375 C6.36669922,1.07568359 6.13818359,0.986816406 5.90966797,0.986816406 C5.24951172,0.986816406 4.81152344,1.45019531 4.81152344,2.15478516 L4.81152344,2.859375 C4.64013672,2.68164062 4.37988281,2.58642578 4.11328125,2.58642578 C3.453125,2.58642578 2.99609375,3.06884766 2.99609375,3.78613281 L2.99609375,9.23876953 C2.99609375,12.2094727 4.79882812,14.012207 7.48388672,14.012207 Z M7.45214844,13.1362305 C5.20507812,13.1362305 3.83398438,11.6889648 3.83398438,9.13720703 L3.83398438,3.875 C3.83398438,3.60205078 4.00537109,3.41796875 4.27197266,3.41796875 C4.53222656,3.41796875 4.72265625,3.60205078 4.72265625,3.875 L4.72265625,7.11865234 C4.72265625,7.35351562 4.91308594,7.51220703 5.11621094,7.51220703 C5.33203125,7.51220703 5.52880859,7.35351562 5.52880859,7.11865234 L5.52880859,2.26904297 C5.52880859,1.99609375 5.70019531,1.80566406 5.96044922,1.80566406 C6.22705078,1.80566406 6.41113281,1.99609375 6.41113281,2.26904297 L6.41113281,6.79492188 C6.41113281,7.02978516 6.6015625,7.18847656 6.81103516,7.18847656 C7.02685547,7.18847656 7.21728516,7.02978516 7.21728516,6.79492188 L7.21728516,1.48193359 C7.21728516,1.20898438 7.40136719,1.01220703 7.66796875,1.01220703 C7.921875,1.01220703 8.10595703,1.20898438 8.10595703,1.48193359 L8.10595703,6.79492188 C8.10595703,7.01708984 8.28369141,7.18847656 8.50585938,7.18847656 C8.72167969,7.18847656 8.91210938,7.01708984 8.91210938,6.79492188 L8.91210938,2.26904297 C8.91210938,1.99609375 9.09619141,1.80566406 9.35644531,1.80566406 C9.61669922,1.80566406 9.80078125,1.99609375 9.80078125,2.26904297 L9.80078125,8.51513672 C9.80078125,8.83251953 9.98486328,9.01660156 10.2514648,9.01660156 C10.4799805,9.01660156 10.6704102,8.91503906 10.8164062,8.59765625 L11.7304688,6.56005859 C11.8510742,6.28710938 12.0859375,6.19189453 12.3081055,6.27441406 C12.5556641,6.36328125 12.6318359,6.59814453 12.5175781,6.90917969 L11.355957,10.152832 C10.581543,12.3173828 9.22314453,13.1362305 7.45214844,13.1362305 Z" id="solid" opacity="0.5"></path>
        </g>
    </g>
</svg>