<?xml version="1.0" encoding="UTF-8"?>
<svg width="15px" height="15px" viewBox="0 0 15 15" version="1.1" xmlns="http://www.w3.org/2000/svg" xmlns:xlink="http://www.w3.org/1999/xlink">
    <title>human/hand-wave</title>
    <g id="human/hand-wave" stroke="none" stroke-width="1" fill="none" fill-rule="evenodd">
        <g id="dark" fill="#000000" fill-rule="nonzero">
            <path d="M12.1083984,12.0571289 C13.5366211,10.6352539 13.8222656,9.14990234 13.2128906,7.35986328 C12.8955078,6.35058594 12.3623047,5.29052734 11.7148438,4.078125 C11.4545898,3.58300781 11.1435547,2.94189453 10.934082,2.72607422 C10.6865234,2.47851562 10.3500977,2.49755859 10.0961914,2.75146484 C9.81054688,3.03710938 9.82324219,3.37988281 10.0390625,4.01464844 L10.730957,5.95068359 C10.8071289,6.15380859 10.7880859,6.28710938 10.7182617,6.35693359 C10.6230469,6.45214844 10.5087891,6.45849609 10.3500977,6.29980469 L5.64013672,1.58984375 C5.37988281,1.32958984 4.94189453,1.32958984 4.68164062,1.58984375 C4.41503906,1.85644531 4.41503906,2.28808594 4.68164062,2.5546875 L8.04589844,5.91894531 C7.88085938,6.00146484 7.70947266,6.09667969 7.53808594,6.2109375 L3.63427734,2.30712891 C3.36767578,2.04052734 2.93603516,2.04052734 2.66943359,2.30712891 C2.40283203,2.57373047 2.40283203,3.00537109 2.66943359,3.265625 L6.52880859,7.125 C6.39550781,7.27734375 6.27490234,7.44238281 6.16064453,7.60107422 L2.63134766,4.07177734 C2.36474609,3.81152344 1.93310547,3.81152344 1.66650391,4.07177734 C1.39990234,4.33837891 1.39990234,4.77001953 1.66650391,5.03662109 L5.50048828,8.87060547 C5.42431641,9.08642578 5.37353516,9.30224609 5.32910156,9.50537109 L2.66308594,6.83935547 C2.39648438,6.57275391 1.96484375,6.57275391 1.69824219,6.83935547 C1.43798828,7.10595703 1.43798828,7.53759766 1.69824219,7.80419922 L5.88134766,11.980957 C7.86181641,13.9614258 10.324707,13.8408203 12.1083984,12.0571289 Z" id="solid"></path>
        </g>
        <g id="light" transform="translate(1.000000, 1.000000)" fill="#000000" fill-rule="nonzero">
            <path d="M11.1940918,11.222168 C12.7746582,9.64160156 13.0285645,7.68017578 11.9431152,5.39501953 L10.5148926,2.38623047 C10.4133301,2.17675781 10.2927246,2.00537109 10.1594238,1.87207031 C9.68334961,1.39599609 8.99145508,1.42138672 8.53442383,1.87841797 C8.22338867,2.18945312 8.12817383,2.65283203 8.33129883,3.15429687 L8.7565918,4.16992187 C8.76928711,4.1953125 8.76928711,4.22070312 8.75024414,4.23974609 C8.72485352,4.25878906 8.69946289,4.25244141 8.67407227,4.23339844 L5.07495117,0.634277344 C4.55444336,0.107421875 3.89428711,0.107421875 3.39282227,0.608886719 C3.20874023,0.786621094 3.10717773,1.02148437 3.10083008,1.26269531 C2.58032227,0.862792969 2.00268555,0.875488281 1.55834961,1.31982422 C1.12036133,1.7578125 1.10766602,2.35449219 1.48217773,2.86230469 C1.25366211,2.86230469 1.0378418,2.96386719 0.872802734,3.12890625 C0.409423828,3.59228516 0.422119141,4.22705078 0.917236328,4.72216797 L1.41870117,5.22363281 C1.17114258,5.21728516 0.923583984,5.33154297 0.733154297,5.52197266 C0.263427734,5.99169922 0.288818359,6.65820312 0.790283203,7.15966797 L4.6496582,11.019043 C6.75073242,13.1201172 9.29614258,13.1201172 11.1940918,11.222168 Z" id="translucent" opacity="0.35"></path>
            <path d="M11.1940918,11.222168 C12.7746582,9.64160156 13.0285645,7.68017578 11.9431152,5.39501953 L10.5148926,2.38623047 C10.4133301,2.17675781 10.2927246,2.00537109 10.1594238,1.87207031 C9.68334961,1.39599609 8.99145508,1.42138672 8.53442383,1.87841797 C8.22338867,2.18945312 8.12817383,2.65283203 8.33129883,3.15429687 L8.7565918,4.16992187 C8.76928711,4.1953125 8.76928711,4.22070312 8.75024414,4.23974609 C8.72485352,4.25878906 8.69946289,4.25244141 8.67407227,4.23339844 L5.07495117,0.634277344 C4.55444336,0.107421875 3.89428711,0.107421875 3.39282227,0.608886719 C3.20874023,0.786621094 3.10717773,1.02148437 3.10083008,1.26269531 C2.58032227,0.862792969 2.00268555,0.875488281 1.55834961,1.31982422 C1.12036133,1.7578125 1.10766602,2.35449219 1.48217773,2.86230469 C1.25366211,2.86230469 1.0378418,2.96386719 0.872802734,3.12890625 C0.409423828,3.59228516 0.422119141,4.22705078 0.917236328,4.72216797 L1.41870117,5.22363281 C1.17114258,5.21728516 0.923583984,5.33154297 0.733154297,5.52197266 C0.263427734,5.99169922 0.288818359,6.65820312 0.790283203,7.15966797 L4.6496582,11.019043 C6.75073242,13.1201172 9.29614258,13.1201172 11.1940918,11.222168 Z M5.17016602,10.3525391 L1.45043945,6.6328125 C1.25366211,6.44238281 1.24731445,6.18212891 1.43139648,5.99804687 C1.61547852,5.81396484 1.88208008,5.81396484 2.07250977,6.00439453 L4.37036133,8.29589844 C4.53540039,8.4609375 4.77661133,8.44189453 4.92260742,8.29589844 C5.08129883,8.14355469 5.1003418,7.89599609 4.93530273,7.73095703 L1.50756836,4.296875 C1.31713867,4.10644531 1.30444336,3.85253906 1.48852539,3.66845703 C1.67260742,3.47802734 1.94555664,3.47802734 2.13598633,3.66845703 L5.33520508,6.87402344 C5.50024414,7.0390625 5.74780273,7.01367187 5.89379883,6.86767578 C6.04614258,6.71533203 6.0715332,6.46777344 5.90649414,6.30273437 L2.14868164,2.54492187 C1.95825195,2.35449219 1.94555664,2.08789062 2.13598633,1.90380859 C2.3137207,1.71972656 2.58666992,1.72607422 2.77709961,1.91650391 L6.53491211,5.67431641 C6.68725586,5.83300781 6.93481445,5.82666016 7.0871582,5.67431641 C7.24584961,5.515625 7.25854492,5.26171875 7.10620117,5.109375 L3.90063477,1.90380859 C3.71020508,1.71337891 3.70385742,1.453125 3.88793945,1.26269531 C4.07836914,1.07861328 4.33862305,1.08496094 4.52905273,1.27539062 L8.94702148,5.69335937 C9.16918945,5.921875 9.43579102,5.91552734 9.61987305,5.73144531 C9.77856445,5.57275391 9.84838867,5.36328125 9.72143555,5.03320312 L8.92797852,2.95117187 C8.82006836,2.66552734 8.92163086,2.43701172 9.13745117,2.33544922 C9.37866211,2.22753906 9.59448242,2.34179687 9.73413086,2.64013672 L11.2067871,5.75048828 C12.1906738,7.83251953 11.8034668,9.36865234 10.5529785,10.6254883 C8.96606445,12.2124023 6.97290039,12.1616211 5.17016602,10.3525391 Z" id="solid"></path>
        </g>
    </g>
</svg>