<?xml version="1.0" encoding="UTF-8"?>
<svg width="15px" height="15px" viewBox="0 0 15 15" version="1.1" xmlns="http://www.w3.org/2000/svg" xmlns:xlink="http://www.w3.org/1999/xlink">
    <title>human/hand-point-right</title>
    <g id="human/hand-point-right" stroke="none" stroke-width="1" fill="none" fill-rule="evenodd">
        <g id="dark" fill="#000000" fill-rule="nonzero" opacity="0.75">
            <path d="M7.02685547,12.4824219 C8.14404297,12.4824219 8.82324219,11.9492188 8.82324219,11.3398438 C8.82324219,11.2001953 8.75341797,11.1303711 8.62011719,11.1303711 L8.08056641,11.1303711 C7.82666016,11.1303711 7.69970703,10.9970703 7.69970703,10.8447266 C7.69970703,10.6796875 7.82666016,10.5527344 8.08056641,10.5527344 L8.43603516,10.5527344 C9.08984375,10.5527344 9.52148438,10.1274414 9.52148438,9.5625 C9.52148438,9.30224609 9.41357422,9.18798828 9.19775391,9.18798828 L8.46142578,9.18798828 C8.20751953,9.18798828 8.08056641,9.06103516 8.08056641,8.90869141 C8.08056641,8.74365234 8.20751953,8.61035156 8.46142578,8.61035156 L9.140625,8.61035156 C9.87695312,8.61035156 10.2260742,8.18505859 10.2260742,7.6328125 C10.2260742,7.39160156 10.1118164,7.25830078 9.90234375,7.25830078 L8.46142578,7.25830078 C8.20751953,7.25830078 8.08056641,7.13134766 8.08056641,6.97900391 C8.08056641,6.81396484 8.20751953,6.68066406 8.46142578,6.68066406 L13.2792969,6.68066406 C13.7490234,6.68066406 14.0537109,6.37597656 14.0537109,5.97607422 C14.0537109,5.55078125 13.7490234,5.25878906 13.2792969,5.25878906 L6.22705078,5.25878906 C6.04931641,5.25878906 5.96044922,5.14453125 5.96044922,5.03662109 C5.96044922,4.92871094 6.02392578,4.83984375 6.20166016,4.76367188 L8.40429688,3.83056641 C8.72802734,3.69091797 8.86767578,3.48144531 8.86767578,3.19580078 C8.86767578,2.7578125 8.56933594,2.47851562 8.21386719,2.47851562 C8.06787109,2.47851562 7.94726562,2.51025391 7.84570313,2.54199219 L4.77978516,3.5703125 C2.19628906,4.44628906 1.13623047,6.15380859 1.13623047,8.17871094 C1.13623047,10.9335938 2.86279297,12.4824219 5.80810547,12.4824219 L7.02685547,12.4824219 Z" id="opaque"></path>
        </g>
        <g id="light" fill="#000000" fill-rule="nonzero">
            <path d="M7.29345703,12.5839844 C8.75976562,12.5839844 9.61035156,11.8920898 9.62939453,10.7177734 C10.0927734,10.5717773 10.378418,10.1845703 10.378418,9.65771484 C10.378418,9.4609375 10.340332,9.27685547 10.2832031,9.09912109 C10.7910156,8.93408203 11.1083984,8.51513672 11.1083984,7.96289063 C11.1083984,7.81689453 11.0893555,7.66455078 11.0385742,7.51220703 L13.1523438,7.51220703 C13.9584961,7.51220703 14.4916992,6.97900391 14.4916992,6.22998047 C14.4916992,5.47460938 13.9584961,4.94140625 13.1523438,4.94140625 L7.85839844,4.94140625 C7.82666016,4.94140625 7.80126953,4.92236328 7.80126953,4.890625 C7.80126953,4.86523438 7.8203125,4.84619141 7.84570313,4.83984375 L8.86132812,4.41455078 C9.35644531,4.20507812 9.61669922,3.83056641 9.62304688,3.37988281 C9.62304688,2.76416016 9.22949219,2.21826172 8.53125,2.21826172 C8.34082031,2.21826172 8.08691406,2.26269531 7.86474609,2.33251953 L4.72265625,3.44970703 C2.34228516,4.30029297 1.13623047,5.86181641 1.13623047,8.10253906 C1.13623047,10.7875977 2.93896484,12.5839844 5.90966797,12.5839844 L7.29345703,12.5839844 Z" id="translucent" opacity="0.25"></path>
            <path d="M7.29345703,12.5839844 C8.75976562,12.5839844 9.61035156,11.8920898 9.62939453,10.7177734 C10.0927734,10.5717773 10.378418,10.1845703 10.378418,9.65771484 C10.378418,9.4609375 10.340332,9.27685547 10.2832031,9.09912109 C10.7910156,8.93408203 11.1083984,8.51513672 11.1083984,7.96289063 C11.1083984,7.81689453 11.0893555,7.66455078 11.0385742,7.51220703 L13.1523438,7.51220703 C13.9584961,7.51220703 14.4916992,6.97900391 14.4916992,6.22998047 C14.4916992,5.47460938 13.9584961,4.94140625 13.1523438,4.94140625 L7.85839844,4.94140625 C7.82666016,4.94140625 7.80126953,4.92236328 7.80126953,4.890625 C7.80126953,4.86523438 7.8203125,4.84619141 7.84570313,4.83984375 L8.86132812,4.41455078 C9.35644531,4.20507812 9.61669922,3.83056641 9.62304688,3.37988281 C9.62304688,2.76416016 9.22949219,2.21826172 8.53125,2.21826172 C8.34082031,2.21826172 8.08691406,2.26269531 7.86474609,2.33251953 L4.72265625,3.44970703 C2.34228516,4.30029297 1.13623047,5.86181641 1.13623047,8.10253906 C1.13623047,10.7875977 2.93896484,12.5839844 5.90966797,12.5839844 L7.29345703,12.5839844 Z M7.16650391,11.7460938 L6.01123047,11.7460938 C3.45947266,11.7460938 2.01220703,10.3813477 2.01220703,8.13427734 C2.01220703,6.35693359 2.83105469,5.00488281 4.99560547,4.23046875 L8.13134766,3.10693359 C8.2265625,3.06884766 8.30273438,3.04980469 8.41699219,3.04980469 C8.63916016,3.04980469 8.82324219,3.21484375 8.82324219,3.47509766 C8.82324219,3.68457031 8.69628906,3.81152344 8.48046875,3.90673828 L6.55078125,4.77001953 C6.23339844,4.90966797 6.13183594,5.10644531 6.13183594,5.33496094 C6.13183594,5.59521484 6.34130859,5.78564453 6.63330078,5.78564453 L13.2094727,5.78564453 C13.4824219,5.78564453 13.6728516,5.96972656 13.6728516,6.22998047 C13.6728516,6.49658203 13.4824219,6.66796875 13.2094727,6.66796875 L8.51220703,6.66796875 C8.29003906,6.66796875 8.125,6.85839844 8.125,7.08056641 C8.125,7.29638672 8.29003906,7.47412109 8.51220703,7.47412109 L10.2006836,7.47412109 C10.2578125,7.58203125 10.2895508,7.72802734 10.2895508,7.85498047 C10.2895508,8.17236328 10.0800781,8.36279297 9.75,8.36279297 L8.27099609,8.36279297 C8.03613281,8.36279297 7.88378906,8.55322266 7.88378906,8.76904297 C7.88378906,8.97851562 8.03613281,9.16894531 8.27099609,9.16894531 L9.47070312,9.16894531 C9.52783203,9.27685547 9.55957031,9.42285156 9.55957031,9.54980469 C9.55957031,9.8671875 9.35009766,10.0576172 9.02001953,10.0576172 L8.02978516,10.0576172 C7.79492188,10.0576172 7.63623047,10.2480469 7.63623047,10.4638672 C7.63623047,10.6733398 7.79492188,10.8637695 8.02978516,10.8637695 L8.75976562,10.8637695 C8.75976562,11.4287109 8.17578125,11.7460938 7.16650391,11.7460938 Z" id="solid" opacity="0.5"></path>
        </g>
    </g>
</svg>