<?xml version="1.0" encoding="UTF-8"?>
<svg width="15px" height="15px" viewBox="0 0 15 15" version="1.1" xmlns="http://www.w3.org/2000/svg" xmlns:xlink="http://www.w3.org/1999/xlink">
    <title>human/hand-point-up-left</title>
    <g id="human/hand-point-up-left" stroke="none" stroke-width="1" fill="none" fill-rule="evenodd">
        <g id="dark" fill="#000000" fill-rule="nonzero">
            <path d="M9.97875977,13.0283203 C12.5686035,12.0888672 13.4318848,9.93701172 12.4226074,7.16308594 L12.0100098,6.02050781 C11.6291504,4.97314453 10.8928223,4.51611328 10.3215332,4.71923828 C10.1945801,4.77001953 10.1501465,4.86523438 10.1945801,4.98583984 L10.3786621,5.49365234 C10.4675293,5.73486328 10.3850098,5.89355469 10.2390137,5.94433594 C10.0866699,6.00146484 9.92163086,5.93164062 9.83276367,5.69042969 L9.7121582,5.35400391 C9.48999023,4.73828125 8.9440918,4.47802734 8.41088867,4.67480469 C8.16967773,4.76367188 8.09985352,4.90332031 8.17602539,5.10644531 L8.42358398,5.79833984 C8.51245117,6.03955078 8.4362793,6.19824219 8.2902832,6.25537109 C8.1315918,6.30615234 7.96655273,6.23632812 7.8840332,5.99511719 L7.64916992,5.36035156 C7.39526367,4.66210938 6.87475586,4.484375 6.35424805,4.67480469 C6.12573242,4.75732422 6.04321289,4.90966797 6.11938477,5.10644531 L6.6081543,6.45849609 C6.69702148,6.69970703 6.62084961,6.85839844 6.47485352,6.91552734 C6.32250977,6.96630859 6.1574707,6.89648438 6.06860352,6.65527344 L4.41821289,2.12939453 C4.25952148,1.68505859 3.8659668,1.50097656 3.49145508,1.640625 C3.09155273,1.78662109 2.92016602,2.17382812 3.07885742,2.61816406 L5.4909668,9.24511719 C5.55444336,9.41015625 5.47827148,9.53076172 5.37670898,9.56884766 C5.27514648,9.60693359 5.17358398,9.57519531 5.0402832,9.43554688 L3.40893555,7.68359375 C3.16772461,7.4296875 2.92016602,7.36621094 2.65356445,7.46777344 C2.2409668,7.61376953 2.08227539,7.98828125 2.20288086,8.32470703 C2.25366211,8.46435547 2.32348633,8.56591797 2.39331055,8.6484375 L4.40551758,11.1811523 C6.10668945,13.3076172 8.07446289,13.7202148 9.97875977,13.0283203 Z" id="solid"></path>
        </g>
        <g id="light" transform="translate(1.000000, 1.000000)" fill="#000000" fill-rule="nonzero">
            <path d="M9.08666992,12.2949219 C11.6066895,11.3808594 12.6794434,9.0703125 11.6638184,6.27734375 L11.1940918,4.97607422 C10.692627,3.59863281 9.74682617,3.03369141 8.63598633,3.42089844 C8.33764648,3.03369141 7.88061523,2.90039062 7.38549805,3.078125 C7.20141602,3.14794922 7.04272461,3.24316406 6.89038086,3.35742187 C6.56665039,2.93212891 6.06518555,2.77978516 5.54467773,2.97021484 C5.4050293,3.02099609 5.27172852,3.09082031 5.14477539,3.18603516 L4.42114258,1.20556641 C4.14819336,0.450195312 3.46264648,0.1328125 2.75805664,0.38671875 C2.04711914,0.646972656 1.72973633,1.32617187 2.00268555,2.08154297 L3.81176758,7.05810547 C3.82446289,7.08984375 3.81811523,7.11523437 3.78637695,7.12792969 C3.76733398,7.13427734 3.74194336,7.12792969 3.72290039,7.10253906 L2.98022461,6.29638672 C2.61206055,5.90283203 2.16772461,5.78222656 1.74243164,5.93457031 C1.16479492,6.15039062 0.790283203,6.70263672 1.03149414,7.35644531 C1.08862305,7.54052734 1.21557617,7.76269531 1.36157227,7.94677734 L3.48803711,10.5112305 C5.09399414,12.4599609 6.97924805,13.0629883 9.08666992,12.2949219 Z" id="translucent" opacity="0.35"></path>
            <path d="M9.08666992,12.2949219 C11.6066895,11.3808594 12.6794434,9.0703125 11.6638184,6.27734375 L11.1940918,4.97607422 C10.692627,3.59863281 9.74682617,3.03369141 8.63598633,3.42089844 C8.33764648,3.03369141 7.88061523,2.90039062 7.38549805,3.078125 C7.20141602,3.14794922 7.04272461,3.24316406 6.89038086,3.35742187 C6.56665039,2.93212891 6.06518555,2.77978516 5.54467773,2.97021484 C5.4050293,3.02099609 5.27172852,3.09082031 5.14477539,3.18603516 L4.42114258,1.20556641 C4.14819336,0.450195312 3.46264648,0.1328125 2.75805664,0.38671875 C2.04711914,0.646972656 1.72973633,1.32617187 2.00268555,2.08154297 L3.81176758,7.05810547 C3.82446289,7.08984375 3.81811523,7.11523437 3.78637695,7.12792969 C3.76733398,7.13427734 3.74194336,7.12792969 3.72290039,7.10253906 L2.98022461,6.29638672 C2.61206055,5.90283203 2.16772461,5.78222656 1.74243164,5.93457031 C1.16479492,6.15039062 0.790283203,6.70263672 1.03149414,7.35644531 C1.08862305,7.54052734 1.21557617,7.76269531 1.36157227,7.94677734 L3.48803711,10.5112305 C5.09399414,12.4599609 6.97924805,13.0629883 9.08666992,12.2949219 Z M4.12280273,9.99072266 L1.99633789,7.43261719 C1.93286133,7.35644531 1.88842773,7.28662109 1.8503418,7.17871094 C1.77416992,6.97558594 1.86303711,6.74072266 2.10424805,6.65185547 C2.30737305,6.58203125 2.46606445,6.65820312 2.63110352,6.82958984 L4.10375977,8.34667969 C4.3449707,8.59423828 4.56079102,8.62597656 4.77026367,8.54980469 C5.02416992,8.45458984 5.12573242,8.19433594 5.02416992,7.92138672 L2.77709961,1.73876953 C2.68188477,1.48486328 2.79614258,1.24365234 3.03735352,1.15478516 C3.28491211,1.06591797 3.51342773,1.18017578 3.60864258,1.44042969 L5.21459961,5.85205078 C5.29077148,6.06152344 5.52563477,6.15039062 5.73510742,6.08056641 C5.93823242,6.00439453 6.04614258,5.78222656 5.97631836,5.57275391 L5.39233398,3.98583984 C5.48120117,3.90332031 5.60180664,3.82080078 5.72241211,3.77636719 C6.02075195,3.66845703 6.26831055,3.80175781 6.38256836,4.11279297 L6.89038086,5.49658203 C6.96655273,5.71875 7.20141602,5.80126953 7.40454102,5.72509766 C7.60131836,5.65527344 7.72827148,5.44580078 7.64575195,5.22363281 L7.2331543,4.09375 C7.32202148,4.01123047 7.44262695,3.92871094 7.56323242,3.88427734 C7.86157227,3.77636719 8.10913086,3.90966797 8.22338867,4.22070312 L8.55981445,5.14746094 C8.64233398,5.36962891 8.87719727,5.45214844 9.08032227,5.37597656 C9.27709961,5.30615234 9.39770508,5.09033203 9.3215332,4.87451172 L9.06762695,4.18896484 C9.60083008,3.99853516 10.1022949,4.43017578 10.4450684,5.38232422 L10.8449707,6.46777344 C11.7145996,8.8671875 10.9274902,10.6953125 8.8137207,11.4633789 C7.15063477,12.0727539 5.58911133,11.7617187 4.12280273,9.99072266 Z" id="solid"></path>
        </g>
    </g>
</svg>