<?xml version="1.0" encoding="UTF-8"?>
<svg width="15px" height="15px" viewBox="0 0 15 15" version="1.1" xmlns="http://www.w3.org/2000/svg" xmlns:xlink="http://www.w3.org/1999/xlink">
    <title>human/lungs</title>
    <g id="human/lungs" stroke="none" stroke-width="1" fill="none" fill-rule="evenodd">
        <g id="dark" transform="translate(-1.500000, 1.000000)" fill="#000000" fill-rule="nonzero">
            <path d="M9.38330078,7.95458984 L9.38330078,2.26123047 C9.38330078,1.97119141 9.14697266,1.73486328 8.85693359,1.73486328 C8.56689453,1.73486328 8.33056641,1.97119141 8.33056641,2.26123047 L8.33056641,7.95458984 L7.33154297,8.16943359 L7.33154297,3.48046875 C7.33154297,2.34179688 6.53125,1.58447266 5.34960938,1.58447266 C4.32373047,1.58447266 3.48046875,2.26660156 3.21191406,3.34082031 L1.4609375,10.3339844 C1.09033203,11.8110352 1.96044922,12.7509766 3.47509766,12.4555664 L5.60742188,12.0419922 C6.79980469,11.8164063 7.33154297,11.1611328 7.33154297,9.89355469 L7.33154297,9.24902344 L8.85693359,8.92138672 L10.3823242,9.24902344 L10.3876953,9.24902344 L10.3876953,9.89355469 C10.3876953,11.1611328 10.9194336,11.8164063 12.1118164,12.0419922 L14.2441406,12.4555664 C15.7587891,12.7509766 16.6289063,11.8110352 16.2583008,10.3339844 L14.5073242,3.34082031 C14.2387695,2.26660156 13.3955078,1.58447266 12.3696289,1.58447266 C11.1826172,1.58447266 10.3876953,2.34179688 10.3876953,3.48046875 L10.3876953,8.16943359 L9.38330078,7.95458984 Z M3.52880859,9.51220703 C3.46972656,9.23291016 3.65771484,8.94824219 3.93701172,8.89453125 L5.40869141,8.57763672 L4.18408203,7.48193359 C3.96923828,7.29931641 3.94775391,6.95556641 4.14111328,6.73535156 C4.33447266,6.52587891 4.68359375,6.51513672 4.88769531,6.703125 L6.67089844,8.30908203 L7.32617188,8.16943359 L7.32617188,9.24902344 L4.15185547,9.92041016 C3.87792969,9.97949219 3.58251953,9.79150391 3.52880859,9.51220703 Z M10.3876953,8.16943359 L11.0375977,8.30908203 L12.8261719,6.703125 C13.0302734,6.51513672 13.3793945,6.52587891 13.5673828,6.73535156 C13.7607422,6.95556641 13.7392578,7.29931641 13.5244141,7.48193359 L12.2998047,8.57763672 L13.7768555,8.89453125 C14.0507812,8.94824219 14.2387695,9.23291016 14.1850586,9.51220703 C14.1313477,9.79150391 13.8359375,9.97949219 13.5566406,9.92041016 L10.387,9.25 L10.3876953,8.16943359 Z" id="solid"></path>
        </g>
        <g id="light" transform="translate(-0.500000, 2.000000)" fill="#000000" fill-rule="nonzero">
            <path d="M2.60400391,11.6005859 L4.86523438,11.1655273 C6.1328125,10.918457 6.69677734,10.2202148 6.69677734,8.87744141 L6.69677734,2.48046875 C6.69677734,1.26660156 5.85351563,0.4609375 4.59130859,0.4609375 C3.50097656,0.4609375 2.62011719,1.18603516 2.31933594,2.32470703 L0.466308594,9.34472656 C0.052734375,10.9130859 0.992675781,11.9121094 2.60400391,11.6005859 Z M15.9082031,9.34472656 L14.0551758,2.32470703 C13.7543945,1.18603516 12.8735352,0.4609375 11.7832031,0.4609375 C10.5209961,0.4609375 9.67773438,1.26660156 9.67773438,2.48046875 L9.67773438,7.13720703 L8.71630859,6.93310547 L8.71630859,1.26123047 C8.71630859,0.971191406 8.47998047,0.734863281 8.18994141,0.734863281 C7.89990234,0.734863281 7.66357422,0.971191406 7.66357422,1.26123047 L7.66357422,6.93310547 L6.70214844,7.13720703 L6.70214844,8.21142578 L8.18994141,7.89453125 L9.67773438,8.21142578 L9.67773438,8.87744141 C9.67773438,10.2202148 10.2416992,10.918457 11.5092773,11.1655273 L13.7705078,11.6005859 C15.3818359,11.9121094 16.3217773,10.9130859 15.9082031,9.34472656 Z" id="translucent" fill-opacity="0.35"></path>
            <path d="M2.60400391,11.6005859 L4.86523438,11.1655273 C6.1328125,10.918457 6.69677734,10.2202148 6.69677734,8.87744141 L6.69677734,2.48046875 C6.69677734,1.26660156 5.85351563,0.4609375 4.59130859,0.4609375 C3.50097656,0.4609375 2.62011719,1.18603516 2.31933594,2.32470703 L0.466308594,9.34472656 C0.052734375,10.9130859 0.992675781,11.9121094 2.60400391,11.6005859 Z M15.9082031,9.34472656 L14.0551758,2.32470703 C13.7543945,1.18603516 12.8735352,0.4609375 11.7832031,0.4609375 C10.5209961,0.4609375 9.67773438,1.26660156 9.67773438,2.48046875 L9.67773438,7.13720703 L8.71630859,6.93310547 L8.71630859,1.26123047 C8.71630859,0.971191406 8.47998047,0.734863281 8.18994141,0.734863281 C7.89990234,0.734863281 7.66357422,0.971191406 7.66357422,1.26123047 L7.66357422,6.93310547 L6.70214844,7.13720703 L6.70214844,8.21142578 L8.18994141,7.89453125 L9.67773438,8.21142578 L9.67773438,8.87744141 C9.67773438,10.2202148 10.2416992,10.918457 11.5092773,11.1655273 L13.7705078,11.6005859 C15.3818359,11.9121094 16.3217773,10.9130859 15.9082031,9.34472656 Z M1.50830078,9.55419922 L3.35058594,2.57177734 C3.51708984,1.94335938 4.01123047,1.51904297 4.5859375,1.51904297 C5.21435547,1.51904297 5.64404297,1.91650391 5.64404297,2.50195312 L5.64404297,6.95996094 L4.22070313,5.67626953 C4.01660156,5.49365234 3.66210938,5.50439453 3.47412109,5.71386719 C3.28076172,5.92871094 3.30224609,6.27246094 3.51708984,6.45507812 L4.74169922,7.55078125 L3.26464844,7.86767578 C2.99072266,7.92138672 2.80273438,8.20605469 2.85644531,8.48535156 C2.91552734,8.76464844 3.20556641,8.95263672 3.48486328,8.89355469 L5.64404297,8.43701172 L5.64404297,8.87744141 C5.64404297,9.68847656 5.40771484,9.97851562 4.671875,10.1235352 L2.42138672,10.5585938 C1.75,10.6928711 1.32568359,10.2578125 1.50830078,9.55419922 Z M13.953125,10.5585938 L11.7026367,10.1235352 C10.9667969,9.97851562 10.7304688,9.68847656 10.7304688,8.87744141 L10.7304688,8.43701172 L12.8896484,8.89355469 C13.1689453,8.95263672 13.4589844,8.76464844 13.5180664,8.48535156 C13.5717773,8.20605469 13.3837891,7.92138672 13.1098633,7.86767578 L11.6328125,7.55078125 L12.8574219,6.45507812 C13.0722656,6.27246094 13.09375,5.92871094 12.9003906,5.71386719 C12.7124023,5.50439453 12.3579102,5.49365234 12.1538086,5.67626953 L10.7304688,6.95996094 L10.7304688,2.50195312 C10.7304688,1.91650391 11.1601563,1.51904297 11.7885742,1.51904297 C12.3632813,1.51904297 12.8574219,1.94335938 13.0239258,2.57177734 L14.8662109,9.55419922 C15.0488281,10.2578125 14.6245117,10.6928711 13.953125,10.5585938 Z" id="solid"></path>
        </g>
    </g>
</svg>