<?xml version="1.0" encoding="UTF-8"?>
<svg width="15px" height="15px" viewBox="0 0 15 15" version="1.1" xmlns="http://www.w3.org/2000/svg" xmlns:xlink="http://www.w3.org/1999/xlink">
    <title>human/mouth</title>
    <g id="human/mouth" stroke="none" stroke-width="1" fill="none" fill-rule="evenodd">
        <g id="dark" transform="translate(-2.000000, 0.000000)" fill="#000000" fill-rule="nonzero" opacity="0.75">
            <path d="M9.28027344,11.4477539 C12.3779297,11.4477539 14.6503906,9.81640625 17.0625,6.80126953 C17.7163086,5.98242188 17.4179688,5.23974609 16.6625977,5.15087891 C14.3710938,4.87792969 13.7617188,3.40527344 11.8828125,3.40527344 C10.3974609,3.40527344 9.51513672,4.57324219 9.28027344,4.57324219 C9.0390625,4.57324219 8.15673828,3.40527344 6.67138672,3.40527344 C4.79248047,3.40527344 4.18945313,4.87792969 1.89160156,5.15087891 C1.14257813,5.23974609 0.844238281,5.98242188 1.49169922,6.80126953 C3.91015625,9.81640625 6.17626953,11.4477539 9.28027344,11.4477539 Z M9.28027344,8.00732422 C8.4296875,8.00732422 8.27099609,7.23925781 6.78564453,7.23925781 C6.08740234,7.24560547 4.41162109,7.55664062 2.9453125,6.64892578 C2.62158203,6.45214844 2.81835938,6.09033203 3.11669922,6.22998047 C4.01171875,6.65527344 4.93847656,6.61083984 6.10644531,6.48388672 C6.41748047,6.44580078 6.72851562,6.40136719 7.03955078,6.40136719 C8.00439453,6.40136719 8.52490234,6.73779297 8.87402344,6.94726562 C9.10253906,7.08056641 9.17871094,7.10595703 9.28027344,7.10595703 C9.38183594,7.10595703 9.45800781,7.08056641 9.68652344,6.94726562 C10.0356445,6.74414062 10.5498047,6.40136719 11.5146484,6.40136719 C11.8256836,6.40136719 12.1367188,6.44580078 12.4541016,6.48388672 C13.6157227,6.64257812 14.5488281,6.65527344 15.4438477,6.22998047 C15.7421875,6.09033203 15.9389648,6.45214844 15.6088867,6.64892578 C14.1425781,7.54394531 12.4731445,7.24560547 11.7685547,7.23925781 C10.2895508,7.23925781 10.1308594,8.00732422 9.28027344,8.00732422 Z" id="opaque"></path>
        </g>
        <g id="light" transform="translate(-1.000000, 3.000000)" fill="#000000" fill-rule="nonzero">
            <path d="M8.27392578,8.47949219 C11.4667969,8.47949219 13.7011719,6.88623047 15.9736328,4.15039062 C16.7290039,3.23632812 16.5258789,2.16357422 15.3388672,2.02392578 C13.5043945,1.81445312 12.9013672,0.373535156 10.965332,0.373535156 C9.44189453,0.373535156 8.54052734,1.50976562 8.27392578,1.50976562 C8.01367187,1.50976562 7.11230469,0.373535156 5.58886719,0.373535156 C3.65283203,0.373535156 3.04980469,1.81445312 1.21533203,2.02392578 C0.0283203125,2.16357422 -0.174804688,3.23632812 0.580566406,4.15039062 C2.85302734,6.88623047 5.08740234,8.47949219 8.27392578,8.47949219 Z" id="translucent" opacity="0.25"></path>
            <path d="M8.27392578,8.47949219 C11.4667969,8.47949219 13.7011719,6.88623047 15.9736328,4.15039062 C16.7290039,3.23632812 16.5258789,2.16357422 15.3388672,2.02392578 C13.5043945,1.81445312 12.9013672,0.373535156 10.965332,0.373535156 C9.44189453,0.373535156 8.54052734,1.50976562 8.27392578,1.50976562 C8.01367187,1.50976562 7.11230469,0.373535156 5.58886719,0.373535156 C3.65283203,0.373535156 3.04980469,1.81445312 1.21533203,2.02392578 C0.0283203125,2.16357422 -0.174804688,3.23632812 0.580566406,4.15039062 C2.85302734,6.88623047 5.08740234,8.47949219 8.27392578,8.47949219 Z M8.27392578,4.10595703 C8.17871094,4.10595703 8.09619141,4.08056641 7.86132812,3.94091797 C7.51220703,3.73779297 6.98535156,3.38867188 6.00146484,3.38867188 C5.69042969,3.38867188 5.37304687,3.43945312 5.05566406,3.47119141 C3.82421875,3.60449219 2.42138672,3.61083984 1.11376953,2.95068359 C1.15820312,2.92529297 1.21533203,2.90625 1.27880859,2.89355469 L1.76123047,2.79833984 C3.68457031,2.43652344 4.42089844,1.35107422 5.65234375,1.35107422 C6.29980469,1.35107422 6.76318359,1.66845703 7.20117187,1.98583984 C7.62011719,2.29052734 7.91210937,2.48730469 8.27392578,2.48730469 C8.64208984,2.48730469 8.92773437,2.29052734 9.35302734,1.98583984 C9.79101562,1.66845703 10.2543945,1.35107422 10.9018555,1.35107422 C12.1333008,1.35107422 12.8696289,2.43652344 14.7929687,2.79833984 L15.2753906,2.89355469 C15.3388672,2.90625 15.3959961,2.92529297 15.4404297,2.95068359 C14.1582031,3.6171875 12.7490234,3.60449219 11.5175781,3.47753906 C11.1875,3.43310547 10.8637695,3.38867188 10.5527344,3.38867188 C9.56884766,3.38867188 9.04199219,3.73779297 8.68652344,3.94091797 C8.45166016,4.08056641 8.37548828,4.10595703 8.27392578,4.10595703 Z M8.27392578,7.50195312 C5.09375,7.50195312 2.89111328,5.37548828 1.11376953,3.50292969 C3.08154297,4.85498047 4.65576172,4.30908203 5.93798828,4.30273438 C7.25195312,4.30273438 7.41064453,5.02001953 8.27392578,5.02001953 C9.14355469,5.02001953 9.30224609,4.30273438 10.6162109,4.30273438 C11.8984375,4.30908203 13.4726562,4.86132812 15.4404297,3.50927734 C13.6630859,5.36914062 11.4604492,7.50195312 8.27392578,7.50195312 Z" id="solid" opacity="0.5"></path>
        </g>
    </g>
</svg>