<?xml version="1.0" encoding="UTF-8"?>
<svg width="15px" height="15px" viewBox="0 0 15 15" version="1.1" xmlns="http://www.w3.org/2000/svg" xmlns:xlink="http://www.w3.org/1999/xlink">
    <title>human/mustache</title>
    <g id="human/mustache" stroke="none" stroke-width="1" fill="none" fill-rule="evenodd">
        <g id="dark" transform="translate(-1.000000, 1.000000)" fill="#000000" fill-rule="nonzero" opacity="0.75">
            <path d="M12.315918,10.0439453 C14.5664062,10.0439453 16.3818359,8.69580078 16.3818359,6.92871094 C16.3818359,6.30566406 16.1938477,5.89746094 15.8017578,5.89746094 C15.6567383,5.89746094 15.5117188,5.98876953 15.4204102,6.12841797 C15.1518555,6.51513672 14.6899414,6.72998047 14.1206055,6.72998047 C12.5253906,6.72998047 12.0634766,4.76416016 10.0869141,4.76416016 C9.49072266,4.76416016 9.00195312,4.96289062 8.66894531,5.328125 C8.34130859,4.96289062 7.85253906,4.76416016 7.25097656,4.76416016 C5.27441406,4.76416016 4.81787109,6.72998047 3.21728516,6.72998047 C2.68554688,6.72998047 2.234375,6.52050781 1.91748047,6.11767578 C1.81005859,5.98339844 1.67578125,5.89746094 1.54150391,5.89746094 C1.14404297,5.89746094 0.961425781,6.30566406 0.961425781,6.92871094 C0.961425781,8.69580078 2.77685547,10.0439453 5.02734375,10.0439453 C6.61181641,10.0439453 7.90087891,9.49072266 8.66894531,8.48095703 C9.44238281,9.49072266 10.7260742,10.0439453 12.315918,10.0439453 Z" id="opaque"></path>
        </g>
        <g id="light" transform="translate(-1.000000, 1.000000)" fill="#000000" fill-rule="nonzero">
            <path d="M12.1708984,10.2802734 C14.550293,10.2802734 16.3979492,8.82470703 16.3979492,6.95556641 C16.3979492,6.13916016 16.0541992,5.65039062 15.4472656,5.65039062 C15.1948242,5.65039062 14.9746094,5.76318359 14.7758789,5.98339844 C14.5610352,6.21972656 14.2441406,6.37548828 13.8735352,6.37548828 C12.5791016,6.37548828 12.1708984,4.52783203 10.0170898,4.52783203 C9.49072266,4.52783203 9.0234375,4.68896484 8.6796875,4.97900391 C8.3359375,4.68896484 7.86865234,4.52783203 7.34228516,4.52783203 C5.18847656,4.52783203 4.78027344,6.37548828 3.48583984,6.37548828 C3.16156006,6.37548828 2.87840271,6.25623322 2.66875172,6.06809807 L2.58349609,5.98339844 C2.38476562,5.76318359 2.16455078,5.65039062 1.91210938,5.65039062 C1.30517578,5.65039062 0.961425781,6.13916016 0.961425781,6.95556641 C0.961425781,8.82470703 2.80908203,10.2802734 5.18847656,10.2802734 C6.62255859,10.2802734 7.85791016,9.81835938 8.6796875,8.99121094 C9.50146484,9.81835938 10.7368164,10.2802734 12.1708984,10.2802734 Z" id="translucent" opacity="0.25"></path>
            <path d="M12.1708984,10.2802734 C14.550293,10.2802734 16.3979492,8.82470703 16.3979492,6.95556641 C16.3979492,6.13916016 16.0541992,5.65039062 15.4472656,5.65039062 C15.1948242,5.65039062 14.9746094,5.76318359 14.7758789,5.98339844 C14.5610352,6.21972656 14.2441406,6.37548828 13.8735352,6.37548828 C12.5791016,6.37548828 12.1708984,4.52783203 10.0170898,4.52783203 C9.49072266,4.52783203 9.0234375,4.68896484 8.6796875,4.97900391 C8.3359375,4.68896484 7.86865234,4.52783203 7.34228516,4.52783203 C5.18847656,4.52783203 4.78027344,6.37548828 3.48583984,6.37548828 C3.16156006,6.37548828 2.87840271,6.25623322 2.66875172,6.06809807 L2.58349609,5.98339844 C2.38476562,5.76318359 2.16455078,5.65039062 1.91210938,5.65039062 C1.30517578,5.65039062 0.961425781,6.13916016 0.961425781,6.95556641 C0.961425781,8.82470703 2.80908203,10.2802734 5.18847656,10.2802734 C6.62255859,10.2802734 7.85791016,9.81835938 8.6796875,8.99121094 C9.50146484,9.81835938 10.7368164,10.2802734 12.1708984,10.2802734 Z M12.1708984,9.25976562 C10.6025391,9.25976562 9.44775391,8.63134766 8.99121094,7.66992188 C8.84082031,7.390625 8.51855469,7.38525391 8.36816406,7.66992188 C7.91699219,8.63134766 6.76220703,9.25976562 5.18847656,9.25976562 C3.4375,9.25976562 2.05712891,8.28759766 1.98193359,7.046875 C1.9765625,6.91259766 2.08935547,6.89111328 2.17529297,6.95019531 C2.49755859,7.22412109 2.98095703,7.36914062 3.48583984,7.36914062 C4.45263672,7.36914062 5.10253906,6.84814453 5.62890625,6.39697266 C6.17675781,5.9296875 6.6171875,5.54833984 7.34228516,5.54833984 C7.83105469,5.54833984 8.19628906,5.76318359 8.40039062,6.1015625 C8.57226562,6.31640625 8.78710938,6.31640625 8.95898438,6.1015625 C9.16308594,5.76318359 9.52832031,5.54833984 10.0170898,5.54833984 C10.7421875,5.54833984 11.1826172,5.9296875 11.7304688,6.39697266 C12.2568359,6.84814453 12.9067383,7.36914062 13.8735352,7.36914062 C14.378418,7.36914062 14.8618164,7.21875 15.1948242,6.93408203 C15.2861328,6.86962891 15.3828125,6.88574219 15.3774414,7.046875 C15.3022461,8.28759766 13.921875,9.25976562 12.1708984,9.25976562 Z" id="solid" opacity="0.5"></path>
        </g>
    </g>
</svg>