<?xml version="1.0" encoding="UTF-8"?>
<svg width="15px" height="15px" viewBox="0 0 15 15" version="1.1" xmlns="http://www.w3.org/2000/svg" xmlns:xlink="http://www.w3.org/1999/xlink">
    <title>human/nose</title>
    <g id="human/nose" stroke="none" stroke-width="1" fill="none" fill-rule="evenodd">
        <g id="dark" fill="#000000" fill-rule="nonzero" opacity="0.75">
            <path d="M11.1020508,13.4345703 C12.7905273,13.4345703 13.9077148,12.3681641 13.9077148,10.762207 C13.9077148,9.23242188 12.8032227,8.08984375 11.1210938,7.90576172 C10.4799805,6.39501953 10.0229492,4.73193359 9.65478516,3.13867188 C9.36279297,1.85009766 8.70263672,1.16455078 7.52197266,1.16455078 C6.34130859,1.16455078 5.68115234,1.85009766 5.38916016,3.13867188 C5.02099609,4.73193359 4.56396484,6.39501953 3.92285156,7.90576172 C2.24072266,8.08984375 1.13623047,9.23242188 1.13623047,10.762207 C1.13623047,12.3681641 2.25341797,13.4345703 3.94189453,13.4345703 C4.45605469,13.4345703 5.00830078,13.2568359 5.36376953,12.9902344 C5.09082031,12.793457 4.85595703,12.5776367 4.52587891,12.1650391 C4.37988281,12.2285156 4.18310547,12.2729492 3.98632812,12.2729492 C3.45947266,12.2729492 3.10400391,11.9682617 3.10400391,11.5366211 C3.10400391,11.1240234 3.40869141,10.8383789 3.86572266,10.8383789 C4.265625,10.8383789 4.53857422,11.0732422 4.83691406,11.4033203 C5.484375,12.1079102 6.10009766,12.9267578 7.52197266,12.9267578 C8.94384766,12.9267578 9.55957031,12.1079102 10.2070312,11.4033203 C10.5053711,11.0732422 10.7783203,10.8383789 11.1782227,10.8383789 C11.6289062,10.8383789 11.9399414,11.1240234 11.9399414,11.5366211 C11.9399414,11.9682617 11.5844727,12.2729492 11.0512695,12.2729492 C10.8608398,12.2729492 10.6640625,12.2285156 10.5117188,12.1650391 C10.1879883,12.5776367 9.953125,12.793457 9.68017578,12.9902344 C10.0356445,13.2568359 10.5878906,13.4345703 11.1020508,13.4345703 Z" id="opaque"></path>
        </g>
        <g id="light" fill="#000000" fill-rule="nonzero">
            <path d="M7.52197266,13.625 C8.47412109,13.625 9.14697266,13.3520508 9.66113281,12.9711914 C10.1118164,13.2695312 10.6132812,13.4345703 11.1020508,13.4345703 C12.7905273,13.4345703 13.9077148,12.3681641 13.9077148,10.762207 C13.9077148,9.23242188 12.8032227,8.08984375 11.1210938,7.90576172 C10.543457,6.39501953 10.0864258,4.73193359 9.71826172,3.13867188 C9.42626953,1.85009766 8.70263672,1.16455078 7.52197266,1.16455078 C6.34130859,1.16455078 5.61767578,1.85009766 5.32568359,3.13867188 C4.95751953,4.73193359 4.50048828,6.39501953 3.92285156,7.90576172 C2.24072266,8.08984375 1.13623047,9.23242188 1.13623047,10.762207 C1.13623047,12.3681641 2.25341797,13.4345703 3.94189453,13.4345703 C4.43066406,13.4345703 4.93212891,13.2695312 5.3828125,12.9711914 C5.890625,13.3520508 6.56982422,13.625 7.52197266,13.625 Z" id="translucent" opacity="0.25"></path>
            <path d="M7.52197266,13.625 C8.47412109,13.625 9.14697266,13.3520508 9.66113281,12.9711914 C10.1118164,13.2695312 10.6132812,13.4345703 11.1020508,13.4345703 C12.7905273,13.4345703 13.9077148,12.3681641 13.9077148,10.762207 C13.9077148,9.23242188 12.8032227,8.08984375 11.1210938,7.90576172 C10.543457,6.39501953 10.0864258,4.73193359 9.71826172,3.13867188 C9.42626953,1.85009766 8.70263672,1.16455078 7.52197266,1.16455078 C6.34130859,1.16455078 5.61767578,1.85009766 5.32568359,3.13867188 C4.95751953,4.73193359 4.50048828,6.39501953 3.92285156,7.90576172 C2.24072266,8.08984375 1.13623047,9.23242188 1.13623047,10.762207 C1.13623047,12.3681641 2.25341797,13.4345703 3.94189453,13.4345703 C4.43066406,13.4345703 4.93212891,13.2695312 5.3828125,12.9711914 C5.890625,13.3520508 6.56982422,13.625 7.52197266,13.625 Z M7.52197266,12.5585938 C6.42382812,12.5585938 5.70654297,12.1967773 4.92578125,11.3461914 C4.64013672,11.0351562 4.44335938,10.8510742 4.10058594,10.8510742 C3.61816406,10.8510742 3.3515625,11.206543 3.3515625,11.574707 C3.3515625,11.9428711 3.64355469,12.2983398 4.14501953,12.2983398 C4.31005859,12.2983398 4.45605469,12.2539062 4.58300781,12.1713867 C4.62109375,12.2158203 4.65283203,12.2539062 4.69091797,12.2983398 C4.45605469,12.40625 4.20849609,12.4633789 3.94824219,12.4633789 C2.9453125,12.4633789 2.19628906,11.7841797 2.19628906,10.8256836 C2.19628906,9.43554688 3.35791016,8.73730469 4.68457031,8.94042969 C5.45263672,7.25195312 5.84619141,5.21435547 6.28417969,3.39257812 C6.47460938,2.61181641 6.83007812,2.18652344 7.52197266,2.18652344 C8.21386719,2.18652344 8.56933594,2.61181641 8.75341797,3.39257812 C9.19775391,5.21435547 9.59130859,7.25195312 10.359375,8.94042969 C11.6860352,8.73730469 12.8476562,9.43554688 12.8476562,10.8256836 C12.8476562,11.7841797 12.0986328,12.4633789 11.0957031,12.4633789 C10.8354492,12.4633789 10.5878906,12.40625 10.3530273,12.2983398 C10.3911133,12.2539062 10.4228516,12.2158203 10.4545898,12.1713867 C10.5878906,12.2539062 10.7338867,12.2983398 10.8925781,12.2983398 C11.4003906,12.2983398 11.6923828,11.9428711 11.6923828,11.574707 C11.6923828,11.206543 11.4194336,10.8510742 10.9433594,10.8510742 C10.6005859,10.8510742 10.4038086,11.0351562 10.1181641,11.3461914 C9.33105469,12.1904297 8.62011719,12.5585938 7.52197266,12.5585938 Z" id="solid" opacity="0.5"></path>
        </g>
    </g>
</svg>