<?xml version="1.0" encoding="UTF-8"?>
<svg width="15px" height="15px" viewBox="0 0 15 15" version="1.1" xmlns="http://www.w3.org/2000/svg" xmlns:xlink="http://www.w3.org/1999/xlink">
    <title>human/person</title>
    <g id="human/person" stroke="none" stroke-width="1" fill="none" fill-rule="evenodd">
        <g id="dark" fill="#7B7B7B" fill-rule="nonzero">
            <path d="M7.50317383,7.35351562 C8.86157227,7.35351562 10.0422363,6.13476562 10.0422363,4.54785156 C10.0422363,2.97998047 8.86157227,1.81835938 7.50317383,1.81835938 C6.14477539,1.81835938 4.96411133,3.00537109 4.96411133,4.56054688 C4.96411133,6.13476562 6.13842773,7.35351562 7.50317383,7.35351562 Z M11.4831543,13.2314453 C12.486084,13.2314453 12.8415527,12.9458008 12.8415527,12.387207 C12.8415527,10.7495117 10.7912598,8.48974609 7.49682617,8.48974609 C4.20874023,8.48974609 2.15844727,10.7495117 2.15844727,12.387207 C2.15844727,12.9458008 2.51391602,13.2314453 3.51049805,13.2314453 L11.4831543,13.2314453 Z" id="fill"></path>
        </g>
        <g id="light" transform="translate(1.000000, 1.000000)" fill="#7B7B7B" fill-rule="nonzero">
            <path d="M6.50317383,6.53125 C8.01391602,6.53125 9.24536133,5.18554688 9.24536133,3.54785156 C9.24536133,1.92285156 8.02026367,0.646972656 6.50317383,0.646972656 C4.9987793,0.646972656 3.76098633,1.94824219 3.76098633,3.56054688 C3.76733398,5.19189453 4.99243164,6.53125 6.50317383,6.53125 Z M10.489502,12.402832 C11.5432129,12.402832 12.0446777,12.0854492 12.0446777,11.387207 C12.0446777,9.72412109 9.94360352,7.31835938 6.50317383,7.31835938 C3.05639648,7.31835938 0.955322266,9.72412109 0.955322266,11.387207 C0.955322266,12.0854492 1.45678711,12.402832 2.51049805,12.402832 L10.489502,12.402832 Z" id="fill" opacity="0.35"></path>
            <path d="M6.50317383,6.53125 C8.01391602,6.53125 9.24536133,5.18554688 9.24536133,3.54785156 C9.24536133,1.92285156 8.02026367,0.646972656 6.50317383,0.646972656 C4.9987793,0.646972656 3.76098633,1.94824219 3.76098633,3.56054688 C3.76733398,5.19189453 4.99243164,6.53125 6.50317383,6.53125 Z M6.50317383,5.57275391 C5.57641602,5.57275391 4.78295898,4.68408203 4.78295898,3.56054688 C4.78295898,2.45605469 5.5637207,1.60546875 6.50317383,1.60546875 C7.44897461,1.60546875 8.22338867,2.44335938 8.22338867,3.54785156 C8.22338867,4.67138672 7.4362793,5.57275391 6.50317383,5.57275391 Z M10.489502,12.402832 C11.5432129,12.402832 12.0446777,12.0854492 12.0446777,11.387207 C12.0446777,9.72412109 9.94360352,7.31835938 6.50317383,7.31835938 C3.05639648,7.31835938 0.955322266,9.72412109 0.955322266,11.387207 C0.955322266,12.0854492 1.45678711,12.402832 2.51049805,12.402832 L10.489502,12.402832 Z M10.7941895,11.4443359 L2.2121582,11.4443359 C2.04711914,11.4443359 1.97729492,11.3999023 1.97729492,11.2666016 C1.97729492,10.2255859 3.58959961,8.27685547 6.50317383,8.27685547 C9.41040039,8.27685547 11.0227051,10.2255859 11.0227051,11.2666016 C11.0227051,11.3999023 10.9592285,11.4443359 10.7941895,11.4443359 Z" id="stroke"></path>
        </g>
    </g>
</svg>