<?xml version="1.0" encoding="UTF-8"?>
<svg width="15px" height="15px" viewBox="0 0 15 15" version="1.1" xmlns="http://www.w3.org/2000/svg" xmlns:xlink="http://www.w3.org/1999/xlink">
    <title>human/thumbs-down</title>
    <g id="human/thumbs-down" stroke="none" stroke-width="1" fill="none" fill-rule="evenodd">
        <g id="dark" fill="#000000" fill-rule="nonzero" opacity="0.75">
            <path d="M5.59863281,14.8310547 C6.06835938,14.8310547 6.30322266,14.5073242 6.55712891,14.012207 C7.52832031,12.1142578 8.8359375,10.5717773 9.83251953,9.25146484 C10.6767578,8.12792969 11.0893555,7.16308594 11.1147461,5.61425781 C11.152832,3.21484375 9.20410156,1.38671875 6.15087891,1.36767578 L5.24951172,1.35498047 C4.39892578,1.34863281 3.77050781,1.41210938 3.40869141,1.50732422 C2.90087891,1.640625 2.39941406,1.95166016 2.39941406,2.57373047 C2.39941406,2.82763672 2.46289062,3.01171875 2.55175781,3.15771484 C2.60253906,3.23388672 2.59619141,3.30371094 2.51367188,3.33544922 C2.10742188,3.50048828 1.76464844,3.88769531 1.76464844,4.40820313 C1.76464844,4.70654297 1.85351562,4.96679688 1.99316406,5.15087891 C2.06933594,5.24609375 2.05664062,5.33496094 1.94238281,5.40478516 C1.64404297,5.57617188 1.44091797,5.95068359 1.44091797,6.37597656 C1.44091797,6.68066406 1.53613281,7.00439453 1.71386719,7.16308594 C1.81542969,7.25830078 1.79638672,7.32177734 1.68847656,7.41699219 C1.47900391,7.59472656 1.35205078,7.89306641 1.35205078,8.26123047 C1.35205078,8.89599609 1.84716797,9.41650391 2.49462891,9.41650391 L4.81152344,9.41650391 C5.40185547,9.41650391 5.7890625,9.72119141 5.7890625,10.2036133 C5.7890625,11.0859375 4.69091797,12.7045898 4.69091797,13.8662109 C4.69091797,14.4755859 5.08447266,14.8310547 5.59863281,14.8310547 Z M11.7114258,9.16894531 C13.184082,9.16894531 14.3139648,7.58837891 14.3139648,5.56347656 C14.3139648,3.61474609 13.0952148,1.98339844 11.4702148,1.98339844 L10.3085938,1.98339844 C11.4892578,2.84667969 12.0224609,4.14794922 11.9970703,5.62695313 C11.9716797,7.27734375 11.3369141,8.45166016 10.7592773,9.16894531 L11.7114258,9.16894531 Z" id="opaque"></path>
        </g>
        <g id="light" fill="#000000" fill-rule="nonzero">
            <path d="M5.85253906,15.25 C6.47460938,15.25 6.88720703,14.9262695 7.29980469,14.1391602 C8.07421875,12.6538086 8.98828125,11.3398438 10.4990234,9.49902344 L11.7114258,9.49902344 C13.2729492,9.49902344 14.5361328,7.72802734 14.5361328,5.55712891 C14.5361328,3.42431641 13.1523438,1.64697266 11.4702148,1.64697266 L9.36914062,1.64697266 C8.53125,1.20898438 7.515625,0.942382812 6.38574219,0.942382812 L5.50976562,0.942382812 C4.71630859,0.942382812 4.03076172,0.993164062 3.58007812,1.10107422 C2.69775391,1.31689453 2.15185547,1.92626953 2.15185547,2.70068359 C2.15185547,2.86572266 2.17724609,3.01171875 2.22167969,3.1640625 C1.79003906,3.48144531 1.53613281,3.96386719 1.53613281,4.49707031 C1.53613281,4.75097656 1.58691406,5.00488281 1.68212891,5.22070312 C1.39013672,5.51904297 1.21875,5.95703125 1.21875,6.4140625 C1.21875,6.71875 1.29492188,7.02978516 1.42822266,7.26464844 C1.24414062,7.51855469 1.13623047,7.87402344 1.13623047,8.25488281 C1.13623047,9.20703125 1.87890625,9.95605469 2.81835938,9.95605469 L5.22412109,9.95605469 C5.37646484,9.95605469 5.47167969,10.0195312 5.47167969,10.152832 C5.47167969,10.8447266 4.39257812,12.4506836 4.39257812,13.7392578 C4.39257812,14.6152344 5.00195312,15.25 5.85253906,15.25 Z" id="translucent" opacity="0.25"></path>
            <path d="M5.85253906,15.25 C6.47460938,15.25 6.88720703,14.9262695 7.29980469,14.1391602 C8.07421875,12.6538086 8.98828125,11.3398438 10.4990234,9.49902344 L11.7114258,9.49902344 C13.2729492,9.49902344 14.5361328,7.72802734 14.5361328,5.55712891 C14.5361328,3.42431641 13.1523438,1.64697266 11.4702148,1.64697266 L9.36914062,1.64697266 C8.53125,1.20898438 7.515625,0.942382812 6.38574219,0.942382812 L5.50976562,0.942382812 C4.71630859,0.942382812 4.03076172,0.993164062 3.58007812,1.10107422 C2.69775391,1.31689453 2.15185547,1.92626953 2.15185547,2.70068359 C2.15185547,2.86572266 2.17724609,3.01171875 2.22167969,3.1640625 C1.79003906,3.48144531 1.53613281,3.96386719 1.53613281,4.49707031 C1.53613281,4.75097656 1.58691406,5.00488281 1.68212891,5.22070312 C1.39013672,5.51904297 1.21875,5.95703125 1.21875,6.4140625 C1.21875,6.71875 1.29492188,7.02978516 1.42822266,7.26464844 C1.24414062,7.51855469 1.13623047,7.87402344 1.13623047,8.25488281 C1.13623047,9.20703125 1.87890625,9.95605469 2.81835938,9.95605469 L5.22412109,9.95605469 C5.37646484,9.95605469 5.47167969,10.0195312 5.47167969,10.152832 C5.47167969,10.8447266 4.39257812,12.4506836 4.39257812,13.7392578 C4.39257812,14.6152344 5.00195312,15.25 5.85253906,15.25 Z M5.81445312,14.2915039 C5.53515625,14.2915039 5.35107422,14.0947266 5.35107422,13.7392578 C5.35107422,12.7109375 6.43017578,11.1494141 6.43017578,10.152832 C6.43017578,9.43554688 5.83984375,8.99755859 5.08447266,8.99755859 L2.81835938,8.99755859 C2.40576172,8.99755859 2.09472656,8.68017578 2.09472656,8.25488281 C2.09472656,7.95654297 2.18994141,7.75976563 2.44384766,7.51855469 C2.55810547,7.41064453 2.56445312,7.27734375 2.47558594,7.15673828 C2.26611328,6.85839844 2.17724609,6.66796875 2.17724609,6.4140625 C2.17724609,6.11572266 2.31689453,5.86181641 2.60888672,5.63964844 C2.76757812,5.52539062 2.83105469,5.35400391 2.72949219,5.16357422 C2.57714844,4.86523438 2.49462891,4.72558594 2.49462891,4.49707031 C2.49462891,4.15429688 2.71679688,3.89404297 3.17382812,3.65917969 C3.31982422,3.57666016 3.3515625,3.45605469 3.28808594,3.31640625 C3.12939453,2.92919922 3.11035156,2.86572266 3.11035156,2.70068359 C3.11035156,2.39599609 3.33886719,2.1484375 3.80224609,2.03417969 C4.18310547,1.93896484 4.7734375,1.89453125 5.50341797,1.90087891 L6.37939453,1.90722656 C9.0390625,1.93261719 10.8481445,3.43701172 10.8481445,5.59521484 C10.8481445,6.96630859 10.5371094,7.84228516 9.67382812,8.99755859 C8.72167969,10.2734375 7.39501953,11.8032227 6.44287109,13.7011719 C6.20166016,14.1835938 6.04296875,14.2915039 5.81445312,14.2915039 Z M11.7114258,8.54052734 L11.1210938,8.54052734 C11.597168,7.64550781 11.8066406,6.71875 11.8066406,5.61425781 C11.8066406,4.42089844 11.375,3.38623047 10.6069336,2.60546875 L11.4702148,2.60546875 C12.5874023,2.60546875 13.5776367,3.95117188 13.5776367,5.55712891 C13.5776367,7.20117188 12.6889648,8.54052734 11.7114258,8.54052734 Z" id="solid" opacity="0.5"></path>
        </g>
    </g>
</svg>