<?xml version="1.0" encoding="UTF-8"?>
<svg width="15px" height="15px" viewBox="0 0 15 15" version="1.1" xmlns="http://www.w3.org/2000/svg" xmlns:xlink="http://www.w3.org/1999/xlink">
    <title>human/thumbs-up</title>
    <g id="human/thumbs-up" stroke="none" stroke-width="1" fill="none" fill-rule="evenodd">
        <g id="dark" fill="#000000" fill-rule="nonzero" opacity="0.75">
            <path d="M12.2509766,13.809082 C12.7651367,13.6757813 13.2666016,13.3647461 13.2666016,12.7426758 C13.2666016,12.4887695 13.203125,12.3110352 13.1142578,12.1650391 C13.0634766,12.0825195 13.0698242,12.0126953 13.1523438,11.980957 C13.5585938,11.815918 13.9013672,11.4350586 13.9013672,10.9082031 C13.9013672,10.6162109 13.8125,10.3496094 13.6728516,10.1655273 C13.5966797,10.0703125 13.609375,9.98779297 13.7236328,9.91162109 C14.0219727,9.74023438 14.2250977,9.37207031 14.2250977,8.94042969 C14.2250977,8.64208984 14.1298828,8.31201172 13.9521484,8.15332031 C13.8505859,8.05810547 13.8696289,7.99462891 13.9775391,7.89941406 C14.1870117,7.72802734 14.3139648,7.42333984 14.3139648,7.05517578 C14.3139648,6.42041016 13.8188477,5.90625 13.1713867,5.90625 L10.8544922,5.90625 C10.2641602,5.90625 9.87695312,5.6015625 9.87695312,5.11914063 C9.87695312,4.23046875 10.9750977,2.61816406 10.9750977,1.45654297 C10.9750977,0.847167969 10.581543,0.485351562 10.0673828,0.485351562 C9.59765625,0.485351562 9.36279297,0.809082031 9.10888672,1.30419922 C8.13769531,3.20849609 6.83007812,4.75097656 5.83349609,6.07128906 C4.98925781,7.19482422 4.57666016,8.15332031 4.55126953,9.70849609 C4.51318359,12.1079102 6.46191406,13.9296875 9.51513672,13.9550781 L10.4165039,13.9614258 C11.2670898,13.9677734 11.8955078,13.9042969 12.2509766,13.809082 Z M5.35742188,13.3330078 C4.17675781,12.4760742 3.64355469,11.1748047 3.66894531,9.68945312 C3.69433594,8.0390625 4.32910156,6.86474609 4.90673828,6.14746094 L3.95458984,6.14746094 C2.48193359,6.14746094 1.35205078,7.734375 1.35205078,9.75292969 C1.35205078,11.7016602 2.57080078,13.3330078 4.19580078,13.3330078 L5.35742188,13.3330078 Z" id="opaque"></path>
        </g>
        <g id="light" transform="translate(1.000000, 0.000000)" fill="#000000" fill-rule="nonzero">
            <path d="M9.16259766,14.3803711 C9.95605469,14.3803711 10.6416016,14.3295898 11.0922852,14.2216797 C11.9746094,14.0058594 12.5205078,13.3964844 12.5205078,12.6157227 C12.5205078,12.4570312 12.4951172,12.3046875 12.4443359,12.1586914 C12.8823242,11.8349609 13.1298828,11.3525391 13.1298828,10.8256836 C13.1298828,10.5654297 13.0854492,10.3115234 12.9838867,10.1020508 C13.2822266,9.80371094 13.4536133,9.36572266 13.4536133,8.90234375 C13.4536133,8.60400391 13.3774414,8.28662109 13.2441406,8.05810547 C13.4282227,7.79785156 13.5361328,7.44873047 13.5361328,7.06152344 C13.5361328,6.11572266 12.793457,5.36669922 11.8540039,5.36669922 L9.44824219,5.36669922 C9.29589844,5.36669922 9.19433594,5.296875 9.19433594,5.16992188 C9.19433594,4.47802734 10.2797852,2.87207031 10.2797852,1.58349609 C10.2797852,0.707519531 9.6640625,0.0727539062 8.81982422,0.0727539062 C8.19775391,0.0727539062 7.78515625,0.396484375 7.37255859,1.18359375 C6.59814453,2.66259766 5.67773438,3.98291016 4.17333984,5.82373047 L2.9609375,5.82373047 C1.39941406,5.82373047 0.136230469,7.59472656 0.136230469,9.75927734 C0.136230469,11.8920898 1.52001953,13.6757812 3.20214844,13.6757812 L5.30322266,13.6757812 C6.13476562,14.1137695 7.15039062,14.3803711 8.28662109,14.3803711 L9.16259766,14.3803711 Z" id="translucent" opacity="0.25"></path>
            <path d="M9.16259766,14.3803711 C9.95605469,14.3803711 10.6416016,14.3295898 11.0922852,14.2216797 C11.9746094,14.0058594 12.5205078,13.3964844 12.5205078,12.6157227 C12.5205078,12.4570312 12.4951172,12.3046875 12.4443359,12.1586914 C12.8823242,11.8349609 13.1298828,11.3525391 13.1298828,10.8256836 C13.1298828,10.5654297 13.0854492,10.3115234 12.9838867,10.1020508 C13.2822266,9.80371094 13.4536133,9.36572266 13.4536133,8.90234375 C13.4536133,8.60400391 13.3774414,8.28662109 13.2441406,8.05810547 C13.4282227,7.79785156 13.5361328,7.44873047 13.5361328,7.06152344 C13.5361328,6.11572266 12.793457,5.36669922 11.8540039,5.36669922 L9.44824219,5.36669922 C9.29589844,5.36669922 9.19433594,5.296875 9.19433594,5.16992188 C9.19433594,4.47802734 10.2797852,2.87207031 10.2797852,1.58349609 C10.2797852,0.707519531 9.6640625,0.0727539062 8.81982422,0.0727539062 C8.19775391,0.0727539062 7.78515625,0.396484375 7.37255859,1.18359375 C6.59814453,2.66259766 5.67773438,3.98291016 4.17333984,5.82373047 L2.9609375,5.82373047 C1.39941406,5.82373047 0.136230469,7.59472656 0.136230469,9.75927734 C0.136230469,11.8920898 1.52001953,13.6757812 3.20214844,13.6757812 L5.30322266,13.6757812 C6.13476562,14.1137695 7.15039062,14.3803711 8.28662109,14.3803711 L9.16259766,14.3803711 Z M9.16894531,13.421875 L8.29296875,13.4091797 C5.63330078,13.3837891 3.82421875,11.8857422 3.82421875,9.72753906 C3.82421875,8.35644531 4.13525391,7.48046875 4.99853516,6.32519531 C5.95068359,5.04931641 7.27099609,3.51953125 8.22949219,1.62158203 C8.46435547,1.13916016 8.62939453,1.03125 8.85791016,1.03125 C9.13085938,1.03125 9.32128906,1.22802734 9.32128906,1.58349609 C9.32128906,2.61181641 8.23583984,4.17333984 8.23583984,5.16992188 C8.23583984,5.88720703 8.83251953,6.32519531 9.58789062,6.32519531 L11.8540039,6.32519531 C12.2666016,6.32519531 12.5776367,6.64257813 12.5776367,7.06152344 C12.5776367,7.36621094 12.4824219,7.56298828 12.2285156,7.80419922 C12.1142578,7.91210938 12.1015625,8.0390625 12.1967773,8.15966797 C12.40625,8.46435547 12.4951172,8.65478516 12.4951172,8.90234375 C12.4951172,9.20703125 12.3554688,9.4609375 12.0634766,9.68310547 C11.9047852,9.79736328 11.8413086,9.96240234 11.9365234,10.1591797 C12.0952148,10.4575195 12.1713867,10.597168 12.1713867,10.8256836 C12.1713867,11.168457 11.9555664,11.4287109 11.4985352,11.6635742 C11.3525391,11.7460938 11.3208008,11.8666992 11.3779297,12.0063477 C11.5366211,12.3935547 11.5620117,12.4570313 11.5620117,12.6157227 C11.5620117,12.9267578 11.3334961,13.1743164 10.8637695,13.2885742 C10.4892578,13.3837891 9.89257812,13.4282227 9.16894531,13.421875 Z M4.06542969,12.7172852 L3.20214844,12.7172852 C2.07861328,12.7172852 1.09472656,11.3652344 1.09472656,9.75927734 C1.09472656,8.12158203 1.98339844,6.78222656 2.9609375,6.78222656 L3.55126953,6.78222656 C3.07519531,7.67089844 2.86572266,8.59765625 2.86572266,9.70849609 C2.86572266,10.9018555 3.29736328,11.9301758 4.06542969,12.7172852 Z" id="solid" opacity="0.5"></path>
        </g>
    </g>
</svg>