<?xml version="1.0" encoding="UTF-8"?>
<svg width="15px" height="15px" viewBox="0 0 15 15" version="1.1" xmlns="http://www.w3.org/2000/svg" xmlns:xlink="http://www.w3.org/1999/xlink">
    <title>time/alarm-clock</title>
    <g id="time/alarm-clock" stroke="none" stroke-width="1" fill="none" fill-rule="evenodd">
        <g id="dark" fill="#000000" fill-rule="nonzero" opacity="0.75">
            <path d="M2.28857422,2.94824219 C2.38378906,2.94824219 2.45361328,2.93554688 2.54248047,2.86572266 L4.66894531,1.25976562 C4.77050781,1.18359375 4.82763672,1.08203125 4.82763672,0.974121094 C4.82763672,0.840820312 4.76416016,0.732910156 4.65625,0.631347656 C4.41503906,0.415527344 3.98339844,0.294921875 3.60253906,0.294921875 C2.61230469,0.294921875 1.81884766,1.08837891 1.81884766,2.07861328 C1.81884766,2.31347656 1.85693359,2.54833984 1.92675781,2.69433594 C1.99658203,2.85302734 2.12988281,2.94824219 2.28857422,2.94824219 Z M12.7114258,2.94824219 C12.8701172,2.94824219 13.003418,2.84667969 13.0795898,2.69433594 C13.1430664,2.5546875 13.1811523,2.31347656 13.1811523,2.07861328 C13.1811523,1.08837891 12.394043,0.294921875 11.3974609,0.294921875 C11.0166016,0.294921875 10.5849609,0.415527344 10.34375,0.631347656 C10.2358398,0.732910156 10.1723633,0.840820312 10.1723633,0.974121094 C10.1723633,1.08203125 10.2294922,1.18359375 10.3374023,1.25976562 L12.4575195,2.86572266 C12.5527344,2.93554688 12.6162109,2.94824219 12.7114258,2.94824219 Z M7.5,13.4599609 C8.85205078,13.4599609 10.0961914,13.015625 11.1054688,12.2729492 L12.1083984,13.2695312 C12.3051758,13.4726562 12.6162109,13.4726562 12.8066406,13.2758789 C12.9970703,13.0917969 12.9970703,12.7807617 12.800293,12.590332 L11.8354492,11.6318359 C12.9082031,10.5400391 13.5683594,9.04199219 13.5683594,7.39160156 C13.5683594,4.04003906 10.8515625,1.31689453 7.5,1.31689453 C4.1484375,1.31689453 1.43164062,4.04003906 1.43164062,7.39160156 C1.43164062,9.04199219 2.09179688,10.5400391 3.16455078,11.6318359 L2.19970703,12.590332 C2.00292969,12.7807617 2.00927734,13.0917969 2.19335938,13.2758789 C2.38378906,13.4726562 2.69482422,13.4726562 2.89160156,13.2695312 L3.89453125,12.2729492 C4.90380859,13.015625 6.14794922,13.4599609 7.5,13.4599609 Z M7.49365234,8.08984375 L4.61181641,8.08984375 C4.36425781,8.08984375 4.17382812,7.89941406 4.17382812,7.65185547 C4.17382812,7.40429688 4.36425781,7.20751953 4.61181641,7.20751953 L7.05566406,7.20751953 L7.05566406,3.80517578 C7.05566406,3.55761719 7.24609375,3.36083984 7.49365234,3.36083984 C7.74121094,3.36083984 7.93798828,3.55761719 7.93798828,3.80517578 L7.93798828,7.65185547 C7.93798828,7.89941406 7.74121094,8.08984375 7.49365234,8.08984375 Z" id="opaque"></path>
        </g>
        <g id="light" transform="translate(1.000000, 0.000000)" fill="#000000" fill-rule="nonzero">
            <path d="M1.28857422,2.94824219 C1.38378906,2.94824219 1.45361328,2.93554688 1.54248047,2.86572266 L3.66894531,1.25976562 C3.77050781,1.18359375 3.82763672,1.08203125 3.82763672,0.974121094 C3.82763672,0.840820312 3.76416016,0.732910156 3.65625,0.631347656 C3.41503906,0.415527344 2.98339844,0.294921875 2.60253906,0.294921875 C1.61230469,0.294921875 0.818847656,1.08837891 0.818847656,2.07861328 C0.818847656,2.31347656 0.856933594,2.54833984 0.926757812,2.69433594 C0.996582031,2.85302734 1.12988281,2.94824219 1.28857422,2.94824219 Z M11.7114258,2.94824219 C11.8701172,2.94824219 12.003418,2.84667969 12.0795898,2.69433594 C12.1430664,2.5546875 12.1811523,2.31347656 12.1811523,2.07861328 C12.1811523,1.08837891 11.394043,0.294921875 10.3974609,0.294921875 C10.0166016,0.294921875 9.58496094,0.415527344 9.34375,0.631347656 C9.23583984,0.732910156 9.17236328,0.840820312 9.17236328,0.974121094 C9.17236328,1.08203125 9.22949219,1.18359375 9.33740234,1.25976562 L11.4575195,2.86572266 C11.5527344,2.93554688 11.6162109,2.94824219 11.7114258,2.94824219 Z M6.5,13.4599609 C7.85205078,13.4599609 9.09619141,13.015625 10.1054688,12.2729492 L11.1083984,13.2695312 C11.3051758,13.4726562 11.6162109,13.4726562 11.8066406,13.2758789 C11.9970703,13.0917969 11.9970703,12.7807617 11.800293,12.590332 L10.8354492,11.6318359 C11.9082031,10.5400391 12.5683594,9.04199219 12.5683594,7.39160156 C12.5683594,4.04003906 9.8515625,1.31689453 6.5,1.31689453 C3.1484375,1.31689453 0.431640625,4.04003906 0.431640625,7.39160156 C0.431640625,9.04199219 1.09179688,10.5400391 2.16455078,11.6318359 L1.19970703,12.590332 C1.00292969,12.7807617 1.00927734,13.0917969 1.19335938,13.2758789 C1.38378906,13.4726562 1.69482422,13.4726562 1.89160156,13.2695312 L2.89453125,12.2729492 C3.90380859,13.015625 5.14794922,13.4599609 6.5,13.4599609 Z" id="translucent" opacity="0.25"></path>
            <path d="M1.28857422,2.94824219 C1.38378906,2.94824219 1.45361328,2.93554688 1.54248047,2.86572266 L3.66894531,1.25976562 C3.77050781,1.18359375 3.82763672,1.08203125 3.82763672,0.974121094 C3.82763672,0.840820312 3.76416016,0.732910156 3.65625,0.631347656 C3.41503906,0.415527344 2.98339844,0.294921875 2.60253906,0.294921875 C1.61230469,0.294921875 0.818847656,1.08837891 0.818847656,2.07861328 C0.818847656,2.31347656 0.856933594,2.54833984 0.926757812,2.69433594 C0.996582031,2.85302734 1.12988281,2.94824219 1.28857422,2.94824219 Z M11.7114258,2.94824219 C11.8701172,2.94824219 12.003418,2.84667969 12.0795898,2.69433594 C12.1430664,2.5546875 12.1811523,2.31347656 12.1811523,2.07861328 C12.1811523,1.08837891 11.394043,0.294921875 10.3974609,0.294921875 C10.0166016,0.294921875 9.58496094,0.415527344 9.34375,0.631347656 C9.23583984,0.732910156 9.17236328,0.840820312 9.17236328,0.974121094 C9.17236328,1.08203125 9.22949219,1.18359375 9.33740234,1.25976562 L11.4575195,2.86572266 C11.5527344,2.93554688 11.6162109,2.94824219 11.7114258,2.94824219 Z M6.5,13.4599609 C7.85205078,13.4599609 9.09619141,13.015625 10.1054688,12.2729492 L11.1083984,13.2695312 C11.3051758,13.4726562 11.6162109,13.4726562 11.8066406,13.2758789 C11.9970703,13.0917969 11.9970703,12.7807617 11.800293,12.590332 L10.8354492,11.6318359 C11.9082031,10.5400391 12.5683594,9.04199219 12.5683594,7.39160156 C12.5683594,4.04003906 9.8515625,1.31689453 6.5,1.31689453 C3.1484375,1.31689453 0.431640625,4.04003906 0.431640625,7.39160156 C0.431640625,9.04199219 1.09179688,10.5400391 2.16455078,11.6318359 L1.19970703,12.590332 C1.00292969,12.7807617 1.00927734,13.0917969 1.19335938,13.2758789 C1.38378906,13.4726562 1.69482422,13.4726562 1.89160156,13.2695312 L2.89453125,12.2729492 C3.90380859,13.015625 5.14794922,13.4599609 6.5,13.4599609 Z M6.5,12.3745117 C3.74511719,12.3745117 1.51708984,10.1464844 1.51708984,7.39160156 C1.51708984,4.64306641 3.74511719,2.40869141 6.5,2.40869141 C9.24853516,2.40869141 11.4829102,4.64306641 11.4829102,7.39160156 C11.4829102,10.1464844 9.24853516,12.3745117 6.5,12.3745117 Z M6.49365234,8.08984375 C6.74121094,8.08984375 6.93798828,7.89941406 6.93798828,7.65185547 L6.93798828,3.80517578 C6.93798828,3.55761719 6.74121094,3.36083984 6.49365234,3.36083984 C6.24609375,3.36083984 6.05566406,3.55761719 6.05566406,3.80517578 L6.05566406,7.20751953 L3.61181641,7.20751953 C3.36425781,7.20751953 3.17382812,7.40429688 3.17382812,7.65185547 C3.17382812,7.89941406 3.36425781,8.08984375 3.61181641,8.08984375 L6.49365234,8.08984375 Z" id="solid" opacity="0.5"></path>
        </g>
    </g>
</svg>