<?xml version="1.0" encoding="UTF-8"?>
<svg width="15px" height="15px" viewBox="0 0 15 15" version="1.1" xmlns="http://www.w3.org/2000/svg" xmlns:xlink="http://www.w3.org/1999/xlink">
    <title>time/clock</title>
    <g id="time/clock" stroke="none" stroke-width="1" fill="none" fill-rule="evenodd">
        <g id="dark" fill="#000000" fill-rule="nonzero" opacity="0.75">
            <path d="M7.61083984,13.8916016 C11.152832,13.8916016 14.0854492,10.9526367 14.0854492,7.41699219 C14.0854492,3.875 11.1464844,0.942382812 7.60449219,0.942382812 C4.06884766,0.942382812 1.13623047,3.875 1.13623047,7.41699219 C1.13623047,10.9526367 4.07519531,13.8916016 7.61083984,13.8916016 Z M7.60449219,8.10253906 L4.29101562,8.10253906 C4.03710938,8.10253906 3.84667969,7.91210938 3.84667969,7.65820312 C3.84667969,7.41064453 4.03710938,7.22021484 4.29101562,7.22021484 L7.16650391,7.22021484 L7.16650391,3.37988281 C7.16650391,3.13232422 7.35693359,2.94189453 7.60449219,2.94189453 C7.85205078,2.94189453 8.04882812,3.13232422 8.04882812,3.37988281 L8.04882812,7.65820312 C8.04882812,7.91210938 7.85205078,8.10253906 7.60449219,8.10253906 Z" id="opaque"></path>
        </g>
        <g id="light" transform="translate(1.000000, 0.000000)" fill="#000000" fill-rule="nonzero">
            <path d="M6.61083984,13.8916016 C10.152832,13.8916016 13.0854492,10.9526367 13.0854492,7.41699219 C13.0854492,3.875 10.1464844,0.942382812 6.60449219,0.942382812 C3.06884766,0.942382812 0.136230469,3.875 0.136230469,7.41699219 C0.136230469,10.9526367 3.07519531,13.8916016 6.61083984,13.8916016 Z" id="translucent" opacity="0.25"></path>
            <path d="M6.61083984,13.8916016 C10.152832,13.8916016 13.0854492,10.9526367 13.0854492,7.41699219 C13.0854492,3.875 10.1464844,0.942382812 6.60449219,0.942382812 C3.06884766,0.942382812 0.136230469,3.875 0.136230469,7.41699219 C0.136230469,10.9526367 3.07519531,13.8916016 6.61083984,13.8916016 Z M6.61083984,12.8125 C3.61474609,12.8125 1.22167969,10.4130859 1.22167969,7.41699219 C1.22167969,4.42089844 3.60839844,2.02148438 6.60449219,2.02148438 C9.60058594,2.02148438 12,4.42089844 12.0063602,7.41699219 C12.0126953,10.4130859 9.60693359,12.8125 6.61083984,12.8125 Z M6.60449219,8.10253906 C6.85205078,8.10253906 7.04882812,7.91210938 7.04882812,7.65820312 L7.04882812,3.37988281 C7.04882812,3.13232422 6.85205078,2.94189453 6.60449219,2.94189453 C6.35693359,2.94189453 6.16650391,3.13232422 6.16650391,3.37988281 L6.16650391,7.22021484 L3.29101562,7.22021484 C3.03710938,7.22021484 2.84667969,7.41064453 2.84667969,7.65820312 C2.84667969,7.91210938 3.03710938,8.10253906 3.29101562,8.10253906 L6.60449219,8.10253906 Z" id="solid" opacity="0.5"></path>
        </g>
    </g>
</svg>