<?xml version="1.0" encoding="UTF-8"?>
<svg width="15px" height="15px" viewBox="0 0 15 15" version="1.1" xmlns="http://www.w3.org/2000/svg" xmlns:xlink="http://www.w3.org/1999/xlink">
    <title>time/desk-clock</title>
    <g id="time/desk-clock" stroke="none" stroke-width="1" fill="none" fill-rule="evenodd">
        <g id="dark" fill="#000000" fill-rule="nonzero" opacity="0.75">
            <path d="M7.61083984,13.8916016 C11.152832,13.8916016 14.0854492,10.9526367 14.0854492,7.41699219 C14.0854492,3.875 11.1464844,0.942382812 7.60449219,0.942382812 C4.06884766,0.942382812 1.13623047,3.875 1.13623047,7.41699219 C1.13623047,10.9526367 4.07519531,13.8916016 7.61083984,13.8916016 Z M7.28076172,7.80419922 L5.33837891,5.85546875 C5.15429688,5.67138672 5.16064453,5.39208984 5.33837891,5.21435547 C5.52246094,5.03027344 5.79541016,5.03027344 5.98583984,5.21435547 L7.60449219,6.83935547 L10.2705078,4.17333984 C10.4545898,3.98925781 10.7211914,3.99560547 10.9116211,4.17333984 C11.1020508,4.35107422 11.0957031,4.64306641 10.9116211,4.82080078 L7.93457031,7.80419922 C7.75048828,7.98828125 7.46484375,7.99462891 7.28076172,7.80419922 Z M4.37988281,13.9804688 C2.98974609,13.3076172 1.95507812,12.3046875 1.19970703,10.9335938 L1.19970703,12.8569336 C1.19970703,13.625 1.56787109,13.9804688 2.34863281,13.9804688 L4.37988281,13.9804688 Z M12.8730469,13.9804688 C13.6538086,13.9804688 14.0219727,13.625 14.0219727,12.8569336 L14.0219727,10.9335938 C13.2666016,12.3046875 12.2319336,13.3076172 10.8481445,13.9804688 L12.8730469,13.9804688 Z" id="opaque"></path>
        </g>
        <g id="light" transform="translate(1.000000, 0.000000)" fill="#000000" fill-rule="nonzero">
            <path d="M6.61083984,13.8916016 C10.152832,13.8916016 13.0854492,10.9526367 13.0854492,7.41699219 C13.0854492,3.875 10.1591797,0.942382812 6.6171875,0.942382812 C3.08154297,0.942382812 0.136230469,3.875 0.136230469,7.41699219 C0.136230469,10.9526367 3.07519531,13.8916016 6.61083984,13.8916016 Z M3.37988281,13.9804688 C1.98974609,13.3076172 0.955078125,12.3046875 0.199707031,10.9335938 L0.199707031,12.8569336 C0.199707031,13.625 0.567871094,13.9804688 1.34863281,13.9804688 L3.37988281,13.9804688 Z M11.8730469,13.9804688 C12.6538086,13.9804688 13.0219727,13.625 13.0219727,12.8569336 L13.0219727,10.9335938 C12.2666016,12.3046875 11.2319336,13.3076172 9.84814453,13.9804688 L11.8730469,13.9804688 Z" id="translucent" opacity="0.25"></path>
            <path d="M6.61083984,13.8916016 C10.152832,13.8916016 13.0854492,10.9526367 13.0854492,7.41699219 C13.0854492,3.875 10.1591797,0.942382812 6.6171875,0.942382812 C3.08154297,0.942382812 0.136230469,3.875 0.136230469,7.41699219 C0.136230469,10.9526367 3.07519531,13.8916016 6.61083984,13.8916016 Z M6.61083984,12.8125 C3.61474609,12.8125 1.20898437,10.4130859 1.2153195,7.41699219 C1.22167969,4.42089844 3.62109375,2.02148438 6.6171875,2.02148438 C9.61328125,2.02148438 12,4.42089844 12,7.41699219 C12,10.4130859 9.60693359,12.8125 6.61083984,12.8125 Z M6.93457031,7.74707031 L9.82910156,4.85253906 C10.0068359,4.68115234 10.0131836,4.40185547 9.82910156,4.23046875 C9.64501953,4.05908203 9.38476562,4.05273438 9.20703125,4.23046875 L6.6171875,6.8203125 L5.04931641,5.23974609 C4.86523438,5.06201172 4.59863281,5.06201172 4.42089844,5.23974609 C4.24951172,5.41113281 4.24316406,5.68408203 4.42089844,5.86181641 L6.30615234,7.74707031 C6.48388672,7.93115234 6.75683594,7.92480469 6.93457031,7.74707031 Z M3.37988281,13.9804688 C1.98974609,13.3076172 0.955078125,12.3046875 0.199707031,10.9335938 L0.199707031,12.8569336 C0.199707031,13.625 0.567871094,13.9804688 1.34863281,13.9804688 L3.37988281,13.9804688 Z M11.8730469,13.9804688 C12.6538086,13.9804688 13.0219727,13.625 13.0219727,12.8569336 L13.0219727,10.9335938 C12.2666016,12.3046875 11.2319336,13.3076172 9.84814453,13.9804688 L11.8730469,13.9804688 Z" id="solid" opacity="0.5"></path>
        </g>
    </g>
</svg>