<?xml version="1.0" encoding="UTF-8"?>
<svg width="15px" height="15px" viewBox="0 0 15 15" version="1.1" xmlns="http://www.w3.org/2000/svg" xmlns:xlink="http://www.w3.org/1999/xlink">
    <title>time/stopwatch</title>
    <g id="time/stopwatch" stroke="none" stroke-width="1" fill="none" fill-rule="evenodd">
        <g id="dark" fill="#000000" fill-rule="nonzero" opacity="0.75">
            <path d="M7.61083984,13.8916016 C11.152832,13.8916016 14.0854492,10.9526367 14.0854492,7.41699219 C14.0854492,5.93798828 13.5712891,4.56689453 12.7143555,3.46875 L13.2094727,2.96728516 C13.3554688,2.82128906 13.4379883,2.62451172 13.4379883,2.453125 C13.4379883,2.09765625 13.1523438,1.81201172 12.7841797,1.81201172 C12.5683594,1.81201172 12.4160156,1.87548828 12.2636719,2.02148438 L11.78125,2.49121094 C10.8164062,1.66601562 9.60400391,1.12011719 8.28369141,0.98046875 L8.28369141,0.358398438 C8.28369141,-0.0224609375 7.98535156,-0.33984375 7.60449219,-0.33984375 C7.23632812,-0.33984375 6.92529297,-0.0224609375 6.92529297,0.358398438 L6.92529297,0.98046875 C3.69433594,1.32324219 1.13623047,4.10986328 1.13623047,7.41699219 C1.13623047,10.9526367 4.07519531,13.8916016 7.61083984,13.8916016 Z M7.61083984,8.4453125 C7.03955078,8.4453125 6.58886719,7.98828125 6.58886719,7.42333984 C6.58886719,7.0234375 6.81738281,6.68066406 7.16650391,6.49658203 L7.16650391,3.34814453 C7.16650391,3.10058594 7.35693359,2.91015625 7.60449219,2.91015625 C7.85205078,2.91015625 8.04882812,3.10058594 8.04882812,3.34814453 L8.04882812,6.50292969 C8.40429688,6.67431641 8.6328125,7.0234375 8.6328125,7.42333984 C8.6328125,7.98828125 8.17578125,8.4453125 7.61083984,8.4453125 Z" id="opaque"></path>
        </g>
        <g id="light" transform="translate(1.000000, -1.000000)" fill="#000000" fill-rule="nonzero">
            <path d="M6.61083984,14.8916016 C10.152832,14.8916016 13.0854492,11.9526367 13.0854492,8.41699219 C13.0854492,6.93798828 12.5712891,5.56689453 11.7143555,4.46875 L12.2094727,3.96728516 C12.3554688,3.82128906 12.4379883,3.62451172 12.4379883,3.453125 C12.4379883,3.09765625 12.1523438,2.81201172 11.7841797,2.81201172 C11.5683594,2.81201172 11.4160156,2.87548828 11.2636719,3.02148438 L10.78125,3.49121094 C9.81640625,2.66601562 8.60400391,2.12011719 7.28369141,1.98046875 L7.28369141,1.35839844 C7.28369141,0.977539062 6.98535156,0.66015625 6.60449219,0.66015625 C6.23632812,0.66015625 5.92529297,0.977539062 5.92529297,1.35839844 L5.92529297,1.98046875 C2.69433594,2.32324219 0.136230469,5.10986328 0.136230469,8.41699219 C0.136230469,11.9526367 3.07519531,14.8916016 6.61083984,14.8916016 Z" id="translucent" opacity="0.25"></path>
            <path d="M6.61083984,14.8916016 C10.152832,14.8916016 13.0854492,11.9526367 13.0854492,8.41699219 C13.0854492,6.93798828 12.5712891,5.56689453 11.7143555,4.46875 L12.2094727,3.96728516 C12.3554688,3.82128906 12.4379883,3.62451172 12.4379883,3.453125 C12.4379883,3.09765625 12.1523438,2.81201172 11.7841797,2.81201172 C11.5683594,2.81201172 11.4160156,2.87548828 11.2636719,3.02148438 L10.78125,3.49121094 C9.81640625,2.66601562 8.60400391,2.12011719 7.28369141,1.98046875 L7.28369141,1.35839844 C7.28369141,0.977539062 6.98535156,0.66015625 6.60449219,0.66015625 C6.23632812,0.66015625 5.92529297,0.977539062 5.92529297,1.35839844 L5.92529297,1.98046875 C2.69433594,2.32324219 0.136230469,5.10986328 0.136230469,8.41699219 C0.136230469,11.9526367 3.07519531,14.8916016 6.61083984,14.8916016 Z M6.61083984,13.8125 C3.61474609,13.8125 1.22167969,11.4130859 1.22167969,8.41699219 C1.22167969,5.42089844 3.60839844,3.02148438 6.60449219,3.02148438 C9.60058594,3.02148438 12,5.42089844 12.0063602,8.41699219 C12.0126953,11.4130859 9.60693359,13.8125 6.61083984,13.8125 Z M6.61083984,9.4453125 C7.17578125,9.4453125 7.6328125,8.98828125 7.6328125,8.42333984 C7.6328125,8.0234375 7.40429688,7.67431641 7.04882812,7.50292969 L7.04882812,4.34814453 C7.04882812,4.10058594 6.85205078,3.91015625 6.60449219,3.91015625 C6.35693359,3.91015625 6.16650391,4.10058594 6.16650391,4.34814453 L6.16650391,7.49658203 C5.81738281,7.68066406 5.58886719,8.0234375 5.58886719,8.42333984 C5.58886719,8.98828125 6.03955078,9.4453125 6.61083984,9.4453125 Z" id="solid" opacity="0.5"></path>
        </g>
    </g>
</svg>