<?xml version="1.0" encoding="UTF-8"?>
<svg width="15px" height="15px" viewBox="0 0 15 15" version="1.1" xmlns="http://www.w3.org/2000/svg" xmlns:xlink="http://www.w3.org/1999/xlink">
    <title>time/timer</title>
    <g id="time/timer" stroke="none" stroke-width="1" fill="none" fill-rule="evenodd">
        <g id="dark" fill="#000000" fill-rule="nonzero">
            <path d="M7.61083984,13.8916016 C11.152832,13.8916016 14.0854492,10.9589844 14.0854492,7.41699219 C14.0854492,3.88134766 11.1591797,0.942382812 7.6171875,0.942382812 C7.28076172,0.942382812 7.11572266,1.14550781 7.11572266,1.47558594 L7.11572266,3.93847656 C7.11572266,4.21142578 7.30615234,4.43359375 7.57910156,4.43359375 C7.85839844,4.43359375 8.04882812,4.21142578 8.04882812,3.93847656 L8.04882812,2.04052734 C10.8417969,2.26269531 13,4.57324219 13,7.41699219 C13,10.4130859 10.6069336,12.8125 7.61083984,12.8125 C4.61474609,12.8125 2.20898438,10.4130859 2.21533203,7.41699219 C2.22167969,6.08398438 2.69775391,4.87158203 3.49755859,3.93847656 C3.68798828,3.69091797 3.70068359,3.39257812 3.49121094,3.17041016 C3.28173828,2.94189453 2.93261719,2.9609375 2.69775391,3.24658203 C1.73291016,4.37646484 1.13623047,5.83642578 1.13623047,7.41699219 C1.13623047,10.9589844 4.07519531,13.8916016 7.61083984,13.8916016 Z M8.62646484,8.39453125 C9.12158203,7.87402344 9.02001953,7.16308594 8.41699219,6.74414062 L5.05908203,4.40185547 C4.74804688,4.1796875 4.41796875,4.50976562 4.64013672,4.82714844 L6.98242188,8.18505859 C7.40136719,8.78808594 8.10595703,8.89599609 8.62646484,8.39453125 Z" id="solid"></path>
        </g>
        <g id="light" fill="#000000" fill-rule="nonzero">
            <path d="M7.61083984,13.8916016 C11.152832,13.8916016 14.0854492,10.9589844 14.0854492,7.41699219 C14.0854492,3.88134766 11.1591797,0.942382812 7.6171875,0.942382812 C7.28076172,0.942382812 7.11572266,1.14550781 7.11572266,1.47558594 L7.11572266,3.93847656 C7.11572266,4.21142578 7.30615234,4.43359375 7.57910156,4.43359375 C7.85839844,4.43359375 8.04882812,4.21142578 8.04882812,3.93847656 L8.04882812,2.04052734 C10.8417969,2.26269531 13,4.57324219 13,7.41699219 C13,10.4130859 10.6069336,12.8125 7.61083984,12.8125 C4.61474609,12.8125 2.20898438,10.4130859 2.21533203,7.41699219 C2.22167969,6.08398438 2.69775391,4.87158203 3.49755859,3.93847656 C3.68798828,3.69091797 3.70068359,3.39257812 3.49121094,3.17041016 C3.28173828,2.94189453 2.93261719,2.9609375 2.69775391,3.24658203 C1.73291016,4.37646484 1.13623047,5.83642578 1.13623047,7.41699219 C1.13623047,10.9589844 4.07519531,13.8916016 7.61083984,13.8916016 Z M8.62646484,8.39453125 C9.12158203,7.87402344 9.02001953,7.16308594 8.41699219,6.74414062 L5.05908203,4.40185547 C4.74804688,4.1796875 4.41796875,4.50976562 4.64013672,4.82714844 L6.98242188,8.18505859 C7.40136719,8.78808594 8.10595703,8.89599609 8.62646484,8.39453125 Z" id="solid"></path>
        </g>
    </g>
</svg>