<?xml version="1.0" encoding="UTF-8"?>
<svg width="15px" height="15px" viewBox="0 0 15 15" version="1.1" xmlns="http://www.w3.org/2000/svg" xmlns:xlink="http://www.w3.org/1999/xlink">
    <title>nature/ant</title>
    <g id="nature/ant" stroke="none" stroke-width="1" fill="none" fill-rule="evenodd">
        <g id="dark" fill="#000000" fill-rule="nonzero" opacity="0.75">
            <path d="M7.49682617,14.8754883 C9.29321289,14.8754883 10.861084,12.9458008 10.861084,10.8701172 C10.861084,10.5463867 10.8039551,10.2734375 10.6896973,10.0512695 C10.8737793,10.1020508 11.0578613,10.1464844 11.2355957,10.1972656 C11.673584,10.3178711 11.8005371,10.4892578 11.7434082,10.8701172 L11.2800293,13.9106445 C11.2229004,14.2724609 11.4450684,14.4882812 11.7434082,14.4882812 C12.0544434,14.4882812 12.1940918,14.2978516 12.244873,13.9804688 L12.7653809,10.6860352 C12.8859863,9.94335938 12.5812988,9.53710938 11.7687988,9.34667969 L8.90600586,8.68017578 L8.8996582,8.61669922 C9.17260742,8.48339844 9.35668945,8.22314453 9.43920898,7.9375 L11.3879395,7.65820312 C12.1813965,7.55029297 12.5368652,7.10595703 12.5368652,6.32519531 L12.5368652,4.12890625 C12.5368652,3.81787109 12.3591309,3.64013672 12.0544434,3.64013672 C11.7497559,3.64013672 11.5720215,3.82421875 11.5720215,4.12890625 L11.5720215,6.12841797 C11.5720215,6.57910156 11.3308105,6.72509766 10.9182129,6.78222656 L9.46459961,6.97900391 C9.39477539,6.78222656 9.26782227,6.60449219 9.09643555,6.49023438 L9.09643555,6.42675781 C10.1818848,6.23632812 10.7849121,5.57617188 10.7849121,4.61132812 C10.7849121,3.79882812 10.4802246,3.05615234 9.98510742,2.48486328 L10.0422363,2.44042969 C10.657959,1.99609375 10.7722168,1.34228516 10.3723145,0.637695312 L9.99780273,0.0219726562 C9.87719727,-0.193847656 9.73754883,-0.2890625 9.54077148,-0.2890625 C9.27416992,-0.2890625 9.08374023,-0.0986328125 9.08374023,0.148925781 C9.08374023,0.263183594 9.1027832,0.326660156 9.17260742,0.453613281 L9.50268555,0.955078125 C9.70581055,1.28515625 9.70581055,1.57080078 9.44555664,1.79931641 C9.4074707,1.83105469 9.37573242,1.85644531 9.33764648,1.88183594 C8.81079102,1.52636719 8.17602539,1.31689453 7.49682617,1.31689453 C6.83032227,1.31689453 6.2019043,1.52636719 5.68139648,1.87548828 C5.64331055,1.85644531 5.60522461,1.82470703 5.57348633,1.79296875 C5.31958008,1.57080078 5.31323242,1.28515625 5.52270508,0.955078125 L5.8527832,0.453613281 C5.92260742,0.326660156 5.94165039,0.263183594 5.94165039,0.148925781 C5.94165039,-0.0986328125 5.74487305,-0.2890625 5.48461914,-0.2890625 C5.2878418,-0.2890625 5.14819336,-0.193847656 5.02758789,0.0219726562 L4.65307617,0.637695312 C4.25317383,1.34228516 4.36743164,1.99609375 4.9831543,2.44042969 L5.02758789,2.47216797 C4.52612305,3.04345703 4.20874023,3.79248047 4.20874023,4.61132812 C4.20874023,5.57617188 4.81811523,6.23632812 5.90356445,6.42675781 L5.90356445,6.49023438 C5.72583008,6.60449219 5.60522461,6.78222656 5.53540039,6.97900391 L4.08178711,6.78222656 C3.6628418,6.72509766 3.42797852,6.57910156 3.42797852,6.12841797 L3.42797852,4.12890625 C3.42797852,3.82421875 3.25024414,3.64013672 2.94555664,3.64013672 C2.64086914,3.64013672 2.46313477,3.81787109 2.46313477,4.12890625 L2.46313477,6.32519531 C2.46313477,7.10595703 2.81860352,7.55029297 3.61206055,7.65820312 L5.56079102,7.9375 C5.64331055,8.22314453 5.82104492,8.48339844 6.1003418,8.61669922 L6.1003418,8.68017578 L3.23120117,9.34667969 C2.41235352,9.53710938 2.11401367,9.94335938 2.23461914,10.6860352 L2.75512695,13.9804688 C2.79956055,14.2978516 2.94555664,14.4882812 3.2565918,14.4882812 C3.55493164,14.4882812 3.77709961,14.2724609 3.7199707,13.9106445 L3.2565918,10.8701172 C3.19311523,10.4892578 3.32641602,10.3178711 3.7644043,10.1972656 C3.94213867,10.1464844 4.1262207,10.1020508 4.30395508,10.0512695 C4.19604492,10.2734375 4.13891602,10.5463867 4.13891602,10.8701172 C4.13891602,12.9458008 5.70678711,14.8754883 7.49682617,14.8754883 Z" id="opaque"></path>
        </g>
        <g id="light" transform="translate(2.000000, -1.000000)" fill="#000000" fill-rule="nonzero">
            <path d="M5.49682617,15.8754883 C7.29321289,15.8754883 8.86108398,13.9458008 8.86108398,11.8701172 C8.86108398,11.5654297 8.82299805,11.2988281 8.74682617,11.0639648 L9.2355957,11.1972656 C9.67358398,11.3178711 9.80053711,11.4892578 9.7434082,11.8701172 L9.2800293,14.9106445 C9.22290039,15.2724609 9.44506836,15.4882812 9.7434082,15.4882812 C10.0544434,15.4882812 10.1940918,15.2978516 10.244873,14.9804688 L10.7653809,11.6860352 C10.8859863,10.9433594 10.5812988,10.543457 9.76879883,10.3466797 L6.96313477,9.68017578 L6.96313477,9.61669922 C7.23608398,9.48339844 7.42651367,9.22949219 7.52807617,8.93115234 L9.38793945,8.65820312 C10.1813965,8.55029297 10.5368652,8.10595703 10.5368652,7.32519531 L10.5368652,5.12890625 C10.5368652,4.81787109 10.3591309,4.64013672 10.0544434,4.64013672 C9.74975586,4.64013672 9.57202148,4.82421875 9.57202148,5.12890625 L9.57202148,7.12841797 C9.57202148,7.57910156 9.33081055,7.71875 8.91821289,7.78222656 L7.52807617,7.97900391 C7.45825195,7.78222656 7.33129883,7.61083984 7.15991211,7.49023438 L7.15991211,7.42675781 C8.24536133,7.23632812 8.78491211,6.57617188 8.78491211,5.61132812 C8.78491211,4.79882812 8.48657227,4.05615234 7.99145508,3.47851562 L8.04223633,3.44042969 C8.65795898,2.99609375 8.7722168,2.34228516 8.37231445,1.63769531 L7.99780273,1.02197266 C7.87719727,0.806152344 7.73754883,0.7109375 7.54077148,0.7109375 C7.27416992,0.7109375 7.08374023,0.901367188 7.08374023,1.14892578 C7.08374023,1.26318359 7.1027832,1.32666016 7.17260742,1.45361328 L7.50268555,1.95507812 C7.72485352,2.31689453 7.69946289,2.62158203 7.38208008,2.85009766 L7.33129883,2.88183594 C6.80444336,2.52636719 6.17602539,2.31689453 5.49682617,2.31689453 C4.83032227,2.31689453 4.2019043,2.52001953 3.68139648,2.87548828 L3.64331055,2.85009766 C3.32592773,2.62158203 3.30053711,2.31689453 3.52270508,1.95507812 L3.8527832,1.45361328 C3.92260742,1.32666016 3.94165039,1.26318359 3.94165039,1.14892578 C3.94165039,0.901367188 3.74487305,0.7109375 3.48461914,0.7109375 C3.2878418,0.7109375 3.14819336,0.806152344 3.02758789,1.02197266 L2.65307617,1.63769531 C2.25317383,2.34228516 2.36743164,2.99609375 2.9831543,3.44042969 L3.01489258,3.46582031 C2.51342773,4.04345703 2.20874023,4.79882812 2.20874023,5.61132812 C2.20874023,6.57617188 2.75463867,7.23632812 3.84008789,7.42675781 L3.84008789,7.49023438 C3.66235352,7.61083984 3.54174805,7.78222656 3.47192383,7.97900391 L2.08178711,7.78222656 C1.6628418,7.71875 1.42797852,7.57910156 1.42797852,7.12841797 L1.42797852,5.12890625 C1.42797852,4.82421875 1.25024414,4.64013672 0.945556641,4.64013672 C0.640869141,4.64013672 0.463134766,4.81787109 0.463134766,5.12890625 L0.463134766,7.32519531 C0.463134766,8.10595703 0.818603516,8.55029297 1.61206055,8.65820312 L3.47192383,8.93115234 C3.56713867,9.22949219 3.75756836,9.48339844 4.03686523,9.61669922 L4.03686523,9.68017578 L1.23120117,10.3466797 C0.412353516,10.543457 0.114013672,10.9433594 0.234619141,11.6860352 L0.755126953,14.9804688 C0.799560547,15.2978516 0.945556641,15.4882812 1.2565918,15.4882812 C1.55493164,15.4882812 1.77709961,15.2724609 1.7199707,14.9106445 L1.2565918,11.8701172 C1.19311523,11.4892578 1.32641602,11.3178711 1.7644043,11.1972656 L2.25317383,11.0639648 C2.17700195,11.2988281 2.13891602,11.5654297 2.13891602,11.8701172 C2.13891602,13.9458008 3.70678711,15.8754883 5.49682617,15.8754883 Z" id="translucent" opacity="0.25"></path>
            <path d="M5.49682617,15.8754883 C7.29321289,15.8754883 8.86108398,13.9458008 8.86108398,11.8701172 C8.86108398,11.5654297 8.82299805,11.2988281 8.74682617,11.0639648 L9.2355957,11.1972656 C9.67358398,11.3178711 9.80053711,11.4892578 9.7434082,11.8701172 L9.2800293,14.9106445 C9.22290039,15.2724609 9.44506836,15.4882812 9.7434082,15.4882812 C10.0544434,15.4882812 10.1940918,15.2978516 10.244873,14.9804688 L10.7653809,11.6860352 C10.8859863,10.9433594 10.5812988,10.543457 9.76879883,10.3466797 L6.96313477,9.68017578 L6.96313477,9.61669922 C7.23608398,9.48339844 7.42651367,9.22949219 7.52807617,8.93115234 L9.38793945,8.65820312 C10.1813965,8.55029297 10.5368652,8.10595703 10.5368652,7.32519531 L10.5368652,5.12890625 C10.5368652,4.81787109 10.3591309,4.64013672 10.0544434,4.64013672 C9.74975586,4.64013672 9.57202148,4.82421875 9.57202148,5.12890625 L9.57202148,7.12841797 C9.57202148,7.57910156 9.33081055,7.71875 8.91821289,7.78222656 L7.52807617,7.97900391 C7.45825195,7.78222656 7.33129883,7.61083984 7.15991211,7.49023438 L7.15991211,7.42675781 C8.24536133,7.23632812 8.78491211,6.57617188 8.78491211,5.61132812 C8.78491211,4.79882812 8.48657227,4.05615234 7.99145508,3.47851562 L8.04223633,3.44042969 C8.65795898,2.99609375 8.7722168,2.34228516 8.37231445,1.63769531 L7.99780273,1.02197266 C7.87719727,0.806152344 7.73754883,0.7109375 7.54077148,0.7109375 C7.27416992,0.7109375 7.08374023,0.901367188 7.08374023,1.14892578 C7.08374023,1.26318359 7.1027832,1.32666016 7.17260742,1.45361328 L7.50268555,1.95507812 C7.72485352,2.31689453 7.69946289,2.62158203 7.38208008,2.85009766 L7.33129883,2.88183594 C6.80444336,2.52636719 6.17602539,2.31689453 5.49682617,2.31689453 C4.83032227,2.31689453 4.2019043,2.52001953 3.68139648,2.87548828 L3.64331055,2.85009766 C3.32592773,2.62158203 3.30053711,2.31689453 3.52270508,1.95507812 L3.8527832,1.45361328 C3.92260742,1.32666016 3.94165039,1.26318359 3.94165039,1.14892578 C3.94165039,0.901367188 3.74487305,0.7109375 3.48461914,0.7109375 C3.2878418,0.7109375 3.14819336,0.806152344 3.02758789,1.02197266 L2.65307617,1.63769531 C2.25317383,2.34228516 2.36743164,2.99609375 2.9831543,3.44042969 L3.01489258,3.46582031 C2.51342773,4.04345703 2.20874023,4.79882812 2.20874023,5.61132812 C2.20874023,6.57617188 2.75463867,7.23632812 3.84008789,7.42675781 L3.84008789,7.49023438 C3.66235352,7.61083984 3.54174805,7.78222656 3.47192383,7.97900391 L2.08178711,7.78222656 C1.6628418,7.71875 1.42797852,7.57910156 1.42797852,7.12841797 L1.42797852,5.12890625 C1.42797852,4.82421875 1.25024414,4.64013672 0.945556641,4.64013672 C0.640869141,4.64013672 0.463134766,4.81787109 0.463134766,5.12890625 L0.463134766,7.32519531 C0.463134766,8.10595703 0.818603516,8.55029297 1.61206055,8.65820312 L3.47192383,8.93115234 C3.56713867,9.22949219 3.75756836,9.48339844 4.03686523,9.61669922 L4.03686523,9.68017578 L1.23120117,10.3466797 C0.412353516,10.543457 0.114013672,10.9433594 0.234619141,11.6860352 L0.755126953,14.9804688 C0.799560547,15.2978516 0.945556641,15.4882812 1.2565918,15.4882812 C1.55493164,15.4882812 1.77709961,15.2724609 1.7199707,14.9106445 L1.2565918,11.8701172 C1.19311523,11.4892578 1.32641602,11.3178711 1.7644043,11.1972656 L2.25317383,11.0639648 C2.17700195,11.2988281 2.13891602,11.5654297 2.13891602,11.8701172 C2.13891602,13.9458008 3.70678711,15.8754883 5.49682617,15.8754883 Z M6.64575195,6.49365234 L4.35424805,6.49365234 C3.65600586,6.49365234 3.25610352,6.15722656 3.25610352,5.57324219 C3.25610352,4.39257812 4.3034668,3.37060547 5.49682617,3.37060547 C6.69018555,3.37060547 7.74389648,4.39257812 7.74389648,5.57324219 C7.74389648,6.15722656 7.33764648,6.49365234 6.64575195,6.49365234 Z M5.57299805,9.73095703 L5.42700195,9.73095703 C4.84301758,9.73095703 4.34790039,9.12158203 4.34790039,8.40429688 C4.34790039,7.8203125 4.70336914,7.48388672 5.3190918,7.48388672 L5.68725586,7.48388672 C6.29663086,7.48388672 6.64575195,7.8203125 6.64575195,8.40429688 C6.64575195,9.12158203 6.15698242,9.73095703 5.57299805,9.73095703 Z M5.49682617,14.8154297 C4.18920898,14.8154297 3.17358398,13.2792969 3.17358398,12.003418 C3.17358398,11.152832 3.66870117,10.6386719 4.62084961,10.6386719 L6.37915039,10.6386719 C7.33129883,10.6386719 7.82006836,11.152832 7.82006836,12.003418 C7.82006836,13.2792969 6.81079102,14.8154297 5.49682617,14.8154297 Z" id="solid" opacity="0.5"></path>
        </g>
    </g>
</svg>