<?xml version="1.0" encoding="UTF-8"?>
<svg width="15px" height="15px" viewBox="0 0 15 15" version="1.1" xmlns="http://www.w3.org/2000/svg" xmlns:xlink="http://www.w3.org/1999/xlink">
    <title>nature/bolt</title>
    <g id="nature/bolt" stroke="none" stroke-width="1" fill="none" fill-rule="evenodd">
        <g id="dark" fill="#000000" fill-rule="nonzero" opacity="0.75">
            <path d="M6.03686523,14.1962891 L11.8068848,6.98535156 C11.9147949,6.85205078 11.9719238,6.72509766 11.9719238,6.57910156 C11.9719238,6.33789063 11.7814941,6.14746094 11.5148926,6.14746094 L7.9284668,6.14746094 L9.82006836,1.00585938 C10.067627,0.352050781 9.38842773,0.0029296875 8.96313477,0.542480469 L3.19311523,7.74707031 C3.08520508,7.88671875 3.02807617,8.01367188 3.02807617,8.15332031 C3.02807617,8.40087891 3.21850586,8.58496094 3.48510742,8.58496094 L7.0715332,8.58496094 L5.17993164,13.7265625 C4.93237305,14.3803711 5.61157227,14.7294922 6.03686523,14.1962891 Z" id="opaque"></path>
        </g>
        <g id="light" transform="translate(3.000000, 0.000000)" fill="#000000" fill-rule="nonzero">
            <path d="M3.03686523,14.1962891 L8.80688477,6.77587891 C8.91479492,6.64257813 8.97192383,6.515625 8.97192383,6.36962891 C8.97192383,6.12841797 8.78149414,5.94433594 8.51489258,5.94433594 L4.9284668,5.94433594 L6.82006836,1.00585938 C7.07397461,0.352050781 6.37573242,-0.00341796875 5.96313477,0.542480469 L0.193115234,7.95654297 C0.0852050781,8.09619141 0.0280761719,8.22314453 0.0280761719,8.36279297 C0.0280761719,8.61035156 0.218505859,8.79443359 0.485107422,8.79443359 L4.0715332,8.79443359 L2.17993164,13.7265625 C1.92602539,14.3803711 2.62426758,14.7358398 3.03686523,14.1962891 Z" id="translucent" opacity="0.25"></path>
            <path d="M3.03686523,14.1962891 L8.80688477,6.77587891 C8.91479492,6.64257813 8.97192383,6.515625 8.97192383,6.36962891 C8.97192383,6.12841797 8.78149414,5.94433594 8.51489258,5.94433594 L4.9284668,5.94433594 L6.82006836,1.00585938 C7.07397461,0.352050781 6.37573242,-0.00341796875 5.96313477,0.542480469 L0.193115234,7.95654297 C0.0852050781,8.09619141 0.0280761719,8.22314453 0.0280761719,8.36279297 C0.0280761719,8.61035156 0.218505859,8.79443359 0.485107422,8.79443359 L4.0715332,8.79443359 L2.17993164,13.7265625 C1.92602539,14.3803711 2.62426758,14.7358398 3.03686523,14.1962891 Z M3.79858398,11.6445313 L5.5378418,7.84863281 L1.61499023,7.84863281 L5.19506836,3.09423828 L3.4621582,6.89013672 L7.37866211,6.89013672 L3.79858398,11.6445313 Z" id="solid" opacity="0.5"></path>
        </g>
    </g>
</svg>