<?xml version="1.0" encoding="UTF-8"?>
<svg width="15px" height="15px" viewBox="0 0 15 15" version="1.1" xmlns="http://www.w3.org/2000/svg" xmlns:xlink="http://www.w3.org/1999/xlink">
    <title>nature/drop</title>
    <g id="nature/drop" stroke="none" stroke-width="1" fill="none" fill-rule="evenodd">
        <g id="dark" fill="#000000" fill-rule="nonzero" opacity="0.75">
            <path d="M7.5,13.8408203 C9.95019531,13.8408203 11.8989258,11.9301758 11.8989258,9.54345703 C11.8989258,8.21679688 11.2387695,6.90917969 10.6611328,5.83007812 L8.35693359,1.52636719 C8.15380859,1.16455078 7.86816406,0.986816406 7.5,0.986816406 C7.12548828,0.986816406 6.83984375,1.16455078 6.64306641,1.52001953 L4.33886719,5.83007812 C3.76123047,6.90917969 3.10107422,8.21679688 3.10107422,9.54345703 C3.10107422,11.9301758 5.04980469,13.8408203 7.5,13.8408203 Z" id="opaque"></path>
        </g>
        <g id="light" transform="translate(3.000000, 0.000000)" fill="#000000" fill-rule="nonzero">
            <path d="M4.5,13.8408203 C6.95019531,13.8408203 8.89892578,11.9301758 8.89892578,9.54345703 C8.89892578,8.21679688 8.23876953,6.90917969 7.66113281,5.83007812 L5.35693359,1.52636719 C5.15380859,1.16455078 4.86816406,0.986816406 4.5,0.986816406 C4.12548828,0.986816406 3.83984375,1.16455078 3.64306641,1.52001953 L1.33886719,5.83007812 C0.761230469,6.90917969 0.101074219,8.21679688 0.101074219,9.54345703 C0.101074219,11.9301758 2.04980469,13.8408203 4.5,13.8408203 Z" id="translucent" opacity="0.25"></path>
            <path d="M4.5,13.8408203 C6.95019531,13.8408203 8.89892578,11.9301758 8.89892578,9.54345703 C8.89892578,8.21679688 8.23876953,6.90917969 7.66113281,5.83007812 L5.35693359,1.52636719 C5.15380859,1.16455078 4.86816406,0.986816406 4.5,0.986816406 C4.12548828,0.986816406 3.83984375,1.16455078 3.64306641,1.52001953 L1.33886719,5.83007812 C0.761230469,6.90917969 0.101074219,8.21679688 0.101074219,9.54345703 C0.101074219,11.9301758 2.04980469,13.8408203 4.5,13.8408203 Z M4.5,12.7998047 C2.63378906,12.7998047 1.14208984,11.3652344 1.14208984,9.54345703 C1.14208984,8.4453125 1.69433594,7.40429687 2.27197266,6.32519531 L4.43652344,2.28808594 C4.46826172,2.21191406 4.54443359,2.21826172 4.57617188,2.28808594 L6.734375,6.32519531 C7.31201172,7.39794922 7.86425781,8.4453125 7.86425781,9.54345703 C7.86425781,11.3652344 6.36621094,12.7998047 4.5,12.7998047 Z" id="solid" opacity="0.5"></path>
        </g>
    </g>
</svg>