<?xml version="1.0" encoding="UTF-8"?>
<svg width="15px" height="15px" viewBox="0 0 15 15" version="1.1" xmlns="http://www.w3.org/2000/svg" xmlns:xlink="http://www.w3.org/1999/xlink">
    <title>nature/flame</title>
    <g id="nature/flame" stroke="none" stroke-width="1" fill="none" fill-rule="evenodd">
        <g id="dark" fill="#000000" fill-rule="nonzero">
            <path d="M7.20166016,13.7075195 C10.5532227,13.7075195 12.7875977,11.4414062 12.7875977,8.02636719 C12.7875977,2.34521484 7.95068359,-0.0224609375 4.59277344,-0.0224609375 C3.99609375,-0.0224609375 3.61523438,0.187011719 3.61523438,0.593261719 C3.61523438,0.751953125 3.68505859,0.916992188 3.81835938,1.06933594 C4.57373047,1.97070312 5.32910156,3.04345703 5.34179688,4.29394531 C5.34179688,4.45263672 5.32910156,4.60498047 5.28466797,4.77001953 C4.93554688,4.02734375 4.28173828,3.53222656 3.69775391,3.53222656 C3.4375,3.53222656 3.25976562,3.72265625 3.25976562,4.00830078 C3.25976562,4.17333984 3.30419922,4.56054688 3.30419922,4.83984375 C3.30419922,6.26171875 2.21240234,7.09326172 2.21240234,9.38476562 C2.21240234,11.980957 4.19921875,13.7075195 7.20166016,13.7075195 Z M7.34765625,11.9238281 C6.16064453,11.9238281 5.37353516,11.206543 5.37353516,10.1401367 C5.37353516,9.02294922 6.16699219,8.62304688 6.26855469,7.90576172 C6.28125,7.84863281 6.31933594,7.82958984 6.36376953,7.86767578 C6.65576172,8.12792969 6.84619141,8.4453125 7.00488281,8.81347656 C7.34130859,8.35644531 7.5,7.39160156 7.39208984,6.35058594 C7.38574219,6.29345703 7.42382812,6.26171875 7.48095703,6.28076172 C8.87109375,6.93457031 9.59472656,8.31835938 9.59472656,9.55615234 C9.59472656,10.8129883 8.85839844,11.9238281 7.34765625,11.9238281 Z" id="solid"></path>
        </g>
        <g id="light" transform="translate(2.000000, -1.000000)" fill="#000000" fill-rule="nonzero">
            <path d="M5.20166016,14.7075195 C8.55322266,14.7075195 10.7875977,12.4414062 10.7875977,9.02636719 C10.7875977,3.34521484 5.95068359,0.977539062 2.59277344,0.977539062 C1.99609375,0.977539062 1.61523438,1.18701172 1.61523438,1.59326172 C1.61523438,1.75195312 1.68505859,1.91699219 1.81835938,2.06933594 C2.57373047,2.97070312 3.32910156,4.04345703 3.34179688,5.29394531 C3.34179688,5.45263672 3.32910156,5.60498047 3.28466797,5.77001953 C2.93554688,5.02734375 2.28173828,4.53222656 1.69775391,4.53222656 C1.4375,4.53222656 1.25976562,4.72265625 1.25976562,5.00830078 C1.25976562,5.17333984 1.30419922,5.56054688 1.30419922,5.83984375 C1.30419922,7.26171875 0.212402344,8.09326172 0.212402344,10.3847656 C0.212402344,12.980957 2.19921875,14.7075195 5.20166016,14.7075195 Z" id="translucent" opacity="0.35"></path>
            <path d="M5.20166016,14.7075195 C8.55322266,14.7075195 10.7875977,12.4414062 10.7875977,9.02636719 C10.7875977,3.34521484 5.95068359,0.977539062 2.59277344,0.977539062 C1.99609375,0.977539062 1.61523438,1.18701172 1.61523438,1.59326172 C1.61523438,1.75195312 1.68505859,1.91699219 1.81835938,2.06933594 C2.57373047,2.97070312 3.32910156,4.04345703 3.34179688,5.29394531 C3.34179688,5.45263672 3.32910156,5.60498047 3.28466797,5.77001953 C2.93554688,5.02734375 2.28173828,4.53222656 1.69775391,4.53222656 C1.4375,4.53222656 1.25976562,4.72265625 1.25976562,5.00830078 C1.25976562,5.17333984 1.30419922,5.56054688 1.30419922,5.83984375 C1.30419922,7.26171875 0.212402344,8.09326172 0.212402344,10.3847656 C0.212402344,12.980957 2.19921875,14.7075195 5.20166016,14.7075195 Z M5.26513672,13.8188477 C2.77685547,13.8188477 1.10742188,12.4350586 1.10742188,10.3847656 C1.10742188,8.30273438 2.23095703,7.59814453 2.23095703,5.94775391 C2.23095703,5.86523438 2.23095703,5.7890625 2.21826172,5.71289062 C2.60546875,6.04296875 2.88476562,6.55712891 3.05615234,7.28710938 C3.08154297,7.42041016 3.15771484,7.48388672 3.25292969,7.48388672 C3.76708984,7.48388672 4.13525391,6.20800781 4.13525391,5.40185547 C4.13525391,4.05615234 3.59570312,2.76757812 2.70703125,1.83447266 C7.04882812,2.08837891 9.85449219,5.05908203 9.85449219,8.99462891 C9.85449219,11.8764648 8.01367188,13.8188477 5.26513672,13.8188477 Z M5.34765625,12.9238281 C6.85839844,12.9238281 7.59472656,11.8129883 7.59472656,10.5561523 C7.59472656,9.31835938 6.87109375,7.93457031 5.48095703,7.28076172 C5.42382812,7.26171875 5.38574219,7.29345703 5.39208984,7.35058594 C5.5,8.39160156 5.34130859,9.35644531 5.00488281,9.81347656 C4.84619141,9.4453125 4.65576172,9.12792969 4.36376953,8.86767578 C4.31933594,8.82958984 4.28125,8.84863281 4.26855469,8.90576172 C4.16699219,9.62304688 3.37353516,10.0229492 3.37353516,11.1401367 C3.37353516,12.206543 4.16064453,12.9238281 5.34765625,12.9238281 Z" id="solid"></path>
        </g>
    </g>
</svg>