<?xml version="1.0" encoding="UTF-8"?>
<svg width="15px" height="15px" viewBox="0 0 15 15" version="1.1" xmlns="http://www.w3.org/2000/svg" xmlns:xlink="http://www.w3.org/1999/xlink">
    <title>nature/hare</title>
    <g id="nature/hare" stroke="none" stroke-width="1" fill="none" fill-rule="evenodd">
        <g id="dark" transform="translate(-1.000000, 1.000000)" fill="#000000" fill-rule="nonzero">
            <path d="M11.4404297,12.1230469 C12.1582031,12.1230469 12.5683594,11.8154297 12.5683594,11.2929688 C12.5683594,10.4384766 11.7138672,9.76953125 10.2197266,9.76953125 C9.45800781,9.76953125 9.13085938,9.88183594 8.69140625,9.97460938 L8.13476562,8.734375 C7.578125,7.53808594 6.61621094,6.86914062 5.44433594,6.86914062 L4.85351562,6.86914062 C4.62402344,6.86914062 4.47753906,6.76171875 4.47753906,6.546875 C4.47753906,6.19042969 4.91699219,6.10253906 5.40039062,6.10253906 C6.89941406,6.10253906 8.0859375,6.88867188 8.79394531,8.51464844 L9.12109375,9.27636719 C9.453125,9.20800781 9.8046875,9.17871094 10.1708984,9.17871094 C10.4589844,9.17871094 10.7373047,9.19824219 11.0205078,9.25683594 C11.328125,9.07128906 11.6748047,8.87597656 12.0849609,8.67578125 C12.6464844,9.05175781 13.2666016,9.36914062 14.1308594,9.36914062 C15.3369141,9.36914062 15.9619141,9.00292969 15.9619141,7.70410156 C15.9619141,6.14648438 14.8730469,4.86230469 13.2275391,4.91113281 L12.0117188,3.19238281 C11.3085938,2.20117188 10.390625,1.74707031 9.50195312,1.74707031 C8.77929688,1.74707031 7.58789062,2.15234375 7.58789062,2.72363281 C7.58789062,3.09960938 8.3984375,3.65625 9.01367188,4.05175781 L11.7675781,5.80957031 C11.5527344,6.00488281 11.3720703,6.12695312 11.0888672,6.12695312 C10.6787109,6.12695312 10.234375,5.85351562 9.6875,5.54101562 C8.13476562,4.59863281 7.05078125,3.80273438 5.40039062,3.80273438 C3.7890625,3.80273438 2.47070312,4.69628906 1.80664062,6.62011719 C1.27441406,6.61035156 0.874023438,6.94726562 0.874023438,7.45019531 C0.874023438,8.00683594 1.32324219,8.35839844 1.94824219,8.35351562 C2.68066406,9.50585938 3.77441406,9.93066406 5.25390625,9.93066406 C5.33691406,9.93066406 5.41992188,9.92578125 5.50292969,9.92578125 L7.51464844,11.6054688 C8.0078125,12.0400391 8.38867188,12.1230469 8.78417969,12.1230469 C9.12109375,12.1230469 9.45800781,11.9619141 10.1074219,11.9619141 C10.7568359,11.9619141 10.9521484,12.1230469 11.4404297,12.1230469 Z M13.8183594,7.51855469 C13.5693359,7.51855469 13.3642578,7.30859375 13.3642578,7.05957031 C13.3642578,6.80078125 13.5693359,6.58105469 13.8232422,6.58105469 C14.0820312,6.58105469 14.2822266,6.78613281 14.2822266,7.03515625 C14.2822266,7.29394531 14.0771484,7.51855469 13.8183594,7.51855469 Z M5.02929688,12.5234375 C5.9375,12.5234375 6.51367188,12.3574219 6.9921875,12.0400391 L5.50292969,10.7851562 C5.43457031,10.7949219 5.3515625,10.7998047 5.25878906,10.7998047 C5.02441406,10.7998047 4.60449219,10.7216797 4.18945312,10.7216797 C3.65234375,10.7216797 3.31542969,11.0097656 3.31542969,11.4443359 C3.31542969,12.09375 3.98925781,12.5234375 5.02929688,12.5234375 Z" id="solid"></path>
        </g>
        <g id="light" transform="translate(-1.000000, 2.000000)" fill="#000000" fill-rule="nonzero">
            <path d="M5.09765625,11.9433594 C6.11328125,11.9433594 7.05566406,11.6748047 7.71972656,11.0693359 C8.0078125,11.2792969 8.34472656,11.3720703 8.77929688,11.3720703 C9.19433594,11.3720703 9.56542969,11.2548828 10.1025391,11.2548828 C10.6396484,11.2548828 10.9619141,11.3916016 11.3964844,11.3916016 C12.4267578,11.3916016 12.890625,10.8447266 12.890625,10.2099609 C12.890625,9.32617188 12.1630859,8.66210938 10.8447266,8.50585938 C11.2597656,8.29101562 11.6601562,8.125 11.953125,8.00292969 C12.5292969,8.36425781 13.4082031,8.59863281 14.0185547,8.59375 C15.4785156,8.58398438 16.2988281,8.10546875 16.2988281,6.77246094 C16.2988281,5.08300781 15.0585938,3.81347656 13.4716797,3.75488281 L12.4365234,2.29492188 C11.6601562,1.20605469 10.7617188,0.595703125 9.62890625,0.595703125 C8.65234375,0.595703125 7.51464844,1.08398438 7.51464844,1.88964844 C7.51464844,2.43164062 8.01757812,2.80273438 8.67675781,3.22753906 C9.33105469,3.65234375 10.5078125,4.36523438 11.2744141,4.83398438 C11.1767578,4.91210938 11.0986328,4.95117188 10.9960938,4.95117188 C10.8154297,4.95117188 10.5224609,4.84375 10.2539062,4.67285156 C8.37890625,3.65234375 7.17773438,2.67089844 5.60546875,2.67089844 C3.84765625,2.67089844 2.56347656,3.59375 1.94824219,5.38085938 C1.2890625,5.50292969 0.874023438,5.9375 0.874023438,6.57714844 C0.874023438,7.35351563 1.47949219,7.79296875 2.19238281,7.8125 C2.68554688,8.62304688 3.96972656,9.26269531 5.56640625,9.13574219 L5.91796875,9.453125 C5.76171875,9.51171875 5.59570312,9.53125 5.41503906,9.53125 C5.15136719,9.52636719 4.74121094,9.4140625 4.36523438,9.4140625 C3.63769531,9.4140625 3.14453125,9.86328125 3.14453125,10.5615234 C3.14453125,11.4306641 3.9453125,11.9433594 5.09765625,11.9433594 Z" id="translucent" opacity="0.35"></path>
            <path d="M5.09765625,11.9433594 C6.11328125,11.9433594 7.05566406,11.6748047 7.71972656,11.0693359 C8.0078125,11.2792969 8.34472656,11.3720703 8.77929688,11.3720703 C9.19433594,11.3720703 9.56542969,11.2548828 10.1025391,11.2548828 C10.6396484,11.2548828 10.9619141,11.3916016 11.3964844,11.3916016 C12.4267578,11.3916016 12.890625,10.8447266 12.890625,10.2099609 C12.890625,9.32617188 12.1630859,8.66210938 10.8447266,8.50585938 C11.2597656,8.29101562 11.6601562,8.125 11.953125,8.00292969 C12.5292969,8.36425781 13.4082031,8.59863281 14.0185547,8.59375 C15.4785156,8.58398438 16.2988281,8.10546875 16.2988281,6.77246094 C16.2988281,5.08300781 15.0585938,3.81347656 13.4716797,3.75488281 L12.4365234,2.29492188 C11.6601562,1.20605469 10.7617188,0.595703125 9.62890625,0.595703125 C8.65234375,0.595703125 7.51464844,1.08398438 7.51464844,1.88964844 C7.51464844,2.43164062 8.01757812,2.80273438 8.67675781,3.22753906 C9.33105469,3.65234375 10.5078125,4.36523438 11.2744141,4.83398438 C11.1767578,4.91210938 11.0986328,4.95117188 10.9960938,4.95117188 C10.8154297,4.95117188 10.5224609,4.84375 10.2539062,4.67285156 C8.37890625,3.65234375 7.17773438,2.67089844 5.60546875,2.67089844 C3.84765625,2.67089844 2.56347656,3.59375 1.94824219,5.38085938 C1.2890625,5.50292969 0.874023438,5.9375 0.874023438,6.57714844 C0.874023438,7.35351563 1.47949219,7.79296875 2.19238281,7.8125 C2.68554688,8.62304688 3.96972656,9.26269531 5.56640625,9.13574219 L5.91796875,9.453125 C5.76171875,9.51171875 5.59570312,9.53125 5.41503906,9.53125 C5.15136719,9.52636719 4.74121094,9.4140625 4.36523438,9.4140625 C3.63769531,9.4140625 3.14453125,9.86328125 3.14453125,10.5615234 C3.14453125,11.4306641 3.9453125,11.9433594 5.09765625,11.9433594 Z M11.3964844,10.4931641 C10.9082031,10.4931641 10.5419922,10.3759766 10.0732422,10.3759766 C9.53125,10.3759766 9.0234375,10.4492188 8.79882812,10.4492188 C8.57910156,10.4492188 8.37890625,10.4248047 8.18359375,10.2539062 L5.98632812,8.22265625 C4.39453125,8.30566406 3.31542969,7.91992188 2.66601562,6.99707031 C2.19726562,7.03613281 1.85546875,6.86035156 1.85546875,6.50878906 C1.85546875,6.16210938 2.19726562,5.94238281 2.69042969,5.95703125 C3.19335938,4.37011719 4.1796875,3.63769531 5.59570312,3.63769531 C7.15820312,3.63769531 8.57421875,4.83398438 9.92675781,5.54199219 C10.3320312,5.75195312 10.7568359,5.83984375 11.0351562,5.83984375 C11.6992188,5.83984375 12.1777344,5.43945312 12.4316406,4.67285156 L9.24804688,2.58300781 C8.9453125,2.37792969 8.61816406,2.11425781 8.61816406,1.97753906 C8.61816406,1.71875 9.2578125,1.54296875 9.63867188,1.54296875 C10.3222656,1.54296875 10.9277344,1.93359375 11.4697266,2.60742188 L13.0566406,4.47753906 C14.4433594,4.44335938 15.4150391,5.47363281 15.4150391,6.77734375 C15.4150391,7.56347656 15.0634766,7.79785156 14.0478516,7.79785156 C13.4423828,7.79785156 12.7246094,7.56347656 12.0751953,7.17285156 C11.1474609,7.42675781 10.1855469,7.91503906 9.51660156,8.50097656 C9.40917969,8.51074219 9.3359375,8.52539062 9.26269531,8.54003906 L8.92089844,7.65625 C8.22753906,5.90820312 7.03125,5.22460938 5.7421875,5.22460938 C5.546875,5.22460938 5.3125,5.22949219 5.09277344,5.27832031 C4.8046875,5.34179688 4.6875,5.46875 4.6875,5.65429688 C4.6875,5.90820312 4.87792969,6.07910156 5.13671875,6.07421875 C5.32714844,6.06933594 5.5078125,6.04003906 5.72753906,6.04003906 C6.796875,6.04003906 7.57324219,6.61621094 8.21777344,8.17382812 L8.72558594,9.39941406 C9.13085938,9.31640625 9.52636719,9.24804688 10.2050781,9.24804688 C11.1474609,9.24804688 11.9238281,9.54589844 11.9238281,10.1074219 C11.9238281,10.3222656 11.7382812,10.4931641 11.3964844,10.4931641 Z M13.6914062,6.49902344 C13.9355469,6.50878906 14.140625,6.29394531 14.1455078,6.0546875 C14.1552734,5.81054688 13.9697266,5.61523438 13.7207031,5.60546875 C13.4765625,5.60058594 13.2763672,5.80078125 13.2666016,6.04003906 C13.2568359,6.28417969 13.4472656,6.49414062 13.6914062,6.49902344 Z M5.17089844,11.1230469 C4.52148438,11.1230469 4.07714844,10.9033203 4.07714844,10.546875 C4.07714844,10.3515625 4.20410156,10.2099609 4.45800781,10.2099609 C4.70703125,10.2099609 4.99511719,10.3027344 5.38574219,10.3027344 C5.87402344,10.3027344 6.25488281,10.2490234 6.58203125,10.0537109 L7.09472656,10.5126953 C6.66992188,10.9082031 5.97167969,11.1230469 5.17089844,11.1230469 Z" id="solid"></path>
        </g>
    </g>
</svg>