<?xml version="1.0" encoding="UTF-8"?>
<svg width="15px" height="15px" viewBox="0 0 15 15" version="1.1" xmlns="http://www.w3.org/2000/svg" xmlns:xlink="http://www.w3.org/1999/xlink">
    <title>nature/leaf</title>
    <g id="nature/leaf" stroke="none" stroke-width="1" fill="none" fill-rule="evenodd">
        <g id="dark" fill="#000000" fill-rule="nonzero" opacity="0.75">
            <path d="M13.996582,13.440918 C14.4663086,13.440918 14.8408203,13.034668 14.8408203,12.4760742 C14.8408203,11.6000977 13.5839844,10.0766602 12.9301758,9.4609375 C10.1499023,6.89648438 5.91601562,8.41357422 4.82421875,5.58251953 C4.74169922,5.36669922 4.97021484,5.17626953 5.1796875,5.39208984 C7.36962891,7.58203125 10.1879883,5.73486328 12.9301758,8.26123047 C13.1459961,8.45166016 13.3999023,8.35009766 13.4379883,8.12158203 C13.4697266,7.9375 13.4887695,7.64550781 13.4887695,7.36621094 C13.4887695,4.26855469 11.3305664,2.77685547 8.29638672,2.77685547 C7.28076172,2.77685547 6.09375,3.02441406 5.16064453,3.02441406 C4.13867188,3.02441406 2.98974609,2.94189453 2.07568359,1.96435547 C1.81542969,1.69775391 1.421875,1.73583984 1.3203125,2.16748047 C1.18701172,2.81494141 1.13623047,3.65917969 1.13623047,4.22412109 C1.13623047,8.97216797 3.9609375,12.1079102 8.27734375,12.1079102 C10.4228516,12.1079102 11.6987305,11.1303711 12.2954102,10.4384766 C12.8286133,11.168457 13.1333008,11.9746094 13.4697266,13.0283203 C13.5649414,13.3330078 13.7744141,13.440918 13.996582,13.440918 Z" id="opaque"></path>
        </g>
        <g id="light" transform="translate(1.000000, 1.000000)" fill="#000000" fill-rule="nonzero">
            <path d="M12.7426758,12.440918 C13.2124023,12.440918 13.5869141,12.0029297 13.5869141,11.4760742 C13.5869141,10.6762695 12.7490234,9.33691406 12.0952148,8.41015625 C12.387207,7.80078125 12.5458984,7.10888672 12.5458984,6.35986328 C12.5458984,3.6875 10.3686523,1.7578125 7.36621094,1.7578125 C6.33154297,1.7578125 5.28417969,2.04980469 4.12255859,2.04980469 C3.14501953,2.04980469 2.30078125,1.75146484 1.60253906,0.958007812 C1.234375,0.526367187 0.504394531,0.48828125 0.326660156,1.21826172 C0.174316406,1.83398437 0.136230469,2.91943359 0.136230469,3.26220703 C0.136230469,7.99755859 2.97363281,11.1079102 7.34082031,11.1079102 C9.02294922,11.1079102 10.4384766,10.5048828 11.3652344,9.49560547 C11.7460938,10.2255859 11.9174805,11.0698242 12.2158203,12.0283203 C12.3110352,12.3330078 12.5205078,12.440918 12.7426758,12.440918 Z" id="translucent" opacity="0.25"></path>
            <path d="M12.7426758,12.440918 C13.2124023,12.440918 13.5869141,12.0029297 13.5869141,11.4760742 C13.5869141,10.6762695 12.7490234,9.33691406 12.0952148,8.41015625 C12.387207,7.80078125 12.5458984,7.10888672 12.5458984,6.35986328 C12.5458984,3.6875 10.3686523,1.7578125 7.36621094,1.7578125 C6.33154297,1.7578125 5.28417969,2.04980469 4.12255859,2.04980469 C3.14501953,2.04980469 2.30078125,1.75146484 1.60253906,0.958007812 C1.234375,0.526367187 0.504394531,0.48828125 0.326660156,1.21826172 C0.174316406,1.83398437 0.136230469,2.91943359 0.136230469,3.26220703 C0.136230469,7.99755859 2.97363281,11.1079102 7.34082031,11.1079102 C9.02294922,11.1079102 10.4384766,10.5048828 11.3652344,9.49560547 C11.7460938,10.2255859 11.9174805,11.0698242 12.2158203,12.0283203 C12.3110352,12.3330078 12.5205078,12.440918 12.7426758,12.440918 Z M7.34082031,10.1494141 C3.51318359,10.1494141 1.09472656,7.47070312 1.09472656,3.26220703 C1.09472656,2.84326172 1.10107422,2.37353516 1.15820312,2.03076172 C1.17089844,1.94824219 1.21533203,1.94189453 1.27246094,1.99267578 C1.98339844,2.64013672 3.10058594,3.00830078 4.12255859,3.00830078 C4.80810547,3.00830078 5.43017578,2.91943359 5.98876953,2.84326172 C6.49658203,2.7734375 6.94091797,2.71630859 7.36621094,2.71630859 C9.84179688,2.71630859 11.5874023,4.23339844 11.5874023,6.35986328 C11.5874023,6.80419922 11.5175781,7.21679687 11.390625,7.59765625 C10.5019531,6.81054687 9.17529297,6.32177734 7.27099609,6.01074219 C6.06494141,5.80761719 4.99853516,5.49023437 4.26855469,4.53808594 C4.06542969,4.26513672 3.75439453,4.45556641 3.84960938,4.74121094 C4.24951172,5.97900391 5.44921875,6.47412109 6.94726562,6.84228516 C8.97851562,7.32470703 9.96875,7.72460937 10.800293,8.68310547 C10.0576172,9.59716797 8.83886719,10.1494141 7.34082031,10.1494141 Z" id="solid" opacity="0.5"></path>
        </g>
    </g>
</svg>