<?xml version="1.0" encoding="UTF-8"?>
<svg width="15px" height="15px" viewBox="0 0 15 15" version="1.1" xmlns="http://www.w3.org/2000/svg" xmlns:xlink="http://www.w3.org/1999/xlink">
    <title>nature/tortoise</title>
    <g id="nature/tortoise" stroke="none" stroke-width="1" fill="none" fill-rule="evenodd">
        <g id="dark" transform="translate(-1.500000, 5.000000)" fill="#000000" fill-rule="nonzero">
            <path d="M12.9052734,5.81835938 C13.5791016,5.55957031 14.1894531,5.0859375 15.1611328,5.0859375 C16.5039062,5.0859375 17.3583984,4.62207031 17.3583984,3.86523438 C17.3583984,2.14160156 16.4453125,0.979492188 15.0683594,0.979492188 C13.8867188,0.979492188 13.1689453,1.73632812 12.8564453,2.83496094 C12.6708984,3.47949219 12.3779297,3.80664062 12.0166016,4.01171875 C12.2607422,4.48046875 12.5927734,5.18847656 12.9052734,5.81835938 Z M15.1806641,3.41113281 C14.9121094,3.41113281 14.6875,3.18652344 14.6875,2.91796875 C14.6875,2.64941406 14.9121094,2.4296875 15.1806641,2.4296875 C15.4492188,2.4296875 15.6689453,2.64941406 15.6689453,2.91796875 C15.6689453,3.18652344 15.4492188,3.41113281 15.1806641,3.41113281 Z M11.4160156,8.3671875 C12.1289062,8.3671875 12.6367188,8.06933594 12.6367188,7.56152344 C12.6367188,7.13183594 12.2509766,6.89257812 11.8457031,6.82421875 C11.5820312,6.79980469 11.3720703,6.78027344 11.0986328,6.75097656 C10.4833984,6.83886719 9.69726562,7.18066406 9.18457031,7.49804688 C9.63378906,8.02539062 10.5566406,8.3671875 11.4160156,8.3671875 Z M2.26074219,8.35742188 C3.12011719,8.35742188 3.984375,8.015625 4.453125,7.5078125 C3.88183594,7.18066406 3.19335938,6.86328125 2.56347656,6.75097656 C2.3046875,6.82910156 2.05078125,6.85839844 1.7578125,6.921875 C1.39648438,7 1.06445312,7.18066406 1.06445312,7.55175781 C1.06445312,8.05957031 1.5625,8.35742188 2.26074219,8.35742188 Z" id="translucent" opacity="0.35"></path>
            <path d="M6.796875,3.29394531 C8.125,3.29394531 9.2578125,2.79589844 10.1367188,1.81445312 C9.23339844,0.696289062 8.26171875,0.193359375 6.8359375,0.188476562 C5.41015625,0.188476562 4.40429688,0.696289062 3.49609375,1.84375 C4.37988281,2.8203125 5.53222656,3.29882812 6.796875,3.29394531 Z M10.0341797,6.46289062 C10.4492188,6.3359375 10.9033203,6.24316406 11.4257812,6.20898438 C11.796875,6.19433594 12.1630859,6.13574219 12.3583984,6.02832031 C11.9189453,5.26171875 11.0351562,3.16210938 10.5322266,2.36621094 C9.98535156,2.9375 9.23339844,3.42578125 8.59863281,3.66992188 C8.69628906,4.66601562 9.21875,5.73535156 10.0341797,6.46289062 Z M3.58398438,6.48730469 C4.36523438,5.80859375 4.95605469,4.66113281 5.05859375,3.68945312 C4.37011719,3.44042969 3.61816406,2.98632812 3.07617188,2.42480469 C2.85644531,2.76660156 2.62207031,3.14746094 2.40722656,3.56738281 C1.98242188,4.39746094 1.50390625,4.81738281 1.18652344,5.125 C0.981445312,5.32519531 0.874023438,5.47167969 0.874023438,5.7109375 C0.874023438,6.05761719 1.20605469,6.24804688 1.78710938,6.24804688 L2.34863281,6.24804688 C2.82714844,6.24804688 3.20800781,6.35058594 3.58398438,6.48730469 Z M6.80664062,7.57617188 C7.93457031,7.57617188 8.74511719,7.078125 9.40917969,6.75097656 C8.55957031,6.01855469 8.03710938,4.94921875 7.96386719,3.86523438 C7.58300781,3.95800781 7.20214844,4.00683594 6.80664062,4.00683594 C6.42578125,4.00683594 6.04980469,3.96289062 5.68847656,3.87988281 C5.60058594,4.91503906 5.09277344,6.00390625 4.26757812,6.77050781 C4.921875,7.04394531 5.70800781,7.57617188 6.80664062,7.57617188 Z" id="solid"></path>
        </g>
        <g id="light" transform="translate(-1.500000, 4.000000)" fill="#000000" fill-rule="nonzero">
            <path d="M11.5332031,9.45507812 C12.3535156,9.45507812 12.9492188,9.10351562 12.9492188,8.49316406 C12.9492188,7.84863281 12.4121094,7.62890625 11.7919922,7.46777344 C11.7675781,7.46289062 11.7431641,7.453125 11.71875,7.44824219 C13.2617188,7.24316406 13.7841797,6.33496094 15.0976562,6.33496094 C16.5283203,6.33496094 17.5390625,5.82226562 17.5390625,4.86523438 C17.5390625,2.89257812 16.4208984,1.75 15.0097656,1.75 C13.6523438,1.75 12.8613281,2.57519531 12.5634766,3.79101562 C12.4316406,4.29394531 12.2021484,4.62109375 11.8554688,4.82617188 L11.6113281,4.38183594 C10.3076172,1.94042969 9.05761719,0.96875 7.05078125,0.963867188 C4.94140625,0.96875 3.77441406,1.91601562 2.265625,4.76269531 C1.70410156,5.83203125 0.874023438,6.01269531 0.874023438,6.68164062 C0.874023438,7.16992188 1.25976562,7.48730469 1.95800781,7.48730469 L2.08496094,7.48730469 C2.05566406,7.49707031 2.02636719,7.50683594 1.99707031,7.51660156 C1.45507812,7.67773438 1.00097656,7.90234375 1.00097656,8.48339844 C1.00097656,9.09375 1.59667969,9.4453125 2.41699219,9.4453125 C3.359375,9.4453125 4.32128906,9.05957031 5.08789062,8.33691406 C5.63476562,8.60058594 6.22070312,8.82519531 7.00683594,8.82519531 C7.82714844,8.82519531 8.41796875,8.63476562 8.92578125,8.40039062 C9.67773438,9.07421875 10.6152344,9.45507812 11.5332031,9.45507812 Z" id="translucent" opacity="0.35"></path>
            <path d="M11.5332031,9.45507812 C12.3535156,9.45507812 12.9492188,9.10351562 12.9492188,8.49316406 C12.9492188,7.84863281 12.4121094,7.62890625 11.7919922,7.46777344 C11.7675781,7.46289062 11.7431641,7.453125 11.71875,7.44824219 C13.2617188,7.24316406 13.7841797,6.33496094 15.0976562,6.33496094 C16.5283203,6.33496094 17.5390625,5.82226562 17.5390625,4.86523438 C17.5390625,2.89257812 16.4208984,1.75 15.0097656,1.75 C13.6523438,1.75 12.8613281,2.57519531 12.5634766,3.79101562 C12.4316406,4.29394531 12.2021484,4.62109375 11.8554688,4.82617188 L11.6113281,4.38183594 C10.3076172,1.94042969 9.05761719,0.96875 7.05078125,0.963867188 C4.94140625,0.96875 3.77441406,1.91601562 2.265625,4.76269531 C1.70410156,5.83203125 0.874023438,6.01269531 0.874023438,6.68164062 C0.874023438,7.16992188 1.25976562,7.48730469 1.95800781,7.48730469 L2.08496094,7.48730469 C2.05566406,7.49707031 2.02636719,7.50683594 1.99707031,7.51660156 C1.45507812,7.67773438 1.00097656,7.90234375 1.00097656,8.48339844 C1.00097656,9.09375 1.59667969,9.4453125 2.41699219,9.4453125 C3.359375,9.4453125 4.32128906,9.05957031 5.08789062,8.33691406 C5.63476562,8.60058594 6.22070312,8.82519531 7.00683594,8.82519531 C7.82714844,8.82519531 8.41796875,8.63476562 8.92578125,8.40039062 C9.67773438,9.07421875 10.6152344,9.45507812 11.5332031,9.45507812 Z M6.99707031,4.26953125 C5.97167969,4.26953125 5.06347656,3.94726562 4.30664062,3.3515625 C5.09277344,2.35546875 5.88378906,1.99414062 7.05078125,1.98925781 C8.25195312,1.99414062 9.05273438,2.48242188 9.73632812,3.31738281 C8.95996094,3.93261719 8.03222656,4.26953125 6.99707031,4.26953125 Z M12.9101562,6.22265625 C12.7246094,6.07128906 12.5292969,5.84179688 12.3925781,5.59765625 C12.9248047,5.40722656 13.2519531,5.01660156 13.4423828,4.24023438 C13.6572266,3.26855469 14.1601562,2.73144531 15.0097656,2.73144531 C15.8837891,2.73144531 16.5966797,3.55175781 16.5966797,4.73339844 C16.5966797,5.09960938 15.9326172,5.3828125 15.2587891,5.3828125 C14.1210938,5.3828125 13.5009766,5.80273438 12.9101562,6.22265625 Z M15.1269531,4.37695312 C15.3515625,4.37695312 15.5322266,4.19628906 15.5322266,3.96679688 C15.5322266,3.7421875 15.3515625,3.56152344 15.1269531,3.56152344 C14.8974609,3.56152344 14.7167969,3.7421875 14.7167969,3.96679688 C14.7167969,4.19628906 14.8974609,4.37695312 15.1269531,4.37695312 Z M9.69238281,6.86230469 C9.24316406,6.25683594 8.88671875,5.35351562 8.80859375,4.72363281 C9.34082031,4.5234375 9.79980469,4.24511719 10.1855469,3.94238281 C10.3857422,4.24023438 10.5761719,4.57226562 10.7714844,4.92382812 C11.1083984,5.5390625 11.4355469,6.07617188 11.8359375,6.44726562 C11.6699219,6.45214844 11.484375,6.45214844 11.2890625,6.46191406 C10.6542969,6.49121094 10.1513672,6.65722656 9.69238281,6.86230469 Z M4.40917969,6.84277344 C3.95019531,6.62792969 3.45214844,6.46191406 2.83691406,6.46191406 C2.63671875,6.46191406 2.44140625,6.46679688 2.22167969,6.4765625 L2.19726562,6.40332031 C2.51953125,6.12011719 2.86621094,5.80761719 3.15429688,5.2265625 C3.3984375,4.75292969 3.6328125,4.33789062 3.86230469,3.98144531 C4.25292969,4.2890625 4.72167969,4.5625 5.2734375,4.7578125 C5.18066406,5.36816406 4.83398438,6.25195312 4.40917969,6.84277344 Z M7.00683594,7.79980469 C6.24511719,7.79980469 5.65917969,7.49707031 5.07324219,7.18457031 C5.51269531,6.56445312 5.86425781,5.66113281 5.95703125,4.94824219 C6.27929688,5.01171875 6.63085938,5.05078125 6.99707031,5.05078125 C7.39746094,5.05078125 7.7734375,5.00683594 8.12011719,4.92871094 C8.19335938,5.66601562 8.54980469,6.57910156 9.01367188,7.19921875 C8.40820312,7.50683594 7.8125,7.79980469 7.00683594,7.79980469 Z M2.45605469,8.69335938 C2.06542969,8.69335938 1.86035156,8.56640625 1.86035156,8.36132812 C1.86035156,8.20996094 1.98242188,8.10742188 2.29980469,8.02441406 C2.5,7.97070312 3.04199219,7.8046875 3.4765625,7.61425781 C3.76464844,7.69726562 4.0234375,7.8046875 4.27734375,7.92675781 C3.60351562,8.45410156 3.0078125,8.69335938 2.45605469,8.69335938 Z M11.4941406,8.703125 C10.9570312,8.703125 10.3759766,8.47363281 9.72167969,7.98046875 C9.97070312,7.84375 10.2197266,7.72167969 10.4833984,7.62890625 C10.9179688,7.81933594 11.4550781,7.98046875 11.6503906,8.03417969 C11.9677734,8.11230469 12.0898438,8.21972656 12.0898438,8.37109375 C12.0898438,8.57617188 11.8847656,8.703125 11.4941406,8.703125 Z" id="solid"></path>
        </g>
    </g>
</svg>