<?xml version="1.0" encoding="UTF-8"?>
<svg width="15px" height="15px" viewBox="0 0 15 15" version="1.1" xmlns="http://www.w3.org/2000/svg" xmlns:xlink="http://www.w3.org/1999/xlink">
    <title>arrows/arrow-3-triangle-path</title>
    <g id="arrows/arrow-3-triangle-path" stroke="none" stroke-width="1" fill="none" fill-rule="evenodd" opacity="0.75">
        <g id="dark" fill="#000000" fill-rule="nonzero">
            <path d="M11.5146484,6.70605469 C11.6796875,6.60449219 11.7685547,6.47119141 11.8256836,6.25537109 L12.3525391,4.14160156 C12.4287109,3.875 12.2827148,3.62109375 12.0161133,3.55761719 C11.7558594,3.48779297 11.4829102,3.63378906 11.4257812,3.90673828 L11.152832,5.04296875 L9.43896484,1.97705078 C9.11523438,1.39306641 8.52490234,1.09472656 7.93457031,1.09472656 C7.33789063,1.09472656 6.75390625,1.39941406 6.42382813,1.97705078 L4.671875,5.10644531 C4.50683594,5.39208984 4.59570313,5.66503906 4.84326172,5.81103516 C5.09716797,5.95068359 5.39550781,5.86181641 5.54150391,5.60791016 L7.29345703,2.46582031 C7.43945313,2.21191406 7.68701172,2.10400391 7.93457031,2.10400391 C8.18212891,2.10400391 8.42333984,2.21191406 8.56298828,2.46582031 L10.3085938,5.58251953 L9.12792969,5.23339844 C8.86767578,5.15087891 8.60742188,5.30322266 8.53125,5.56982422 C8.46142578,5.82373047 8.60107422,6.08398438 8.87402344,6.16015625 L10.96875,6.75048828 C11.1845703,6.80761719 11.3496094,6.80761719 11.5146484,6.70605469 Z M6.44921875,13.3266602 C6.74755859,13.3266602 6.96972656,13.1171875 6.96972656,12.831543 C6.96972656,12.5458984 6.74755859,12.3300781 6.44921875,12.3300781 L3.05322266,12.3300781 C2.61523438,12.3300781 2.32324219,11.9682617 2.32324219,11.574707 C2.32324219,11.4604492 2.34228516,11.3208008 2.41210938,11.2001953 L4.03710938,8.29296875 L4.30371094,9.42919922 C4.36083984,9.70214844 4.63378906,9.84814453 4.89404297,9.77832031 C5.16064453,9.71484375 5.31298828,9.4609375 5.23681641,9.19433594 L4.70361328,7.08056641 C4.64648438,6.87109375 4.55761719,6.72509766 4.39257812,6.62988281 C4.22753906,6.52832031 4.0625,6.52197266 3.84667969,6.58544922 L1.75830078,7.17578125 C1.47900391,7.25195312 1.33935547,7.51220703 1.41552734,7.76611328 C1.48535156,8.03271484 1.74560547,8.19140625 2.01220703,8.10253906 L3.18652344,7.75341797 L1.52978516,10.7114258 C1.37744141,10.9907227 1.29492188,11.2890625 1.29492188,11.574707 C1.29492188,12.5585938 1.96777344,13.3266602 3.046875,13.3266602 L6.44921875,13.3266602 Z M10.3720703,14.8374023 C10.5688477,14.6533203 10.5688477,14.3486328 10.3657227,14.1518555 L9.49609375,13.3266602 L12.815918,13.3266602 C13.8950195,13.3266602 14.5678711,12.5585938 14.5678711,11.574707 C14.5678711,11.2890625 14.4916992,10.9970703 14.3330078,10.7114258 L12.6508789,7.70898438 C12.5048828,7.43603516 12.206543,7.37255859 11.965332,7.51855469 C11.7177734,7.66455078 11.6352539,7.96289063 11.7749023,8.21679688 L13.4443359,11.2001953 C13.5141602,11.3208008 13.5458984,11.4604492 13.5458984,11.574707 C13.5458984,11.9682617 13.2412109,12.3300781 12.8032227,12.3300781 L9.49609375,12.3300781 L10.3657227,11.5112305 C10.5688477,11.3144531 10.5688477,11.0097656 10.3720703,10.8256836 C10.1879883,10.6289062 9.88964844,10.6225586 9.69287109,10.8256836 L8.13134766,12.3364258 C7.97265625,12.4887695 7.90283203,12.6411133 7.90283203,12.831543 C7.90283203,13.0219727 7.97265625,13.1679688 8.13134766,13.3203125 L9.69287109,14.8374023 C9.88964844,15.0405273 10.1879883,15.027832 10.3720703,14.8374023 Z" id="opaque"></path>
        </g>
        <g id="light" fill="#000000" fill-rule="nonzero">
            <path d="M11.5146484,6.70605469 C11.6796875,6.60449219 11.7685547,6.47119141 11.8256836,6.25537109 L12.3525391,4.14160156 C12.4287109,3.875 12.2827148,3.62109375 12.0161133,3.55761719 C11.7558594,3.48779297 11.4829102,3.63378906 11.4257812,3.90673828 L11.152832,5.04296875 L9.43896484,1.97705078 C9.11523438,1.39306641 8.52490234,1.09472656 7.93457031,1.09472656 C7.33789063,1.09472656 6.75390625,1.39941406 6.42382813,1.97705078 L4.671875,5.10644531 C4.50683594,5.39208984 4.59570313,5.66503906 4.84326172,5.81103516 C5.09716797,5.95068359 5.39550781,5.86181641 5.54150391,5.60791016 L7.29345703,2.46582031 C7.43945313,2.21191406 7.68701172,2.10400391 7.93457031,2.10400391 C8.18212891,2.10400391 8.42333984,2.21191406 8.56298828,2.46582031 L10.3085938,5.58251953 L9.12792969,5.23339844 C8.86767578,5.15087891 8.60742188,5.30322266 8.53125,5.56982422 C8.46142578,5.82373047 8.60107422,6.08398438 8.87402344,6.16015625 L10.96875,6.75048828 C11.1845703,6.80761719 11.3496094,6.80761719 11.5146484,6.70605469 Z M6.44921875,13.3266602 C6.74755859,13.3266602 6.96972656,13.1171875 6.96972656,12.831543 C6.96972656,12.5458984 6.74755859,12.3300781 6.44921875,12.3300781 L3.05322266,12.3300781 C2.61523438,12.3300781 2.32324219,11.9682617 2.32324219,11.574707 C2.32324219,11.4604492 2.34228516,11.3208008 2.41210938,11.2001953 L4.03710938,8.29296875 L4.30371094,9.42919922 C4.36083984,9.70214844 4.63378906,9.84814453 4.89404297,9.77832031 C5.16064453,9.71484375 5.31298828,9.4609375 5.23681641,9.19433594 L4.70361328,7.08056641 C4.64648438,6.87109375 4.55761719,6.72509766 4.39257812,6.62988281 C4.22753906,6.52832031 4.0625,6.52197266 3.84667969,6.58544922 L1.75830078,7.17578125 C1.47900391,7.25195312 1.33935547,7.51220703 1.41552734,7.76611328 C1.48535156,8.03271484 1.74560547,8.19140625 2.01220703,8.10253906 L3.18652344,7.75341797 L1.52978516,10.7114258 C1.37744141,10.9907227 1.29492188,11.2890625 1.29492188,11.574707 C1.29492188,12.5585938 1.96777344,13.3266602 3.046875,13.3266602 L6.44921875,13.3266602 Z M10.3720703,14.8374023 C10.5688477,14.6533203 10.5688477,14.3486328 10.3657227,14.1518555 L9.49609375,13.3266602 L12.815918,13.3266602 C13.8950195,13.3266602 14.5678711,12.5585938 14.5678711,11.574707 C14.5678711,11.2890625 14.4916992,10.9970703 14.3330078,10.7114258 L12.6508789,7.70898438 C12.5048828,7.43603516 12.206543,7.37255859 11.965332,7.51855469 C11.7177734,7.66455078 11.6352539,7.96289063 11.7749023,8.21679688 L13.4443359,11.2001953 C13.5141602,11.3208008 13.5458984,11.4604492 13.5458984,11.574707 C13.5458984,11.9682617 13.2412109,12.3300781 12.8032227,12.3300781 L9.49609375,12.3300781 L10.3657227,11.5112305 C10.5688477,11.3144531 10.5688477,11.0097656 10.3720703,10.8256836 C10.1879883,10.6289062 9.88964844,10.6225586 9.69287109,10.8256836 L8.13134766,12.3364258 C7.97265625,12.4887695 7.90283203,12.6411133 7.90283203,12.831543 C7.90283203,13.0219727 7.97265625,13.1679688 8.13134766,13.3203125 L9.69287109,14.8374023 C9.88964844,15.0405273 10.1879883,15.027832 10.3720703,14.8374023 Z" id="opaque"></path>
        </g>
    </g>
</svg>