<?xml version="1.0" encoding="UTF-8"?>
<svg width="15px" height="15px" viewBox="0 0 15 15" version="1.1" xmlns="http://www.w3.org/2000/svg" xmlns:xlink="http://www.w3.org/1999/xlink">
    <title>arrows/location</title>
    <g id="arrows/location" stroke="none" stroke-width="1" fill="none" fill-rule="evenodd">
        <g id="dark" fill="#000000" fill-rule="nonzero">
            <path d="M7.78222656,13.9614258 C8.26464844,13.9614258 8.52490234,13.5107422 8.75341797,13.0092773 L13.6157227,2.53564453 C13.7363281,2.28808594 13.793457,2.06591797 13.793457,1.88183594 C13.793457,1.46289062 13.4824219,1.14550781 13.0571289,1.14550781 C12.8666992,1.14550781 12.6445312,1.19628906 12.3969727,1.31689453 L1.92333984,6.17285156 C1.44091797,6.39501953 0.971191406,6.66162109 0.971191406,7.15039062 C0.971191406,7.63916016 1.44091797,7.91845703 2.06298828,7.91845703 L6.86816406,7.9375 C6.95703125,7.9375 7.00146484,7.97558594 7.00146484,8.07080078 L7.01416016,12.8632812 C7.01416016,13.4663086 7.28076172,13.9614258 7.78222656,13.9614258 Z" id="solid"></path>
        </g>
        <g id="light" fill="#000000" fill-rule="nonzero">
            <path d="M7.78222656,13.9614258 C8.26464844,13.9614258 8.52490234,13.5107422 8.75341797,13.0092773 L13.6157227,2.53564453 C13.7363281,2.28808594 13.793457,2.06591797 13.793457,1.88183594 C13.793457,1.46289062 13.4824219,1.14550781 13.0571289,1.14550781 C12.8666992,1.14550781 12.6445312,1.19628906 12.3969727,1.31689453 L1.92333984,6.17285156 C1.44091797,6.39501953 0.971191406,6.66162109 0.971191406,7.15039062 C0.971191406,7.63916016 1.44091797,7.91845703 2.06298828,7.91845703 L6.86816406,7.9375 C6.95703125,7.9375 7.00146484,7.97558594 7.00146484,8.07080078 L7.01416016,12.8632812 C7.01416016,13.4663086 7.28076172,13.9614258 7.78222656,13.9614258 Z" id="translucent" opacity="0.35"></path>
            <path d="M7.78222656,13.9614258 C8.26464844,13.9614258 8.52490234,13.5107422 8.75341797,13.0092773 L13.6157227,2.53564453 C13.7363281,2.28808594 13.793457,2.06591797 13.793457,1.88183594 C13.793457,1.46289062 13.4824219,1.14550781 13.0571289,1.14550781 C12.8666992,1.14550781 12.6445312,1.19628906 12.3969727,1.31689453 L1.92333984,6.17285156 C1.44091797,6.39501953 0.971191406,6.66162109 0.971191406,7.15039062 C0.971191406,7.63916016 1.44091797,7.91845703 2.06298828,7.91845703 L6.86816406,7.9375 C6.95703125,7.9375 7.00146484,7.97558594 7.00146484,8.07080078 L7.01416016,12.8632812 C7.01416016,13.4663086 7.28076172,13.9614258 7.78222656,13.9614258 Z M7.94726562,12.4125977 L7.98535156,7.39160156 C7.98535156,7.13134766 7.80761719,6.94726563 7.53466797,6.94726563 L2.51367188,6.98535156 C2.46289062,6.98535156 2.45654297,6.921875 2.51367188,6.89648438 L12.5683594,2.28173828 C12.6445312,2.24365234 12.6953125,2.28173828 12.6508789,2.37060547 L8.03613281,12.425293 C8.01074219,12.4824219 7.94726562,12.4633789 7.94726562,12.4125977 Z" id="solid"></path>
        </g>
    </g>
</svg>