<?xml version="1.0" encoding="UTF-8"?>
<svg width="15px" height="15px" viewBox="0 0 15 15" version="1.1" xmlns="http://www.w3.org/2000/svg" xmlns:xlink="http://www.w3.org/1999/xlink">
    <title>math/number</title>
    <g id="math/number" stroke="none" stroke-width="1" fill="none" fill-rule="evenodd">
        <g id="dark" fill="#000000" fill-rule="nonzero">
            <path d="M8.26489258,13.6186523 C8.57592773,13.6186523 8.79174805,13.4536133 8.85522461,13.1425781 L9.47729492,10.0639648 L11.7434082,10.0639648 C12.0861816,10.0639648 12.3337402,9.81005859 12.3337402,9.46728516 C12.3337402,9.18798828 12.1369629,8.95947266 11.857666,8.95947266 L9.69946289,8.95947266 L10.3786621,5.60791016 L12.6003418,5.60791016 C12.9494629,5.60791016 13.1906738,5.35400391 13.1906738,5.01123047 C13.1906738,4.73193359 13.0002441,4.50341797 12.7145996,4.50341797 L10.6008301,4.50341797 L11.1213379,1.9453125 C11.1276855,1.90722656 11.1403809,1.82470703 11.1403809,1.7421875 C11.1403809,1.43115234 10.9118652,1.25341797 10.6135254,1.25341797 C10.251709,1.25341797 10.0930176,1.45019531 10.0358887,1.74853516 L9.47729492,4.50341797 L6.47485352,4.50341797 L6.98901367,1.9453125 C7.00170898,1.90722656 7.0144043,1.82470703 7.0144043,1.7421875 C7.0144043,1.43115234 6.78588867,1.25341797 6.48120117,1.25341797 C6.12573242,1.25341797 5.96069336,1.45019531 5.90356445,1.74853516 L5.3449707,4.50341797 L3.2565918,4.50341797 C2.91381836,4.50341797 2.66625977,4.77001953 2.66625977,5.11914062 C2.66625977,5.40478516 2.86303711,5.60791016 3.14233398,5.60791016 L5.12280273,5.60791016 L4.44360352,8.95947266 L2.3996582,8.95947266 C2.05053711,8.95947266 1.80932617,9.22607422 1.80932617,9.57519531 C1.80932617,9.86083984 1.99975586,10.0639648 2.28540039,10.0639648 L4.22143555,10.0639648 L3.64379883,12.9331055 C3.63110352,12.996582 3.6184082,13.0727539 3.6184082,13.1362305 C3.6184082,13.4472656 3.83422852,13.6186523 4.13891602,13.6186523 C4.44360352,13.6186523 4.66577148,13.4536133 4.72924805,13.1425781 L5.35131836,10.0639648 L8.35375977,10.0639648 L7.76977539,12.9331055 C7.75708008,12.996582 7.75073242,13.0727539 7.75073242,13.1362305 C7.75073242,13.4472656 7.96655273,13.6186523 8.26489258,13.6186523 Z M8.57592773,8.95947266 L5.57348633,8.95947266 L6.25268555,5.60791016 L9.25512695,5.60791016 L8.57592773,8.95947266 Z" id="solid"></path>
        </g>
        <g id="light" fill="#000000" fill-rule="nonzero">
            <path d="M8.26489258,13.6186523 C8.57592773,13.6186523 8.79174805,13.4536133 8.85522461,13.1425781 L9.47729492,10.0639648 L11.7434082,10.0639648 C12.0861816,10.0639648 12.3337402,9.81005859 12.3337402,9.46728516 C12.3337402,9.18798828 12.1369629,8.95947266 11.857666,8.95947266 L9.69946289,8.95947266 L10.3786621,5.60791016 L12.6003418,5.60791016 C12.9494629,5.60791016 13.1906738,5.35400391 13.1906738,5.01123047 C13.1906738,4.73193359 13.0002441,4.50341797 12.7145996,4.50341797 L10.6008301,4.50341797 L11.1213379,1.9453125 C11.1276855,1.90722656 11.1403809,1.82470703 11.1403809,1.7421875 C11.1403809,1.43115234 10.9118652,1.25341797 10.6135254,1.25341797 C10.251709,1.25341797 10.0930176,1.45019531 10.0358887,1.74853516 L9.47729492,4.50341797 L6.47485352,4.50341797 L6.98901367,1.9453125 C7.00170898,1.90722656 7.0144043,1.82470703 7.0144043,1.7421875 C7.0144043,1.43115234 6.78588867,1.25341797 6.48120117,1.25341797 C6.12573242,1.25341797 5.96069336,1.45019531 5.90356445,1.74853516 L5.3449707,4.50341797 L3.2565918,4.50341797 C2.91381836,4.50341797 2.66625977,4.77001953 2.66625977,5.11914062 C2.66625977,5.40478516 2.86303711,5.60791016 3.14233398,5.60791016 L5.12280273,5.60791016 L4.44360352,8.95947266 L2.3996582,8.95947266 C2.05053711,8.95947266 1.80932617,9.22607422 1.80932617,9.57519531 C1.80932617,9.86083984 1.99975586,10.0639648 2.28540039,10.0639648 L4.22143555,10.0639648 L3.64379883,12.9331055 C3.63110352,12.996582 3.6184082,13.0727539 3.6184082,13.1362305 C3.6184082,13.4472656 3.83422852,13.6186523 4.13891602,13.6186523 C4.44360352,13.6186523 4.66577148,13.4536133 4.72924805,13.1425781 L5.35131836,10.0639648 L8.35375977,10.0639648 L7.76977539,12.9331055 C7.75708008,12.996582 7.75073242,13.0727539 7.75073242,13.1362305 C7.75073242,13.4472656 7.96655273,13.6186523 8.26489258,13.6186523 Z M8.57592773,8.95947266 L5.57348633,8.95947266 L6.25268555,5.60791016 L9.25512695,5.60791016 L8.57592773,8.95947266 Z" id="solid"></path>
        </g>
    </g>
</svg>