<?xml version="1.0" encoding="UTF-8"?>
<svg width="15px" height="15px" viewBox="0 0 15 15" version="1.1" xmlns="http://www.w3.org/2000/svg" xmlns:xlink="http://www.w3.org/1999/xlink">
    <title>math/percent</title>
    <g id="math/percent" stroke="none" stroke-width="1" fill="none" fill-rule="evenodd">
        <g id="dark" fill="#000000" fill-rule="nonzero">
            <path d="M4.22143555,13.2250977 L11.6799316,2.19921875 C11.9020996,1.88183594 11.7687988,1.55810547 11.5339355,1.41845703 C11.3117676,1.29785156 11.0007324,1.32324219 10.7785645,1.640625 L3.32006836,12.6347656 C3.09155273,12.9584961 3.20581055,13.2631836 3.44067383,13.402832 C3.67553711,13.5361328 4.01831055,13.5170898 4.22143555,13.2250977 Z M3.89770508,7.27099609 C5.26245117,7.27099609 6.08764648,6.14746094 6.08764648,4.35742188 C6.08764648,2.56738281 5.25610352,1.46289062 3.89770508,1.46289062 C2.53295898,1.46289062 1.70141602,2.57373047 1.70141602,4.35742188 C1.70141602,6.15380859 2.52661133,7.27099609 3.89770508,7.27099609 Z M3.89770508,6.38232422 C3.16137695,6.38232422 2.72338867,5.63964844 2.72338867,4.35742188 C2.72338867,3.09423828 3.16772461,2.34521484 3.89770508,2.34521484 C4.62768555,2.34521484 5.06567383,3.08789062 5.06567383,4.35742188 C5.06567383,5.63964844 4.6340332,6.38232422 3.89770508,6.38232422 Z M11.1086426,13.3774414 C12.4733887,13.3774414 13.298584,12.2539062 13.298584,10.4702148 C13.298584,8.67382812 12.467041,7.56933594 11.1086426,7.56933594 C9.74389648,7.56933594 8.91235352,8.68017578 8.91235352,10.4702148 C8.91235352,12.2602539 9.73754883,13.3774414 11.1086426,13.3774414 Z M11.1086426,12.4951172 C10.3723145,12.4951172 9.93432617,11.7460938 9.93432617,10.4702148 C9.93432617,9.20068359 10.3786621,8.45800781 11.1086426,8.45800781 C11.838623,8.45800781 12.2766113,9.19433594 12.2766113,10.4702148 C12.2766113,11.7460938 11.8449707,12.4951172 11.1086426,12.4951172 Z" id="solid"></path>
        </g>
        <g id="light" fill="#000000" fill-rule="nonzero">
            <path d="M4.22143555,13.2250977 L11.6799316,2.19921875 C11.9020996,1.88183594 11.7687988,1.55810547 11.5339355,1.41845703 C11.3117676,1.29785156 11.0007324,1.32324219 10.7785645,1.640625 L3.32006836,12.6347656 C3.09155273,12.9584961 3.20581055,13.2631836 3.44067383,13.402832 C3.67553711,13.5361328 4.01831055,13.5170898 4.22143555,13.2250977 Z M3.89770508,7.27099609 C5.26245117,7.27099609 6.08764648,6.14746094 6.08764648,4.35742188 C6.08764648,2.56738281 5.25610352,1.46289062 3.89770508,1.46289062 C2.53295898,1.46289062 1.70141602,2.57373047 1.70141602,4.35742188 C1.70141602,6.15380859 2.52661133,7.27099609 3.89770508,7.27099609 Z M3.89770508,6.38232422 C3.16137695,6.38232422 2.72338867,5.63964844 2.72338867,4.35742188 C2.72338867,3.09423828 3.16772461,2.34521484 3.89770508,2.34521484 C4.62768555,2.34521484 5.06567383,3.08789062 5.06567383,4.35742188 C5.06567383,5.63964844 4.6340332,6.38232422 3.89770508,6.38232422 Z M11.1086426,13.3774414 C12.4733887,13.3774414 13.298584,12.2539062 13.298584,10.4702148 C13.298584,8.67382812 12.467041,7.56933594 11.1086426,7.56933594 C9.74389648,7.56933594 8.91235352,8.68017578 8.91235352,10.4702148 C8.91235352,12.2602539 9.73754883,13.3774414 11.1086426,13.3774414 Z M11.1086426,12.4951172 C10.3723145,12.4951172 9.93432617,11.7460938 9.93432617,10.4702148 C9.93432617,9.20068359 10.3786621,8.45800781 11.1086426,8.45800781 C11.838623,8.45800781 12.2766113,9.19433594 12.2766113,10.4702148 C12.2766113,11.7460938 11.8449707,12.4951172 11.1086426,12.4951172 Z" id="solid"></path>
        </g>
    </g>
</svg>