<?xml version="1.0" encoding="UTF-8"?>
<svg width="15px" height="15px" viewBox="0 0 15 15" version="1.1" xmlns="http://www.w3.org/2000/svg" xmlns:xlink="http://www.w3.org/1999/xlink">
    <title>math/plus-minus</title>
    <g id="math/plus-minus" stroke="none" stroke-width="1" fill="none" fill-rule="evenodd" opacity="0.75">
        <g id="dark" fill="#000000" fill-rule="nonzero">
            <path d="M7.49682617,9.45458984 C7.80786133,9.45458984 8.06811523,9.20068359 8.06811523,8.89599609 L8.06811523,6.28710938 L10.7785645,6.28710938 C11.083252,6.28710938 11.3435059,6.02685547 11.3435059,5.71582031 C11.3435059,5.40478516 11.083252,5.15087891 10.7785645,5.15087891 L8.06811523,5.15087891 L8.06811523,2.56103516 C8.06811523,2.25634766 7.80786133,2.00878906 7.49682617,2.00878906 C7.18579102,2.00878906 6.93188477,2.25634766 6.93188477,2.56103516 L6.93188477,5.15087891 L4.22143555,5.15087891 C3.91674805,5.15087891 3.65649414,5.40478516 3.65649414,5.71582031 C3.65649414,6.02685547 3.91674805,6.28710938 4.22143555,6.28710938 L6.93188477,6.28710938 L6.93188477,8.89599609 C6.93188477,9.20068359 7.18579102,9.45458984 7.49682617,9.45458984 Z M10.7785645,12.6157227 C11.083252,12.6157227 11.3435059,12.3554688 11.3435059,12.0444336 C11.3435059,11.7333984 11.083252,11.4794922 10.7785645,11.4794922 L4.22143555,11.4794922 C3.91674805,11.4794922 3.65649414,11.7333984 3.65649414,12.0444336 C3.65649414,12.3554688 3.91674805,12.6157227 4.22143555,12.6157227 L10.7785645,12.6157227 Z" id="opaque"></path>
        </g>
        <g id="light" fill="#000000" fill-rule="nonzero">
            <path d="M7.49682617,9.45458984 C7.80786133,9.45458984 8.06811523,9.20068359 8.06811523,8.89599609 L8.06811523,6.28710938 L10.7785645,6.28710938 C11.083252,6.28710938 11.3435059,6.02685547 11.3435059,5.71582031 C11.3435059,5.40478516 11.083252,5.15087891 10.7785645,5.15087891 L8.06811523,5.15087891 L8.06811523,2.56103516 C8.06811523,2.25634766 7.80786133,2.00878906 7.49682617,2.00878906 C7.18579102,2.00878906 6.93188477,2.25634766 6.93188477,2.56103516 L6.93188477,5.15087891 L4.22143555,5.15087891 C3.91674805,5.15087891 3.65649414,5.40478516 3.65649414,5.71582031 C3.65649414,6.02685547 3.91674805,6.28710938 4.22143555,6.28710938 L6.93188477,6.28710938 L6.93188477,8.89599609 C6.93188477,9.20068359 7.18579102,9.45458984 7.49682617,9.45458984 Z M10.7785645,12.6157227 C11.083252,12.6157227 11.3435059,12.3554688 11.3435059,12.0444336 C11.3435059,11.7333984 11.083252,11.4794922 10.7785645,11.4794922 L4.22143555,11.4794922 C3.91674805,11.4794922 3.65649414,11.7333984 3.65649414,12.0444336 C3.65649414,12.3554688 3.91674805,12.6157227 4.22143555,12.6157227 L10.7785645,12.6157227 Z" id="opaque"></path>
        </g>
    </g>
</svg>