<?xml version="1.0" encoding="UTF-8"?>
<svg width="15px" height="15px" viewBox="0 0 15 15" version="1.1" xmlns="http://www.w3.org/2000/svg" xmlns:xlink="http://www.w3.org/1999/xlink">
    <title>math/sum</title>
    <g id="math/sum" stroke="none" stroke-width="1" fill="none" fill-rule="evenodd" opacity="0.75">
        <g id="dark" fill="#000000" fill-rule="nonzero">
            <path d="M10.5913086,13.2631836 C10.9150391,13.2631836 11.1625977,13.0600586 11.1625977,12.7299805 C11.1625977,12.40625 10.9150391,12.1904297 10.5913086,12.1904297 L5.17041016,12.1904297 L5.17041016,12.1333008 L8.60449219,7.96923828 C8.76953125,7.76611328 8.85839844,7.56298828 8.85839844,7.35986328 C8.85839844,7.15039062 8.76953125,6.94091797 8.59814453,6.74414062 L5.17675781,2.70703125 L5.17675781,2.64990234 L10.5913086,2.64990234 C10.9213867,2.64990234 11.1689453,2.43408203 11.1689453,2.11035156 C11.1689453,1.78027344 10.9213867,1.57714844 10.5913086,1.57714844 L4.68798828,1.57714844 C4.14208984,1.57714844 3.83740234,1.95166016 3.83740234,2.37060547 C3.83740234,2.58642578 3.91992188,2.81494141 4.08496094,3.00537109 L7.74755859,7.32177734 L7.74755859,7.39160156 L4.07226562,11.8349609 C3.91357422,12.0253906 3.83105469,12.2539062 3.83105469,12.4697266 C3.83105469,12.8886719 4.13574219,13.2631836 4.68164062,13.2631836 L10.5913086,13.2631836 Z" id="opaque"></path>
        </g>
        <g id="light" fill="#000000" fill-rule="nonzero">
            <path d="M10.5913086,13.2631836 C10.9150391,13.2631836 11.1625977,13.0600586 11.1625977,12.7299805 C11.1625977,12.40625 10.9150391,12.1904297 10.5913086,12.1904297 L5.17041016,12.1904297 L5.17041016,12.1333008 L8.60449219,7.96923828 C8.76953125,7.76611328 8.85839844,7.56298828 8.85839844,7.35986328 C8.85839844,7.15039062 8.76953125,6.94091797 8.59814453,6.74414062 L5.17675781,2.70703125 L5.17675781,2.64990234 L10.5913086,2.64990234 C10.9213867,2.64990234 11.1689453,2.43408203 11.1689453,2.11035156 C11.1689453,1.78027344 10.9213867,1.57714844 10.5913086,1.57714844 L4.68798828,1.57714844 C4.14208984,1.57714844 3.83740234,1.95166016 3.83740234,2.37060547 C3.83740234,2.58642578 3.91992188,2.81494141 4.08496094,3.00537109 L7.74755859,7.32177734 L7.74755859,7.39160156 L4.07226562,11.8349609 C3.91357422,12.0253906 3.83105469,12.2539062 3.83105469,12.4697266 C3.83105469,12.8886719 4.13574219,13.2631836 4.68164062,13.2631836 L10.5913086,13.2631836 Z" id="opaque"></path>
        </g>
    </g>
</svg>